<svg width="372" height="251" viewBox="0 0 372 251" fill="none" xmlns="http://www.w3.org/2000/svg">
<g filter="url(#filter0_dd_27_50)">
<rect x="1.6311" y="1.0874" width="367.821" height="247.146" rx="17.9061" fill="white"/>
<rect x="2.17476" y="1.63106" width="366.734" height="246.059" rx="17.3624" stroke="#171717" stroke-opacity="0.2" stroke-width="1.08732"/>
<path d="M16.3757 17.6872H17.3893L19.1516 21.9902H19.2164L20.9787 17.6872H21.9923V23.2227H21.1976V19.217H21.1463L19.5137 23.2145H18.8542L17.2217 19.2143H17.1704V23.2227H16.3757V17.6872ZM24.8904 23.3064C24.5012 23.3064 24.1615 23.2173 23.8714 23.0389C23.5813 22.8605 23.3561 22.6109 23.1957 22.2902C23.0353 21.9694 22.9552 21.5946 22.9552 21.1658C22.9552 20.7351 23.0353 20.3585 23.1957 20.036C23.3561 19.7134 23.5813 19.463 23.8714 19.2846C24.1615 19.1062 24.5012 19.017 24.8904 19.017C25.2796 19.017 25.6193 19.1062 25.9094 19.2846C26.1995 19.463 26.4247 19.7134 26.5851 20.036C26.7455 20.3585 26.8257 20.7351 26.8257 21.1658C26.8257 21.5946 26.7455 21.9694 26.5851 22.2902C26.4247 22.6109 26.1995 22.8605 25.9094 23.0389C25.6193 23.2173 25.2796 23.3064 24.8904 23.3064ZM24.8931 22.628C25.1454 22.628 25.3544 22.5614 25.5202 22.428C25.6859 22.2947 25.8085 22.1172 25.8878 21.8956C25.9688 21.6739 26.0094 21.4298 26.0094 21.1631C26.0094 20.8982 25.9688 20.6549 25.8878 20.4333C25.8085 20.2099 25.6859 20.0306 25.5202 19.8954C25.3544 19.7603 25.1454 19.6927 24.8931 19.6927C24.639 19.6927 24.4282 19.7603 24.2606 19.8954C24.0949 20.0306 23.9714 20.2099 23.8903 20.4333C23.8111 20.6549 23.7714 20.8982 23.7714 21.1631C23.7714 21.4298 23.8111 21.6739 23.8903 21.8956C23.9714 22.1172 24.0949 22.2947 24.2606 22.428C24.4282 22.5614 24.639 22.628 24.8931 22.628ZM30.8387 20.0846L30.1062 20.2144C30.0756 20.1207 30.027 20.0315 29.9603 19.9468C29.8954 19.8621 29.8071 19.7927 29.6954 19.7387C29.5837 19.6846 29.444 19.6576 29.2765 19.6576C29.0476 19.6576 28.8566 19.7089 28.7035 19.8116C28.5503 19.9126 28.4737 20.0432 28.4737 20.2036C28.4737 20.3423 28.5251 20.454 28.6278 20.5387C28.7305 20.6234 28.8963 20.6928 29.1251 20.7468L29.7846 20.8982C30.1666 20.9865 30.4513 21.1225 30.6387 21.3063C30.8261 21.4901 30.9198 21.7289 30.9198 22.0226C30.9198 22.2712 30.8477 22.4929 30.7036 22.6875C30.5612 22.8803 30.3621 23.0317 30.1062 23.1416C29.8522 23.2515 29.5576 23.3064 29.2224 23.3064C28.7575 23.3064 28.3782 23.2073 28.0845 23.0091C27.7908 22.8091 27.6106 22.5253 27.5439 22.1577L28.3251 22.0388C28.3737 22.2424 28.4737 22.3965 28.6251 22.501C28.7764 22.6037 28.9738 22.6551 29.217 22.6551C29.4819 22.6551 29.6936 22.6001 29.8522 22.4902C30.0107 22.3785 30.09 22.2424 30.09 22.082C30.09 21.9523 30.0414 21.8433 29.9441 21.755C29.8486 21.6667 29.7017 21.6 29.5035 21.555L28.8008 21.4009C28.4134 21.3126 28.1269 21.1721 27.9413 20.9793C27.7575 20.7865 27.6656 20.5423 27.6656 20.2468C27.6656 20.0017 27.734 19.7873 27.871 19.6035C28.0079 19.4197 28.1971 19.2765 28.4386 19.1738C28.68 19.0693 28.9566 19.017 29.2684 19.017C29.717 19.017 30.0702 19.1143 30.3279 19.3089C30.5856 19.5017 30.7558 19.7603 30.8387 20.0846ZM33.7463 19.0711V19.7197H31.4786V19.0711H33.7463ZM32.0868 18.0764H32.8949V22.0037C32.8949 22.1604 32.9183 22.2785 32.9652 22.3577C33.012 22.4352 33.0724 22.4884 33.1463 22.5172C33.222 22.5442 33.304 22.5578 33.3923 22.5578C33.4571 22.5578 33.5139 22.5532 33.5625 22.5442C33.6112 22.5352 33.649 22.528 33.6761 22.5226L33.822 23.1902C33.7752 23.2082 33.7085 23.2263 33.622 23.2443C33.5355 23.2641 33.4274 23.2749 33.2977 23.2767C33.085 23.2803 32.8868 23.2425 32.703 23.1632C32.5192 23.0839 32.3706 22.9614 32.2571 22.7956C32.1435 22.6298 32.0868 22.4217 32.0868 22.1712V18.0764ZM36.7195 23.2227V17.6872H40.1899V18.4062H37.5547V20.0927H40.0089V20.809H37.5547V22.5037H40.2224V23.2227H36.7195ZM41.8786 19.0711L42.7948 20.6874L43.7192 19.0711H44.603L43.3084 21.1469L44.6138 23.2227H43.73L42.7948 21.6712L41.8623 23.2227H40.9758L42.2678 21.1469L40.992 19.0711H41.8786ZM45.4328 24.7795V19.0711H46.2221V19.7441H46.2896C46.3365 19.6576 46.404 19.5576 46.4923 19.4441C46.5806 19.3305 46.7032 19.2314 46.8599 19.1467C47.0167 19.0603 47.2239 19.017 47.4816 19.017C47.8167 19.017 48.1159 19.1017 48.3789 19.2711C48.642 19.4405 48.8483 19.6846 48.9979 20.0036C49.1492 20.3225 49.2249 20.7063 49.2249 21.155C49.2249 21.6036 49.1501 21.9884 49.0006 22.3091C48.851 22.628 48.6456 22.874 48.3843 23.047C48.1231 23.2182 47.8248 23.3037 47.4897 23.3037C47.2374 23.3037 47.0311 23.2614 46.8707 23.1767C46.7122 23.092 46.5878 22.9929 46.4977 22.8794C46.4076 22.7659 46.3383 22.665 46.2896 22.5767H46.241V24.7795H45.4328ZM46.2248 21.1469C46.2248 21.4388 46.2671 21.6946 46.3518 21.9145C46.4365 22.1343 46.559 22.3064 46.7194 22.4307C46.8797 22.5532 47.0762 22.6145 47.3086 22.6145C47.5501 22.6145 47.7519 22.5505 47.914 22.4226C48.0762 22.2929 48.1987 22.1172 48.2816 21.8956C48.3663 21.6739 48.4087 21.4244 48.4087 21.1469C48.4087 20.873 48.3672 20.627 48.2843 20.409C48.2032 20.1909 48.0807 20.0189 47.9167 19.8927C47.7546 19.7666 47.5519 19.7035 47.3086 19.7035C47.0744 19.7035 46.8761 19.7639 46.714 19.8846C46.5536 20.0054 46.432 20.1738 46.3491 20.3901C46.2662 20.6063 46.2248 20.8586 46.2248 21.1469ZM51.9197 23.3064C51.5106 23.3064 51.1584 23.2191 50.8629 23.0443C50.5692 22.8677 50.3421 22.6199 50.1817 22.301C50.0232 21.9802 49.9439 21.6045 49.9439 21.1739C49.9439 20.7486 50.0232 20.3738 50.1817 20.0495C50.3421 19.7252 50.5655 19.472 50.8521 19.29C51.1404 19.108 51.4773 19.017 51.8629 19.017C52.0972 19.017 52.3242 19.0557 52.544 19.1332C52.7639 19.2107 52.9612 19.3323 53.136 19.4981C53.3108 19.6639 53.4486 19.8792 53.5495 20.1441C53.6504 20.4072 53.7009 20.727 53.7009 21.1036V21.3901H50.4007V20.7847H52.9089C52.9089 20.5721 52.8657 20.3838 52.7792 20.2198C52.6927 20.054 52.5711 19.9234 52.4143 19.8279C52.2593 19.7324 52.0773 19.6846 51.8683 19.6846C51.6413 19.6846 51.4431 19.7405 51.2737 19.8522C51.1061 19.9621 50.9764 20.1063 50.8845 20.2846C50.7944 20.4612 50.7493 20.6531 50.7493 20.8604V21.3334C50.7493 21.6109 50.798 21.8469 50.8953 22.0415C50.9944 22.2361 51.1322 22.3848 51.3088 22.4875C51.4854 22.5884 51.6917 22.6388 51.9278 22.6388C52.081 22.6388 52.2206 22.6172 52.3467 22.574C52.4729 22.5289 52.5819 22.4623 52.6738 22.374C52.7657 22.2857 52.836 22.1766 52.8846 22.0469L53.6495 22.1848C53.5882 22.41 53.4783 22.6073 53.3198 22.7767C53.163 22.9443 52.9657 23.0749 52.7278 23.1686C52.4918 23.2605 52.2224 23.3064 51.9197 23.3064ZM55.4057 20.7576V23.2227H54.5975V19.0711H55.3733V19.7468H55.4246C55.5201 19.5269 55.6697 19.3504 55.8733 19.217C56.0787 19.0837 56.3373 19.017 56.649 19.017C56.9319 19.017 57.1797 19.0765 57.3923 19.1954C57.6049 19.3125 57.7698 19.4873 57.8869 19.7197C58.004 19.9522 58.0626 20.2396 58.0626 20.582V23.2227H57.2545V20.6793C57.2545 20.3783 57.1761 20.1432 57.0193 19.9738C56.8625 19.8026 56.6472 19.717 56.3733 19.717C56.1859 19.717 56.0192 19.7576 55.8733 19.8387C55.7291 19.9198 55.6147 20.0387 55.53 20.1955C55.4471 20.3504 55.4057 20.5378 55.4057 20.7576ZM62.2574 20.0846L61.525 20.2144C61.4943 20.1207 61.4457 20.0315 61.379 19.9468C61.3141 19.8621 61.2259 19.7927 61.1141 19.7387C61.0024 19.6846 60.8628 19.6576 60.6952 19.6576C60.4663 19.6576 60.2753 19.7089 60.1222 19.8116C59.969 19.9126 59.8924 20.0432 59.8924 20.2036C59.8924 20.3423 59.9438 20.454 60.0465 20.5387C60.1492 20.6234 60.315 20.6928 60.5438 20.7468L61.2033 20.8982C61.5853 20.9865 61.87 21.1225 62.0574 21.3063C62.2448 21.4901 62.3385 21.7289 62.3385 22.0226C62.3385 22.2712 62.2665 22.4929 62.1223 22.6875C61.9799 22.8803 61.7808 23.0317 61.525 23.1416C61.2709 23.2515 60.9763 23.3064 60.6411 23.3064C60.1762 23.3064 59.7969 23.2073 59.5032 23.0091C59.2095 22.8091 59.0293 22.5253 58.9627 22.1577L59.7438 22.0388C59.7924 22.2424 59.8924 22.3965 60.0438 22.501C60.1952 22.6037 60.3925 22.6551 60.6357 22.6551C60.9006 22.6551 61.1123 22.6001 61.2709 22.4902C61.4295 22.3785 61.5088 22.2424 61.5088 22.082C61.5088 21.9523 61.4601 21.8433 61.3628 21.755C61.2673 21.6667 61.1204 21.6 60.9222 21.555L60.2195 21.4009C59.8321 21.3126 59.5456 21.1721 59.36 20.9793C59.1762 20.7865 59.0843 20.5423 59.0843 20.2468C59.0843 20.0017 59.1528 19.7873 59.2897 19.6035C59.4266 19.4197 59.6158 19.2765 59.8573 19.1738C60.0988 19.0693 60.3754 19.017 60.6871 19.017C61.1358 19.017 61.4889 19.1143 61.7466 19.3089C62.0043 19.5017 62.1746 19.7603 62.2574 20.0846ZM63.2271 23.2227V19.0711H64.0352V23.2227H63.2271ZM63.6352 18.4305C63.4947 18.4305 63.3739 18.3836 63.273 18.2899C63.1739 18.1944 63.1244 18.0809 63.1244 17.9494C63.1244 17.816 63.1739 17.7025 63.273 17.6088C63.3739 17.5133 63.4947 17.4656 63.6352 17.4656C63.7758 17.4656 63.8956 17.5133 63.9947 17.6088C64.0956 17.7025 64.1461 17.816 64.1461 17.9494C64.1461 18.0809 64.0956 18.1944 63.9947 18.2899C63.8956 18.3836 63.7758 18.4305 63.6352 18.4305ZM68.674 19.0711L67.1685 23.2227H66.3036L64.7954 19.0711H65.663L66.7145 22.2658H66.7577L67.8064 19.0711H68.674ZM71.0816 23.3064C70.6726 23.3064 70.3203 23.2191 70.0248 23.0443C69.7311 22.8677 69.504 22.6199 69.3437 22.301C69.1851 21.9802 69.1058 21.6045 69.1058 21.1739C69.1058 20.7486 69.1851 20.3738 69.3437 20.0495C69.504 19.7252 69.7275 19.472 70.014 19.29C70.3023 19.108 70.6392 19.017 71.0248 19.017C71.2591 19.017 71.4861 19.0557 71.706 19.1332C71.9258 19.2107 72.1231 19.3323 72.2979 19.4981C72.4727 19.6639 72.6105 19.8792 72.7114 20.1441C72.8123 20.4072 72.8628 20.727 72.8628 21.1036V21.3901H69.5626V20.7847H72.0708C72.0708 20.5721 72.0276 20.3838 71.9411 20.2198C71.8546 20.054 71.733 19.9234 71.5762 19.8279C71.4213 19.7324 71.2393 19.6846 71.0302 19.6846C70.8032 19.6846 70.605 19.7405 70.4356 19.8522C70.268 19.9621 70.1383 20.1063 70.0464 20.2846C69.9563 20.4612 69.9113 20.6531 69.9113 20.8604V21.3334C69.9113 21.6109 69.9599 21.8469 70.0572 22.0415C70.1563 22.2361 70.2942 22.3848 70.4708 22.4875C70.6473 22.5884 70.8537 22.6388 71.0897 22.6388C71.2429 22.6388 71.3825 22.6172 71.5087 22.574C71.6348 22.5289 71.7438 22.4623 71.8357 22.374C71.9276 22.2857 71.9979 22.1766 72.0465 22.0469L72.8114 22.1848C72.7502 22.41 72.6403 22.6073 72.4817 22.7767C72.3249 22.9443 72.1276 23.0749 71.8898 23.1686C71.6537 23.2605 71.3843 23.3064 71.0816 23.3064ZM75.8386 17.6872H76.8522L78.6145 21.9902H78.6793L80.4416 17.6872H81.4552V23.2227H80.6605V19.217H80.6092L78.9767 23.2145H78.3172L76.6846 19.2143H76.6333V23.2227H75.8386V17.6872ZM84.3533 23.3064C83.9641 23.3064 83.6244 23.2173 83.3343 23.0389C83.0442 22.8605 82.819 22.6109 82.6586 22.2902C82.4983 21.9694 82.4181 21.5946 82.4181 21.1658C82.4181 20.7351 82.4983 20.3585 82.6586 20.036C82.819 19.7134 83.0442 19.463 83.3343 19.2846C83.6244 19.1062 83.9641 19.017 84.3533 19.017C84.7425 19.017 85.0822 19.1062 85.3723 19.2846C85.6624 19.463 85.8876 19.7134 86.048 20.036C86.2084 20.3585 86.2886 20.7351 86.2886 21.1658C86.2886 21.5946 86.2084 21.9694 86.048 22.2902C85.8876 22.6109 85.6624 22.8605 85.3723 23.0389C85.0822 23.2173 84.7425 23.3064 84.3533 23.3064ZM84.356 22.628C84.6083 22.628 84.8173 22.5614 84.9831 22.428C85.1489 22.2947 85.2714 22.1172 85.3507 21.8956C85.4318 21.6739 85.4723 21.4298 85.4723 21.1631C85.4723 20.8982 85.4318 20.6549 85.3507 20.4333C85.2714 20.2099 85.1489 20.0306 84.9831 19.8954C84.8173 19.7603 84.6083 19.6927 84.356 19.6927C84.102 19.6927 83.8911 19.7603 83.7236 19.8954C83.5578 20.0306 83.4343 20.2099 83.3533 20.4333C83.274 20.6549 83.2343 20.8982 83.2343 21.1631C83.2343 21.4298 83.274 21.6739 83.3533 21.8956C83.4343 22.1172 83.5578 22.2947 83.7236 22.428C83.8911 22.5614 84.102 22.628 84.356 22.628ZM88.7448 23.3037C88.4096 23.3037 88.1105 23.2182 87.8474 23.047C87.5862 22.874 87.3808 22.628 87.2312 22.3091C87.0834 21.9884 87.0096 21.6036 87.0096 21.155C87.0096 20.7063 87.0843 20.3225 87.2339 20.0036C87.3853 19.6846 87.5925 19.4405 87.8556 19.2711C88.1186 19.1017 88.4168 19.017 88.7502 19.017C89.0079 19.017 89.2151 19.0603 89.3719 19.1467C89.5304 19.2314 89.653 19.3305 89.7394 19.4441C89.8277 19.5576 89.8962 19.6576 89.9449 19.7441H89.9935V17.6872H90.8017V23.2227H90.0124V22.5767H89.9449C89.8962 22.665 89.8259 22.7659 89.734 22.8794C89.6439 22.9929 89.5196 23.092 89.361 23.1767C89.2025 23.2614 88.9971 23.3037 88.7448 23.3037ZM88.9232 22.6145C89.1556 22.6145 89.352 22.5532 89.5124 22.4307C89.6746 22.3064 89.7971 22.1343 89.88 21.9145C89.9647 21.6946 90.007 21.4388 90.007 21.1469C90.007 20.8586 89.9656 20.6063 89.8827 20.3901C89.7998 20.1738 89.6782 20.0054 89.5178 19.8846C89.3574 19.7639 89.1592 19.7035 88.9232 19.7035C88.6799 19.7035 88.4772 19.7666 88.315 19.8927C88.1529 20.0189 88.0303 20.1909 87.9475 20.409C87.8664 20.627 87.8258 20.873 87.8258 21.1469C87.8258 21.4244 87.8673 21.6739 87.9502 21.8956C88.033 22.1172 88.1556 22.2929 88.3177 22.4226C88.4817 22.5505 88.6835 22.6145 88.9232 22.6145ZM93.7444 23.3064C93.3354 23.3064 92.9831 23.2191 92.6876 23.0443C92.3939 22.8677 92.1668 22.6199 92.0065 22.301C91.8479 21.9802 91.7686 21.6045 91.7686 21.1739C91.7686 20.7486 91.8479 20.3738 92.0065 20.0495C92.1668 19.7252 92.3903 19.472 92.6768 19.29C92.9651 19.108 93.302 19.017 93.6877 19.017C93.9219 19.017 94.1489 19.0557 94.3688 19.1332C94.5886 19.2107 94.7859 19.3323 94.9607 19.4981C95.1355 19.6639 95.2733 19.8792 95.3742 20.1441C95.4751 20.4072 95.5256 20.727 95.5256 21.1036V21.3901H92.2254V20.7847H94.7337C94.7337 20.5721 94.6904 20.3838 94.6039 20.2198C94.5174 20.054 94.3958 19.9234 94.239 19.8279C94.0841 19.7324 93.9021 19.6846 93.6931 19.6846C93.466 19.6846 93.2678 19.7405 93.0984 19.8522C92.9308 19.9621 92.8011 20.1063 92.7092 20.2846C92.6191 20.4612 92.5741 20.6531 92.5741 20.8604V21.3334C92.5741 21.6109 92.6227 21.8469 92.72 22.0415C92.8191 22.2361 92.957 22.3848 93.1336 22.4875C93.3102 22.5884 93.5165 22.6388 93.7525 22.6388C93.9057 22.6388 94.0453 22.6172 94.1715 22.574C94.2976 22.5289 94.4066 22.4623 94.4985 22.374C94.5904 22.2857 94.6607 22.1766 94.7093 22.0469L95.4742 22.1848C95.413 22.41 95.3031 22.6073 95.1445 22.7767C94.9877 22.9443 94.7904 23.0749 94.5526 23.1686C94.3165 23.2605 94.0471 23.3064 93.7444 23.3064ZM97.2304 17.6872V23.2227H96.4223V17.6872H97.2304Z" fill="#737373"/>
<path d="M22.8846 37.15C22.8197 36.9245 22.7286 36.7253 22.6112 36.5523C22.4938 36.3762 22.3502 36.228 22.1803 36.1075C22.0135 35.9839 21.822 35.8897 21.6058 35.8249C21.3926 35.76 21.1563 35.7275 20.8968 35.7275C20.4119 35.7275 19.9856 35.848 19.618 36.089C19.2535 36.3299 18.9693 36.6805 18.7654 37.1408C18.5616 37.5979 18.4596 38.157 18.4596 38.8181C18.4596 39.4791 18.56 40.0413 18.7608 40.5047C18.9616 40.968 19.2458 41.3217 19.6134 41.5657C19.981 41.8067 20.415 41.9271 20.9154 41.9271C21.3694 41.9271 21.7571 41.8468 22.0784 41.6862C22.4027 41.5225 22.6498 41.2924 22.8197 40.9958C22.9927 40.6993 23.0792 40.3487 23.0792 39.944L23.4869 40.0042H21.0405V38.4937H25.0114V39.6892C25.0114 40.5232 24.8353 41.2398 24.4831 41.8391C24.131 42.4353 23.646 42.8955 23.0282 43.2199C22.4104 43.5411 21.7031 43.7018 20.9061 43.7018C20.0165 43.7018 19.235 43.5056 18.5616 43.1133C17.8882 42.7179 17.363 42.1573 16.9862 41.4314C16.6124 40.7024 16.4255 39.8374 16.4255 38.8366C16.4255 38.0675 16.5367 37.3817 16.7591 36.7793C16.9846 36.1739 17.2997 35.6611 17.7044 35.241C18.109 34.8209 18.5801 34.5012 19.1176 34.2819C19.6551 34.0626 20.2373 33.9529 20.8644 33.9529C21.4019 33.9529 21.9023 34.0317 22.3656 34.1892C22.829 34.3437 23.2398 34.563 23.5982 34.8472C23.9596 35.1314 24.2546 35.4696 24.4831 35.8619C24.7117 36.2511 24.8585 36.6805 24.9233 37.15H22.8846ZM26.1922 43.572V34.0827H29.936C30.6558 34.0827 31.2689 34.2201 31.7755 34.495C32.2821 34.7669 32.6683 35.1453 32.9339 35.6302C33.2026 36.1121 33.337 36.6681 33.337 37.2983C33.337 37.9284 33.2011 38.4845 32.9293 38.9663C32.6574 39.4482 32.2636 39.8235 31.7477 40.0923C31.235 40.361 30.6141 40.4954 29.8851 40.4954H27.4988V38.8876H29.5607C29.9469 38.8876 30.265 38.8212 30.5152 38.6883C30.7685 38.5524 30.957 38.3655 31.0805 38.1277C31.2072 37.8867 31.2705 37.6103 31.2705 37.2983C31.2705 36.9832 31.2072 36.7083 31.0805 36.4735C30.957 36.2357 30.7685 36.0519 30.5152 35.9222C30.2619 35.7893 29.9407 35.7229 29.5515 35.7229H28.1985V43.572H26.1922ZM33.9526 35.7368V34.0827H41.7461V35.7368H38.8409V43.572H36.8578V35.7368H33.9526ZM46.7055 38.0443V39.6104H42.3779V38.0443H46.7055ZM47.8991 41.904V40.324L51.8607 34.0827H53.223V36.2697H52.4167L49.9193 40.222V40.2962H55.549V41.904H47.8991ZM52.4538 43.572V41.4221L52.4909 40.7224V34.0827H54.3721V43.572H52.4538ZM57.5534 43.6925C57.2476 43.6925 56.985 43.5844 56.7657 43.3681C56.5495 43.1488 56.4414 42.8863 56.4414 42.5805C56.4414 42.2777 56.5495 42.0183 56.7657 41.802C56.985 41.5858 57.2476 41.4777 57.5534 41.4777C57.85 41.4777 58.1094 41.5858 58.3318 41.802C58.5542 42.0183 58.6654 42.2777 58.6654 42.5805C58.6654 42.7843 58.6129 42.9712 58.5079 43.1411C58.406 43.3079 58.2716 43.4423 58.1048 43.5442C57.938 43.6431 57.7542 43.6925 57.5534 43.6925ZM63.2797 43.7805C62.4827 43.7774 61.797 43.5813 61.2224 43.1921C60.651 42.8029 60.2108 42.2391 59.9019 41.5009C59.5961 40.7626 59.4447 39.8745 59.4478 38.8366C59.4478 37.8018 59.6007 36.9199 59.9065 36.1909C60.2154 35.4619 60.6556 34.9074 61.2271 34.5275C61.8016 34.1444 62.4858 33.9529 63.2797 33.9529C64.0736 33.9529 64.7562 34.1444 65.3277 34.5275C65.9022 34.9105 66.344 35.4665 66.6529 36.1955C66.9618 36.9214 67.1147 37.8018 67.1116 38.8366C67.1116 39.8776 66.9571 40.7672 66.6482 41.5055C66.3424 42.2438 65.9038 42.8075 65.3323 43.1967C64.7609 43.5859 64.0766 43.7805 63.2797 43.7805ZM63.2797 42.1171C63.8233 42.1171 64.2574 41.8437 64.5817 41.297C64.906 40.7502 65.0667 39.9301 65.0636 38.8366C65.0636 38.1169 64.9894 37.5176 64.8412 37.0388C64.696 36.56 64.489 36.2002 64.2203 35.9592C63.9546 35.7183 63.6411 35.5978 63.2797 35.5978C62.7391 35.5978 62.3067 35.8681 61.9823 36.4087C61.658 36.9492 61.4943 37.7586 61.4912 38.8366C61.4912 39.5656 61.5638 40.1741 61.7089 40.6622C61.8572 41.1472 62.0657 41.5117 62.3345 41.7557C62.6032 41.9966 62.9183 42.1171 63.2797 42.1171Z" fill="#0A0A0A"/>
<g clip-path="url(#clip0_27_50)">
<g clip-path="url(#clip1_27_50)">
<path d="M351.469 29.9744C351.65 29.4365 351.743 28.8733 351.743 28.3064C351.743 27.3684 351.49 26.4472 351.009 25.6378C350.044 23.9799 348.253 22.9564 346.315 22.9564C345.934 22.9564 345.553 22.9962 345.18 23.0751C344.678 22.5169 344.061 22.0701 343.371 21.764C342.681 21.4581 341.934 21.2998 341.177 21.2998H341.143L341.13 21.2999C338.783 21.2999 336.702 22.7943 335.98 24.9973C335.233 25.1483 334.528 25.4549 333.911 25.8966C333.294 26.3384 332.779 26.9052 332.402 27.559C331.923 28.3733 331.671 29.2981 331.671 30.2396C331.671 31.5628 332.169 32.8389 333.068 33.8207C332.886 34.3586 332.794 34.9218 332.794 35.4887C332.794 36.4267 333.047 37.3478 333.527 38.1573C334.098 39.1387 334.971 39.9157 336.019 40.3763C337.066 40.8368 338.235 40.9571 339.357 40.72C339.859 41.2782 340.475 41.7249 341.165 42.0309C341.855 42.3369 342.603 42.4953 343.359 42.4953H343.393H343.407C345.756 42.4953 347.836 41.0007 348.558 38.7957C349.305 38.6447 350.01 38.3381 350.627 37.8963C351.245 37.4545 351.759 36.8878 352.136 36.234C352.614 35.4203 352.866 34.4964 352.866 33.5557C352.866 32.2325 352.368 30.9565 351.469 29.9747L351.469 29.9744ZM343.395 41.1096H343.389C342.449 41.1094 341.54 40.784 340.818 40.1903C340.861 40.1675 340.903 40.1439 340.945 40.1194L345.222 37.6816C345.329 37.6217 345.417 37.5349 345.479 37.4301C345.541 37.3254 345.573 37.2064 345.574 37.0852V31.1314L347.381 32.1614C347.391 32.1661 347.399 32.173 347.405 32.1815C347.411 32.19 347.415 32.1999 347.417 32.2103V37.1375C347.414 39.3282 345.615 41.1051 343.395 41.1096ZM334.745 37.4647C334.392 36.862 334.206 36.178 334.206 35.4817C334.206 35.2546 334.226 35.027 334.265 34.8032C334.297 34.822 334.352 34.8554 334.392 34.878L338.669 37.3157C338.776 37.3771 338.897 37.4095 339.021 37.4095C339.144 37.4094 339.265 37.377 339.372 37.3155L344.594 34.3405V36.4005L344.594 36.404C344.594 36.414 344.592 36.4237 344.587 36.4326C344.583 36.4415 344.576 36.4492 344.568 36.4552L340.244 38.9184C339.633 39.2658 338.939 39.4489 338.233 39.4491C337.527 39.4489 336.832 39.2656 336.22 38.9172C335.608 38.5689 335.1 38.0679 334.745 37.4645V37.4647ZM333.62 28.2516C334.09 27.4465 334.832 26.83 335.716 26.5101C335.716 26.5465 335.714 26.6108 335.714 26.6555V31.531L335.714 31.535C335.714 31.6561 335.746 31.775 335.808 31.8796C335.869 31.9843 335.958 32.071 336.065 32.1309L341.287 35.1055L339.479 36.1355C339.47 36.1413 339.46 36.1448 339.449 36.1458C339.438 36.1467 339.428 36.1451 339.418 36.141L335.094 33.6757C334.482 33.3263 333.975 32.8245 333.622 32.2206C333.269 31.6166 333.083 30.9318 333.083 30.2348C333.084 29.5388 333.269 28.8551 333.62 28.2518L333.62 28.2516ZM348.474 31.6621L343.252 28.6871L345.059 27.6575C345.068 27.6516 345.079 27.6481 345.089 27.6471C345.1 27.6462 345.111 27.6479 345.12 27.652L349.445 30.1152C350.056 30.4641 350.564 30.9656 350.918 31.5695C351.271 32.1733 351.457 32.8582 351.457 33.5554C351.457 35.2196 350.405 36.7086 348.822 37.2834V32.2621C348.823 32.2603 348.823 32.2583 348.823 32.2565C348.822 32.1359 348.79 32.0174 348.729 31.913C348.668 31.8087 348.58 31.7221 348.474 31.6621ZM350.273 28.9899C350.231 28.9645 350.189 28.9396 350.146 28.9152L345.869 26.4774C345.762 26.4161 345.641 26.3838 345.517 26.3837C345.394 26.3838 345.273 26.4161 345.166 26.4774L339.944 29.4525V27.3925L339.944 27.3889C339.944 27.3688 339.954 27.3498 339.97 27.3378L344.294 24.8766C344.905 24.5287 345.599 24.3456 346.305 24.3455C348.528 24.3455 350.331 26.1244 350.331 28.318C350.331 28.5431 350.311 28.7678 350.273 28.9897V28.9899ZM338.961 32.6615L337.153 31.6316C337.144 31.6269 337.135 31.62 337.129 31.6114C337.123 31.6029 337.119 31.593 337.118 31.5827V26.6554C337.119 24.463 338.922 22.6855 341.144 22.6855C342.085 22.6858 342.996 23.0111 343.72 23.6051C343.687 23.6226 343.631 23.6535 343.593 23.6761L339.316 26.1138C339.209 26.1737 339.12 26.2604 339.059 26.3651C338.997 26.4699 338.964 26.5888 338.964 26.71V26.7139L338.961 32.6615ZM339.943 30.5724L342.269 29.2469L344.595 30.5715V33.2215L342.269 34.5461L339.943 33.2215V30.5724Z" fill="black"/>
</g>
</g>
<path d="M21.7021 81.3986V63.6061H22.8419V81.3986H21.7021ZM24.7254 69.479C24.6698 68.9184 24.4312 68.4828 24.0096 68.1724C23.5879 67.8619 23.0157 67.7067 22.2929 67.7067C21.8017 67.7067 21.387 67.7762 21.0488 67.9152C20.7105 68.0496 20.451 68.2373 20.2703 68.4782C20.0943 68.7191 20.0062 68.9925 20.0062 69.2983C19.997 69.5532 20.0502 69.7756 20.1661 69.9655C20.2866 70.1555 20.451 70.32 20.6596 70.459C20.8681 70.5934 21.109 70.7115 21.3824 70.8135C21.6557 70.9108 21.9477 70.9942 22.2581 71.0637L23.5369 71.3695C24.1578 71.5085 24.7277 71.6938 25.2467 71.9255C25.7656 72.1572 26.2151 72.4421 26.595 72.7804C26.975 73.1186 27.2692 73.5171 27.4777 73.9758C27.6908 74.4345 27.7997 74.9604 27.8044 75.5535C27.7997 76.4246 27.5773 77.1799 27.1371 77.8193C26.7016 78.4541 26.0714 78.9475 25.2467 79.2997C24.4266 79.6472 23.4373 79.8209 22.2789 79.8209C21.1298 79.8209 20.129 79.6449 19.2765 79.2927C18.4285 78.9406 17.7659 78.4193 17.2887 77.7289C16.8161 77.0339 16.5682 76.1744 16.545 75.1504H19.4572C19.4896 75.6276 19.6263 76.0261 19.8672 76.3458C20.1128 76.6609 20.4395 76.8995 20.8472 77.0617C21.2596 77.2192 21.7252 77.298 22.2442 77.298C22.7539 77.298 23.1964 77.2239 23.5717 77.0756C23.9516 76.9273 24.2459 76.7211 24.4544 76.457C24.6629 76.1929 24.7671 75.8894 24.7671 75.5466C24.7671 75.2269 24.6721 74.9581 24.4822 74.7403C24.2968 74.5226 24.0235 74.3372 23.662 74.1843C23.3053 74.0314 22.8674 73.8924 22.3485 73.7673L20.7986 73.3781C19.5985 73.0862 18.6509 72.6298 17.9559 72.0089C17.2609 71.388 16.9157 70.5517 16.9203 69.4999C16.9157 68.6381 17.1451 67.8851 17.6084 67.2411C18.0764 66.597 18.7181 66.0943 19.5336 65.7329C20.3491 65.3715 21.2758 65.1907 22.3137 65.1907C23.3701 65.1907 24.2922 65.3715 25.0799 65.7329C25.8722 66.0943 26.4885 66.597 26.9286 67.2411C27.3688 67.8851 27.5959 68.6311 27.6098 69.479H24.7254ZM35.9379 65.3854V79.6194H32.9284V68.2419H32.845L29.5854 70.2853V67.6164L33.1091 65.3854H35.9379ZM44.5196 79.814C43.5373 79.814 42.6616 79.6333 41.8924 79.2719C41.1279 78.9105 40.5209 78.4124 40.0715 77.7776C39.622 77.1428 39.3881 76.4153 39.3695 75.5952H42.2886C42.321 76.1466 42.5527 76.5937 42.9836 76.9366C43.4145 77.2795 43.9265 77.4509 44.5196 77.4509C44.9922 77.4509 45.4093 77.3467 45.7707 77.1382C46.1367 76.925 46.4217 76.6308 46.6255 76.2555C46.834 75.8755 46.9383 75.44 46.9383 74.9488C46.9383 74.4484 46.8317 74.0082 46.6186 73.6283C46.4101 73.2484 46.1205 72.9518 45.7498 72.7387C45.3791 72.5255 44.9552 72.4166 44.4779 72.412C44.0609 72.412 43.6555 72.4977 43.2616 72.6692C42.8724 72.8406 42.5689 73.0746 42.3512 73.3711L39.6753 72.8916L40.3495 65.3854H49.0512V67.8457H42.8307L42.4624 71.4112H42.5458C42.796 71.059 43.1736 70.7671 43.6786 70.5355C44.1837 70.3038 44.749 70.1879 45.3745 70.1879C46.2317 70.1879 46.9962 70.3895 47.6681 70.7926C48.3399 71.1957 48.8705 71.7494 49.2597 72.4537C49.6489 73.1534 49.8412 73.9596 49.8365 74.8724C49.8412 75.8315 49.6188 76.6841 49.1693 77.4301C48.7245 78.1714 48.1013 78.7552 47.2997 79.1815C46.5028 79.6032 45.5761 79.814 44.5196 79.814ZM54.7225 77.6733L54.6461 78.4378C54.5858 79.0495 54.47 79.6588 54.2986 80.2658C54.1318 80.8774 53.9557 81.4311 53.7704 81.9269C53.5897 82.4226 53.4437 82.8118 53.3325 83.0945H51.4142C51.4837 82.8211 51.5787 82.4389 51.6992 81.9477C51.8197 81.4612 51.9332 80.9144 52.0398 80.3075C52.1463 79.7005 52.2135 79.0819 52.2413 78.4517L52.2761 77.6733H54.7225ZM57.4296 79.6194L63.3304 67.943V67.8457H56.4566V65.3854H66.4441V67.8805L60.5364 79.6194H57.4296ZM73.5142 79.814C72.5319 79.814 71.6561 79.6333 70.887 79.2719C70.1225 78.9105 69.5155 78.4124 69.066 77.7776C68.6166 77.1428 68.3826 76.4153 68.3641 75.5952H71.2831C71.3156 76.1466 71.5473 76.5937 71.9782 76.9366C72.4091 77.2795 72.9211 77.4509 73.5142 77.4509C73.9868 77.4509 74.4038 77.3467 74.7652 77.1382C75.1313 76.925 75.4162 76.6308 75.6201 76.2555C75.8286 75.8755 75.9328 75.44 75.9328 74.9488C75.9328 74.4484 75.8263 74.0082 75.6131 73.6283C75.4046 73.2484 75.115 72.9518 74.7444 72.7387C74.3737 72.5255 73.9497 72.4166 73.4725 72.412C73.0555 72.412 72.65 72.4977 72.2562 72.6692C71.867 72.8406 71.5635 73.0746 71.3457 73.3711L68.6699 72.8916L69.344 65.3854H78.0457V67.8457H71.8253L71.4569 71.4112H71.5403C71.7905 71.059 72.1681 70.7671 72.6732 70.5355C73.1782 70.3038 73.7435 70.1879 74.369 70.1879C75.2262 70.1879 75.9908 70.3895 76.6626 70.7926C77.3345 71.1957 77.865 71.7494 78.2542 72.4537C78.6434 73.1534 78.8357 73.9596 78.8311 74.8724C78.8357 75.8315 78.6133 76.6841 78.1639 77.4301C77.719 78.1714 77.0958 78.7552 76.2943 79.1815C75.4973 79.6032 74.5706 79.814 73.5142 79.814ZM86.5111 79.9321C85.3156 79.9275 84.287 79.6333 83.4252 79.0495C82.568 78.4656 81.9077 77.62 81.4444 76.5126C80.9856 75.4052 80.7586 74.0731 80.7632 72.5163C80.7632 70.9641 80.9926 69.6412 81.4513 68.5477C81.9147 67.4542 82.5749 66.6225 83.4321 66.0526C84.2939 65.478 85.3203 65.1907 86.5111 65.1907C87.7019 65.1907 88.7259 65.478 89.5831 66.0526C90.4449 66.6271 91.1075 67.4611 91.5708 68.5546C92.0342 69.6435 92.2635 70.9641 92.2589 72.5163C92.2589 74.0777 92.0272 75.4122 91.5639 76.5196C91.1052 77.627 90.4472 78.4726 89.59 79.0564C88.7328 79.6402 87.7065 79.9321 86.5111 79.9321ZM86.5111 77.437C87.3266 77.437 87.9776 77.027 88.4641 76.2068C88.9506 75.3867 89.1915 74.1565 89.1869 72.5163C89.1869 71.4367 89.0757 70.5378 88.8533 69.8196C88.6355 69.1014 88.3251 68.5616 87.922 68.2002C87.5235 67.8388 87.0532 67.6581 86.5111 67.6581C85.7002 67.6581 85.0515 68.0635 84.565 68.8744C84.0785 69.6852 83.8329 70.8992 83.8283 72.5163C83.8283 73.6098 83.9372 74.5226 84.1549 75.2547C84.3773 75.9821 84.6901 76.5289 85.0932 76.8949C85.4963 77.2563 85.9689 77.437 86.5111 77.437ZM95.5898 79.8001C95.1311 79.8001 94.7372 79.6379 94.4082 79.3136C94.0839 78.9846 93.9217 78.5908 93.9217 78.132C93.9217 77.678 94.0839 77.2887 94.4082 76.9644C94.7372 76.6401 95.1311 76.4779 95.5898 76.4779C96.0346 76.4779 96.4238 76.6401 96.7574 76.9644C97.091 77.2887 97.2578 77.678 97.2578 78.132C97.2578 78.4378 97.1791 78.7182 97.0215 78.973C96.8686 79.2232 96.6671 79.4248 96.4168 79.5777C96.1666 79.726 95.8909 79.8001 95.5898 79.8001ZM99.4454 77.1173V74.7473L105.388 65.3854H107.431V68.6659H106.222L102.476 74.5944V74.7056H110.92V77.1173H99.4454ZM106.277 79.6194V76.3945L106.333 75.345V65.3854H109.155V79.6194H106.277ZM118.124 79.814C117.142 79.814 116.266 79.6333 115.497 79.2719C114.732 78.9105 114.125 78.4124 113.676 77.7776C113.227 77.1428 112.993 76.4153 112.974 75.5952H115.893C115.926 76.1466 116.157 76.5937 116.588 76.9366C117.019 77.2795 117.531 77.4509 118.124 77.4509C118.597 77.4509 119.014 77.3467 119.375 77.1382C119.741 76.925 120.026 76.6308 120.23 76.2555C120.439 75.8755 120.543 75.44 120.543 74.9488C120.543 74.4484 120.436 74.0082 120.223 73.6283C120.015 73.2484 119.725 72.9518 119.354 72.7387C118.984 72.5255 118.56 72.4166 118.082 72.412C117.665 72.412 117.26 72.4977 116.866 72.6692C116.477 72.8406 116.173 73.0746 115.956 73.3711L113.28 72.8916L113.954 65.3854H122.656V67.8457H116.435L116.067 71.4112H116.15C116.4 71.059 116.778 70.7671 117.283 70.5355C117.788 70.3038 118.353 70.1879 118.979 70.1879C119.836 70.1879 120.601 70.3895 121.273 70.7926C121.944 71.1957 122.475 71.7494 122.864 72.4537C123.253 73.1534 123.446 73.9596 123.441 74.8724C123.446 75.8315 123.223 76.6841 122.774 77.4301C122.329 78.1714 121.706 78.7552 120.904 79.1815C120.107 79.6032 119.181 79.814 118.124 79.814Z" fill="#0A0A0A"/>
<path d="M21.5657 91.6565H23.7403V93.8311" stroke="#0A0A0A" stroke-width="0.724881" stroke-linecap="round" stroke-linejoin="round"/>
<path d="M23.7398 91.6565L20.659 94.7372L18.8468 92.925L16.491 95.2809" stroke="#0A0A0A" stroke-width="0.724881" stroke-linecap="round" stroke-linejoin="round"/>
<path d="M28.8103 95.039V91.3847H29.5374V95.039H28.8103ZM27.348 93.574V92.8496H31.0023V93.574H27.348ZM34.0687 96.0444C33.7299 96.0444 33.4254 95.9796 33.1551 95.8498C32.8867 95.7183 32.6722 95.5381 32.5119 95.3093C32.3515 95.0804 32.2659 94.8191 32.2551 94.5254H33.0659C33.0858 94.7633 33.1912 94.9588 33.3822 95.1119C33.5732 95.2651 33.802 95.3417 34.0687 95.3417C34.2813 95.3417 34.4696 95.293 34.6336 95.1957C34.7994 95.0966 34.9291 94.9606 35.0228 94.7876C35.1183 94.6146 35.1661 94.4173 35.1661 94.1957C35.1661 93.9704 35.1174 93.7695 35.0201 93.5929C34.9228 93.4163 34.7886 93.2776 34.6174 93.1767C34.448 93.0758 34.2534 93.0244 34.0336 93.0226C33.866 93.0226 33.6975 93.0515 33.5281 93.1091C33.3588 93.1668 33.2218 93.2425 33.1173 93.3362L32.3524 93.2226L32.6632 90.4333H35.7066V91.1496H33.3579L33.1822 92.6983H33.2146C33.3227 92.5938 33.466 92.5064 33.6444 92.4361C33.8245 92.3658 34.0173 92.3307 34.2228 92.3307C34.5597 92.3307 34.8597 92.4109 35.1228 92.5713C35.3877 92.7316 35.5958 92.9506 35.7472 93.228C35.9003 93.5037 35.976 93.8209 35.9742 94.1795C35.976 94.538 35.8949 94.8579 35.731 95.139C35.5688 95.4201 35.3436 95.6417 35.0552 95.8039C34.7687 95.9642 34.4399 96.0444 34.0687 96.0444ZM37.304 96.0201C37.1563 96.0201 37.0292 95.9678 36.9229 95.8633C36.8166 95.757 36.7635 95.6291 36.7635 95.4795C36.7635 95.3318 36.8166 95.2056 36.9229 95.1011C37.0292 94.9948 37.1563 94.9417 37.304 94.9417C37.4518 94.9417 37.5788 94.9948 37.6851 95.1011C37.7914 95.2056 37.8446 95.3318 37.8446 95.4795C37.8446 95.5786 37.8194 95.6696 37.7689 95.7525C37.7203 95.8336 37.6554 95.8985 37.5743 95.9471C37.4932 95.9958 37.4031 96.0201 37.304 96.0201ZM38.9163 95.9688V95.3633L40.7894 93.4227C40.9894 93.2118 41.1542 93.0271 41.284 92.8686C41.4155 92.7082 41.5137 92.5559 41.5786 92.4118C41.6435 92.2676 41.6759 92.1145 41.6759 91.9523C41.6759 91.7685 41.6327 91.6099 41.5462 91.4766C41.4597 91.3415 41.3416 91.2378 41.1921 91.1658C41.0425 91.0919 40.8741 91.055 40.6867 91.055C40.4884 91.055 40.3155 91.0955 40.1677 91.1766C40.0199 91.2577 39.9064 91.3721 39.8271 91.5198C39.7479 91.6676 39.7082 91.8406 39.7082 92.0388H38.9109C38.9109 91.7018 38.9884 91.4072 39.1433 91.155C39.2983 90.9027 39.5109 90.7072 39.7812 90.5684C40.0515 90.4279 40.3587 90.3576 40.7029 90.3576C41.0506 90.3576 41.357 90.427 41.6218 90.5657C41.8885 90.7027 42.0966 90.8901 42.2462 91.1279C42.3958 91.364 42.4705 91.6307 42.4705 91.928C42.4705 92.1334 42.4318 92.3343 42.3543 92.5307C42.2786 92.7271 42.1462 92.9461 41.957 93.1875C41.7678 93.4272 41.5047 93.7182 41.1678 94.0605L40.0677 95.2119V95.2525H42.5597V95.9688H38.9163ZM46.4735 94.9309V94.6389C46.4735 94.4299 46.5167 94.2389 46.6032 94.0659C46.6915 93.8912 46.8194 93.7515 46.987 93.647C47.1564 93.5407 47.3609 93.4875 47.6006 93.4875C47.8456 93.4875 48.051 93.5398 48.2168 93.6443C48.3826 93.7488 48.5078 93.8884 48.5925 94.0632C48.679 94.238 48.7223 94.4299 48.7223 94.6389V94.9309C48.7223 95.1399 48.679 95.3318 48.5925 95.5066C48.506 95.6795 48.379 95.8192 48.2114 95.9255C48.0456 96.03 47.842 96.0823 47.6006 96.0823C47.3573 96.0823 47.1519 96.03 46.9843 95.9255C46.8167 95.8192 46.6897 95.6795 46.6032 95.5066C46.5167 95.3318 46.4735 95.1399 46.4735 94.9309ZM47.1032 94.6389V94.9309C47.1032 95.0858 47.1402 95.2264 47.2141 95.3525C47.2879 95.4786 47.4168 95.5417 47.6006 95.5417C47.7826 95.5417 47.9096 95.4786 47.9817 95.3525C48.0537 95.2264 48.0898 95.0858 48.0898 94.9309V94.6389C48.0898 94.484 48.0547 94.3434 47.9844 94.2173C47.9159 94.0912 47.788 94.0281 47.6006 94.0281C47.4204 94.0281 47.2924 94.0912 47.2168 94.2173C47.1411 94.3434 47.1032 94.484 47.1032 94.6389ZM43.6895 91.7631V91.4712C43.6895 91.2622 43.7328 91.0703 43.8193 90.8955C43.9076 90.7207 44.0355 90.581 44.2031 90.4765C44.3725 90.372 44.577 90.3198 44.8166 90.3198C45.0617 90.3198 45.2671 90.372 45.4329 90.4765C45.5987 90.581 45.7239 90.7207 45.8086 90.8955C45.8933 91.0703 45.9356 91.2622 45.9356 91.4712V91.7631C45.9356 91.9721 45.8924 92.164 45.8059 92.3388C45.7212 92.5118 45.595 92.6514 45.4275 92.7578C45.2617 92.8623 45.0581 92.9145 44.8166 92.9145C44.5716 92.9145 44.3652 92.8623 44.1977 92.7578C44.0319 92.6514 43.9058 92.5118 43.8193 92.3388C43.7328 92.164 43.6895 91.9721 43.6895 91.7631ZM44.322 91.4712V91.7631C44.322 91.9181 44.358 92.0586 44.4301 92.1847C44.504 92.3109 44.6328 92.3739 44.8166 92.3739C44.9968 92.3739 45.1229 92.3109 45.195 92.1847C45.2689 92.0586 45.3058 91.9181 45.3058 91.7631V91.4712C45.3058 91.3162 45.2707 91.1757 45.2004 91.0495C45.1302 90.9234 45.0022 90.8603 44.8166 90.8603C44.6364 90.8603 44.5085 90.9234 44.4328 91.0495C44.3589 91.1757 44.322 91.3162 44.322 91.4712ZM43.9463 95.9688L47.7519 90.4333H48.3979L44.5923 95.9688H43.9463ZM53.8881 91.8172V92.4658H51.542V91.8172H53.8881ZM52.1853 95.9688V91.336C52.1853 91.0766 52.2421 90.8612 52.3556 90.6901C52.4691 90.5171 52.6196 90.3882 52.807 90.3036C52.9944 90.2171 53.198 90.1738 53.4178 90.1738C53.58 90.1738 53.7187 90.1873 53.834 90.2144C53.9494 90.2396 54.035 90.263 54.0908 90.2846L53.9016 90.9387C53.8638 90.9279 53.8151 90.9153 53.7557 90.9009C53.6962 90.8847 53.6241 90.8766 53.5394 90.8766C53.343 90.8766 53.2025 90.9252 53.1178 91.0225C53.0349 91.1198 52.9935 91.2604 52.9935 91.4442V95.9688H52.1853ZM54.7219 95.9688V91.8172H55.5031V92.4767H55.5463C55.622 92.2532 55.7553 92.0775 55.9463 91.9496C56.1391 91.8199 56.3572 91.755 56.6004 91.755C56.6509 91.755 56.7103 91.7568 56.7788 91.7604C56.8491 91.764 56.904 91.7685 56.9437 91.7739V92.5469C56.9112 92.5379 56.8536 92.528 56.7707 92.5172C56.6878 92.5046 56.6049 92.4983 56.522 92.4983C56.331 92.4983 56.1608 92.5388 56.0112 92.6199C55.8634 92.6992 55.7463 92.81 55.6598 92.9524C55.5733 93.0929 55.5301 93.2533 55.5301 93.4335V95.9688H54.7219ZM59.2431 96.0525C58.8539 96.0525 58.5143 95.9633 58.2242 95.785C57.9341 95.6066 57.7088 95.357 57.5484 95.0363C57.3881 94.7155 57.3079 94.3407 57.3079 93.9119C57.3079 93.4812 57.3881 93.1046 57.5484 92.7821C57.7088 92.4595 57.9341 92.2091 58.2242 92.0307C58.5143 91.8523 58.8539 91.7631 59.2431 91.7631C59.6324 91.7631 59.972 91.8523 60.2621 92.0307C60.5522 92.2091 60.7775 92.4595 60.9378 92.7821C61.0982 93.1046 61.1784 93.4812 61.1784 93.9119C61.1784 94.3407 61.0982 94.7155 60.9378 95.0363C60.7775 95.357 60.5522 95.6066 60.2621 95.785C59.972 95.9633 59.6324 96.0525 59.2431 96.0525ZM59.2458 95.3741C59.4981 95.3741 59.7071 95.3075 59.8729 95.1741C60.0387 95.0408 60.1612 94.8633 60.2405 94.6416C60.3216 94.42 60.3621 94.1759 60.3621 93.9092C60.3621 93.6443 60.3216 93.401 60.2405 93.1794C60.1612 92.956 60.0387 92.7767 59.8729 92.6415C59.7071 92.5064 59.4981 92.4388 59.2458 92.4388C58.9918 92.4388 58.781 92.5064 58.6134 92.6415C58.4476 92.7767 58.3242 92.956 58.2431 93.1794C58.1638 93.401 58.1242 93.6443 58.1242 93.9092C58.1242 94.1759 58.1638 94.42 58.2431 94.6416C58.3242 94.8633 58.4476 95.0408 58.6134 95.1741C58.781 95.3075 58.9918 95.3741 59.2458 95.3741ZM62.0805 95.9688V91.8172H62.8562V92.4929H62.9075C62.994 92.264 63.1355 92.0856 63.3319 91.9577C63.5283 91.828 63.7634 91.7631 64.0373 91.7631C64.3148 91.7631 64.5473 91.828 64.7347 91.9577C64.9239 92.0874 65.0635 92.2658 65.1536 92.4929H65.1969C65.296 92.2712 65.4536 92.0947 65.6699 91.9631C65.8861 91.8298 66.1438 91.7631 66.4429 91.7631C66.8195 91.7631 67.1267 91.8811 67.3646 92.1172C67.6042 92.3532 67.724 92.7091 67.724 93.1848V95.9688H66.9159V93.2605C66.9159 92.9794 66.8393 92.7758 66.6861 92.6496C66.533 92.5235 66.3501 92.4604 66.1375 92.4604C65.8744 92.4604 65.6699 92.5415 65.5239 92.7037C65.378 92.8641 65.305 93.0704 65.305 93.3227V95.9688H64.4995V93.2091C64.4995 92.9839 64.4293 92.8028 64.2887 92.6659C64.1482 92.5289 63.9653 92.4604 63.74 92.4604C63.5869 92.4604 63.4454 92.501 63.3157 92.5821C63.1877 92.6614 63.0841 92.7722 63.0048 92.9145C62.9274 93.0569 62.8886 93.2217 62.8886 93.4091V95.9688H62.0805ZM71.6297 90.4333V95.9688H70.8215V90.4333H71.6297ZM73.9251 96.0606C73.662 96.0606 73.4241 96.012 73.2115 95.9147C72.9989 95.8156 72.8304 95.6723 72.7061 95.4849C72.5836 95.2975 72.5223 95.0678 72.5223 94.7957C72.5223 94.5615 72.5673 94.3687 72.6574 94.2173C72.7475 94.0659 72.8692 93.9461 73.0223 93.8578C73.1755 93.7695 73.3467 93.7029 73.5359 93.6578C73.7251 93.6128 73.9179 93.5785 74.1143 93.5551C74.3629 93.5263 74.5648 93.5028 74.7197 93.4848C74.8747 93.465 74.9873 93.4335 75.0576 93.3902C75.1278 93.347 75.163 93.2767 75.163 93.1794V93.1605C75.163 92.9244 75.0963 92.7415 74.963 92.6118C74.8314 92.4821 74.635 92.4172 74.3738 92.4172C74.1017 92.4172 73.8872 92.4776 73.7305 92.5983C73.5755 92.7172 73.4683 92.8496 73.4088 92.9956L72.6493 92.8226C72.7394 92.5704 72.871 92.3667 73.0439 92.2118C73.2187 92.055 73.4196 91.9415 73.6467 91.8712C73.8737 91.7991 74.1125 91.7631 74.3629 91.7631C74.5287 91.7631 74.7044 91.7829 74.89 91.8226C75.0774 91.8604 75.2522 91.9307 75.4144 92.0334C75.5783 92.1361 75.7126 92.283 75.8171 92.474C75.9216 92.6632 75.9738 92.9091 75.9738 93.2118V95.9688H75.1846V95.4011H75.1522C75.0999 95.5057 75.0215 95.6084 74.917 95.7093C74.8125 95.8102 74.6783 95.894 74.5143 95.9606C74.3503 96.0273 74.1539 96.0606 73.9251 96.0606ZM74.1008 95.412C74.3242 95.412 74.5152 95.3678 74.6738 95.2795C74.8341 95.1912 74.9558 95.0759 75.0387 94.9336C75.1233 94.7894 75.1657 94.6353 75.1657 94.4714V93.9362C75.1369 93.965 75.081 93.9921 74.9981 94.0173C74.917 94.0407 74.8242 94.0614 74.7197 94.0795C74.6152 94.0957 74.5134 94.111 74.4143 94.1254C74.3152 94.138 74.2323 94.1488 74.1656 94.1578C74.0089 94.1777 73.8656 94.211 73.7359 94.2578C73.6079 94.3047 73.5052 94.3723 73.4277 94.4606C73.3521 94.547 73.3142 94.6624 73.3142 94.8065C73.3142 95.0065 73.3881 95.1579 73.5359 95.2606C73.6836 95.3615 73.8719 95.412 74.1008 95.412ZM80.1612 92.8307L79.4288 92.9605C79.3981 92.8668 79.3495 92.7776 79.2828 92.6929C79.2179 92.6082 79.1297 92.5388 79.0179 92.4848C78.9062 92.4307 78.7666 92.4037 78.599 92.4037C78.3702 92.4037 78.1792 92.455 78.026 92.5577C77.8728 92.6586 77.7962 92.7893 77.7962 92.9497C77.7962 93.0884 77.8476 93.2001 77.9503 93.2848C78.053 93.3695 78.2188 93.4389 78.4476 93.4929L79.1071 93.6443C79.4891 93.7326 79.7738 93.8686 79.9612 94.0524C80.1486 94.2362 80.2423 94.475 80.2423 94.7687C80.2423 95.0173 80.1703 95.239 80.0261 95.4336C79.8838 95.6264 79.6846 95.7777 79.4288 95.8877C79.1747 95.9976 78.8801 96.0525 78.5449 96.0525C78.08 96.0525 77.7007 95.9534 77.407 95.7552C77.1133 95.5552 76.9331 95.2714 76.8665 94.9038L77.6476 94.7849C77.6962 94.9885 77.7962 95.1426 77.9476 95.2471C78.099 95.3498 78.2963 95.4011 78.5395 95.4011C78.8044 95.4011 79.0161 95.3462 79.1747 95.2363C79.3333 95.1246 79.4126 94.9885 79.4126 94.8281C79.4126 94.6984 79.3639 94.5894 79.2666 94.5011C79.1711 94.4128 79.0242 94.3461 78.826 94.3011L78.1233 94.147C77.7359 94.0587 77.4494 93.9182 77.2638 93.7254C77.08 93.5326 76.9881 93.2884 76.9881 92.9929C76.9881 92.7478 77.0566 92.5334 77.1935 92.3496C77.3305 92.1658 77.5197 92.0226 77.7611 91.9199C78.0026 91.8154 78.2792 91.7631 78.5909 91.7631C79.0396 91.7631 79.3927 91.8604 79.6504 92.055C79.9081 92.2478 80.0784 92.5064 80.1612 92.8307ZM83.0688 91.8172V92.4658H80.8011V91.8172H83.0688ZM81.4093 90.8225H82.2174V94.7498C82.2174 94.9065 82.2409 95.0246 82.2877 95.1038C82.3346 95.1813 82.3949 95.2345 82.4688 95.2633C82.5445 95.2903 82.6265 95.3038 82.7148 95.3038C82.7796 95.3038 82.8364 95.2993 82.8851 95.2903C82.9337 95.2813 82.9715 95.2741 82.9986 95.2687L83.1445 95.9363C83.0977 95.9543 83.031 95.9724 82.9445 95.9904C82.858 96.0102 82.7499 96.021 82.6202 96.0228C82.4075 96.0264 82.2093 95.9886 82.0255 95.9093C81.8418 95.83 81.6931 95.7075 81.5796 95.5417C81.4661 95.3759 81.4093 95.1678 81.4093 94.9173V90.8225ZM85.9771 95.9688V91.8172H86.7528V92.4929H86.8042C86.8907 92.264 87.0321 92.0856 87.2285 91.9577C87.425 91.828 87.6601 91.7631 87.934 91.7631C88.2115 91.7631 88.4439 91.828 88.6313 91.9577C88.8205 92.0874 88.9602 92.2658 89.0503 92.4929H89.0935C89.1926 92.2712 89.3503 92.0947 89.5665 91.9631C89.7828 91.8298 90.0404 91.7631 90.3395 91.7631C90.7161 91.7631 91.0234 91.8811 91.2612 92.1172C91.5009 92.3532 91.6207 92.7091 91.6207 93.1848V95.9688H90.8125V93.2605C90.8125 92.9794 90.736 92.7758 90.5828 92.6496C90.4296 92.5235 90.2467 92.4604 90.0341 92.4604C89.771 92.4604 89.5665 92.5415 89.4206 92.7037C89.2746 92.8641 89.2016 93.0704 89.2016 93.3227V95.9688H88.3962V93.2091C88.3962 92.9839 88.3259 92.8028 88.1854 92.6659C88.0448 92.5289 87.8619 92.4604 87.6367 92.4604C87.4835 92.4604 87.3421 92.501 87.2123 92.5821C87.0844 92.6614 86.9808 92.7722 86.9015 92.9145C86.824 93.0569 86.7853 93.2217 86.7853 93.4091V95.9688H85.9771ZM94.4526 96.0525C94.0634 96.0525 93.7237 95.9633 93.4336 95.785C93.1435 95.6066 92.9183 95.357 92.7579 95.0363C92.5976 94.7155 92.5174 94.3407 92.5174 93.9119C92.5174 93.4812 92.5976 93.1046 92.7579 92.7821C92.9183 92.4595 93.1435 92.2091 93.4336 92.0307C93.7237 91.8523 94.0634 91.7631 94.4526 91.7631C94.8418 91.7631 95.1815 91.8523 95.4716 92.0307C95.7617 92.2091 95.9869 92.4595 96.1473 92.7821C96.3077 93.1046 96.3879 93.4812 96.3879 93.9119C96.3879 94.3407 96.3077 94.7155 96.1473 95.0363C95.9869 95.357 95.7617 95.6066 95.4716 95.785C95.1815 95.9633 94.8418 96.0525 94.4526 96.0525ZM94.4553 95.3741C94.7076 95.3741 94.9166 95.3075 95.0824 95.1741C95.2482 95.0408 95.3707 94.8633 95.45 94.6416C95.5311 94.42 95.5716 94.1759 95.5716 93.9092C95.5716 93.6443 95.5311 93.401 95.45 93.1794C95.3707 92.956 95.2482 92.7767 95.0824 92.6415C94.9166 92.5064 94.7076 92.4388 94.4553 92.4388C94.2013 92.4388 93.9904 92.5064 93.8228 92.6415C93.6571 92.7767 93.5336 92.956 93.4526 93.1794C93.3733 93.401 93.3336 93.6443 93.3336 93.9092C93.3336 94.1759 93.3733 94.42 93.4526 94.6416C93.5336 94.8633 93.6571 95.0408 93.8228 95.1741C93.9904 95.3075 94.2013 95.3741 94.4553 95.3741ZM98.0981 93.5037V95.9688H97.2899V91.8172H98.0657V92.4929H98.117C98.2125 92.273 98.3621 92.0965 98.5657 91.9631C98.7711 91.8298 99.0297 91.7631 99.3414 91.7631C99.6243 91.7631 99.8721 91.8226 100.085 91.9415C100.297 92.0586 100.462 92.2334 100.579 92.4658C100.696 92.6983 100.755 92.9857 100.755 93.3281V95.9688H99.9469V93.4254C99.9469 93.1244 99.8685 92.8893 99.7117 92.7199C99.5549 92.5487 99.3396 92.4631 99.0657 92.4631C98.8783 92.4631 98.7117 92.5037 98.5657 92.5848C98.4215 92.6659 98.3071 92.7848 98.2224 92.9415C98.1395 93.0965 98.0981 93.2839 98.0981 93.5037ZM103.777 91.8172V92.4658H101.509V91.8172H103.777ZM102.117 90.8225H102.925V94.7498C102.925 94.9065 102.949 95.0246 102.996 95.1038C103.043 95.1813 103.103 95.2345 103.177 95.2633C103.252 95.2903 103.334 95.3038 103.423 95.3038C103.488 95.3038 103.544 95.2993 103.593 95.2903C103.642 95.2813 103.68 95.2741 103.707 95.2687L103.852 95.9363C103.806 95.9543 103.739 95.9724 103.652 95.9904C103.566 96.0102 103.458 96.021 103.328 96.0228C103.116 96.0264 102.917 95.9886 102.734 95.9093C102.55 95.83 102.401 95.7075 102.288 95.5417C102.174 95.3759 102.117 95.1678 102.117 94.9173V90.8225ZM105.568 93.5037V95.9688H104.76V90.4333H105.557V92.4929H105.609C105.706 92.2694 105.855 92.0919 106.055 91.9604C106.255 91.8289 106.516 91.7631 106.838 91.7631C107.123 91.7631 107.372 91.8217 107.584 91.9388C107.799 92.0559 107.965 92.2307 108.082 92.4631C108.201 92.6938 108.26 92.9821 108.26 93.3281V95.9688H107.452V93.4254C107.452 93.1208 107.374 92.8848 107.217 92.7172C107.06 92.5478 106.842 92.4631 106.563 92.4631C106.372 92.4631 106.201 92.5037 106.049 92.5848C105.9 92.6659 105.782 92.7848 105.695 92.9415C105.61 93.0965 105.568 93.2839 105.568 93.5037Z" fill="#0A0A0A"/>
<rect width="339.551" height="126.431" transform="translate(15.7664 107.667)" fill="white"/>
<path d="M20.1589 111.406H19.5843C19.5504 111.24 19.4909 111.095 19.406 110.97C19.3225 110.845 19.2206 110.74 19.1001 110.655C18.9812 110.568 18.8492 110.504 18.704 110.46C18.5588 110.417 18.4074 110.395 18.2499 110.395C17.9626 110.395 17.7024 110.468 17.4692 110.613C17.2375 110.758 17.0529 110.972 16.9155 111.255C16.7795 111.538 16.7116 111.884 16.7116 112.295C16.7116 112.706 16.7795 113.053 16.9155 113.335C17.0529 113.618 17.2375 113.832 17.4692 113.977C17.7024 114.122 17.9626 114.195 18.2499 114.195C18.4074 114.195 18.5588 114.173 18.704 114.13C18.8492 114.087 18.9812 114.023 19.1001 113.938C19.2206 113.851 19.3225 113.745 19.406 113.62C19.4909 113.494 19.5504 113.348 19.5843 113.185H20.1589C20.1156 113.427 20.0369 113.644 19.9226 113.836C19.8083 114.027 19.6662 114.19 19.4963 114.325C19.3264 114.457 19.1357 114.559 18.9241 114.628C18.714 114.698 18.4893 114.732 18.2499 114.732C17.8452 114.732 17.4854 114.634 17.1703 114.436C16.8552 114.238 16.6073 113.957 16.4266 113.593C16.2459 113.228 16.1556 112.796 16.1556 112.295C16.1556 111.795 16.2459 111.362 16.4266 110.998C16.6073 110.633 16.8552 110.352 17.1703 110.154C17.4854 109.957 17.8452 109.858 18.2499 109.858C18.4893 109.858 18.714 109.893 18.9241 109.962C19.1357 110.032 19.3264 110.134 19.4963 110.268C19.6662 110.401 19.8083 110.563 19.9226 110.755C20.0369 110.944 20.1156 111.161 20.1589 111.406ZM22.4588 114.742C22.1376 114.742 21.8557 114.665 21.6132 114.512C21.3723 114.359 21.1839 114.145 21.0479 113.871C20.9136 113.596 20.8464 113.274 20.8464 112.907C20.8464 112.536 20.9136 112.213 21.0479 111.936C21.1839 111.66 21.3723 111.445 21.6132 111.292C21.8557 111.139 22.1376 111.063 22.4588 111.063C22.7801 111.063 23.0612 111.139 23.3021 111.292C23.5446 111.445 23.733 111.66 23.8674 111.936C24.0033 112.213 24.0713 112.536 24.0713 112.907C24.0713 113.274 24.0033 113.596 23.8674 113.871C23.733 114.145 23.5446 114.359 23.3021 114.512C23.0612 114.665 22.7801 114.742 22.4588 114.742ZM22.4588 114.25C22.7029 114.25 22.9036 114.188 23.0612 114.063C23.2187 113.938 23.3353 113.773 23.411 113.569C23.4867 113.365 23.5245 113.145 23.5245 112.907C23.5245 112.669 23.4867 112.447 23.411 112.242C23.3353 112.036 23.2187 111.87 23.0612 111.744C22.9036 111.617 22.7029 111.554 22.4588 111.554C22.2148 111.554 22.014 111.617 21.8565 111.744C21.6989 111.87 21.5823 112.036 21.5067 112.242C21.431 112.447 21.3931 112.669 21.3931 112.907C21.3931 113.145 21.431 113.365 21.5067 113.569C21.5823 113.773 21.6989 113.938 21.8565 114.063C22.014 114.188 22.2148 114.25 22.4588 114.25ZM27.4265 111.906L26.9353 112.045C26.9045 111.963 26.8589 111.884 26.7987 111.806C26.74 111.728 26.6597 111.663 26.5577 111.612C26.4558 111.561 26.3253 111.535 26.1662 111.535C25.9484 111.535 25.7669 111.585 25.6218 111.686C25.4781 111.785 25.4063 111.911 25.4063 112.063C25.4063 112.199 25.4557 112.307 25.5546 112.385C25.6534 112.464 25.8079 112.53 26.0179 112.582L26.5461 112.712C26.8643 112.789 27.1014 112.908 27.2574 113.067C27.4134 113.224 27.4914 113.427 27.4914 113.676C27.4914 113.88 27.4327 114.062 27.3153 114.223C27.1995 114.383 27.0373 114.51 26.8288 114.603C26.6203 114.695 26.3778 114.742 26.1013 114.742C25.7384 114.742 25.438 114.663 25.2001 114.505C24.9623 114.348 24.8117 114.118 24.7483 113.815L25.2673 113.685C25.3167 113.877 25.4102 114.02 25.5476 114.116C25.6866 114.212 25.8681 114.26 26.0921 114.26C26.3469 114.26 26.5492 114.206 26.699 114.098C26.8504 113.988 26.9261 113.857 26.9261 113.704C26.9261 113.58 26.8828 113.477 26.7963 113.393C26.7099 113.308 26.577 113.245 26.3979 113.203L25.8048 113.064C25.4789 112.987 25.2395 112.867 25.0866 112.705C24.9352 112.541 24.8596 112.337 24.8596 112.091C24.8596 111.89 24.9159 111.713 25.0287 111.558C25.143 111.404 25.2982 111.283 25.4943 111.195C25.692 111.107 25.916 111.063 26.1662 111.063C26.5183 111.063 26.7948 111.14 26.9956 111.294C27.1979 111.449 27.3415 111.653 27.4265 111.906ZM29.862 111.109V111.572H28.0178V111.109H29.862ZM28.5553 110.256H29.1021V113.648C29.1021 113.803 29.1245 113.918 29.1693 113.996C29.2156 114.071 29.2743 114.122 29.3453 114.149C29.4179 114.173 29.4944 114.186 29.5747 114.186C29.6349 114.186 29.6843 114.183 29.723 114.176C29.7616 114.169 29.7925 114.162 29.8156 114.158L29.9268 114.649C29.8898 114.663 29.838 114.677 29.7716 114.691C29.7052 114.706 29.621 114.714 29.5191 114.714C29.3646 114.714 29.2133 114.681 29.065 114.614C28.9183 114.548 28.7963 114.447 28.699 114.311C28.6032 114.175 28.5553 114.003 28.5553 113.796V110.256ZM34.0668 111.109V111.572H32.2227V111.109H34.0668ZM32.7602 110.256H33.307V113.648C33.307 113.803 33.3293 113.918 33.3741 113.996C33.4205 114.071 33.4792 114.122 33.5502 114.149C33.6228 114.173 33.6993 114.186 33.7796 114.186C33.8398 114.186 33.8892 114.183 33.9278 114.176C33.9665 114.169 33.9973 114.162 34.0205 114.158L34.1317 114.649C34.0946 114.663 34.0429 114.677 33.9765 114.691C33.9101 114.706 33.8259 114.714 33.724 114.714C33.5695 114.714 33.4182 114.681 33.2699 114.614C33.1232 114.548 33.0011 114.447 32.9038 114.311C32.8081 114.175 32.7602 114.003 32.7602 113.796V110.256ZM34.8893 114.667V111.109H35.4175V111.646H35.4546C35.5194 111.47 35.6368 111.328 35.8067 111.218C35.9766 111.108 36.1681 111.053 36.3813 111.053C36.4214 111.053 36.4716 111.054 36.5319 111.056C36.5921 111.057 36.6376 111.06 36.6685 111.063V111.619C36.65 111.614 36.6075 111.607 36.5411 111.598C36.4763 111.587 36.4075 111.582 36.3349 111.582C36.1619 111.582 36.0075 111.618 35.8716 111.69C35.7372 111.762 35.6306 111.86 35.5519 111.987C35.4746 112.112 35.436 112.255 35.436 112.416V114.667H34.8893ZM38.7003 114.742C38.3574 114.742 38.0617 114.666 37.813 114.515C37.5659 114.362 37.3751 114.149 37.2408 113.875C37.1079 113.6 37.0415 113.281 37.0415 112.916C37.0415 112.552 37.1079 112.23 37.2408 111.952C37.3751 111.673 37.562 111.455 37.8014 111.299C38.0424 111.141 38.3235 111.063 38.6447 111.063C38.8301 111.063 39.0131 111.094 39.1938 111.155C39.3745 111.217 39.539 111.317 39.6872 111.456C39.8355 111.594 39.9537 111.776 40.0417 112.003C40.1297 112.23 40.1738 112.51 40.1738 112.842V113.074H37.4307V112.601H39.6177C39.6177 112.4 39.5776 112.221 39.4973 112.063C39.4185 111.906 39.3058 111.782 39.159 111.69C39.0138 111.599 38.8424 111.554 38.6447 111.554C38.4269 111.554 38.2385 111.608 38.0794 111.716C37.9219 111.823 37.8007 111.962 37.7157 112.133C37.6308 112.304 37.5883 112.488 37.5883 112.684V112.999C37.5883 113.268 37.6346 113.496 37.7273 113.683C37.8215 113.868 37.952 114.01 38.1188 114.107C38.2856 114.203 38.4795 114.25 38.7003 114.25C38.844 114.25 38.9737 114.23 39.0895 114.19C39.2069 114.149 39.3081 114.087 39.393 114.005C39.478 113.921 39.5436 113.818 39.5899 113.694L40.1182 113.843C40.0626 114.022 39.9691 114.179 39.8378 114.315C39.7066 114.45 39.5444 114.555 39.3513 114.63C39.1583 114.705 38.9413 114.742 38.7003 114.742ZM41.5522 112.527V114.667H41.0055V111.109H41.5337V111.665H41.58C41.6634 111.484 41.7901 111.339 41.96 111.229C42.1299 111.118 42.3492 111.063 42.6179 111.063C42.8589 111.063 43.0697 111.112 43.2504 111.211C43.4311 111.308 43.5716 111.456 43.672 111.656C43.7724 111.853 43.8226 112.104 43.8226 112.406V114.667H43.2759V112.443C43.2759 112.164 43.2033 111.946 43.0581 111.79C42.9129 111.633 42.7137 111.554 42.4604 111.554C42.2859 111.554 42.1299 111.592 41.9924 111.667C41.8565 111.743 41.7491 111.853 41.6704 111.999C41.5916 112.144 41.5522 112.32 41.5522 112.527ZM46.1654 114.742C45.8689 114.742 45.6071 114.667 45.3801 114.517C45.153 114.366 44.9754 114.152 44.8472 113.877C44.719 113.601 44.6549 113.274 44.6549 112.897C44.6549 112.524 44.719 112.199 44.8472 111.924C44.9754 111.65 45.1538 111.437 45.3824 111.287C45.611 111.138 45.8751 111.063 46.1747 111.063C46.4064 111.063 46.5894 111.101 46.7238 111.178C46.8597 111.254 46.9632 111.341 47.0342 111.438C47.1068 111.534 47.1632 111.612 47.2033 111.674H47.2497V109.923H47.7964V114.667H47.2682V114.121H47.2033C47.1632 114.186 47.106 114.267 47.0319 114.366C46.9577 114.464 46.852 114.551 46.7145 114.628C46.577 114.704 46.394 114.742 46.1654 114.742ZM46.2396 114.25C46.4589 114.25 46.6442 114.193 46.7956 114.079C46.9469 113.963 47.062 113.803 47.1408 113.599C47.2195 113.394 47.2589 113.157 47.2589 112.888C47.2589 112.623 47.2203 112.39 47.1431 112.191C47.0659 111.99 46.9516 111.834 46.8002 111.723C46.6489 111.61 46.462 111.554 46.2396 111.554C46.0079 111.554 45.8148 111.613 45.6604 111.732C45.5075 111.85 45.3924 112.009 45.3152 112.212C45.2395 112.413 45.2017 112.638 45.2017 112.888C45.2017 113.142 45.2403 113.372 45.3175 113.579C45.3963 113.784 45.5121 113.948 45.665 114.07C45.8195 114.19 46.011 114.25 46.2396 114.25ZM52.7473 112.04V112.55H50.6715V112.04H52.7473ZM55.6183 114.667V109.923H56.1928V114.158H58.3984V114.667H55.6183ZM60.261 114.751C60.0355 114.751 59.8309 114.708 59.6471 114.623C59.4633 114.537 59.3173 114.413 59.2092 114.25C59.1011 114.087 59.0471 113.889 59.0471 113.657C59.0471 113.454 59.0872 113.288 59.1675 113.162C59.2478 113.033 59.3552 112.933 59.4896 112.86C59.6239 112.788 59.7722 112.734 59.9344 112.698C60.0981 112.661 60.2626 112.632 60.4278 112.61C60.6441 112.582 60.8194 112.562 60.9537 112.548C61.0897 112.532 61.1885 112.507 61.2503 112.471C61.3136 112.436 61.3453 112.374 61.3453 112.286V112.267C61.3453 112.039 61.2827 111.861 61.1576 111.734C61.034 111.608 60.8464 111.545 60.5946 111.545C60.3336 111.545 60.129 111.602 59.9807 111.716C59.8324 111.83 59.7282 111.952 59.6679 112.082L59.149 111.897C59.2417 111.68 59.3652 111.512 59.5197 111.392C59.6757 111.27 59.8456 111.185 60.0294 111.137C60.2147 111.087 60.3969 111.063 60.5761 111.063C60.6904 111.063 60.8217 111.077 60.97 111.104C61.1198 111.131 61.2642 111.185 61.4032 111.269C61.5437 111.352 61.6603 111.478 61.753 111.646C61.8457 111.815 61.892 112.04 61.892 112.323V114.667H61.3453V114.186H61.3175C61.2804 114.263 61.2186 114.345 61.1321 114.433C61.0456 114.522 60.9306 114.596 60.7869 114.658C60.6433 114.72 60.468 114.751 60.261 114.751ZM60.3444 114.26C60.5607 114.26 60.7429 114.217 60.8912 114.132C61.041 114.047 61.1537 113.938 61.2294 113.803C61.3067 113.669 61.3453 113.528 61.3453 113.379V112.879C61.3221 112.907 61.2711 112.932 61.1924 112.955C61.1151 112.977 61.0256 112.996 60.9236 113.013C60.8232 113.029 60.7252 113.043 60.6294 113.055C60.5352 113.066 60.4587 113.075 60.4 113.083C60.2579 113.101 60.1251 113.131 60.0016 113.173C59.8795 113.213 59.7807 113.274 59.705 113.356C59.6309 113.437 59.5938 113.546 59.5938 113.685C59.5938 113.875 59.6641 114.019 59.8046 114.116C59.9467 114.212 60.1267 114.26 60.3444 114.26ZM65.4106 111.906L64.9194 112.045C64.8885 111.963 64.843 111.884 64.7827 111.806C64.724 111.728 64.6437 111.663 64.5418 111.612C64.4398 111.561 64.3093 111.535 64.1503 111.535C63.9325 111.535 63.751 111.585 63.6058 111.686C63.4622 111.785 63.3904 111.911 63.3904 112.063C63.3904 112.199 63.4398 112.307 63.5386 112.385C63.6375 112.464 63.7919 112.53 64.002 112.582L64.5302 112.712C64.8484 112.789 65.0854 112.908 65.2414 113.067C65.3974 113.224 65.4754 113.427 65.4754 113.676C65.4754 113.88 65.4167 114.062 65.2994 114.223C65.1835 114.383 65.0213 114.51 64.8128 114.603C64.6043 114.695 64.3618 114.742 64.0854 114.742C63.7224 114.742 63.422 114.663 63.1842 114.505C62.9463 114.348 62.7957 114.118 62.7324 113.815L63.2514 113.685C63.3008 113.877 63.3942 114.02 63.5317 114.116C63.6707 114.212 63.8522 114.26 64.0761 114.26C64.331 114.26 64.5333 114.206 64.6831 114.098C64.8345 113.988 64.9101 113.857 64.9101 113.704C64.9101 113.58 64.8669 113.477 64.7804 113.393C64.6939 113.308 64.5611 113.245 64.3819 113.203L63.7888 113.064C63.463 112.987 63.2236 112.867 63.0707 112.705C62.9193 112.541 62.8436 112.337 62.8436 112.091C62.8436 111.89 62.9 111.713 63.0127 111.558C63.127 111.404 63.2823 111.283 63.4784 111.195C63.6761 111.107 63.9 111.063 64.1503 111.063C64.5024 111.063 64.7789 111.14 64.9796 111.294C65.182 111.449 65.3256 111.653 65.4106 111.906ZM67.846 111.109V111.572H66.0019V111.109H67.846ZM66.5394 110.256H67.0861V113.648C67.0861 113.803 67.1085 113.918 67.1533 113.996C67.1997 114.071 67.2584 114.122 67.3294 114.149C67.402 114.173 67.4784 114.186 67.5588 114.186C67.619 114.186 67.6684 114.183 67.707 114.176C67.7456 114.169 67.7765 114.162 67.7997 114.158L67.9109 114.649C67.8738 114.663 67.8221 114.677 67.7557 114.691C67.6893 114.706 67.6051 114.714 67.5032 114.714C67.3487 114.714 67.1973 114.681 67.0491 114.614C66.9023 114.548 66.7803 114.447 66.683 114.311C66.5873 114.175 66.5394 114.003 66.5394 113.796V110.256ZM72.0694 114.732C71.8748 114.729 71.6802 114.692 71.4856 114.621C71.291 114.55 71.1134 114.43 70.9528 114.262C70.7921 114.092 70.6632 113.863 70.5659 113.574C70.4686 113.284 70.4199 112.919 70.4199 112.48C70.4199 112.06 70.4593 111.688 70.5381 111.364C70.6168 111.038 70.7311 110.764 70.881 110.541C71.0308 110.317 71.2115 110.148 71.4231 110.032C71.6362 109.916 71.8764 109.858 72.1436 109.858C72.4092 109.858 72.6455 109.911 72.8525 110.018C73.061 110.123 73.2309 110.27 73.3622 110.458C73.4935 110.646 73.5784 110.863 73.617 111.109H73.0517C72.9992 110.896 72.8973 110.719 72.7459 110.578C72.5946 110.438 72.3938 110.368 72.1436 110.368C71.776 110.368 71.4864 110.527 71.2748 110.847C71.0648 111.167 70.959 111.616 70.9574 112.193H70.9945C71.081 112.062 71.1837 111.95 71.3026 111.857C71.4231 111.763 71.5559 111.69 71.7011 111.64C71.8463 111.589 71.9999 111.563 72.1621 111.563C72.4339 111.563 72.6826 111.631 72.9081 111.767C73.1336 111.901 73.3143 112.087 73.4502 112.325C73.5861 112.562 73.6541 112.833 73.6541 113.138C73.6541 113.432 73.5885 113.701 73.4572 113.945C73.3259 114.187 73.1413 114.38 72.9035 114.524C72.6672 114.666 72.3892 114.735 72.0694 114.732ZM72.0694 114.223C72.264 114.223 72.4386 114.174 72.593 114.077C72.749 113.979 72.8718 113.849 72.9614 113.685C73.0525 113.521 73.0981 113.339 73.0981 113.138C73.0981 112.942 73.0541 112.764 72.966 112.603C72.8795 112.441 72.7598 112.312 72.6069 112.216C72.4556 112.121 72.2826 112.073 72.088 112.073C71.9413 112.073 71.8046 112.102 71.6779 112.161C71.5513 112.218 71.4401 112.297 71.3443 112.397C71.2501 112.497 71.176 112.613 71.1219 112.742C71.0678 112.87 71.0408 113.006 71.0408 113.148C71.0408 113.336 71.0848 113.512 71.1729 113.676C71.2624 113.84 71.3845 113.972 71.5389 114.072C71.6949 114.172 71.8717 114.223 72.0694 114.223ZM76.4093 114.667V111.109H76.9375V111.665H76.9838C77.058 111.475 77.1777 111.328 77.3429 111.222C77.5082 111.116 77.7066 111.063 77.9383 111.063C78.1731 111.063 78.3685 111.116 78.5245 111.222C78.682 111.328 78.8048 111.475 78.8928 111.665H78.9299C79.021 111.481 79.1577 111.335 79.3399 111.227C79.5222 111.117 79.7407 111.063 79.9956 111.063C80.3137 111.063 80.574 111.162 80.7763 111.361C80.9786 111.559 81.0798 111.867 81.0798 112.286V114.667H80.5331V112.286C80.5331 112.023 80.4612 111.836 80.3176 111.723C80.174 111.61 80.0048 111.554 79.8102 111.554C79.56 111.554 79.3662 111.629 79.2287 111.781C79.0913 111.931 79.0226 112.121 79.0226 112.351V114.667H78.4665V112.23C78.4665 112.028 78.4009 111.865 78.2696 111.741C78.1383 111.616 77.9692 111.554 77.7622 111.554C77.6202 111.554 77.4873 111.592 77.3638 111.667C77.2418 111.743 77.1429 111.848 77.0672 111.982C76.9931 112.115 76.956 112.269 76.956 112.443V114.667H76.4093ZM83.5251 114.742C83.2039 114.742 82.922 114.665 82.6795 114.512C82.4386 114.359 82.2502 114.145 82.1142 113.871C81.9799 113.596 81.9127 113.274 81.9127 112.907C81.9127 112.536 81.9799 112.213 82.1142 111.936C82.2502 111.66 82.4386 111.445 82.6795 111.292C82.922 111.139 83.2039 111.063 83.5251 111.063C83.8464 111.063 84.1275 111.139 84.3684 111.292C84.6109 111.445 84.7993 111.66 84.9337 111.936C85.0696 112.213 85.1376 112.536 85.1376 112.907C85.1376 113.274 85.0696 113.596 84.9337 113.871C84.7993 114.145 84.6109 114.359 84.3684 114.512C84.1275 114.665 83.8464 114.742 83.5251 114.742ZM83.5251 114.25C83.7692 114.25 83.9699 114.188 84.1275 114.063C84.285 113.938 84.4016 113.773 84.4773 113.569C84.553 113.365 84.5908 113.145 84.5908 112.907C84.5908 112.669 84.553 112.447 84.4773 112.242C84.4016 112.036 84.285 111.87 84.1275 111.744C83.9699 111.617 83.7692 111.554 83.5251 111.554C83.2811 111.554 83.0803 111.617 82.9228 111.744C82.7652 111.87 82.6486 112.036 82.573 112.242C82.4973 112.447 82.4594 112.669 82.4594 112.907C82.4594 113.145 82.4973 113.365 82.573 113.569C82.6486 113.773 82.7652 113.938 82.9228 114.063C83.0803 114.188 83.2811 114.25 83.5251 114.25ZM86.5189 112.527V114.667H85.9722V111.109H86.5004V111.665H86.5467C86.6301 111.484 86.7568 111.339 86.9267 111.229C87.0966 111.118 87.3159 111.063 87.5846 111.063C87.8256 111.063 88.0364 111.112 88.2171 111.211C88.3978 111.308 88.5384 111.456 88.6387 111.656C88.7391 111.853 88.7893 112.104 88.7893 112.406V114.667H88.2426V112.443C88.2426 112.164 88.17 111.946 88.0248 111.79C87.8796 111.633 87.6804 111.554 87.4271 111.554C87.2526 111.554 87.0966 111.592 86.9591 111.667C86.8232 111.743 86.7159 111.853 86.6371 111.999C86.5583 112.144 86.5189 112.32 86.5189 112.527ZM91.336 111.109V111.572H89.4919V111.109H91.336ZM90.0294 110.256H90.5761V113.648C90.5761 113.803 90.5985 113.918 90.6433 113.996C90.6896 114.071 90.7483 114.122 90.8194 114.149C90.892 114.173 90.9684 114.186 91.0487 114.186C91.109 114.186 91.1584 114.183 91.197 114.176C91.2356 114.169 91.2665 114.162 91.2897 114.158L91.4009 114.649C91.3638 114.663 91.3121 114.677 91.2457 114.691C91.1792 114.706 91.0951 114.714 90.9931 114.714C90.8387 114.714 90.6873 114.681 90.539 114.614C90.3923 114.548 90.2703 114.447 90.173 114.311C90.0772 114.175 90.0294 114.003 90.0294 113.796V110.256ZM92.7817 112.527V114.667H92.2349V109.923H92.7817V111.665H92.828C92.9114 111.481 93.0365 111.335 93.2033 111.227C93.3717 111.117 93.5956 111.063 93.8752 111.063C94.1176 111.063 94.33 111.111 94.5123 111.209C94.6945 111.304 94.8358 111.452 94.9362 111.651C95.0382 111.849 95.0891 112.101 95.0891 112.406V114.667H94.5424V112.443C94.5424 112.161 94.469 111.942 94.3223 111.788C94.1771 111.632 93.9755 111.554 93.7176 111.554C93.5385 111.554 93.3778 111.592 93.2357 111.667C93.0952 111.743 92.984 111.853 92.9021 111.999C92.8218 112.144 92.7817 112.32 92.7817 112.527ZM98.61 111.906L98.1188 112.045C98.0879 111.963 98.0424 111.884 97.9821 111.806C97.9235 111.728 97.8431 111.663 97.7412 111.612C97.6393 111.561 97.5088 111.535 97.3497 111.535C97.1319 111.535 96.9504 111.585 96.8052 111.686C96.6616 111.785 96.5898 111.911 96.5898 112.063C96.5898 112.199 96.6392 112.307 96.7381 112.385C96.8369 112.464 96.9914 112.53 97.2014 112.582L97.7296 112.712C98.0478 112.789 98.2849 112.908 98.4409 113.067C98.5969 113.224 98.6749 113.427 98.6749 113.676C98.6749 113.88 98.6162 114.062 98.4988 114.223C98.3829 114.383 98.2208 114.51 98.0123 114.603C97.8038 114.695 97.5613 114.742 97.2848 114.742C96.9219 114.742 96.6215 114.663 96.3836 114.505C96.1457 114.348 95.9952 114.118 95.9318 113.815L96.4508 113.685C96.5002 113.877 96.5937 114.02 96.7311 114.116C96.8701 114.212 97.0516 114.26 97.2755 114.26C97.5304 114.26 97.7327 114.206 97.8825 114.098C98.0339 113.988 98.1096 113.857 98.1096 113.704C98.1096 113.58 98.0663 113.477 97.9798 113.393C97.8933 113.308 97.7605 113.245 97.5814 113.203L96.9883 113.064C96.6624 112.987 96.423 112.867 96.2701 112.705C96.1187 112.541 96.043 112.337 96.043 112.091C96.043 111.89 96.0994 111.713 96.2122 111.558C96.3265 111.404 96.4817 111.283 96.6778 111.195C96.8755 111.107 97.0995 111.063 97.3497 111.063C97.7018 111.063 97.9783 111.14 98.1791 111.294C98.3814 111.449 98.525 111.653 98.61 111.906Z" fill="#737373"/>
<path d="M81.466 219.336V214.987H84.0739V215.454H81.9927V216.924H83.8785V217.391H81.9927V219.336H81.466ZM86.0362 219.404C85.7219 219.404 85.4507 219.335 85.2228 219.196C84.9963 219.056 84.8214 218.86 84.6983 218.61C84.5765 218.358 84.5156 218.065 84.5156 217.731C84.5156 217.397 84.5765 217.102 84.6983 216.847C84.8214 216.591 84.9927 216.391 85.2122 216.248C85.4331 216.104 85.6907 216.032 85.9852 216.032C86.1551 216.032 86.3229 216.06 86.4885 216.117C86.6542 216.173 86.8049 216.265 86.9409 216.393C87.0768 216.519 87.1851 216.686 87.2658 216.894C87.3465 217.102 87.3868 217.358 87.3868 217.663V217.875H84.8724V217.442H86.8772C86.8772 217.258 86.8403 217.094 86.7667 216.949C86.6945 216.805 86.5912 216.691 86.4567 216.607C86.3236 216.524 86.1664 216.482 85.9852 216.482C85.7856 216.482 85.6129 216.532 85.467 216.631C85.3226 216.728 85.2115 216.856 85.1336 217.013C85.0557 217.17 85.0168 217.339 85.0168 217.518V217.807C85.0168 218.053 85.0593 218.262 85.1442 218.434C85.2306 218.604 85.3502 218.733 85.5031 218.822C85.656 218.91 85.8337 218.954 86.0362 218.954C86.1678 218.954 86.2868 218.936 86.393 218.899C86.5006 218.86 86.5933 218.804 86.6712 218.729C86.749 218.652 86.8092 218.558 86.8517 218.444L87.3359 218.58C87.2849 218.744 87.1992 218.889 87.0789 219.013C86.9586 219.137 86.8099 219.233 86.6329 219.302C86.456 219.37 86.257 219.404 86.0362 219.404ZM88.2172 219.336V214.987H88.7184V216.592H88.7609C88.7977 216.536 88.8486 216.464 88.9138 216.376C88.9803 216.287 89.0752 216.207 89.1983 216.138C89.3229 216.067 89.4914 216.032 89.7038 216.032C89.9784 216.032 90.2205 216.1 90.4301 216.238C90.6396 216.375 90.8031 216.57 90.9206 216.822C91.0381 217.074 91.0969 217.371 91.0969 217.714C91.0969 218.059 91.0381 218.359 90.9206 218.612C90.8031 218.864 90.6403 219.059 90.4322 219.198C90.2241 219.335 89.9841 219.404 89.7123 219.404C89.5027 219.404 89.335 219.369 89.2089 219.3C89.0829 219.229 88.986 219.149 88.918 219.06C88.85 218.969 88.7977 218.894 88.7609 218.835H88.7014V219.336H88.2172ZM88.7099 217.705C88.7099 217.952 88.746 218.169 88.8182 218.357C88.8904 218.544 88.9959 218.691 89.1346 218.797C89.2734 218.902 89.4433 218.954 89.6443 218.954C89.8538 218.954 90.0287 218.899 90.1688 218.788C90.3104 218.676 90.4166 218.526 90.4874 218.338C90.5596 218.148 90.5957 217.937 90.5957 217.705C90.5957 217.476 90.5603 217.269 90.4895 217.085C90.4202 216.9 90.3147 216.753 90.1731 216.645C90.0329 216.536 89.8567 216.482 89.6443 216.482C89.4404 216.482 89.2691 216.534 89.1304 216.637C88.9916 216.739 88.8869 216.882 88.8161 217.066C88.7453 217.249 88.7099 217.462 88.7099 217.705Z" fill="#666666"/>
<path d="M147.256 214.987H147.885L149.363 218.597H149.414L150.892 214.987H151.521V219.336H151.028V216.031H150.985L149.626 219.336H149.151L147.791 216.031H147.749V219.336H147.256V214.987ZM153.469 219.412C153.262 219.412 153.074 219.373 152.906 219.296C152.737 219.216 152.604 219.102 152.504 218.954C152.405 218.804 152.356 218.622 152.356 218.41C152.356 218.223 152.393 218.072 152.466 217.956C152.54 217.838 152.638 217.746 152.761 217.679C152.885 217.613 153.021 217.563 153.169 217.531C153.319 217.497 153.47 217.47 153.622 217.45C153.82 217.425 153.98 217.406 154.104 217.393C154.228 217.379 154.319 217.355 154.375 217.323C154.433 217.29 154.462 217.233 154.462 217.153V217.136C154.462 216.926 154.405 216.763 154.29 216.647C154.177 216.531 154.005 216.473 153.774 216.473C153.535 216.473 153.348 216.526 153.212 216.63C153.076 216.735 152.98 216.847 152.925 216.966L152.449 216.796C152.534 216.598 152.647 216.443 152.789 216.333C152.932 216.221 153.088 216.143 153.256 216.099C153.426 216.054 153.593 216.031 153.757 216.031C153.862 216.031 153.983 216.044 154.118 216.07C154.256 216.094 154.388 216.144 154.516 216.221C154.644 216.297 154.751 216.412 154.836 216.567C154.921 216.721 154.964 216.928 154.964 217.187V219.336H154.462V218.894H154.437C154.403 218.965 154.346 219.041 154.267 219.121C154.188 219.202 154.082 219.271 153.951 219.327C153.819 219.384 153.658 219.412 153.469 219.412ZM153.545 218.962C153.743 218.962 153.91 218.923 154.046 218.845C154.184 218.768 154.287 218.667 154.356 218.544C154.427 218.421 154.462 218.291 154.462 218.155V217.696C154.441 217.722 154.395 217.745 154.322 217.767C154.252 217.786 154.169 217.804 154.076 217.82C153.984 217.834 153.894 217.847 153.806 217.858C153.72 217.868 153.65 217.876 153.596 217.883C153.466 217.9 153.344 217.928 153.231 217.966C153.119 218.003 153.028 218.059 152.959 218.134C152.891 218.208 152.857 218.308 152.857 218.435C152.857 218.61 152.921 218.741 153.05 218.831C153.18 218.918 153.345 218.962 153.545 218.962ZM155.878 219.336V216.074H156.363V216.567H156.397C156.456 216.405 156.564 216.274 156.719 216.174C156.875 216.073 157.051 216.023 157.246 216.023C157.283 216.023 157.329 216.024 157.384 216.025C157.439 216.027 157.481 216.029 157.509 216.031V216.541C157.492 216.537 157.454 216.531 157.393 216.522C157.333 216.512 157.27 216.507 157.204 216.507C157.045 216.507 156.903 216.54 156.779 216.607C156.656 216.672 156.558 216.763 156.486 216.879C156.415 216.994 156.38 217.124 156.38 217.272V219.336H155.878Z" fill="#666666"/>
<path d="M214.569 219.336H214.017L215.614 214.987H216.157L217.754 219.336H217.202L215.902 215.675H215.868L214.569 219.336ZM214.773 217.637H216.998V218.104H214.773V217.637ZM218.364 220.559V216.074H218.848V216.592H218.907C218.944 216.536 218.995 216.463 219.06 216.376C219.127 216.286 219.222 216.207 219.345 216.138C219.469 216.067 219.638 216.031 219.85 216.031C220.125 216.031 220.367 216.1 220.577 216.237C220.786 216.375 220.95 216.569 221.067 216.822C221.185 217.074 221.243 217.371 221.243 217.713C221.243 218.059 221.185 218.358 221.067 218.612C220.95 218.864 220.787 219.059 220.579 219.198C220.371 219.335 220.131 219.404 219.859 219.404C219.649 219.404 219.482 219.369 219.356 219.3C219.23 219.229 219.133 219.149 219.065 219.06C218.997 218.969 218.944 218.894 218.907 218.835H218.865V220.559H218.364ZM218.856 217.705C218.856 217.951 218.893 218.169 218.965 218.357C219.037 218.544 219.142 218.69 219.281 218.797C219.42 218.901 219.59 218.954 219.791 218.954C220 218.954 220.175 218.898 220.315 218.788C220.457 218.676 220.563 218.526 220.634 218.338C220.706 218.148 220.742 217.937 220.742 217.705C220.742 217.476 220.707 217.269 220.636 217.085C220.567 216.899 220.461 216.753 220.32 216.645C220.179 216.536 220.003 216.482 219.791 216.482C219.587 216.482 219.416 216.533 219.277 216.637C219.138 216.739 219.033 216.882 218.963 217.066C218.892 217.248 218.856 217.461 218.856 217.705ZM222.008 219.336V216.074H222.492V216.567H222.526C222.586 216.405 222.693 216.274 222.849 216.174C223.005 216.073 223.18 216.023 223.376 216.023C223.412 216.023 223.458 216.024 223.514 216.025C223.569 216.027 223.611 216.029 223.639 216.031V216.541C223.622 216.537 223.583 216.531 223.522 216.522C223.463 216.512 223.4 216.507 223.333 216.507C223.175 216.507 223.033 216.54 222.908 216.607C222.785 216.672 222.688 216.763 222.615 216.879C222.545 216.994 222.509 217.124 222.509 217.272V219.336H222.008Z" fill="#666666"/>
<path d="M279.693 214.987H280.321L281.799 218.597H281.85L283.329 214.987H283.957V219.336H283.464V216.031H283.422L282.063 219.336H281.587L280.228 216.031H280.185V219.336H279.693V214.987ZM285.905 219.412C285.698 219.412 285.511 219.373 285.342 219.296C285.174 219.216 285.04 219.102 284.941 218.954C284.842 218.804 284.792 218.622 284.792 218.41C284.792 218.223 284.829 218.072 284.903 217.956C284.976 217.838 285.075 217.746 285.198 217.679C285.321 217.613 285.457 217.563 285.606 217.531C285.756 217.497 285.907 217.47 286.058 217.45C286.256 217.425 286.417 217.406 286.54 217.393C286.665 217.379 286.755 217.355 286.812 217.323C286.87 217.29 286.899 217.233 286.899 217.153V217.136C286.899 216.926 286.842 216.763 286.727 216.647C286.614 216.531 286.442 216.473 286.211 216.473C285.972 216.473 285.784 216.526 285.648 216.63C285.512 216.735 285.417 216.847 285.361 216.966L284.886 216.796C284.971 216.598 285.084 216.443 285.226 216.333C285.369 216.221 285.524 216.143 285.693 216.099C285.863 216.054 286.03 216.031 286.194 216.031C286.299 216.031 286.419 216.044 286.555 216.07C286.692 216.094 286.825 216.144 286.952 216.221C287.081 216.297 287.188 216.412 287.273 216.567C287.358 216.721 287.4 216.928 287.4 217.187V219.336H286.899V218.894H286.873C286.84 218.965 286.783 219.041 286.704 219.121C286.624 219.202 286.519 219.271 286.387 219.327C286.255 219.384 286.095 219.412 285.905 219.412ZM285.982 218.962C286.18 218.962 286.347 218.923 286.483 218.845C286.62 218.768 286.723 218.667 286.793 218.544C286.864 218.421 286.899 218.291 286.899 218.155V217.696C286.878 217.722 286.831 217.745 286.759 217.767C286.688 217.786 286.606 217.804 286.512 217.82C286.42 217.834 286.331 217.847 286.243 217.858C286.156 217.868 286.086 217.876 286.033 217.883C285.902 217.9 285.781 217.928 285.667 217.966C285.555 218.003 285.465 218.059 285.395 218.134C285.327 218.208 285.293 218.308 285.293 218.435C285.293 218.61 285.358 218.741 285.487 218.831C285.617 218.918 285.782 218.962 285.982 218.962ZM288.521 220.559C288.436 220.559 288.36 220.552 288.294 220.538C288.227 220.525 288.181 220.512 288.156 220.5L288.283 220.058C288.405 220.089 288.512 220.1 288.606 220.092C288.699 220.083 288.782 220.042 288.854 219.967C288.928 219.893 288.995 219.773 289.056 219.608L289.15 219.353L287.943 216.074H288.487L289.387 218.673H289.421L290.322 216.074H290.865L289.481 219.812C289.419 219.98 289.341 220.12 289.249 220.23C289.157 220.342 289.05 220.425 288.929 220.478C288.808 220.532 288.672 220.559 288.521 220.559Z" fill="#666666"/>
<path d="M345.17 214.987H345.696V218.096C345.696 218.373 345.645 218.609 345.543 218.803C345.441 218.997 345.298 219.144 345.112 219.245C344.927 219.345 344.708 219.395 344.456 219.395C344.218 219.395 344.007 219.352 343.821 219.266C343.636 219.178 343.49 219.053 343.384 218.892C343.277 218.731 343.224 218.539 343.224 218.317H343.742C343.742 218.44 343.773 218.547 343.834 218.639C343.896 218.73 343.981 218.801 344.089 218.852C344.196 218.903 344.319 218.928 344.456 218.928C344.608 218.928 344.736 218.896 344.843 218.833C344.949 218.769 345.029 218.675 345.085 218.552C345.141 218.428 345.17 218.276 345.17 218.096V214.987ZM348.739 218.002V216.074H349.241V219.336H348.739V218.784H348.706C348.629 218.949 348.51 219.09 348.349 219.206C348.187 219.321 347.983 219.378 347.737 219.378C347.533 219.378 347.352 219.334 347.193 219.245C347.035 219.154 346.91 219.018 346.82 218.837C346.729 218.654 346.684 218.424 346.684 218.147V216.074H347.185V218.113C347.185 218.351 347.252 218.54 347.385 218.682C347.519 218.823 347.69 218.894 347.899 218.894C348.023 218.894 348.15 218.862 348.279 218.799C348.409 218.735 348.518 218.637 348.606 218.506C348.695 218.374 348.739 218.206 348.739 218.002ZM350.66 217.374V219.336H350.159V216.074H350.643V216.584H350.685C350.762 216.418 350.878 216.285 351.034 216.184C351.189 216.082 351.39 216.031 351.637 216.031C351.858 216.031 352.051 216.077 352.216 216.167C352.382 216.257 352.511 216.393 352.603 216.575C352.695 216.756 352.741 216.986 352.741 217.263V219.336H352.24V217.297C352.24 217.041 352.173 216.841 352.04 216.698C351.907 216.554 351.725 216.482 351.492 216.482C351.332 216.482 351.189 216.516 351.063 216.586C350.939 216.655 350.84 216.756 350.768 216.889C350.696 217.023 350.66 217.184 350.66 217.374Z" fill="#666666"/>
<path d="M19.5552 154.021C41.6866 150.246 63.8181 146.471 85.9495 143.666C108.081 140.861 130.212 137.193 152.344 137.193C174.475 137.193 196.607 138.222 218.738 138.573C240.87 138.926 263.001 139.306 285.133 139.306C307.264 139.306 329.395 133.309 351.527 127.313" stroke="#F54900" stroke-width="1.08732"/>
</g>
<defs>
<filter id="filter0_dd_27_50" x="0.000120521" y="8.03471e-05" width="371.083" height="250.408" filterUnits="userSpaceOnUse" color-interpolation-filters="sRGB">
<feFlood flood-opacity="0" result="BackgroundImageFix"/>
<feColorMatrix in="SourceAlpha" type="matrix" values="0 0 0 0 0 0 0 0 0 0 0 0 0 0 0 0 0 0 127 0" result="hardAlpha"/>
<feMorphology radius="0.543661" operator="erode" in="SourceAlpha" result="effect1_dropShadow_27_50"/>
<feOffset dy="0.543661"/>
<feGaussianBlur stdDeviation="0.543661"/>
<feComposite in2="hardAlpha" operator="out"/>
<feColorMatrix type="matrix" values="0 0 0 0 0 0 0 0 0 0 0 0 0 0 0 0 0 0 0.1 0"/>
<feBlend mode="normal" in2="BackgroundImageFix" result="effect1_dropShadow_27_50"/>
<feColorMatrix in="SourceAlpha" type="matrix" values="0 0 0 0 0 0 0 0 0 0 0 0 0 0 0 0 0 0 127 0" result="hardAlpha"/>
<feOffset dy="0.543661"/>
<feGaussianBlur stdDeviation="0.815491"/>
<feComposite in2="hardAlpha" operator="out"/>
<feColorMatrix type="matrix" values="0 0 0 0 0 0 0 0 0 0 0 0 0 0 0 0 0 0 0.1 0"/>
<feBlend mode="normal" in2="effect1_dropShadow_27_50" result="effect2_dropShadow_27_50"/>
<feBlend mode="normal" in="SourceGraphic" in2="effect2_dropShadow_27_50" result="shape"/>
</filter>
<clipPath id="clip0_27_50">
<rect width="26.0957" height="26.0957" fill="white" transform="translate(329.22 18.8494)"/>
</clipPath>
<clipPath id="clip1_27_50">
<rect width="26.0957" height="26.0957" fill="white" transform="translate(329.22 18.8494)"/>
</clipPath>
</defs>
</svg>
