<svg width="442" height="128" viewBox="0 0 442 128" fill="none" xmlns="http://www.w3.org/2000/svg">
<rect x="0.5" y="0.5" width="441" height="127" rx="23.5" fill="#FCFCFC"/>
<rect x="0.5" y="0.5" width="441" height="127" rx="23.5" stroke="#E4E4E4"/>
<path d="M23.26 35C23.1427 35 23.052 34.968 22.988 34.904C22.924 34.8293 22.892 34.7387 22.892 34.632V24.168C22.892 24.0613 22.924 23.976 22.988 23.912C23.052 23.8373 23.1427 23.8 23.26 23.8H24.108C24.2147 23.8 24.3 23.8373 24.364 23.912C24.4387 23.976 24.476 24.0613 24.476 24.168V34.632C24.476 34.7387 24.4387 34.8293 24.364 34.904C24.3 34.968 24.2147 35 24.108 35H23.26ZM32.8139 35C32.6752 35 32.5685 34.968 32.4939 34.904C32.4192 34.8293 32.3552 34.728 32.3019 34.6L30.0299 27.176C30.0085 27.1227 29.9979 27.0693 29.9979 27.016C29.9979 26.92 30.0299 26.84 30.0939 26.776C30.1685 26.712 30.2485 26.68 30.3339 26.68H31.0379C31.1552 26.68 31.2459 26.712 31.3099 26.776C31.3739 26.84 31.4165 26.8987 31.4379 26.952L33.2139 32.984L35.1179 27.016C35.1392 26.9413 35.1819 26.8667 35.2459 26.792C35.3205 26.7173 35.4272 26.68 35.5659 26.68H36.1099C36.2485 26.68 36.3552 26.7173 36.4299 26.792C36.5045 26.8667 36.5472 26.9413 36.5579 27.016L38.4619 32.984L40.2379 26.952C40.2485 26.8987 40.2859 26.84 40.3499 26.776C40.4139 26.712 40.5045 26.68 40.6219 26.68H41.3259C41.4219 26.68 41.5019 26.712 41.5659 26.776C41.6299 26.84 41.6619 26.92 41.6619 27.016C41.6619 27.0693 41.6512 27.1227 41.6299 27.176L39.3579 34.6C39.3259 34.728 39.2672 34.8293 39.1819 34.904C39.1072 34.968 38.9952 35 38.8459 35H38.2219C38.0832 35 37.9659 34.968 37.8699 34.904C37.7845 34.8293 37.7259 34.728 37.6939 34.6L35.8379 28.872L33.9819 34.6C33.9392 34.728 33.8752 34.8293 33.7899 34.904C33.7045 34.968 33.5872 35 33.4379 35H32.8139ZM45.5196 35.16C44.9863 35.16 44.501 35.0533 44.0636 34.84C43.6263 34.6267 43.2743 34.3387 43.0076 33.976C42.741 33.6133 42.6076 33.2027 42.6076 32.744C42.6076 32.008 42.9063 31.4213 43.5036 30.984C44.101 30.5467 44.8796 30.2587 45.8396 30.12L48.2236 29.784V29.32C48.2236 28.808 48.0743 28.408 47.7756 28.12C47.4876 27.832 47.013 27.688 46.3516 27.688C45.8716 27.688 45.4823 27.784 45.1836 27.976C44.8956 28.168 44.693 28.4133 44.5756 28.712C44.5116 28.872 44.3996 28.952 44.2396 28.952H43.5196C43.4023 28.952 43.3116 28.92 43.2476 28.856C43.1943 28.7813 43.1676 28.696 43.1676 28.6C43.1676 28.44 43.2263 28.2427 43.3436 28.008C43.4716 27.7733 43.6636 27.544 43.9196 27.32C44.1756 27.096 44.501 26.9093 44.8956 26.76C45.301 26.6 45.7916 26.52 46.3676 26.52C47.0076 26.52 47.5463 26.6053 47.9836 26.776C48.421 26.936 48.7623 27.1547 49.0076 27.432C49.2636 27.7093 49.445 28.024 49.5516 28.376C49.669 28.728 49.7276 29.0853 49.7276 29.448V34.632C49.7276 34.7387 49.6903 34.8293 49.6156 34.904C49.5516 34.968 49.4663 35 49.3596 35H48.6236C48.5063 35 48.4156 34.968 48.3516 34.904C48.2876 34.8293 48.2556 34.7387 48.2556 34.632V33.944C48.117 34.136 47.9303 34.328 47.6956 34.52C47.461 34.7013 47.1676 34.856 46.8156 34.984C46.4636 35.1013 46.0316 35.16 45.5196 35.16ZM45.8556 33.96C46.293 33.96 46.693 33.8693 47.0556 33.688C47.4183 33.496 47.701 33.2027 47.9036 32.808C48.117 32.4133 48.2236 31.9173 48.2236 31.32V30.872L46.3676 31.144C45.6103 31.2507 45.0396 31.432 44.6556 31.688C44.2716 31.9333 44.0796 32.248 44.0796 32.632C44.0796 32.9307 44.165 33.1813 44.3356 33.384C44.517 33.576 44.741 33.72 45.0076 33.816C45.285 33.912 45.5676 33.96 45.8556 33.96ZM52.3958 35C52.2891 35 52.1984 34.968 52.1238 34.904C52.0598 34.8293 52.0278 34.7387 52.0278 34.632V27.048C52.0278 26.9413 52.0598 26.856 52.1238 26.792C52.1984 26.7173 52.2891 26.68 52.3958 26.68H53.1478C53.2544 26.68 53.3398 26.7173 53.4038 26.792C53.4784 26.856 53.5158 26.9413 53.5158 27.048V27.752C53.7931 27.3893 54.1398 27.096 54.5558 26.872C54.9824 26.6373 55.5264 26.52 56.1878 26.52C56.8811 26.52 57.4678 26.6747 57.9478 26.984C58.4384 27.2827 58.8064 27.704 59.0518 28.248C59.2971 28.7813 59.4198 29.4053 59.4198 30.12V34.632C59.4198 34.7387 59.3878 34.8293 59.3238 34.904C59.2598 34.968 59.1744 35 59.0677 35H58.2678C58.1611 35 58.0704 34.968 57.9958 34.904C57.9318 34.8293 57.8998 34.7387 57.8998 34.632V30.2C57.8998 29.4533 57.7184 28.872 57.3558 28.456C56.9931 28.0293 56.4598 27.816 55.7558 27.816C55.0944 27.816 54.5611 28.0293 54.1558 28.456C53.7611 28.872 53.5638 29.4533 53.5638 30.2V34.632C53.5638 34.7387 53.5264 34.8293 53.4518 34.904C53.3878 34.968 53.3024 35 53.1957 35H52.3958ZM64.8695 35C64.2722 35 63.7868 34.888 63.4135 34.664C63.0402 34.4293 62.7682 34.104 62.5975 33.688C62.4268 33.2613 62.3415 32.76 62.3415 32.184V27.96H61.0935C60.9868 27.96 60.8962 27.928 60.8215 27.864C60.7575 27.7893 60.7255 27.6987 60.7255 27.592V27.048C60.7255 26.9413 60.7575 26.856 60.8215 26.792C60.8962 26.7173 60.9868 26.68 61.0935 26.68H62.3415V24.008C62.3415 23.9013 62.3735 23.816 62.4375 23.752C62.5122 23.6773 62.6028 23.64 62.7095 23.64H63.4615C63.5682 23.64 63.6535 23.6773 63.7175 23.752C63.7922 23.816 63.8295 23.9013 63.8295 24.008V26.68H65.8135C65.9202 26.68 66.0055 26.7173 66.0695 26.792C66.1442 26.856 66.1815 26.9413 66.1815 27.048V27.592C66.1815 27.6987 66.1442 27.7893 66.0695 27.864C66.0055 27.928 65.9202 27.96 65.8135 27.96H63.8295V32.072C63.8295 32.5733 63.9148 32.968 64.0855 33.256C64.2562 33.544 64.5602 33.688 64.9975 33.688H65.9735C66.0802 33.688 66.1655 33.7253 66.2295 33.8C66.3042 33.864 66.3415 33.9493 66.3415 34.056V34.632C66.3415 34.7387 66.3042 34.8293 66.2295 34.904C66.1655 34.968 66.0802 35 65.9735 35H64.8695ZM74.6976 35C74.1003 35 73.615 34.888 73.2416 34.664C72.8683 34.4293 72.5963 34.104 72.4256 33.688C72.255 33.2613 72.1696 32.76 72.1696 32.184V27.96H70.9216C70.815 27.96 70.7243 27.928 70.6496 27.864C70.5856 27.7893 70.5536 27.6987 70.5536 27.592V27.048C70.5536 26.9413 70.5856 26.856 70.6496 26.792C70.7243 26.7173 70.815 26.68 70.9216 26.68H72.1696V24.008C72.1696 23.9013 72.2016 23.816 72.2656 23.752C72.3403 23.6773 72.431 23.64 72.5376 23.64H73.2896C73.3963 23.64 73.4816 23.6773 73.5456 23.752C73.6203 23.816 73.6576 23.9013 73.6576 24.008V26.68H75.6416C75.7483 26.68 75.8336 26.7173 75.8976 26.792C75.9723 26.856 76.0096 26.9413 76.0096 27.048V27.592C76.0096 27.6987 75.9723 27.7893 75.8976 27.864C75.8336 27.928 75.7483 27.96 75.6416 27.96H73.6576V32.072C73.6576 32.5733 73.743 32.968 73.9136 33.256C74.0843 33.544 74.3883 33.688 74.8256 33.688H75.8016C75.9083 33.688 75.9936 33.7253 76.0576 33.8C76.1323 33.864 76.1696 33.9493 76.1696 34.056V34.632C76.1696 34.7387 76.1323 34.8293 76.0576 34.904C75.9936 34.968 75.9083 35 75.8016 35H74.6976ZM81.1076 35.16C80.297 35.16 79.6196 35.0053 79.0756 34.696C78.5316 34.3867 78.1156 33.96 77.8276 33.416C77.5396 32.8613 77.3796 32.232 77.3476 31.528C77.337 31.3467 77.3316 31.1173 77.3316 30.84C77.3316 30.552 77.337 30.3227 77.3476 30.152C77.3796 29.4373 77.5396 28.808 77.8276 28.264C78.1263 27.72 78.5476 27.2933 79.0916 26.984C79.6356 26.6747 80.3076 26.52 81.1076 26.52C81.9076 26.52 82.5796 26.6747 83.1236 26.984C83.6676 27.2933 84.0836 27.72 84.3716 28.264C84.6703 28.808 84.8356 29.4373 84.8676 30.152C84.8783 30.3227 84.8836 30.552 84.8836 30.84C84.8836 31.1173 84.8783 31.3467 84.8676 31.528C84.8356 32.232 84.6756 32.8613 84.3876 33.416C84.0996 33.96 83.6836 34.3867 83.1396 34.696C82.5956 35.0053 81.9183 35.16 81.1076 35.16ZM81.1076 33.928C81.769 33.928 82.297 33.72 82.6916 33.304C83.0863 32.8773 83.2996 32.2587 83.3316 31.448C83.3423 31.288 83.3476 31.0853 83.3476 30.84C83.3476 30.5947 83.3423 30.392 83.3316 30.232C83.2996 29.4213 83.0863 28.808 82.6916 28.392C82.297 27.9653 81.769 27.752 81.1076 27.752C80.4463 27.752 79.913 27.9653 79.5076 28.392C79.113 28.808 78.905 29.4213 78.8836 30.232C78.873 30.392 78.8676 30.5947 78.8676 30.84C78.8676 31.0853 78.873 31.288 78.8836 31.448C78.905 32.2587 79.113 32.8773 79.5076 33.304C79.913 33.72 80.4463 33.928 81.1076 33.928ZM94.169 35.16C93.4117 35.16 92.7557 35.016 92.201 34.728C91.657 34.4293 91.2357 34.008 90.937 33.464C90.6383 32.9093 90.4783 32.248 90.457 31.48C90.4463 31.32 90.441 31.1067 90.441 30.84C90.441 30.5733 90.4463 30.36 90.457 30.2C90.4783 29.432 90.6383 28.776 90.937 28.232C91.2357 27.6773 91.657 27.256 92.201 26.968C92.7557 26.6693 93.4117 26.52 94.169 26.52C94.7877 26.52 95.3157 26.6053 95.753 26.776C96.201 26.9467 96.569 27.1653 96.857 27.432C97.145 27.6987 97.3583 27.9867 97.497 28.296C97.6463 28.6053 97.7263 28.8987 97.737 29.176C97.7477 29.2827 97.7157 29.368 97.641 29.432C97.5663 29.496 97.4757 29.528 97.369 29.528H96.601C96.4943 29.528 96.4143 29.5067 96.361 29.464C96.3077 29.4107 96.2543 29.3253 96.201 29.208C96.009 28.6853 95.7477 28.3173 95.417 28.104C95.0863 27.8907 94.6757 27.784 94.185 27.784C93.545 27.784 93.0223 27.9813 92.617 28.376C92.2223 28.7707 92.009 29.4053 91.977 30.28C91.9663 30.664 91.9663 31.0373 91.977 31.4C92.009 32.2853 92.2223 32.9253 92.617 33.32C93.0223 33.704 93.545 33.896 94.185 33.896C94.6757 33.896 95.0863 33.7893 95.417 33.576C95.7477 33.3627 96.009 32.9947 96.201 32.472C96.2543 32.3547 96.3077 32.2747 96.361 32.232C96.4143 32.1787 96.4943 32.152 96.601 32.152H97.369C97.4757 32.152 97.5663 32.184 97.641 32.248C97.7157 32.312 97.7477 32.3973 97.737 32.504C97.7263 32.728 97.6783 32.9573 97.593 33.192C97.5077 33.4267 97.369 33.6667 97.177 33.912C96.9957 34.1467 96.7663 34.36 96.489 34.552C96.2117 34.7333 95.8757 34.8827 95.481 35C95.097 35.1067 94.6597 35.16 94.169 35.16ZM100.005 35C99.8985 35 99.8078 34.968 99.7331 34.904C99.6691 34.8293 99.6371 34.7387 99.6371 34.632V27.064C99.6371 26.9573 99.6691 26.8667 99.7331 26.792C99.8078 26.7173 99.8985 26.68 100.005 26.68H100.741C100.848 26.68 100.938 26.7173 101.013 26.792C101.088 26.8667 101.125 26.9573 101.125 27.064V27.768C101.338 27.4053 101.632 27.1333 102.005 26.952C102.378 26.7707 102.826 26.68 103.349 26.68H103.989C104.096 26.68 104.181 26.7173 104.245 26.792C104.309 26.856 104.341 26.9413 104.341 27.048V27.704C104.341 27.8107 104.309 27.896 104.245 27.96C104.181 28.024 104.096 28.056 103.989 28.056H103.029C102.453 28.056 102 28.2267 101.669 28.568C101.338 28.8987 101.173 29.352 101.173 29.928V34.632C101.173 34.7387 101.136 34.8293 101.061 34.904C100.986 34.968 100.896 35 100.789 35H100.005ZM108.871 35.16C107.772 35.16 106.898 34.824 106.247 34.152C105.596 33.4693 105.239 32.5413 105.175 31.368C105.164 31.2293 105.159 31.0533 105.159 30.84C105.159 30.616 105.164 30.4347 105.175 30.296C105.218 29.5387 105.394 28.8773 105.703 28.312C106.012 27.736 106.434 27.2933 106.967 26.984C107.511 26.6747 108.146 26.52 108.871 26.52C109.682 26.52 110.359 26.6907 110.903 27.032C111.458 27.3733 111.879 27.8587 112.167 28.488C112.455 29.1173 112.599 29.8533 112.599 30.696V30.968C112.599 31.0853 112.562 31.176 112.487 31.24C112.423 31.304 112.338 31.336 112.231 31.336H106.695C106.695 31.3467 106.695 31.368 106.695 31.4C106.695 31.432 106.695 31.4587 106.695 31.48C106.716 31.9173 106.812 32.328 106.983 32.712C107.154 33.0853 107.399 33.3893 107.719 33.624C108.039 33.8587 108.423 33.976 108.871 33.976C109.255 33.976 109.575 33.9173 109.831 33.8C110.087 33.6827 110.295 33.5547 110.455 33.416C110.615 33.2667 110.722 33.1547 110.775 33.08C110.871 32.9413 110.946 32.8613 110.999 32.84C111.052 32.808 111.138 32.792 111.255 32.792H112.023C112.13 32.792 112.215 32.824 112.279 32.888C112.354 32.9413 112.386 33.0213 112.375 33.128C112.364 33.288 112.279 33.4853 112.119 33.72C111.959 33.944 111.73 34.168 111.431 34.392C111.132 34.616 110.77 34.8027 110.343 34.952C109.916 35.0907 109.426 35.16 108.871 35.16ZM106.695 30.232H111.079V30.184C111.079 29.704 110.988 29.2773 110.807 28.904C110.636 28.5307 110.386 28.2373 110.055 28.024C109.724 27.8 109.33 27.688 108.871 27.688C108.412 27.688 108.018 27.8 107.687 28.024C107.367 28.2373 107.122 28.5307 106.951 28.904C106.78 29.2773 106.695 29.704 106.695 30.184V30.232ZM116.832 35.16C116.299 35.16 115.813 35.0533 115.376 34.84C114.939 34.6267 114.587 34.3387 114.32 33.976C114.053 33.6133 113.92 33.2027 113.92 32.744C113.92 32.008 114.219 31.4213 114.816 30.984C115.413 30.5467 116.192 30.2587 117.152 30.12L119.536 29.784V29.32C119.536 28.808 119.387 28.408 119.088 28.12C118.8 27.832 118.325 27.688 117.664 27.688C117.184 27.688 116.795 27.784 116.496 27.976C116.208 28.168 116.005 28.4133 115.888 28.712C115.824 28.872 115.712 28.952 115.552 28.952H114.832C114.715 28.952 114.624 28.92 114.56 28.856C114.507 28.7813 114.48 28.696 114.48 28.6C114.48 28.44 114.539 28.2427 114.656 28.008C114.784 27.7733 114.976 27.544 115.232 27.32C115.488 27.096 115.813 26.9093 116.208 26.76C116.613 26.6 117.104 26.52 117.68 26.52C118.32 26.52 118.859 26.6053 119.296 26.776C119.733 26.936 120.075 27.1547 120.32 27.432C120.576 27.7093 120.757 28.024 120.864 28.376C120.981 28.728 121.04 29.0853 121.04 29.448V34.632C121.04 34.7387 121.003 34.8293 120.928 34.904C120.864 34.968 120.779 35 120.672 35H119.936C119.819 35 119.728 34.968 119.664 34.904C119.6 34.8293 119.568 34.7387 119.568 34.632V33.944C119.429 34.136 119.243 34.328 119.008 34.52C118.773 34.7013 118.48 34.856 118.128 34.984C117.776 35.1013 117.344 35.16 116.832 35.16ZM117.168 33.96C117.605 33.96 118.005 33.8693 118.368 33.688C118.731 33.496 119.013 33.2027 119.216 32.808C119.429 32.4133 119.536 31.9173 119.536 31.32V30.872L117.68 31.144C116.923 31.2507 116.352 31.432 115.968 31.688C115.584 31.9333 115.392 32.248 115.392 32.632C115.392 32.9307 115.477 33.1813 115.648 33.384C115.829 33.576 116.053 33.72 116.32 33.816C116.597 33.912 116.88 33.96 117.168 33.96ZM126.51 35C125.913 35 125.427 34.888 125.054 34.664C124.681 34.4293 124.409 34.104 124.238 33.688C124.067 33.2613 123.982 32.76 123.982 32.184V27.96H122.734C122.627 27.96 122.537 27.928 122.462 27.864C122.398 27.7893 122.366 27.6987 122.366 27.592V27.048C122.366 26.9413 122.398 26.856 122.462 26.792C122.537 26.7173 122.627 26.68 122.734 26.68H123.982V24.008C123.982 23.9013 124.014 23.816 124.078 23.752C124.153 23.6773 124.243 23.64 124.35 23.64H125.102C125.209 23.64 125.294 23.6773 125.358 23.752C125.433 23.816 125.47 23.9013 125.47 24.008V26.68H127.454C127.561 26.68 127.646 26.7173 127.71 26.792C127.785 26.856 127.822 26.9413 127.822 27.048V27.592C127.822 27.6987 127.785 27.7893 127.71 27.864C127.646 27.928 127.561 27.96 127.454 27.96H125.47V32.072C125.47 32.5733 125.555 32.968 125.726 33.256C125.897 33.544 126.201 33.688 126.638 33.688H127.614C127.721 33.688 127.806 33.7253 127.87 33.8C127.945 33.864 127.982 33.9493 127.982 34.056V34.632C127.982 34.7387 127.945 34.8293 127.87 34.904C127.806 34.968 127.721 35 127.614 35H126.51ZM132.824 35.16C131.725 35.16 130.851 34.824 130.2 34.152C129.549 33.4693 129.192 32.5413 129.128 31.368C129.117 31.2293 129.112 31.0533 129.112 30.84C129.112 30.616 129.117 30.4347 129.128 30.296C129.171 29.5387 129.347 28.8773 129.656 28.312C129.965 27.736 130.387 27.2933 130.92 26.984C131.464 26.6747 132.099 26.52 132.824 26.52C133.635 26.52 134.312 26.6907 134.856 27.032C135.411 27.3733 135.832 27.8587 136.12 28.488C136.408 29.1173 136.552 29.8533 136.552 30.696V30.968C136.552 31.0853 136.515 31.176 136.44 31.24C136.376 31.304 136.291 31.336 136.184 31.336H130.648C130.648 31.3467 130.648 31.368 130.648 31.4C130.648 31.432 130.648 31.4587 130.648 31.48C130.669 31.9173 130.765 32.328 130.936 32.712C131.107 33.0853 131.352 33.3893 131.672 33.624C131.992 33.8587 132.376 33.976 132.824 33.976C133.208 33.976 133.528 33.9173 133.784 33.8C134.04 33.6827 134.248 33.5547 134.408 33.416C134.568 33.2667 134.675 33.1547 134.728 33.08C134.824 32.9413 134.899 32.8613 134.952 32.84C135.005 32.808 135.091 32.792 135.208 32.792H135.976C136.083 32.792 136.168 32.824 136.232 32.888C136.307 32.9413 136.339 33.0213 136.328 33.128C136.317 33.288 136.232 33.4853 136.072 33.72C135.912 33.944 135.683 34.168 135.384 34.392C135.085 34.616 134.723 34.8027 134.296 34.952C133.869 35.0907 133.379 35.16 132.824 35.16ZM130.648 30.232H135.032V30.184C135.032 29.704 134.941 29.2773 134.76 28.904C134.589 28.5307 134.339 28.2373 134.008 28.024C133.677 27.8 133.283 27.688 132.824 27.688C132.365 27.688 131.971 27.8 131.64 28.024C131.32 28.2373 131.075 28.5307 130.904 28.904C130.733 29.2773 130.648 29.704 130.648 30.184V30.232ZM144.707 35.16C144.174 35.16 143.688 35.0533 143.251 34.84C142.814 34.6267 142.462 34.3387 142.195 33.976C141.928 33.6133 141.795 33.2027 141.795 32.744C141.795 32.008 142.094 31.4213 142.691 30.984C143.288 30.5467 144.067 30.2587 145.027 30.12L147.411 29.784V29.32C147.411 28.808 147.262 28.408 146.963 28.12C146.675 27.832 146.2 27.688 145.539 27.688C145.059 27.688 144.67 27.784 144.371 27.976C144.083 28.168 143.88 28.4133 143.763 28.712C143.699 28.872 143.587 28.952 143.427 28.952H142.707C142.59 28.952 142.499 28.92 142.435 28.856C142.382 28.7813 142.355 28.696 142.355 28.6C142.355 28.44 142.414 28.2427 142.531 28.008C142.659 27.7733 142.851 27.544 143.107 27.32C143.363 27.096 143.688 26.9093 144.083 26.76C144.488 26.6 144.979 26.52 145.555 26.52C146.195 26.52 146.734 26.6053 147.171 26.776C147.608 26.936 147.95 27.1547 148.195 27.432C148.451 27.7093 148.632 28.024 148.739 28.376C148.856 28.728 148.915 29.0853 148.915 29.448V34.632C148.915 34.7387 148.878 34.8293 148.803 34.904C148.739 34.968 148.654 35 148.547 35H147.811C147.694 35 147.603 34.968 147.539 34.904C147.475 34.8293 147.443 34.7387 147.443 34.632V33.944C147.304 34.136 147.118 34.328 146.883 34.52C146.648 34.7013 146.355 34.856 146.003 34.984C145.651 35.1013 145.219 35.16 144.707 35.16ZM145.043 33.96C145.48 33.96 145.88 33.8693 146.243 33.688C146.606 33.496 146.888 33.2027 147.091 32.808C147.304 32.4133 147.411 31.9173 147.411 31.32V30.872L145.555 31.144C144.798 31.2507 144.227 31.432 143.843 31.688C143.459 31.9333 143.267 32.248 143.267 32.632C143.267 32.9307 143.352 33.1813 143.523 33.384C143.704 33.576 143.928 33.72 144.195 33.816C144.472 33.912 144.755 33.96 145.043 33.96ZM158.041 35C157.444 35 156.959 34.888 156.585 34.664C156.212 34.4293 155.94 34.104 155.769 33.688C155.599 33.2613 155.513 32.76 155.513 32.184V27.96H154.265C154.159 27.96 154.068 27.928 153.993 27.864C153.929 27.7893 153.897 27.6987 153.897 27.592V27.048C153.897 26.9413 153.929 26.856 153.993 26.792C154.068 26.7173 154.159 26.68 154.265 26.68H155.513V24.008C155.513 23.9013 155.545 23.816 155.609 23.752C155.684 23.6773 155.775 23.64 155.881 23.64H156.633C156.74 23.64 156.825 23.6773 156.889 23.752C156.964 23.816 157.001 23.9013 157.001 24.008V26.68H158.985C159.092 26.68 159.177 26.7173 159.241 26.792C159.316 26.856 159.353 26.9413 159.353 27.048V27.592C159.353 27.6987 159.316 27.7893 159.241 27.864C159.177 27.928 159.092 27.96 158.985 27.96H157.001V32.072C157.001 32.5733 157.087 32.968 157.257 33.256C157.428 33.544 157.732 33.688 158.169 33.688H159.145C159.252 33.688 159.337 33.7253 159.401 33.8C159.476 33.864 159.513 33.9493 159.513 34.056V34.632C159.513 34.7387 159.476 34.8293 159.401 34.904C159.337 34.968 159.252 35 159.145 35H158.041ZM163.363 35.16C162.83 35.16 162.345 35.0533 161.907 34.84C161.47 34.6267 161.118 34.3387 160.851 33.976C160.585 33.6133 160.451 33.2027 160.451 32.744C160.451 32.008 160.75 31.4213 161.347 30.984C161.945 30.5467 162.723 30.2587 163.683 30.12L166.067 29.784V29.32C166.067 28.808 165.918 28.408 165.619 28.12C165.331 27.832 164.857 27.688 164.195 27.688C163.715 27.688 163.326 27.784 163.027 27.976C162.739 28.168 162.537 28.4133 162.419 28.712C162.355 28.872 162.243 28.952 162.083 28.952H161.363C161.246 28.952 161.155 28.92 161.091 28.856C161.038 28.7813 161.011 28.696 161.011 28.6C161.011 28.44 161.07 28.2427 161.187 28.008C161.315 27.7733 161.507 27.544 161.763 27.32C162.019 27.096 162.345 26.9093 162.739 26.76C163.145 26.6 163.635 26.52 164.211 26.52C164.851 26.52 165.39 26.6053 165.827 26.776C166.265 26.936 166.606 27.1547 166.851 27.432C167.107 27.7093 167.289 28.024 167.395 28.376C167.513 28.728 167.571 29.0853 167.571 29.448V34.632C167.571 34.7387 167.534 34.8293 167.459 34.904C167.395 34.968 167.31 35 167.203 35H166.467C166.35 35 166.259 34.968 166.195 34.904C166.131 34.8293 166.099 34.7387 166.099 34.632V33.944C165.961 34.136 165.774 34.328 165.539 34.52C165.305 34.7013 165.011 34.856 164.659 34.984C164.307 35.1013 163.875 35.16 163.363 35.16ZM163.699 33.96C164.137 33.96 164.537 33.8693 164.899 33.688C165.262 33.496 165.545 33.2027 165.747 32.808C165.961 32.4133 166.067 31.9173 166.067 31.32V30.872L164.211 31.144C163.454 31.2507 162.883 31.432 162.499 31.688C162.115 31.9333 161.923 32.248 161.923 32.632C161.923 32.9307 162.009 33.1813 162.179 33.384C162.361 33.576 162.585 33.72 162.851 33.816C163.129 33.912 163.411 33.96 163.699 33.96ZM173.984 35.16C173.344 35.16 172.81 35.048 172.384 34.824C171.957 34.5893 171.616 34.3013 171.36 33.96V34.632C171.36 34.7387 171.322 34.8293 171.248 34.904C171.184 34.968 171.098 35 170.992 35H170.256C170.149 35 170.058 34.968 169.984 34.904C169.92 34.8293 169.888 34.7387 169.888 34.632V24.008C169.888 23.9013 169.92 23.816 169.984 23.752C170.058 23.6773 170.149 23.64 170.256 23.64H171.024C171.141 23.64 171.232 23.6773 171.296 23.752C171.36 23.816 171.392 23.9013 171.392 24.008V27.688C171.658 27.3573 172 27.08 172.416 26.856C172.842 26.632 173.365 26.52 173.984 26.52C174.581 26.52 175.088 26.6267 175.504 26.84C175.93 27.0427 176.277 27.3253 176.544 27.688C176.821 28.0507 177.029 28.4613 177.168 28.92C177.306 29.3787 177.381 29.8587 177.392 30.36C177.402 30.5307 177.408 30.6907 177.408 30.84C177.408 30.9893 177.402 31.1493 177.392 31.32C177.381 31.832 177.306 32.3173 177.168 32.776C177.029 33.2347 176.821 33.6453 176.544 34.008C176.277 34.36 175.93 34.6427 175.504 34.856C175.088 35.0587 174.581 35.16 173.984 35.16ZM173.648 33.864C174.202 33.864 174.634 33.7467 174.944 33.512C175.264 33.2667 175.493 32.952 175.632 32.568C175.77 32.1733 175.85 31.752 175.872 31.304C175.882 30.9947 175.882 30.6853 175.872 30.376C175.85 29.928 175.77 29.512 175.632 29.128C175.493 28.7333 175.264 28.4187 174.944 28.184C174.634 27.9387 174.202 27.816 173.648 27.816C173.146 27.816 172.73 27.9333 172.4 28.168C172.069 28.4027 171.818 28.7013 171.648 29.064C171.488 29.4267 171.402 29.7947 171.392 30.168C171.381 30.3387 171.376 30.5467 171.376 30.792C171.376 31.0267 171.381 31.2293 171.392 31.4C171.413 31.7947 171.498 32.184 171.648 32.568C171.808 32.9413 172.048 33.2507 172.368 33.496C172.698 33.7413 173.125 33.864 173.648 33.864ZM179.771 35C179.664 35 179.574 34.968 179.499 34.904C179.435 34.8293 179.403 34.7387 179.403 34.632V24.008C179.403 23.9013 179.435 23.816 179.499 23.752C179.574 23.6773 179.664 23.64 179.771 23.64H180.523C180.64 23.64 180.731 23.6773 180.795 23.752C180.859 23.816 180.891 23.9013 180.891 24.008V34.632C180.891 34.7387 180.859 34.8293 180.795 34.904C180.731 34.968 180.64 35 180.523 35H179.771ZM186.59 35.16C185.491 35.16 184.616 34.824 183.966 34.152C183.315 33.4693 182.958 32.5413 182.894 31.368C182.883 31.2293 182.878 31.0533 182.878 30.84C182.878 30.616 182.883 30.4347 182.894 30.296C182.936 29.5387 183.112 28.8773 183.422 28.312C183.731 27.736 184.152 27.2933 184.686 26.984C185.23 26.6747 185.864 26.52 186.59 26.52C187.4 26.52 188.078 26.6907 188.622 27.032C189.176 27.3733 189.598 27.8587 189.886 28.488C190.174 29.1173 190.318 29.8533 190.318 30.696V30.968C190.318 31.0853 190.28 31.176 190.206 31.24C190.142 31.304 190.056 31.336 189.95 31.336H184.414C184.414 31.3467 184.414 31.368 184.414 31.4C184.414 31.432 184.414 31.4587 184.414 31.48C184.435 31.9173 184.531 32.328 184.702 32.712C184.872 33.0853 185.118 33.3893 185.438 33.624C185.758 33.8587 186.142 33.976 186.59 33.976C186.974 33.976 187.294 33.9173 187.55 33.8C187.806 33.6827 188.014 33.5547 188.174 33.416C188.334 33.2667 188.44 33.1547 188.494 33.08C188.59 32.9413 188.664 32.8613 188.718 32.84C188.771 32.808 188.856 32.792 188.974 32.792H189.742C189.848 32.792 189.934 32.824 189.998 32.888C190.072 32.9413 190.104 33.0213 190.094 33.128C190.083 33.288 189.998 33.4853 189.838 33.72C189.678 33.944 189.448 34.168 189.15 34.392C188.851 34.616 188.488 34.8027 188.062 34.952C187.635 35.0907 187.144 35.16 186.59 35.16ZM184.414 30.232H188.798V30.184C188.798 29.704 188.707 29.2773 188.526 28.904C188.355 28.5307 188.104 28.2373 187.774 28.024C187.443 27.8 187.048 27.688 186.59 27.688C186.131 27.688 185.736 27.8 185.406 28.024C185.086 28.2373 184.84 28.5307 184.67 28.904C184.499 29.2773 184.414 29.704 184.414 30.184V30.232ZM199.561 35.16C198.75 35.16 198.073 35.0053 197.529 34.696C196.985 34.3867 196.569 33.96 196.281 33.416C195.993 32.8613 195.833 32.232 195.801 31.528C195.79 31.3467 195.785 31.1173 195.785 30.84C195.785 30.552 195.79 30.3227 195.801 30.152C195.833 29.4373 195.993 28.808 196.281 28.264C196.579 27.72 197.001 27.2933 197.545 26.984C198.089 26.6747 198.761 26.52 199.561 26.52C200.361 26.52 201.033 26.6747 201.577 26.984C202.121 27.2933 202.537 27.72 202.825 28.264C203.123 28.808 203.289 29.4373 203.321 30.152C203.331 30.3227 203.337 30.552 203.337 30.84C203.337 31.1173 203.331 31.3467 203.321 31.528C203.289 32.232 203.129 32.8613 202.841 33.416C202.553 33.96 202.137 34.3867 201.593 34.696C201.049 35.0053 200.371 35.16 199.561 35.16ZM199.561 33.928C200.222 33.928 200.75 33.72 201.145 33.304C201.539 32.8773 201.753 32.2587 201.785 31.448C201.795 31.288 201.801 31.0853 201.801 30.84C201.801 30.5947 201.795 30.392 201.785 30.232C201.753 29.4213 201.539 28.808 201.145 28.392C200.75 27.9653 200.222 27.752 199.561 27.752C198.899 27.752 198.366 27.9653 197.961 28.392C197.566 28.808 197.358 29.4213 197.337 30.232C197.326 30.392 197.321 30.5947 197.321 30.84C197.321 31.0853 197.326 31.288 197.337 31.448C197.358 32.2587 197.566 32.8773 197.961 33.304C198.366 33.72 198.899 33.928 199.561 33.928ZM206.447 35C206.34 35 206.249 34.968 206.174 34.904C206.111 34.8293 206.079 34.7387 206.079 34.632V27.96H204.719C204.612 27.96 204.521 27.928 204.447 27.864C204.383 27.7893 204.351 27.6987 204.351 27.592V27.048C204.351 26.9413 204.383 26.856 204.447 26.792C204.521 26.7173 204.612 26.68 204.719 26.68H206.079V25.88C206.079 25.336 206.169 24.8613 206.351 24.456C206.532 24.04 206.82 23.72 207.215 23.496C207.62 23.272 208.159 23.16 208.831 23.16H209.791C209.897 23.16 209.983 23.1973 210.047 23.272C210.111 23.336 210.143 23.4213 210.143 23.528V24.072C210.143 24.1787 210.111 24.2693 210.047 24.344C209.983 24.408 209.897 24.44 209.791 24.44H208.863C208.361 24.44 208.02 24.5733 207.839 24.84C207.657 25.096 207.567 25.4693 207.567 25.96V26.68H209.631C209.737 26.68 209.823 26.7173 209.887 26.792C209.951 26.856 209.983 26.9413 209.983 27.048V27.592C209.983 27.6987 209.951 27.7893 209.887 27.864C209.823 27.928 209.737 27.96 209.631 27.96H207.567V34.632C207.567 34.7387 207.529 34.8293 207.455 34.904C207.391 34.968 207.305 35 207.199 35H206.447ZM217.285 35.16C216.752 35.16 216.267 35.0533 215.829 34.84C215.392 34.6267 215.04 34.3387 214.773 33.976C214.507 33.6133 214.373 33.2027 214.373 32.744C214.373 32.008 214.672 31.4213 215.269 30.984C215.867 30.5467 216.645 30.2587 217.605 30.12L219.989 29.784V29.32C219.989 28.808 219.84 28.408 219.541 28.12C219.253 27.832 218.779 27.688 218.117 27.688C217.637 27.688 217.248 27.784 216.949 27.976C216.661 28.168 216.459 28.4133 216.341 28.712C216.277 28.872 216.165 28.952 216.005 28.952H215.285C215.168 28.952 215.077 28.92 215.013 28.856C214.96 28.7813 214.933 28.696 214.933 28.6C214.933 28.44 214.992 28.2427 215.109 28.008C215.237 27.7733 215.429 27.544 215.685 27.32C215.941 27.096 216.267 26.9093 216.661 26.76C217.067 26.6 217.557 26.52 218.133 26.52C218.773 26.52 219.312 26.6053 219.749 26.776C220.187 26.936 220.528 27.1547 220.773 27.432C221.029 27.7093 221.211 28.024 221.317 28.376C221.435 28.728 221.493 29.0853 221.493 29.448V34.632C221.493 34.7387 221.456 34.8293 221.381 34.904C221.317 34.968 221.232 35 221.125 35H220.389C220.272 35 220.181 34.968 220.117 34.904C220.053 34.8293 220.021 34.7387 220.021 34.632V33.944C219.883 34.136 219.696 34.328 219.461 34.52C219.227 34.7013 218.933 34.856 218.581 34.984C218.229 35.1013 217.797 35.16 217.285 35.16ZM217.621 33.96C218.059 33.96 218.459 33.8693 218.821 33.688C219.184 33.496 219.467 33.2027 219.669 32.808C219.883 32.4133 219.989 31.9173 219.989 31.32V30.872L218.133 31.144C217.376 31.2507 216.805 31.432 216.421 31.688C216.037 31.9333 215.845 32.248 215.845 32.632C215.845 32.9307 215.931 33.1813 216.101 33.384C216.283 33.576 216.507 33.72 216.773 33.816C217.051 33.912 217.333 33.96 217.621 33.96Z" fill="#18181B"/>
<rect x="17.5" y="85" width="53" height="24" rx="12" fill="#EDE9FE"/>
<path d="M27.7756 92.2727V101H26.4588V92.2727H27.7756ZM30.8651 97.1136V101H29.5909V94.4545H30.8139V95.5199H30.8949C31.0455 95.1733 31.2813 94.8949 31.6023 94.6847C31.9261 94.4744 32.3338 94.3693 32.8253 94.3693C33.2713 94.3693 33.6619 94.4631 33.9972 94.6506C34.3324 94.8352 34.5923 95.1108 34.777 95.4773C34.9616 95.8437 35.054 96.2969 35.054 96.8366V101H33.7798V96.9901C33.7798 96.5156 33.6563 96.1449 33.4091 95.8778C33.1619 95.608 32.8224 95.473 32.3906 95.473C32.0952 95.473 31.8324 95.5369 31.6023 95.6648C31.375 95.7926 31.1946 95.9801 31.0611 96.2273C30.9304 96.4716 30.8651 96.767 30.8651 97.1136ZM39.8778 94.4545V95.4773H36.179V94.4545H39.8778ZM37.1932 101V93.696C37.1932 93.2869 37.2827 92.9474 37.4616 92.6776C37.6406 92.4048 37.8778 92.2017 38.1733 92.0682C38.4688 91.9318 38.7898 91.8636 39.1364 91.8636C39.392 91.8636 39.6108 91.8849 39.7926 91.9276C39.9744 91.9673 40.1094 92.0043 40.1974 92.0384L39.8991 93.0696C39.8395 93.0526 39.7628 93.0327 39.669 93.0099C39.5753 92.9844 39.4616 92.9716 39.3281 92.9716C39.0185 92.9716 38.7969 93.0483 38.6634 93.2017C38.5327 93.3551 38.4673 93.5767 38.4673 93.8665V101H37.1932ZM43.6918 101.132C43.0781 101.132 42.5426 100.991 42.0852 100.71C41.6278 100.429 41.2727 100.036 41.0199 99.5298C40.767 99.0241 40.6406 98.4332 40.6406 97.7571C40.6406 97.0781 40.767 96.4844 41.0199 95.9759C41.2727 95.4673 41.6278 95.0724 42.0852 94.7912C42.5426 94.5099 43.0781 94.3693 43.6918 94.3693C44.3054 94.3693 44.8409 94.5099 45.2983 94.7912C45.7557 95.0724 46.1108 95.4673 46.3636 95.9759C46.6165 96.4844 46.7429 97.0781 46.7429 97.7571C46.7429 98.4332 46.6165 99.0241 46.3636 99.5298C46.1108 100.036 45.7557 100.429 45.2983 100.71C44.8409 100.991 44.3054 101.132 43.6918 101.132ZM43.696 100.062C44.0938 100.062 44.4233 99.9574 44.6847 99.7472C44.946 99.5369 45.1392 99.2571 45.2642 98.9077C45.392 98.5582 45.456 98.1733 45.456 97.7528C45.456 97.3352 45.392 96.9517 45.2642 96.6023C45.1392 96.25 44.946 95.9673 44.6847 95.7543C44.4233 95.5412 44.0938 95.4347 43.696 95.4347C43.2955 95.4347 42.9631 95.5412 42.6989 95.7543C42.4375 95.9673 42.2429 96.25 42.1151 96.6023C41.9901 96.9517 41.9276 97.3352 41.9276 97.7528C41.9276 98.1733 41.9901 98.5582 42.1151 98.9077C42.2429 99.2571 42.4375 99.5369 42.6989 99.7472C42.9631 99.9574 43.2955 100.062 43.696 100.062ZM56.7784 101.158L56.0114 100.399L58.6747 97.7358H51.9844V96.6278H58.6747L56.0114 93.9688L56.7784 93.206L60.7543 97.1818L56.7784 101.158Z" fill="#8A38F5"/>
<rect x="82.5" y="83" width="28" height="28" rx="14" fill="#F5F5F5"/>
<path d="M101.074 91.1604C100.178 90.2651 98.7269 90.2651 97.8316 91.1604L92.1051 96.8869C90.6168 98.3751 90.6168 100.788 92.1051 102.276C93.5934 103.765 96.0064 103.765 97.4946 102.276L102.126 97.6456C102.416 97.3548 102.888 97.3548 103.178 97.6456C103.469 97.9363 103.469 98.4076 103.178 98.6984L98.5474 103.329C96.4777 105.399 93.122 105.399 91.0523 103.329C88.9826 101.26 88.9826 97.9038 91.0523 95.8341L96.7788 90.1075C98.2555 88.6308 100.65 88.6308 102.127 90.1075C103.603 91.5843 103.603 93.9785 102.127 95.4552L96.4 101.182C95.5163 102.066 94.0835 102.066 93.1997 101.182C92.316 100.298 92.316 98.8652 93.1997 97.9815L98.5683 92.6129C98.8591 92.3222 99.3304 92.3222 99.6211 92.6129C99.9119 92.9036 99.9119 93.375 99.6211 93.6657L94.2525 99.0343C93.9503 99.3366 93.9503 99.8267 94.2525 100.129C94.5548 100.431 95.0449 100.431 95.3472 100.129L101.074 94.4024C101.969 93.5072 101.969 92.0556 101.074 91.1604Z" fill="#6B6F7A"/>
<rect x="122.5" y="83" width="28" height="28" rx="14" fill="#F5F5F5"/>
<path d="M141.167 91H131.833C131.097 91 130.5 91.597 130.5 92.3333V101.667C130.5 102.403 131.097 103 131.833 103H141.167C141.903 103 142.5 102.403 142.5 101.667V92.3333C142.5 91.597 141.903 91 141.167 91Z" stroke="#6B6F7A" stroke-width="1.5"/>
<path d="M130.5 95H142.5M134.5 103V95" stroke="#6B6F7A" stroke-width="1.5"/>
<rect x="162.5" y="83" width="28" height="28" rx="14" fill="#F5F5F5"/>
<path d="M176.5 103.667C180.182 103.667 183.167 100.682 183.167 97C183.167 93.3181 180.182 90.3334 176.5 90.3334C172.818 90.3334 169.833 93.3181 169.833 97C169.833 100.682 172.818 103.667 176.5 103.667Z" stroke="#6B6F7A" stroke-width="1.5"/>
<path d="M176.5 94.3334V99.6667" stroke="#6B6F7A" stroke-width="1.5"/>
<path d="M173.833 97H179.167" stroke="#6B6F7A" stroke-width="1.5"/>
<g filter="url(#filter0_d_346_36437)">
<rect x="384.5" y="71" width="40" height="40" rx="20" fill="#8A38F5"/>
<path fill-rule="evenodd" clip-rule="evenodd" d="M405.207 84.3964C404.817 84.0059 404.183 84.0059 403.793 84.3964L398.72 89.4696L398.189 90L399.25 91.0606L399.78 90.5303L403.75 86.5606V97.25V98H405.25V97.25V86.5606L409.22 90.5303L409.75 91.0606L410.811 90L410.28 89.4696L405.207 84.3964Z" fill="white"/>
</g>
<defs>
<filter id="filter0_d_346_36437" x="383.5" y="70" width="42" height="42" filterUnits="userSpaceOnUse" color-interpolation-filters="sRGB">
<feFlood flood-opacity="0" result="BackgroundImageFix"/>
<feColorMatrix in="SourceAlpha" type="matrix" values="0 0 0 0 0 0 0 0 0 0 0 0 0 0 0 0 0 0 127 0" result="hardAlpha"/>
<feMorphology radius="1" operator="dilate" in="SourceAlpha" result="effect1_dropShadow_346_36437"/>
<feOffset/>
<feComposite in2="hardAlpha" operator="out"/>
<feColorMatrix type="matrix" values="0 0 0 0 1 0 0 0 0 1 0 0 0 0 1 0 0 0 1 0"/>
<feBlend mode="normal" in2="BackgroundImageFix" result="effect1_dropShadow_346_36437"/>
<feBlend mode="normal" in="SourceGraphic" in2="effect1_dropShadow_346_36437" result="shape"/>
</filter>
</defs>
</svg>
