<svg width="16" height="16" viewBox="0 0 16 16" fill="none" xmlns="http://www.w3.org/2000/svg">
<path d="M12.5737 2.16035C11.6784 1.26507 10.2269 1.26507 9.33161 2.16035L3.6051 7.88686C2.11682 9.37514 2.11682 11.7881 3.6051 13.2764C5.09337 14.7647 7.50635 14.7647 8.99462 13.2764L13.6255 8.64556C13.9162 8.35483 14.3875 8.35483 14.6783 8.64556C14.969 8.93628 14.969 9.40764 14.6783 9.69836L10.0474 14.3292C7.9777 16.3989 4.62202 16.3989 2.55229 14.3292C0.48257 12.2595 0.48257 8.90378 2.55229 6.83406L8.27881 1.10754C9.75553 -0.36918 12.1498 -0.36918 13.6265 1.10754C15.1032 2.58427 15.1032 4.97851 13.6265 6.45523L7.89998 12.1817C7.01625 13.0655 5.58345 13.0655 4.69973 12.1817C3.81601 11.298 3.81601 9.86522 4.69973 8.9815L10.0683 3.61289C10.3591 3.32216 10.8304 3.32216 11.1211 3.61289C11.4119 3.90361 11.4119 4.37497 11.1211 4.66569L5.75253 10.0343C5.45026 10.3366 5.45026 10.8267 5.75253 11.1289C6.05481 11.4312 6.5449 11.4312 6.84717 11.1289L12.5737 5.40243C13.469 4.50715 13.469 3.05562 12.5737 2.16035Z" fill="#6B6F7A"/>
</svg>
