<svg width="37" height="59" viewBox="0 0 37 59" fill="none" xmlns="http://www.w3.org/2000/svg">
<path d="M3.20977 23.2084C2.40108 28.1132 3.70466 32.1033 6.11581 32.1033H22.6375C26.2137 32.1033 28.1472 38.0212 26.9475 45.2959C25.7479 52.5706 21.8624 58.4885 18.2861 58.4885L0.0683463 58.332C0.0158712 58.332 -0.0124774 58.2455 0.00531593 58.1388C0.0229584 58.0322 0.0797311 57.9457 0.132131 57.9457L18.35 58.1021C18.8739 58.1021 19.3436 57.7878 19.9306 57.5685C24.1683 55.9848 23.5566 53.0459 24.1897 49.2072C24.9986 44.3025 23.6948 40.3123 21.2837 40.3123H4.76201C1.18578 40.3123 -0.747733 34.3941 0.451958 27.1197C1.43594 21.1533 2.41706 14.047 7.17142 14.4747C7.90592 14.5408 8.47025 13.9271 9.11338 13.9271L23.8887 13.7706C23.9412 13.7706 23.9694 13.8572 23.9518 13.9639C23.9341 14.0706 23.8773 14.1571 23.8249 14.1571L9.04974 14.3136C6.6386 14.3136 4.01884 18.3037 3.20977 23.2084Z" fill="#F2F2F2"/>
<path d="M33.5339 9.43777C34.4072 14.3426 32.9995 18.3327 30.3958 18.3327H12.5549C8.69313 18.3327 6.60521 24.2506 7.90073 31.5253C9.19617 38.8 13.3918 44.7179 17.2537 44.7179L36.9263 44.5614C36.9828 44.5614 37.0134 44.4748 36.9943 44.3682C36.9753 44.2616 36.9139 44.175 36.8574 44.175L17.1848 44.3315C16.619 44.3315 16.1117 44.0172 15.478 43.7978C10.9018 42.2142 11.5625 39.2753 10.8787 35.4366C10.0052 30.5319 11.4131 26.5417 14.0168 26.5417H31.8578C35.7196 26.5417 37.8074 20.6234 36.512 13.3491C35.4494 7.38272 34.39 0.276401 29.256 0.704119C28.4629 0.770165 27.8534 0.156449 27.1589 0.156449L11.2038 2.43495e-06C11.1471 2.43495e-06 11.1166 0.0865583 11.1356 0.193318C11.1547 0.299927 11.2161 0.386477 11.2727 0.386477L27.2276 0.543002C29.8314 0.543002 32.6603 4.53307 33.5339 9.43777Z" fill="#F2F2F2"/>
</svg>
