<svg width="472" height="42" viewBox="0 0 472 42" fill="none" xmlns="http://www.w3.org/2000/svg">
<rect x="0.5" y="0.5" width="471" height="41" rx="9.5" fill="#F5F5F5"/>
<rect x="0.5" y="0.5" width="471" height="41" rx="9.5" stroke="#E5E5E5"/>
<g filter="url(#filter0_dd_16_39)">
<rect x="5" y="5" width="118" height="32" rx="8" fill="white"/>
<path d="M25.5534 14.4533C25.3797 14.3741 25.191 14.3331 25.0001 14.3331C24.8091 14.3331 24.6204 14.3741 24.4467 14.4533L18.7334 17.0533C18.6151 17.1055 18.5145 17.1909 18.4439 17.2992C18.3733 17.4075 18.3357 17.534 18.3357 17.6633C18.3357 17.7926 18.3733 17.9191 18.4439 18.0274C18.5145 18.1357 18.6151 18.2212 18.7334 18.2733L24.4534 20.88C24.6271 20.9592 24.8158 21.0002 25.0067 21.0002C25.1977 21.0002 25.3863 20.9592 25.5601 20.88L31.2801 18.28C31.3984 18.2278 31.4989 18.1424 31.5695 18.0341C31.6402 17.9258 31.6778 17.7993 31.6778 17.67C31.6778 17.5407 31.6402 17.4142 31.5695 17.3059C31.4989 17.1976 31.3984 17.1122 31.2801 17.06L25.5534 14.4533Z" stroke="#0A0A0A" stroke-width="1.33333" stroke-linecap="round" stroke-linejoin="round"/>
<path d="M18.3333 21C18.3329 21.1275 18.3692 21.2524 18.4377 21.36C18.5063 21.4675 18.6042 21.5531 18.7199 21.6067L24.4533 24.2133C24.6261 24.2916 24.8136 24.3321 25.0033 24.3321C25.1929 24.3321 25.3805 24.2916 25.5533 24.2133L31.2733 21.6133C31.3913 21.5603 31.4913 21.4741 31.5611 21.3652C31.631 21.2562 31.6676 21.1294 31.6666 21" stroke="#0A0A0A" stroke-width="1.33333" stroke-linecap="round" stroke-linejoin="round"/>
<path d="M18.3333 24.3333C18.3329 24.4608 18.3692 24.5858 18.4377 24.6933C18.5063 24.8008 18.6042 24.8864 18.7199 24.94L24.4533 27.5467C24.6261 27.6249 24.8136 27.6654 25.0033 27.6654C25.1929 27.6654 25.3805 27.6249 25.5533 27.5467L31.2733 24.9467C31.3913 24.8936 31.4913 24.8074 31.5611 24.6985C31.631 24.5896 31.6676 24.4627 31.6666 24.3333" stroke="#0A0A0A" stroke-width="1.33333" stroke-linecap="round" stroke-linejoin="round"/>
<path d="M43.2521 26H41.6214L45.2855 15.8182H47.0604L50.7244 26H49.0938L46.2152 17.6676H46.1357L43.2521 26ZM43.5256 22.0128H48.8153V23.3054H43.5256V22.0128ZM53.562 15.8182V26H52.0755V15.8182H53.562ZM57.0483 15.8182V26H55.5618V15.8182H57.0483ZM62.8725 15.8182H64.7369L67.9783 23.733H68.0977L71.3391 15.8182H73.2035V26H71.7418V18.6321H71.6474L68.6445 25.9851H67.4315L64.4286 18.6271H64.3342V26H62.8725V15.8182ZM78.5343 26.1541C77.8184 26.1541 77.1936 25.9901 76.66 25.6619C76.1264 25.3338 75.7121 24.8748 75.4171 24.2848C75.1221 23.6948 74.9746 23.0054 74.9746 22.2166C74.9746 21.4245 75.1221 20.7318 75.4171 20.1385C75.7121 19.5452 76.1264 19.0845 76.66 18.7564C77.1936 18.4283 77.8184 18.2642 78.5343 18.2642C79.2502 18.2642 79.8749 18.4283 80.4086 18.7564C80.9422 19.0845 81.3565 19.5452 81.6515 20.1385C81.9464 20.7318 82.0939 21.4245 82.0939 22.2166C82.0939 23.0054 81.9464 23.6948 81.6515 24.2848C81.3565 24.8748 80.9422 25.3338 80.4086 25.6619C79.8749 25.9901 79.2502 26.1541 78.5343 26.1541ZM78.5392 24.9062C79.0033 24.9062 79.3877 24.7836 79.6926 24.5384C79.9976 24.2931 80.223 23.9666 80.3688 23.5589C80.5179 23.1513 80.5925 22.7022 80.5925 22.2116C80.5925 21.7244 80.5179 21.277 80.3688 20.8693C80.223 20.4583 79.9976 20.1286 79.6926 19.88C79.3877 19.6314 79.0033 19.5071 78.5392 19.5071C78.0719 19.5071 77.6841 19.6314 77.3759 19.88C77.071 20.1286 76.8439 20.4583 76.6948 20.8693C76.5489 21.277 76.476 21.7244 76.476 22.2116C76.476 22.7022 76.5489 23.1513 76.6948 23.5589C76.8439 23.9666 77.071 24.2931 77.3759 24.5384C77.6841 24.7836 78.0719 24.9062 78.5392 24.9062ZM86.6119 26.1491C85.9954 26.1491 85.4452 25.9917 84.9613 25.6768C84.4807 25.3587 84.1029 24.9062 83.8278 24.3196C83.556 23.7296 83.4201 23.022 83.4201 22.1967C83.4201 21.3714 83.5576 20.6655 83.8327 20.0788C84.1112 19.4922 84.4923 19.0431 84.9762 18.7315C85.4601 18.42 86.0086 18.2642 86.6218 18.2642C87.0958 18.2642 87.4769 18.3438 87.7653 18.5028C88.0569 18.6586 88.2823 18.8409 88.4414 19.0497C88.6038 19.2585 88.7298 19.4425 88.8192 19.6016H88.9087V15.8182H90.3952V26H88.9435V24.8118H88.8192C88.7298 24.9742 88.6005 25.1598 88.4315 25.3686C88.2657 25.5774 88.0371 25.7597 87.7454 25.9155C87.4537 26.0713 87.0759 26.1491 86.6119 26.1491ZM86.94 24.8814C87.3675 24.8814 87.7288 24.7687 88.0238 24.5433C88.3221 24.3146 88.5475 23.9981 88.6999 23.5938C88.8557 23.1894 88.9336 22.7187 88.9336 22.1818C88.9336 21.6515 88.8574 21.1875 88.7049 20.7898C88.5524 20.392 88.3287 20.0821 88.0337 19.8601C87.7388 19.638 87.3742 19.527 86.94 19.527C86.4925 19.527 86.1197 19.643 85.8214 19.875C85.5231 20.107 85.2977 20.4235 85.1452 20.8246C84.9961 21.2256 84.9215 21.678 84.9215 22.1818C84.9215 22.6922 84.9978 23.1513 85.1502 23.5589C85.3027 23.9666 85.5281 24.2898 85.8263 24.5284C86.128 24.7637 86.4992 24.8814 86.94 24.8814ZM95.8081 26.1541C95.0557 26.1541 94.4077 25.9934 93.8642 25.6719C93.3239 25.3471 92.9063 24.8913 92.6113 24.3047C92.3197 23.7147 92.1738 23.0237 92.1738 22.2315C92.1738 21.4493 92.3197 20.7599 92.6113 20.1634C92.9063 19.5668 93.3173 19.1011 93.8443 18.7663C94.3746 18.4316 94.9944 18.2642 95.7037 18.2642C96.1345 18.2642 96.5521 18.3355 96.9565 18.478C97.3609 18.6205 97.7238 18.8442 98.0453 19.1491C98.3668 19.4541 98.6203 19.8501 98.8059 20.3374C98.9915 20.8213 99.0843 21.4096 99.0843 22.1023V22.6293H93.014V21.5156H97.6277C97.6277 21.1245 97.5481 20.7782 97.389 20.4766C97.2299 20.1716 97.0062 19.9313 96.7179 19.7557C96.4328 19.58 96.0981 19.4922 95.7136 19.4922C95.296 19.4922 94.9314 19.5949 94.6199 19.8004C94.3116 20.0026 94.073 20.2678 93.9039 20.5959C93.7382 20.9207 93.6554 21.2737 93.6554 21.6548V22.5249C93.6554 23.0353 93.7449 23.4695 93.9238 23.8274C94.1061 24.1854 94.3597 24.4588 94.6845 24.6477C95.0093 24.8333 95.3888 24.9261 95.823 24.9261C96.1047 24.9261 96.3616 24.8864 96.5936 24.8068C96.8256 24.724 97.0261 24.6013 97.1951 24.4389C97.3642 24.2765 97.4934 24.076 97.5829 23.8374L98.9899 24.0909C98.8772 24.5052 98.675 24.8681 98.3833 25.1797C98.095 25.4879 97.7321 25.7282 97.2946 25.9006C96.8604 26.0696 96.3649 26.1541 95.8081 26.1541ZM102.22 15.8182V26H100.734V15.8182H102.22ZM109.942 20.228L108.595 20.4666C108.539 20.2943 108.449 20.1302 108.327 19.9744C108.207 19.8187 108.045 19.6911 107.839 19.5916C107.634 19.4922 107.377 19.4425 107.069 19.4425C106.648 19.4425 106.296 19.5369 106.015 19.7259C105.733 19.9115 105.592 20.1518 105.592 20.4467C105.592 20.7019 105.687 20.9074 105.876 21.0632C106.064 21.219 106.369 21.3466 106.79 21.446L108.003 21.7244C108.706 21.8868 109.23 22.1371 109.574 22.4751C109.919 22.8132 110.091 23.2524 110.091 23.7926C110.091 24.25 109.959 24.6577 109.694 25.0156C109.432 25.3703 109.066 25.6487 108.595 25.8509C108.128 26.053 107.586 26.1541 106.969 26.1541C106.114 26.1541 105.416 25.9718 104.876 25.6072C104.336 25.2393 104.005 24.7173 103.882 24.0412L105.319 23.8224C105.408 24.197 105.592 24.4804 105.871 24.6726C106.149 24.8615 106.512 24.956 106.959 24.956C107.447 24.956 107.836 24.8549 108.128 24.6527C108.419 24.4472 108.565 24.197 108.565 23.902C108.565 23.6634 108.476 23.4628 108.297 23.3004C108.121 23.138 107.851 23.0154 107.486 22.9325L106.194 22.6491C105.481 22.4867 104.954 22.2282 104.613 21.8736C104.275 21.5189 104.106 21.0698 104.106 20.5263C104.106 20.0755 104.232 19.6811 104.483 19.343C104.735 19.005 105.083 18.7415 105.528 18.5526C105.972 18.3603 106.48 18.2642 107.054 18.2642C107.879 18.2642 108.529 18.4432 109.003 18.8011C109.477 19.1558 109.79 19.6314 109.942 20.228Z" fill="#0A0A0A"/>
</g>
<g clip-path="url(#clip0_16_39)">
<g clip-path="url(#clip1_16_39)">
<path d="M148.641 19.8208C148.752 19.491 148.809 19.1457 148.809 18.7981C148.809 18.223 148.654 17.6582 148.359 17.1619C147.767 16.1454 146.67 15.5179 145.481 15.5179C145.247 15.5179 145.014 15.5423 144.785 15.5907C144.477 15.2484 144.099 14.9745 143.676 14.7868C143.253 14.5992 142.795 14.5022 142.331 14.5022H142.31L142.302 14.5022C140.863 14.5022 139.587 15.4185 139.145 16.7692C138.687 16.8618 138.254 17.0498 137.876 17.3206C137.497 17.5915 137.182 17.939 136.951 18.3399C136.657 18.8392 136.502 19.4061 136.502 19.9834C136.502 20.7947 136.808 21.5771 137.359 22.1791C137.247 22.5089 137.191 22.8542 137.191 23.2018C137.191 23.7769 137.346 24.3417 137.641 24.838C137.991 25.4397 138.526 25.9161 139.168 26.1985C139.81 26.4809 140.527 26.5546 141.215 26.4092C141.523 26.7515 141.9 27.0254 142.323 27.213C142.747 27.4006 143.205 27.4977 143.669 27.4977H143.69H143.698C145.138 27.4977 146.414 26.5814 146.856 25.2294C147.314 25.1368 147.747 24.9488 148.125 24.6779C148.503 24.4071 148.819 24.0596 149.05 23.6588C149.343 23.1599 149.498 22.5934 149.498 22.0166C149.498 21.2053 149.192 20.423 148.641 19.821L148.641 19.8208ZM143.691 26.6481H143.687C143.111 26.648 142.553 26.4485 142.111 26.0845C142.137 26.0705 142.163 26.056 142.188 26.041L144.811 24.5463C144.876 24.5096 144.931 24.4564 144.969 24.3921C145.006 24.3279 145.026 24.2549 145.026 24.1806V20.5302L146.135 21.1617C146.141 21.1646 146.146 21.1688 146.149 21.1741C146.153 21.1793 146.156 21.1854 146.156 21.1917V24.2127C146.155 25.5559 145.052 26.6454 143.691 26.6481ZM138.387 24.4133C138.171 24.0438 138.057 23.6244 138.057 23.1975C138.057 23.0583 138.069 22.9187 138.093 22.7815C138.112 22.793 138.146 22.8135 138.171 22.8273L140.793 24.322C140.859 24.3596 140.933 24.3795 141.009 24.3795C141.084 24.3794 141.159 24.3596 141.224 24.3219L144.426 22.4978V23.7608L144.426 23.763C144.426 23.7691 144.424 23.7751 144.422 23.7805C144.419 23.786 144.415 23.7907 144.41 23.7944L141.759 25.3046C141.384 25.5176 140.959 25.6299 140.526 25.63C140.093 25.6299 139.667 25.5175 139.292 25.3039C138.916 25.0903 138.605 24.7832 138.387 24.4132V24.4133ZM137.698 18.7645C137.986 18.2709 138.44 17.8929 138.982 17.6968C138.982 17.7191 138.981 17.7585 138.981 17.7859V20.7752L138.981 20.7777C138.981 20.8519 139.001 20.9248 139.039 20.989C139.077 21.0531 139.131 21.1063 139.196 21.143L142.398 22.9669L141.29 23.5984C141.284 23.6019 141.278 23.6041 141.271 23.6047C141.265 23.6053 141.258 23.6042 141.252 23.6017L138.601 22.0902C138.226 21.8759 137.915 21.5683 137.699 21.198C137.482 20.8277 137.368 20.4079 137.368 19.9805C137.368 19.5538 137.482 19.1345 137.698 18.7647L137.698 18.7645ZM146.805 20.8556L143.603 19.0315L144.711 18.4002C144.717 18.3967 144.723 18.3945 144.729 18.3939C144.736 18.3933 144.743 18.3944 144.749 18.3969L147.4 19.9072C147.775 20.1211 148.086 20.4286 148.303 20.7988C148.52 21.169 148.634 21.589 148.634 22.0165C148.634 23.0368 147.988 23.9498 147.018 24.3021V21.2235C147.018 21.2223 147.018 21.2212 147.018 21.22C147.018 21.1461 146.999 21.0734 146.961 21.0095C146.924 20.9455 146.87 20.8924 146.805 20.8556ZM147.908 19.2172C147.882 19.2016 147.856 19.1864 147.83 19.1714L145.207 17.6767C145.142 17.6391 145.068 17.6193 144.992 17.6193C144.916 17.6193 144.842 17.6391 144.777 17.6767L141.575 19.5008V18.2378L141.575 18.2356C141.575 18.2233 141.581 18.2116 141.591 18.2042L144.242 16.6952C144.617 16.4819 145.042 16.3696 145.475 16.3696C146.838 16.3696 147.943 17.4603 147.943 18.8053C147.943 18.9433 147.931 19.081 147.908 19.2171V19.2172ZM140.972 21.4684L139.864 20.8369C139.858 20.834 139.853 20.8298 139.849 20.8245C139.845 20.8193 139.843 20.8133 139.842 20.8069V17.7858C139.843 16.4416 140.948 15.3518 142.311 15.3518C142.888 15.352 143.446 15.5514 143.89 15.9156C143.87 15.9264 143.835 15.9453 143.812 15.9592L141.19 17.4538C141.124 17.4905 141.07 17.5437 141.032 17.6079C140.994 17.6721 140.974 17.745 140.974 17.8193V17.8217L140.972 21.4684ZM141.574 20.1875L143 19.3748L144.426 20.1869V21.8117L143 22.6239L141.574 21.8117V20.1875Z" fill="black"/>
</g>
</g>
<path d="M167.201 19.0348C167.105 18.7332 166.975 18.4631 166.813 18.2244C166.654 17.9825 166.463 17.777 166.241 17.608C166.019 17.4356 165.766 17.3047 165.48 17.2152C165.199 17.1257 164.889 17.081 164.551 17.081C163.977 17.081 163.46 17.2285 163 17.5234C162.539 17.8184 162.174 18.2509 161.906 18.821C161.641 19.3878 161.508 20.0821 161.508 20.9041C161.508 21.7294 161.642 22.4271 161.911 22.9972C162.179 23.5672 162.547 23.9998 163.015 24.2947C163.482 24.5897 164.014 24.7372 164.61 24.7372C165.164 24.7372 165.646 24.6245 166.057 24.3991C166.471 24.1738 166.791 23.8556 167.017 23.4446C167.245 23.0303 167.36 22.5431 167.36 21.983L167.757 22.0575H164.844V20.7898H168.846V21.9482C168.846 22.8033 168.664 23.5457 168.299 24.1754C167.938 24.8018 167.438 25.2857 166.798 25.6271C166.162 25.9685 165.432 26.1392 164.61 26.1392C163.689 26.1392 162.88 25.9271 162.184 25.5028C161.492 25.0786 160.951 24.477 160.564 23.6982C160.176 22.916 159.982 21.9879 159.982 20.9141C159.982 20.102 160.095 19.3729 160.32 18.7266C160.545 18.0803 160.862 17.5317 161.27 17.081C161.681 16.6269 162.163 16.2805 162.716 16.0419C163.273 15.8 163.881 15.679 164.541 15.679C165.091 15.679 165.603 15.7602 166.077 15.9226C166.554 16.085 166.979 16.3153 167.35 16.6136C167.724 16.9119 168.034 17.2666 168.279 17.6776C168.525 18.0852 168.69 18.5376 168.777 19.0348H167.201ZM170.796 26V15.8182H174.426C175.218 15.8182 175.874 15.9624 176.394 16.2507C176.915 16.5391 177.304 16.9335 177.563 17.4339C177.821 17.9311 177.95 18.4912 177.95 19.1143C177.95 19.7408 177.82 20.3042 177.558 20.8047C177.299 21.3018 176.908 21.6963 176.384 21.9879C175.864 22.2763 175.209 22.4205 174.421 22.4205H171.925V21.1179H174.281C174.782 21.1179 175.188 21.0317 175.499 20.8594C175.811 20.6837 176.04 20.4451 176.186 20.1435C176.331 19.8419 176.404 19.4988 176.404 19.1143C176.404 18.7299 176.331 18.3885 176.186 18.0902C176.04 17.7919 175.809 17.5582 175.494 17.3892C175.183 17.2202 174.772 17.1357 174.262 17.1357H172.333V26H170.796ZM179.249 17.1406V15.8182H187.129V17.1406H183.952V26H182.421V17.1406H179.249ZM192.417 20.2628V21.5554H187.902V20.2628H192.417ZM194.164 24.0114V22.7685L198.564 15.8182H199.543V17.6477H198.922L195.775 22.6293V22.7088H201.805V24.0114H194.164ZM198.991 26V23.6335L199.001 23.0668V15.8182H200.458V26H198.991ZM204.154 26.0945C203.883 26.0945 203.649 25.9983 203.453 25.8061C203.258 25.6106 203.16 25.3752 203.16 25.1001C203.16 24.8284 203.258 24.5964 203.453 24.4041C203.649 24.2086 203.883 24.1108 204.154 24.1108C204.426 24.1108 204.66 24.2086 204.855 24.4041C205.051 24.5964 205.149 24.8284 205.149 25.1001C205.149 25.2824 205.102 25.4498 205.01 25.6023C204.92 25.7514 204.801 25.8707 204.652 25.9602C204.502 26.0497 204.337 26.0945 204.154 26.0945ZM210.296 26.169C209.51 26.1657 208.839 25.9586 208.282 25.5476C207.725 25.1366 207.299 24.5384 207.004 23.7528C206.709 22.9673 206.562 22.0211 206.562 20.9141C206.562 19.8104 206.709 18.8674 207.004 18.0852C207.303 17.303 207.73 16.7064 208.287 16.2955C208.847 15.8845 209.517 15.679 210.296 15.679C211.075 15.679 211.742 15.8861 212.299 16.3004C212.856 16.7114 213.282 17.308 213.577 18.0902C213.875 18.8691 214.024 19.8104 214.024 20.9141C214.024 22.0244 213.877 22.9723 213.582 23.7578C213.287 24.54 212.861 25.1383 212.304 25.5526C211.747 25.9635 211.078 26.169 210.296 26.169ZM210.296 24.8416C210.985 24.8416 211.524 24.5052 211.911 23.8324C212.302 23.1596 212.498 22.1868 212.498 20.9141C212.498 20.0689 212.409 19.3546 212.23 18.7713C212.054 18.1847 211.8 17.7405 211.469 17.4389C211.141 17.134 210.75 16.9815 210.296 16.9815C209.61 16.9815 209.071 17.3196 208.68 17.9957C208.289 18.6719 208.092 19.6446 208.088 20.9141C208.088 21.7625 208.176 22.4801 208.352 23.0668C208.531 23.6501 208.784 24.0926 209.112 24.3942C209.441 24.6925 209.835 24.8416 210.296 24.8416Z" fill="#737373"/>
<g clip-path="url(#clip2_16_39)">
<g clip-path="url(#clip3_16_39)">
<path d="M243.054 23.1426L245.609 21.7087L245.652 21.5837L245.609 21.5147H245.484L245.056 21.4884L243.596 21.4489L242.33 21.3963L241.103 21.3305L240.794 21.2647L240.505 20.8833L240.534 20.6925L240.794 20.5182L241.166 20.5511L241.988 20.607L243.221 20.6925L244.116 20.7451L245.441 20.8833H245.652L245.681 20.7977L245.609 20.7451L245.553 20.6925L244.277 19.8276L242.896 18.9134L242.172 18.3872L241.781 18.1208L241.584 17.8709L241.498 17.3249L241.853 16.9336L242.33 16.9665L242.452 16.9994L242.935 17.371L243.968 18.1701L245.316 19.1633L245.513 19.3277L245.592 19.2718L245.602 19.2323L245.513 19.0844L244.78 17.759L243.997 16.4107L243.649 15.8516L243.557 15.5162C243.524 15.3781 243.501 15.263 243.501 15.1216L243.905 14.5724L244.129 14.5L244.668 14.5724L244.895 14.7697L245.231 15.5359L245.773 16.7429L246.615 18.3839L246.862 18.8706L246.993 19.3211L247.043 19.4593H247.128V19.3804L247.197 18.4562L247.326 17.3217L247.45 15.8615L247.493 15.4504L247.697 14.9571L248.102 14.6907L248.417 14.842L248.677 15.2136L248.641 15.4537L248.486 16.4567L248.184 18.0287L247.987 19.0811H248.102L248.233 18.9495L248.766 18.2425L249.66 17.1243L250.055 16.6804L250.516 16.1904L250.811 15.9569H251.371L251.782 16.5686L251.597 17.2L251.022 17.93L250.545 18.5483L249.861 19.4691L249.434 20.2058L249.473 20.265L249.575 20.2551L251.121 19.9263L251.956 19.775L252.952 19.604L253.403 19.8144L253.452 20.0282L253.275 20.4656L252.209 20.7287L250.959 20.9786L249.098 21.4193L249.075 21.4358L249.101 21.4686L249.94 21.5476L250.298 21.5673H251.177L252.811 21.689L253.238 21.9718L253.495 22.3171L253.452 22.5802L252.794 22.9156L251.907 22.7052L249.835 22.2119L249.124 22.0343H249.026V22.0935L249.618 22.6723L250.703 23.6523L252.061 24.9151L252.13 25.2275L251.956 25.4742L251.772 25.4479L250.578 24.5501L250.118 24.1456L249.075 23.2675H249.006V23.3596L249.246 23.7115L250.516 25.6189L250.581 26.2043L250.489 26.395L250.16 26.5101L249.799 26.4444L249.055 25.4018L248.289 24.2278L247.671 23.1754L247.595 23.2182L247.23 27.1481L247.059 27.3488L246.665 27.5L246.336 27.25L246.161 26.8455L246.336 26.0464L246.546 25.0039L246.717 24.1752L246.872 23.1458L246.964 22.8038L246.957 22.7808L246.882 22.7907L246.105 23.8562L244.925 25.4512L243.991 26.4509L243.767 26.5398L243.379 26.3391L243.415 25.9806L243.632 25.6616L244.925 24.0173L245.704 22.9979L246.207 22.4092L246.204 22.3237H246.174L242.741 24.5534L242.129 24.6323L241.866 24.3857L241.899 23.9811L242.024 23.8496L243.057 23.1393L243.054 23.1426Z" fill="#D97757"/>
</g>
</g>
<path d="M272.591 19.1293H271.04C270.98 18.7978 270.869 18.5062 270.707 18.2543C270.544 18.0024 270.345 17.7886 270.11 17.6129C269.875 17.4373 269.611 17.3047 269.32 17.2152C269.031 17.1257 268.725 17.081 268.4 17.081C267.813 17.081 267.288 17.2285 266.824 17.5234C266.363 17.8184 265.999 18.2509 265.73 18.821C265.465 19.3911 265.332 20.0871 265.332 20.9091C265.332 21.7377 265.465 22.437 265.73 23.0071C265.999 23.5772 266.365 24.008 266.829 24.2997C267.293 24.5914 267.815 24.7372 268.395 24.7372C268.716 24.7372 269.021 24.6941 269.31 24.608C269.601 24.5185 269.865 24.3875 270.1 24.2152C270.335 24.0429 270.534 23.8324 270.697 23.5838C270.862 23.3319 270.977 23.0436 271.04 22.7188L272.591 22.7237C272.508 23.2242 272.347 23.6849 272.109 24.1058C271.873 24.5234 271.57 24.8847 271.199 25.1896C270.831 25.4912 270.41 25.7249 269.936 25.8906C269.462 26.0563 268.945 26.1392 268.385 26.1392C267.503 26.1392 266.718 25.9304 266.028 25.5128C265.339 25.0919 264.795 24.4903 264.398 23.7081C264.003 22.9259 263.806 21.9929 263.806 20.9091C263.806 19.822 264.005 18.889 264.403 18.1101C264.8 17.3279 265.344 16.728 266.033 16.3104C266.723 15.8894 267.507 15.679 268.385 15.679C268.925 15.679 269.429 15.7569 269.896 15.9126C270.367 16.0651 270.79 16.2905 271.164 16.5888C271.539 16.8838 271.848 17.245 272.094 17.6726C272.339 18.0968 272.505 18.5824 272.591 19.1293ZM275.796 15.8182V26H274.31V15.8182H275.796ZM280.018 26.169C279.535 26.169 279.097 26.0795 278.706 25.9006C278.315 25.7183 278.005 25.4548 277.776 25.1101C277.551 24.7654 277.438 24.3428 277.438 23.8423C277.438 23.4115 277.521 23.0568 277.687 22.7784C277.853 22.5 278.076 22.2796 278.358 22.1172C278.64 21.9548 278.955 21.8321 279.303 21.7493C279.651 21.6664 280.005 21.6035 280.366 21.5604C280.824 21.5073 281.195 21.4643 281.48 21.4311C281.765 21.3946 281.972 21.3366 282.102 21.2571C282.231 21.1776 282.295 21.0483 282.295 20.8693V20.8345C282.295 20.4003 282.173 20.0639 281.928 19.8253C281.686 19.5866 281.324 19.4673 280.844 19.4673C280.343 19.4673 279.949 19.5784 279.661 19.8004C279.375 20.0192 279.178 20.2628 279.069 20.5312L277.672 20.2131C277.838 19.7491 278.08 19.3745 278.398 19.0895C278.719 18.8011 279.089 18.5923 279.506 18.4631C279.924 18.3305 280.363 18.2642 280.824 18.2642C281.129 18.2642 281.452 18.3007 281.793 18.3736C282.138 18.4432 282.46 18.5724 282.758 18.7614C283.059 18.9503 283.306 19.2204 283.499 19.5717C283.691 19.9197 283.787 20.3722 283.787 20.929V26H282.335V24.956H282.276C282.179 25.1482 282.035 25.3371 281.843 25.5227C281.651 25.7083 281.404 25.8625 281.102 25.9851C280.801 26.1077 280.439 26.169 280.018 26.169ZM280.342 24.9759C280.753 24.9759 281.104 24.8946 281.396 24.7322C281.691 24.5698 281.914 24.3577 282.067 24.0959C282.223 23.8307 282.3 23.5473 282.3 23.2457V22.2614C282.247 22.3144 282.145 22.3641 281.992 22.4105C281.843 22.4536 281.672 22.4917 281.48 22.5249C281.288 22.5547 281.101 22.5829 280.918 22.6094C280.736 22.6326 280.584 22.6525 280.461 22.669C280.173 22.7055 279.909 22.7668 279.67 22.853C279.435 22.9392 279.246 23.0634 279.104 23.2259C278.964 23.3849 278.895 23.5971 278.895 23.8622C278.895 24.2301 279.031 24.5085 279.303 24.6974C279.574 24.883 279.921 24.9759 280.342 24.9759ZM290.604 22.8331V18.3636H292.096V26H290.634V24.6776H290.555C290.379 25.0852 290.097 25.425 289.709 25.6967C289.325 25.9652 288.846 26.0994 288.273 26.0994C287.782 26.0994 287.348 25.9917 286.97 25.7763C286.595 25.5575 286.3 25.2344 286.085 24.8068C285.873 24.3793 285.767 23.8506 285.767 23.2209V18.3636H287.253V23.0419C287.253 23.5623 287.398 23.9766 287.686 24.2848C287.974 24.593 288.349 24.7472 288.809 24.7472C289.088 24.7472 289.365 24.6776 289.64 24.5384C289.918 24.3991 290.148 24.1887 290.331 23.907C290.516 23.6252 290.608 23.2673 290.604 22.8331ZM296.952 26.1491C296.335 26.1491 295.785 25.9917 295.301 25.6768C294.821 25.3587 294.443 24.9062 294.168 24.3196C293.896 23.7296 293.76 23.022 293.76 22.1967C293.76 21.3714 293.897 20.6655 294.173 20.0788C294.451 19.4922 294.832 19.0431 295.316 18.7315C295.8 18.42 296.348 18.2642 296.962 18.2642C297.436 18.2642 297.817 18.3438 298.105 18.5028C298.397 18.6586 298.622 18.8409 298.781 19.0497C298.944 19.2585 299.07 19.4425 299.159 19.6016H299.249V15.8182H300.735V26H299.283V24.8118H299.159C299.07 24.9742 298.94 25.1598 298.771 25.3686C298.606 25.5774 298.377 25.7597 298.085 25.9155C297.794 26.0713 297.416 26.1491 296.952 26.1491ZM297.28 24.8814C297.707 24.8814 298.069 24.7687 298.364 24.5433C298.662 24.3146 298.887 23.9981 299.04 23.5938C299.196 23.1894 299.273 22.7187 299.273 22.1818C299.273 21.6515 299.197 21.1875 299.045 20.7898C298.892 20.392 298.669 20.0821 298.374 19.8601C298.079 19.638 297.714 19.527 297.28 19.527C296.832 19.527 296.46 19.643 296.161 19.875C295.863 20.107 295.638 20.4235 295.485 20.8246C295.336 21.2256 295.261 21.678 295.261 22.1818C295.261 22.6922 295.338 23.1513 295.49 23.5589C295.643 23.9666 295.868 24.2898 296.166 24.5284C296.468 24.7637 296.839 24.8814 297.28 24.8814ZM306.148 26.1541C305.396 26.1541 304.748 25.9934 304.204 25.6719C303.664 25.3471 303.246 24.8913 302.951 24.3047C302.66 23.7147 302.514 23.0237 302.514 22.2315C302.514 21.4493 302.66 20.7599 302.951 20.1634C303.246 19.5668 303.657 19.1011 304.184 18.7663C304.714 18.4316 305.334 18.2642 306.044 18.2642C306.474 18.2642 306.892 18.3355 307.296 18.478C307.701 18.6205 308.064 18.8442 308.385 19.1491C308.707 19.4541 308.96 19.8501 309.146 20.3374C309.331 20.8213 309.424 21.4096 309.424 22.1023V22.6293H303.354V21.5156H307.968C307.968 21.1245 307.888 20.7782 307.729 20.4766C307.57 20.1716 307.346 19.9313 307.058 19.7557C306.773 19.58 306.438 19.4922 306.053 19.4922C305.636 19.4922 305.271 19.5949 304.96 19.8004C304.651 20.0026 304.413 20.2678 304.244 20.5959C304.078 20.9207 303.995 21.2737 303.995 21.6548V22.5249C303.995 23.0353 304.085 23.4695 304.264 23.8274C304.446 24.1854 304.7 24.4588 305.024 24.6477C305.349 24.8333 305.729 24.9261 306.163 24.9261C306.445 24.9261 306.701 24.8864 306.933 24.8068C307.165 24.724 307.366 24.6013 307.535 24.4389C307.704 24.2765 307.833 24.076 307.923 23.8374L309.33 24.0909C309.217 24.5052 309.015 24.8681 308.723 25.1797C308.435 25.4879 308.072 25.7282 307.634 25.9006C307.2 26.0696 306.705 26.1541 306.148 26.1541ZM318.303 26.1392C317.621 26.1392 317.011 26.0215 316.474 25.7862C315.94 25.5509 315.518 25.2244 315.206 24.8068C314.898 24.3859 314.732 23.8987 314.709 23.3452H316.27C316.29 23.6468 316.391 23.9086 316.573 24.1307C316.759 24.3494 317.001 24.5185 317.299 24.6378C317.597 24.7571 317.929 24.8168 318.294 24.8168C318.695 24.8168 319.049 24.7472 319.357 24.608C319.669 24.4687 319.913 24.2749 320.088 24.0263C320.264 23.7744 320.352 23.4844 320.352 23.1562C320.352 22.8149 320.264 22.5149 320.088 22.2564C319.916 21.9946 319.662 21.7891 319.328 21.6399C318.996 21.4908 318.595 21.4162 318.124 21.4162H317.264V20.1634H318.124C318.502 20.1634 318.834 20.0954 319.119 19.9595C319.407 19.8236 319.633 19.6347 319.795 19.3928C319.957 19.1475 320.039 18.8608 320.039 18.5327C320.039 18.2178 319.967 17.9444 319.825 17.7124C319.686 17.477 319.487 17.2931 319.228 17.1605C318.973 17.0279 318.671 16.9616 318.323 16.9616C317.992 16.9616 317.682 17.023 317.394 17.1456C317.109 17.2649 316.877 17.4373 316.698 17.6626C316.519 17.8847 316.423 18.1515 316.409 18.4631H314.923C314.939 17.9129 315.102 17.429 315.41 17.0114C315.722 16.5937 316.133 16.2673 316.643 16.032C317.153 15.7966 317.72 15.679 318.343 15.679C318.996 15.679 319.56 15.8066 320.034 16.0618C320.511 16.3137 320.879 16.6501 321.137 17.071C321.399 17.492 321.528 17.9527 321.525 18.4531C321.528 19.0232 321.369 19.5071 321.048 19.9048C320.73 20.3026 320.305 20.5694 319.775 20.7053V20.7848C320.451 20.8875 320.975 21.156 321.346 21.5902C321.721 22.0244 321.906 22.563 321.903 23.206C321.906 23.7661 321.75 24.2682 321.436 24.7124C321.124 25.1565 320.698 25.5062 320.158 25.7614C319.618 26.0133 318.999 26.1392 318.303 26.1392ZM324.481 26.0945C324.209 26.0945 323.975 25.9983 323.78 25.8061C323.584 25.6106 323.486 25.3752 323.486 25.1001C323.486 24.8284 323.584 24.5964 323.78 24.4041C323.975 24.2086 324.209 24.1108 324.481 24.1108C324.752 24.1108 324.986 24.2086 325.182 24.4041C325.377 24.5964 325.475 24.8284 325.475 25.1001C325.475 25.2824 325.429 25.4498 325.336 25.6023C325.246 25.7514 325.127 25.8707 324.978 25.9602C324.829 26.0497 324.663 26.0945 324.481 26.0945ZM330.643 26.1392C330.02 26.1392 329.46 26.0199 328.963 25.7812C328.469 25.5393 328.074 25.2079 327.779 24.7869C327.484 24.366 327.327 23.8854 327.307 23.3452H328.798C328.835 23.7827 329.029 24.1423 329.38 24.424C329.731 24.7057 330.152 24.8466 330.643 24.8466C331.034 24.8466 331.38 24.7571 331.682 24.5781C331.987 24.3958 332.226 24.1456 332.398 23.8274C332.574 23.5092 332.661 23.1463 332.661 22.7386C332.661 22.3243 332.572 21.9548 332.393 21.63C332.214 21.3052 331.967 21.05 331.652 20.8643C331.341 20.6787 330.983 20.5843 330.578 20.581C330.27 20.581 329.96 20.634 329.649 20.7401C329.337 20.8461 329.085 20.9853 328.893 21.1577L327.486 20.9489L328.058 15.8182H333.656V17.1357H329.335L329.012 19.9844H329.072C329.271 19.7921 329.534 19.6314 329.862 19.5021C330.194 19.3729 330.548 19.3082 330.926 19.3082C331.546 19.3082 332.098 19.4557 332.582 19.7507C333.069 20.0457 333.452 20.4484 333.73 20.9588C334.012 21.4659 334.151 22.0492 334.148 22.7088C334.151 23.3684 334.002 23.9567 333.7 24.4737C333.402 24.9908 332.988 25.3984 332.458 25.6967C331.931 25.9917 331.326 26.1392 330.643 26.1392Z" fill="#737373"/>
<g clip-path="url(#clip4_16_39)">
<g clip-path="url(#clip5_16_39)">
<g clip-path="url(#clip6_16_39)">
<path d="M371 13H363C360.791 13 359 14.7909 359 17V25C359 27.2091 360.791 29 363 29H371C373.209 29 375 27.2091 375 25V17C375 14.7909 373.209 13 371 13Z" fill="white"/>
<mask id="mask0_16_39" style="mask-type:alpha" maskUnits="userSpaceOnUse" x="361" y="15" width="12" height="12">
<path d="M366.989 15.4219C366.809 18.4141 364.414 20.8087 361.422 20.9892V21.0108C364.414 21.1912 366.809 23.5859 366.989 26.5781H367.011C367.191 23.5859 369.586 21.1912 372.578 21.0108V20.9892C369.586 20.8087 367.191 18.4141 367.011 15.4219H366.989Z" fill="url(#paint0_linear_16_39)"/>
</mask>
<g mask="url(#mask0_16_39)">
<path d="M367 14.625C370.518 14.625 373.375 17.4816 373.375 21C373.375 24.5184 370.518 27.375 367 27.375C363.482 27.375 360.625 24.5184 360.625 21C360.625 17.4816 363.482 14.625 367 14.625Z" fill="url(#paint1_linear_16_39)"/>
</g>
</g>
</g>
</g>
<path d="M391.415 19.0348C391.318 18.7332 391.189 18.4631 391.027 18.2244C390.868 17.9825 390.677 17.777 390.455 17.608C390.233 17.4356 389.979 17.3047 389.694 17.2152C389.413 17.1257 389.103 17.081 388.765 17.081C388.191 17.081 387.674 17.2285 387.214 17.5234C386.753 17.8184 386.388 18.2509 386.12 18.821C385.855 19.3878 385.722 20.0821 385.722 20.9041C385.722 21.7294 385.856 22.4271 386.125 22.9972C386.393 23.5672 386.761 23.9998 387.228 24.2947C387.696 24.5897 388.228 24.7372 388.824 24.7372C389.378 24.7372 389.86 24.6245 390.271 24.3991C390.685 24.1738 391.005 23.8556 391.231 23.4446C391.459 23.0303 391.574 22.5431 391.574 21.983L391.971 22.0575H389.058V20.7898H393.06V21.9482C393.06 22.8033 392.878 23.5457 392.513 24.1754C392.152 24.8018 391.651 25.2857 391.012 25.6271C390.375 25.9685 389.646 26.1392 388.824 26.1392C387.903 26.1392 387.094 25.9271 386.398 25.5028C385.705 25.0786 385.165 24.477 384.777 23.6982C384.39 22.916 384.196 21.9879 384.196 20.9141C384.196 20.102 384.308 19.3729 384.534 18.7266C384.759 18.0803 385.076 17.5317 385.483 17.081C385.894 16.6269 386.377 16.2805 386.93 16.0419C387.487 15.8 388.095 15.679 388.755 15.679C389.305 15.679 389.817 15.7602 390.291 15.9226C390.768 16.085 391.192 16.3153 391.564 16.6136C391.938 16.9119 392.248 17.2666 392.493 17.6776C392.739 18.0852 392.904 18.5376 392.991 19.0348H391.415ZM398.182 26.1541C397.43 26.1541 396.782 25.9934 396.238 25.6719C395.698 25.3471 395.28 24.8913 394.985 24.3047C394.694 23.7147 394.548 23.0237 394.548 22.2315C394.548 21.4493 394.694 20.7599 394.985 20.1634C395.28 19.5668 395.691 19.1011 396.218 18.7663C396.749 18.4316 397.368 18.2642 398.078 18.2642C398.509 18.2642 398.926 18.3355 399.331 18.478C399.735 18.6205 400.098 18.8442 400.419 19.1491C400.741 19.4541 400.994 19.8501 401.18 20.3374C401.366 20.8213 401.458 21.4096 401.458 22.1023V22.6293H395.388V21.5156H400.002C400.002 21.1245 399.922 20.7782 399.763 20.4766C399.604 20.1716 399.38 19.9313 399.092 19.7557C398.807 19.58 398.472 19.4922 398.088 19.4922C397.67 19.4922 397.305 19.5949 396.994 19.8004C396.686 20.0026 396.447 20.2678 396.278 20.5959C396.112 20.9207 396.029 21.2737 396.029 21.6548V22.5249C396.029 23.0353 396.119 23.4695 396.298 23.8274C396.48 24.1854 396.734 24.4588 397.059 24.6477C397.383 24.8333 397.763 24.9261 398.197 24.9261C398.479 24.9261 398.736 24.8864 398.968 24.8068C399.2 24.724 399.4 24.6013 399.569 24.4389C399.738 24.2765 399.867 24.076 399.957 23.8374L401.364 24.0909C401.251 24.5052 401.049 24.8681 400.757 25.1797C400.469 25.4879 400.106 25.7282 399.669 25.9006C399.234 26.0696 398.739 26.1541 398.182 26.1541ZM403.108 26V18.3636H404.535V19.6065H404.629C404.788 19.1856 405.048 18.8575 405.41 18.6222C405.771 18.3835 406.203 18.2642 406.707 18.2642C407.218 18.2642 407.645 18.3835 407.99 18.6222C408.338 18.8608 408.595 19.1889 408.76 19.6065H408.84C409.022 19.1989 409.312 18.8741 409.71 18.6321C410.108 18.3868 410.582 18.2642 411.132 18.2642C411.825 18.2642 412.39 18.4813 412.827 18.9155C413.268 19.3497 413.488 20.0043 413.488 20.8793V26H412.002V21.0185C412.002 20.5014 411.861 20.1269 411.579 19.8949C411.298 19.6629 410.961 19.5469 410.57 19.5469C410.086 19.5469 409.71 19.696 409.441 19.9943C409.173 20.2893 409.039 20.6688 409.039 21.1328V26H407.557V20.924C407.557 20.5097 407.428 20.1766 407.169 19.9247C406.911 19.6728 406.575 19.5469 406.16 19.5469C405.879 19.5469 405.618 19.6214 405.38 19.7706C405.144 19.9164 404.954 20.1203 404.808 20.3821C404.665 20.6439 404.594 20.9472 404.594 21.2919V26H403.108ZM415.481 26V18.3636H416.967V26H415.481ZM416.231 17.1854C415.973 17.1854 415.751 17.0992 415.565 16.9268C415.383 16.7512 415.292 16.5424 415.292 16.3004C415.292 16.0552 415.383 15.8464 415.565 15.674C415.751 15.4983 415.973 15.4105 416.231 15.4105C416.49 15.4105 416.71 15.4983 416.893 15.674C417.078 15.8464 417.171 16.0552 417.171 16.3004C417.171 16.5424 417.078 16.7512 416.893 16.9268C416.71 17.0992 416.49 17.1854 416.231 17.1854ZM420.454 21.4659V26H418.967V18.3636H420.394V19.6065H420.488C420.664 19.2022 420.939 18.8774 421.314 18.6321C421.691 18.3868 422.167 18.2642 422.741 18.2642C423.261 18.2642 423.717 18.3736 424.108 18.5923C424.499 18.8078 424.802 19.1293 425.017 19.5568C425.233 19.9844 425.341 20.513 425.341 21.1428V26H423.854V21.3217C423.854 20.7682 423.71 20.3357 423.422 20.0241C423.133 19.7093 422.737 19.5518 422.233 19.5518C421.889 19.5518 421.582 19.6264 421.314 19.7756C421.049 19.9247 420.838 20.1435 420.682 20.4318C420.53 20.7169 420.454 21.0616 420.454 21.4659ZM427.334 26V18.3636H428.821V26H427.334ZM428.085 17.1854C427.826 17.1854 427.604 17.0992 427.419 16.9268C427.236 16.7512 427.145 16.5424 427.145 16.3004C427.145 16.0552 427.236 15.8464 427.419 15.674C427.604 15.4983 427.826 15.4105 428.085 15.4105C428.343 15.4105 428.564 15.4983 428.746 15.674C428.932 15.8464 429.025 16.0552 429.025 16.3004C429.025 16.5424 428.932 16.7512 428.746 16.9268C428.564 17.0992 428.343 17.1854 428.085 17.1854ZM434.506 26V24.8864L437.951 21.3168C438.319 20.929 438.622 20.5893 438.861 20.2976C439.103 20.0026 439.283 19.7225 439.403 19.4574C439.522 19.1922 439.582 18.9105 439.582 18.6122C439.582 18.2741 439.502 17.9825 439.343 17.7372C439.184 17.4886 438.967 17.2981 438.692 17.1655C438.417 17.0296 438.107 16.9616 437.762 16.9616C437.398 16.9616 437.079 17.0362 436.808 17.1854C436.536 17.3345 436.327 17.545 436.181 17.8168C436.035 18.0885 435.962 18.4067 435.962 18.7713H434.496C434.496 18.1515 434.638 17.6096 434.923 17.1456C435.208 16.6816 435.6 16.322 436.097 16.0668C436.594 15.8082 437.159 15.679 437.792 15.679C438.432 15.679 438.995 15.8066 439.482 16.0618C439.973 16.3137 440.356 16.6584 440.631 17.0959C440.906 17.5301 441.043 18.0206 441.043 18.5675C441.043 18.9453 440.972 19.3149 440.83 19.6761C440.69 20.0374 440.447 20.4401 440.099 20.8842C439.751 21.325 439.267 21.8603 438.647 22.4901L436.624 24.608V24.6825H441.207V26H434.506ZM444.091 26.0945C443.819 26.0945 443.586 25.9983 443.39 25.8061C443.194 25.6106 443.097 25.3752 443.097 25.1001C443.097 24.8284 443.194 24.5964 443.39 24.4041C443.586 24.2086 443.819 24.1108 444.091 24.1108C444.363 24.1108 444.596 24.2086 444.792 24.4041C444.988 24.5964 445.085 24.8284 445.085 25.1001C445.085 25.2824 445.039 25.4498 444.946 25.6023C444.857 25.7514 444.737 25.8707 444.588 25.9602C444.439 26.0497 444.273 26.0945 444.091 26.0945ZM450.253 26.1392C449.63 26.1392 449.07 26.0199 448.573 25.7812C448.079 25.5393 447.685 25.2079 447.39 24.7869C447.095 24.366 446.937 23.8854 446.917 23.3452H448.409C448.445 23.7827 448.639 24.1423 448.991 24.424C449.342 24.7057 449.763 24.8466 450.253 24.8466C450.644 24.8466 450.991 24.7571 451.292 24.5781C451.597 24.3958 451.836 24.1456 452.008 23.8274C452.184 23.5092 452.272 23.1463 452.272 22.7386C452.272 22.3243 452.182 21.9548 452.003 21.63C451.824 21.3052 451.577 21.05 451.263 20.8643C450.951 20.6787 450.593 20.5843 450.189 20.581C449.88 20.581 449.571 20.634 449.259 20.7401C448.947 20.8461 448.696 20.9853 448.503 21.1577L447.096 20.9489L447.668 15.8182H453.266V17.1357H448.946L448.623 19.9844H448.682C448.881 19.7921 449.145 19.6314 449.473 19.5021C449.804 19.3729 450.159 19.3082 450.537 19.3082C451.156 19.3082 451.708 19.4557 452.192 19.7507C452.679 20.0457 453.062 20.4484 453.341 20.9588C453.622 21.4659 453.762 22.0492 453.758 22.7088C453.762 23.3684 453.612 23.9567 453.311 24.4737C453.013 24.9908 452.598 25.3984 452.068 25.6967C451.541 25.9917 450.936 26.1392 450.253 26.1392Z" fill="#737373"/>
<defs>
<filter id="filter0_dd_16_39" x="2" y="3" width="124" height="38" filterUnits="userSpaceOnUse" color-interpolation-filters="sRGB">
<feFlood flood-opacity="0" result="BackgroundImageFix"/>
<feColorMatrix in="SourceAlpha" type="matrix" values="0 0 0 0 0 0 0 0 0 0 0 0 0 0 0 0 0 0 127 0" result="hardAlpha"/>
<feMorphology radius="1" operator="erode" in="SourceAlpha" result="effect1_dropShadow_16_39"/>
<feOffset dy="1"/>
<feGaussianBlur stdDeviation="1"/>
<feComposite in2="hardAlpha" operator="out"/>
<feColorMatrix type="matrix" values="0 0 0 0 0 0 0 0 0 0 0 0 0 0 0 0 0 0 0.1 0"/>
<feBlend mode="normal" in2="BackgroundImageFix" result="effect1_dropShadow_16_39"/>
<feColorMatrix in="SourceAlpha" type="matrix" values="0 0 0 0 0 0 0 0 0 0 0 0 0 0 0 0 0 0 127 0" result="hardAlpha"/>
<feOffset dy="1"/>
<feGaussianBlur stdDeviation="1.5"/>
<feComposite in2="hardAlpha" operator="out"/>
<feColorMatrix type="matrix" values="0 0 0 0 0 0 0 0 0 0 0 0 0 0 0 0 0 0 0.1 0"/>
<feBlend mode="normal" in2="effect1_dropShadow_16_39" result="effect2_dropShadow_16_39"/>
<feBlend mode="normal" in="SourceGraphic" in2="effect2_dropShadow_16_39" result="shape"/>
</filter>
<linearGradient id="paint0_linear_16_39" x1="370.675" y1="17.6173" x2="362.832" y2="24.272" gradientUnits="userSpaceOnUse">
<stop stop-color="#217BFE"/>
<stop offset="0.14" stop-color="#1485FC"/>
<stop offset="0.27" stop-color="#078EFB"/>
<stop offset="0.52" stop-color="#548FFD"/>
<stop offset="0.78" stop-color="#A190FF"/>
<stop offset="0.89" stop-color="#AF94FE"/>
<stop offset="1" stop-color="#BD99FE"/>
</linearGradient>
<linearGradient id="paint1_linear_16_39" x1="365.405" y1="22.8448" x2="370.224" y2="17.8579" gradientUnits="userSpaceOnUse">
<stop stop-color="#217BFE"/>
<stop offset="0.14" stop-color="#1485FC"/>
<stop offset="0.27" stop-color="#078EFB"/>
<stop offset="0.52" stop-color="#548FFD"/>
<stop offset="0.78" stop-color="#A190FF"/>
<stop offset="0.89" stop-color="#AF94FE"/>
<stop offset="1" stop-color="#BD99FE"/>
</linearGradient>
<clipPath id="clip0_16_39">
<rect x="135" y="13" width="16" height="16" rx="6" fill="white"/>
</clipPath>
<clipPath id="clip1_16_39">
<rect width="16" height="16" fill="white" transform="translate(135 13)"/>
</clipPath>
<clipPath id="clip2_16_39">
<rect x="239" y="13" width="16" height="16" rx="6" fill="white"/>
</clipPath>
<clipPath id="clip3_16_39">
<rect width="16" height="16" fill="white" transform="translate(239 13)"/>
</clipPath>
<clipPath id="clip4_16_39">
<rect x="359" y="13" width="16" height="16" rx="6" fill="white"/>
</clipPath>
<clipPath id="clip5_16_39">
<rect width="16" height="16" fill="white" transform="translate(359 13)"/>
</clipPath>
<clipPath id="clip6_16_39">
<rect width="16" height="16" fill="white" transform="translate(359 13)"/>
</clipPath>
</defs>
</svg>
