<svg width="438" height="172" viewBox="0 0 438 172" fill="none" xmlns="http://www.w3.org/2000/svg">
<rect x="0.77893" y="0.484496" width="436.531" height="171.031" rx="22.7713" fill="#FCFCFC"/>
<rect x="0.77893" y="0.484496" width="436.531" height="171.031" rx="22.7713" stroke="#E4E4E4" stroke-width="0.968992"/>
<g clip-path="url(#clip0_103_19547)">
<path d="M15.7983 28.3039C15.7983 23.8235 15.7983 21.5832 16.6703 19.872C17.4373 18.3667 18.6611 17.1428 20.1664 16.3758C21.8777 15.5039 24.1179 15.5039 28.5983 15.5039H202.998C207.479 15.5039 209.719 15.5039 211.43 16.3758C212.936 17.1428 214.159 18.3667 214.926 19.872C215.798 21.5832 215.798 23.8235 215.798 28.3039V38.7039C215.798 43.1843 215.798 45.4245 214.926 47.1358C214.159 48.6411 212.936 49.8649 211.43 50.6319C209.719 51.5039 207.479 51.5039 202.998 51.5039H28.5983C24.1179 51.5039 21.8777 51.5039 20.1664 50.6319C18.6611 49.8649 17.4373 48.6411 16.6703 47.1358C15.7983 45.4245 15.7983 43.1843 15.7983 38.7039V28.3039Z" stroke="#E4E4E4"/>
<g clip-path="url(#clip1_103_19547)">
<path fill-rule="evenodd" clip-rule="evenodd" d="M32.1157 25.5039H35.4809C36.4334 25.5039 37.1939 25.5039 37.8082 25.5541C38.4382 25.6055 38.9801 25.7135 39.4778 25.9671C40.2775 26.3746 40.9277 27.0247 41.3351 27.8244C41.5887 28.3221 41.6967 28.864 41.7482 29.494C41.7984 30.1083 41.7983 30.8688 41.7983 31.8212V35.1865C41.7983 36.1389 41.7984 36.8995 41.7482 37.5137C41.6967 38.1438 41.5887 38.6856 41.3351 39.1833C40.9277 39.983 40.2775 40.6332 39.4778 41.0407C38.9801 41.2942 38.4382 41.4022 37.8082 41.4537C37.1939 41.5039 36.4334 41.5039 35.481 41.5039H32.1157C31.1633 41.5039 30.4027 41.5039 29.7885 41.4537C29.1585 41.4022 28.6166 41.2942 28.1189 41.0407C27.3192 40.6332 26.669 39.983 26.2616 39.1833C26.008 38.6856 25.9 38.1438 25.8485 37.5137C25.7983 36.8995 25.7983 36.1389 25.7983 35.1865V31.8213C25.7983 30.8688 25.7983 30.1083 25.8485 29.494C25.9 28.864 26.008 28.3221 26.2616 27.8244C26.669 27.0247 27.3192 26.3746 28.1189 25.9671C28.6166 25.7135 29.1585 25.6055 29.7885 25.5541C30.4027 25.5039 31.1633 25.5039 32.1157 25.5039Z" fill="#E9E9EC"/>
<path d="M32.1157 25.6543H35.481C36.4357 25.6543 37.1896 25.6535 37.7964 25.7031C38.4169 25.7538 38.9367 25.8596 39.4097 26.1006C40.1811 26.4936 40.8086 27.1211 41.2017 27.8925C41.4426 28.3655 41.5484 28.8853 41.5991 29.5058C41.6487 30.1126 41.648 30.8665 41.6479 31.8213V35.1865C41.648 36.1412 41.6487 36.8951 41.5991 37.5019C41.5484 38.1224 41.4426 38.6423 41.2017 39.1152C40.8086 39.8867 40.1811 40.5141 39.4097 40.9072C38.9367 41.1481 38.4169 41.2539 37.7964 41.3047C37.1896 41.3542 36.4357 41.3535 35.481 41.3535H32.1157C31.161 41.3535 30.4071 41.3542 29.8003 41.3047C29.1798 41.2539 28.6599 41.1481 28.187 40.9072C27.4155 40.5141 26.7881 39.8867 26.395 39.1152C26.1541 38.6423 26.0483 38.1224 25.9976 37.5019C25.948 36.8951 25.9487 36.1412 25.9487 35.1865V31.8213C25.9487 30.8665 25.948 30.1126 25.9976 29.5058C26.0483 28.8853 26.1541 28.3655 26.395 27.8925C26.7881 27.1211 27.4155 26.4936 28.187 26.1006C28.6599 25.8596 29.1798 25.7538 29.8003 25.7031C30.4071 25.6535 31.161 25.6543 32.1157 25.6543Z" stroke="black" stroke-opacity="0.08" stroke-width="0.3"/>
<path opacity="0.8" d="M32.3139 32.5982L29.6674 36.4209C29.4168 36.7829 29.2915 36.9638 29.2986 37.1144C29.3048 37.2454 29.3686 37.3671 29.4728 37.4468C29.5925 37.5384 29.8126 37.5384 30.2529 37.5384H36.905L33.4848 32.5982C33.2881 32.3141 33.1898 32.172 33.067 32.1221C32.9595 32.0784 32.8392 32.0784 32.7318 32.1221C32.6089 32.172 32.5106 32.3141 32.3139 32.5982Z" fill="#151522"/>
<path opacity="0.4" d="M36.9052 37.5384H37.3548C37.7871 37.5384 38.0032 37.5384 38.1223 37.4482C38.2261 37.3697 38.2903 37.2497 38.2981 37.1198C38.307 36.9707 38.1871 36.7909 37.9474 36.4312L36.6075 34.4215C36.4094 34.1244 36.3104 33.9758 36.1855 33.924C36.0764 33.8787 35.9537 33.8787 35.8445 33.924C35.7197 33.9758 35.6206 34.1244 35.4225 34.4215L35.0913 34.9183L36.9052 37.5384Z" fill="#151522"/>
<path opacity="0.8" d="M36.9631 32.1398C37.7005 32.1398 38.2983 31.542 38.2983 30.8046C38.2983 30.0672 37.7005 29.4694 36.9631 29.4694C36.2257 29.4694 35.6279 30.0672 35.6279 30.8046C35.6279 31.542 36.2257 32.1398 36.9631 32.1398Z" fill="#151522"/>
<path d="M55.8723 38.6439C55.2003 38.6439 54.6077 38.5179 54.0943 38.2659C53.5903 38.0139 53.1937 37.6499 52.9043 37.1739C52.6243 36.6885 52.4703 36.1052 52.4423 35.4239C52.433 35.2839 52.4283 35.1019 52.4283 34.8779C52.4283 34.6445 52.433 34.4532 52.4423 34.3039C52.4703 33.6225 52.6243 33.0439 52.9043 32.5679C53.1937 32.0825 53.5903 31.7139 54.0943 31.4619C54.6077 31.2099 55.2003 31.0839 55.8723 31.0839C56.4697 31.0839 56.9783 31.1679 57.3983 31.3359C57.8183 31.5039 58.1637 31.7139 58.4343 31.9659C58.705 32.2179 58.9057 32.4839 59.0363 32.7639C59.1763 33.0345 59.251 33.2819 59.2603 33.5059C59.2697 33.6085 59.237 33.6925 59.1623 33.7579C59.097 33.8139 59.0177 33.8419 58.9243 33.8419H57.6923C57.599 33.8419 57.5243 33.8185 57.4683 33.7719C57.4217 33.7252 57.375 33.6552 57.3283 33.5619C57.1883 33.1885 57.0017 32.9272 56.7683 32.7779C56.5443 32.6192 56.255 32.5399 55.9003 32.5399C55.4337 32.5399 55.0603 32.6892 54.7803 32.9879C54.5097 33.2772 54.365 33.7392 54.3463 34.3739C54.3277 34.7285 54.3277 35.0552 54.3463 35.3539C54.365 35.9979 54.5097 36.4645 54.7803 36.7539C55.0603 37.0432 55.4337 37.1879 55.9003 37.1879C56.2643 37.1879 56.5583 37.1132 56.7823 36.9639C57.0063 36.8052 57.1883 36.5392 57.3283 36.1659C57.375 36.0725 57.4217 36.0025 57.4683 35.9559C57.5243 35.9092 57.599 35.8859 57.6923 35.8859H58.9243C59.0177 35.8859 59.097 35.9185 59.1623 35.9839C59.237 36.0399 59.2697 36.1192 59.2603 36.2219C59.251 36.3899 59.2043 36.5812 59.1203 36.7959C59.0457 37.0012 58.9197 37.2159 58.7423 37.4399C58.5743 37.6545 58.3597 37.8552 58.0983 38.0419C57.837 38.2192 57.5197 38.3639 57.1463 38.4759C56.7823 38.5879 56.3577 38.6439 55.8723 38.6439ZM60.7624 38.5039C60.6691 38.5039 60.5897 38.4712 60.5244 38.4059C60.4591 38.3405 60.4264 38.2612 60.4264 38.1679V37.4539C60.4264 37.3699 60.4451 37.2719 60.4824 37.1599C60.5291 37.0385 60.6271 36.9172 60.7764 36.7959L62.9884 34.5979C63.6044 34.1125 64.0991 33.7019 64.4724 33.3659C64.8551 33.0205 65.1304 32.7079 65.2984 32.4279C65.4757 32.1385 65.5644 31.8539 65.5644 31.5739C65.5644 31.1539 65.4477 30.8132 65.2144 30.5519C64.9904 30.2905 64.6311 30.1599 64.1364 30.1599C63.8097 30.1599 63.5344 30.2299 63.3104 30.3699C63.0864 30.5005 62.9091 30.6779 62.7784 30.9019C62.6571 31.1259 62.5731 31.3732 62.5264 31.6439C62.5077 31.7652 62.4564 31.8492 62.3724 31.8959C62.2884 31.9425 62.2044 31.9659 62.1204 31.9659H60.8744C60.7904 31.9659 60.7204 31.9379 60.6644 31.8819C60.6084 31.8259 60.5804 31.7605 60.5804 31.6859C60.5897 31.2845 60.6737 30.8972 60.8324 30.5239C60.9911 30.1412 61.2197 29.8052 61.5184 29.5159C61.8264 29.2172 62.1997 28.9792 62.6384 28.8019C63.0771 28.6245 63.5717 28.5359 64.1224 28.5359C64.8971 28.5359 65.5364 28.6665 66.0404 28.9279C66.5537 29.1892 66.9364 29.5439 67.1884 29.9919C67.4497 30.4399 67.5804 30.9439 67.5804 31.5039C67.5804 31.9425 67.4964 32.3485 67.3284 32.7219C67.1604 33.0859 66.9177 33.4405 66.6004 33.7859C66.2831 34.1219 65.9004 34.4672 65.4524 34.8219L63.4644 36.8379H67.4544C67.5571 36.8379 67.6364 36.8705 67.6924 36.9359C67.7577 36.9919 67.7904 37.0712 67.7904 37.1739V38.1679C67.7904 38.2612 67.7577 38.3405 67.6924 38.4059C67.6364 38.4712 67.5571 38.5039 67.4544 38.5039H60.7624ZM69.4304 38.5039C69.337 38.5039 69.2577 38.4712 69.1924 38.4059C69.127 38.3405 69.0944 38.2612 69.0944 38.1679V37.4539C69.0944 37.3699 69.113 37.2719 69.1504 37.1599C69.197 37.0385 69.295 36.9172 69.4444 36.7959L71.6564 34.5979C72.2724 34.1125 72.767 33.7019 73.1404 33.3659C73.523 33.0205 73.7984 32.7079 73.9664 32.4279C74.1437 32.1385 74.2324 31.8539 74.2324 31.5739C74.2324 31.1539 74.1157 30.8132 73.8824 30.5519C73.6584 30.2905 73.299 30.1599 72.8044 30.1599C72.4777 30.1599 72.2024 30.2299 71.9784 30.3699C71.7544 30.5005 71.577 30.6779 71.4464 30.9019C71.325 31.1259 71.241 31.3732 71.1944 31.6439C71.1757 31.7652 71.1244 31.8492 71.0404 31.8959C70.9564 31.9425 70.8724 31.9659 70.7884 31.9659H69.5424C69.4584 31.9659 69.3884 31.9379 69.3324 31.8819C69.2764 31.8259 69.2484 31.7605 69.2484 31.6859C69.2577 31.2845 69.3417 30.8972 69.5004 30.5239C69.659 30.1412 69.8877 29.8052 70.1864 29.5159C70.4944 29.2172 70.8677 28.9792 71.3064 28.8019C71.745 28.6245 72.2397 28.5359 72.7904 28.5359C73.565 28.5359 74.2044 28.6665 74.7084 28.9279C75.2217 29.1892 75.6044 29.5439 75.8564 29.9919C76.1177 30.4399 76.2484 30.9439 76.2484 31.5039C76.2484 31.9425 76.1644 32.3485 75.9964 32.7219C75.8284 33.0859 75.5857 33.4405 75.2684 33.7859C74.951 34.1219 74.5684 34.4672 74.1204 34.8219L72.1324 36.8379H76.1224C76.225 36.8379 76.3044 36.8705 76.3604 36.9359C76.4257 36.9919 76.4584 37.0712 76.4584 37.1739V38.1679C76.4584 38.2612 76.4257 38.3405 76.3604 38.4059C76.3044 38.4712 76.225 38.5039 76.1224 38.5039H69.4304ZM79.1623 38.5039C79.0783 38.5039 79.0083 38.4759 78.9523 38.4199C78.8963 38.3545 78.8683 38.2799 78.8683 38.1959C78.8683 38.1585 78.8777 38.1165 78.8963 38.0699L82.2703 30.3699H77.8743C77.7717 30.3699 77.6877 30.3372 77.6223 30.2719C77.5663 30.2065 77.5383 30.1272 77.5383 30.0339V29.0539C77.5383 28.9512 77.5663 28.8672 77.6223 28.8019C77.6877 28.7365 77.7717 28.7039 77.8743 28.7039H84.0203C84.123 28.7039 84.2023 28.7365 84.2583 28.8019C84.3237 28.8672 84.3563 28.9512 84.3563 29.0539V29.9219C84.3563 30.0525 84.3423 30.1645 84.3143 30.2579C84.2957 30.3419 84.2677 30.4305 84.2303 30.5239L80.8843 38.1679C80.8563 38.2332 80.805 38.3079 80.7303 38.3919C80.665 38.4665 80.567 38.5039 80.4363 38.5039H79.1623ZM86.1619 38.5039C86.0686 38.5039 85.9892 38.4712 85.9239 38.4059C85.8586 38.3405 85.8259 38.2612 85.8259 38.1679V29.0539C85.8259 28.9512 85.8586 28.8672 85.9239 28.8019C85.9892 28.7365 86.0686 28.7039 86.1619 28.7039H90.2219C90.9779 28.7039 91.5939 28.8205 92.0699 29.0539C92.5459 29.2779 92.8959 29.5905 93.1199 29.9919C93.3532 30.3932 93.4699 30.8599 93.4699 31.3919C93.4699 31.7465 93.4046 32.0592 93.2739 32.3299C93.1526 32.5912 92.9986 32.8059 92.8119 32.9739C92.6346 33.1419 92.4572 33.2725 92.2799 33.3659C92.6439 33.5339 92.9659 33.8139 93.2459 34.2059C93.5259 34.5979 93.6659 35.0645 93.6659 35.6059C93.6659 36.1659 93.5399 36.6652 93.2879 37.1039C93.0359 37.5425 92.6626 37.8879 92.1679 38.1399C91.6732 38.3825 91.0619 38.5039 90.3339 38.5039H86.1619ZM87.7719 37.0199H90.1099C90.6139 37.0199 90.9966 36.8845 91.2579 36.6139C91.5192 36.3339 91.6499 35.9979 91.6499 35.6059C91.6499 35.1952 91.5146 34.8545 91.2439 34.5839C90.9826 34.3132 90.6046 34.1779 90.1099 34.1779H87.7719V37.0199ZM87.7719 32.7219H89.9699C90.4646 32.7219 90.8332 32.6052 91.0759 32.3719C91.3279 32.1292 91.4539 31.8165 91.4539 31.4339C91.4539 31.0419 91.3279 30.7385 91.0759 30.5239C90.8332 30.2999 90.4646 30.1879 89.9699 30.1879H87.7719V32.7219ZM95.7595 38.5039C95.6662 38.5039 95.5869 38.4712 95.5215 38.4059C95.4562 38.3405 95.4235 38.2612 95.4235 38.1679V29.0539C95.4235 28.9512 95.4562 28.8672 95.5215 28.8019C95.5869 28.7365 95.6662 28.7039 95.7595 28.7039H101.92C102.022 28.7039 102.106 28.7365 102.172 28.8019C102.237 28.8672 102.27 28.9512 102.27 29.0539V29.9779C102.27 30.0712 102.237 30.1505 102.172 30.2159C102.106 30.2812 102.022 30.3139 101.92 30.3139H97.3135V32.7919H101.612C101.714 32.7919 101.798 32.8245 101.864 32.8899C101.929 32.9459 101.962 33.0252 101.962 33.1279V33.9959C101.962 34.0985 101.929 34.1825 101.864 34.2479C101.798 34.3039 101.714 34.3319 101.612 34.3319H97.3135V36.8939H102.032C102.134 36.8939 102.218 36.9265 102.284 36.9919C102.349 37.0572 102.382 37.1412 102.382 37.2439V38.1679C102.382 38.2612 102.349 38.3405 102.284 38.4059C102.218 38.4712 102.134 38.5039 102.032 38.5039H95.7595ZM108.488 38.5039C108.395 38.5039 108.316 38.4712 108.25 38.4059C108.185 38.3405 108.152 38.2612 108.152 38.1679V36.3759H103.714C103.612 36.3759 103.528 36.3432 103.462 36.2779C103.406 36.2125 103.378 36.1332 103.378 36.0399V35.0879C103.378 35.0319 103.388 34.9665 103.406 34.8919C103.434 34.8079 103.476 34.7332 103.532 34.6679L107.662 28.9419C107.784 28.7832 107.956 28.7039 108.18 28.7039H109.706C109.8 28.7039 109.879 28.7365 109.944 28.8019C110.01 28.8672 110.042 28.9465 110.042 29.0399V34.7239H111.288C111.4 34.7239 111.484 34.7565 111.54 34.8219C111.606 34.8779 111.638 34.9572 111.638 35.0599V36.0399C111.638 36.1332 111.606 36.2125 111.54 36.2779C111.475 36.3432 111.396 36.3759 111.302 36.3759H110.042V38.1679C110.042 38.2612 110.01 38.3405 109.944 38.4059C109.879 38.4712 109.8 38.5039 109.706 38.5039H108.488ZM105.324 34.7799H108.194V30.7339L105.324 34.7799ZM116.683 38.6439C116.067 38.6439 115.517 38.5692 115.031 38.4199C114.546 38.2705 114.135 38.0605 113.799 37.7899C113.473 37.5192 113.221 37.2019 113.043 36.8379C112.875 36.4739 112.791 36.0679 112.791 35.6199C112.791 35.0785 112.922 34.6119 113.183 34.2199C113.454 33.8185 113.804 33.5105 114.233 33.2959C113.888 33.0812 113.617 32.8059 113.421 32.4699C113.235 32.1339 113.141 31.7419 113.141 31.2939C113.141 30.7525 113.277 30.2812 113.547 29.8799C113.827 29.4692 114.229 29.1472 114.751 28.9139C115.283 28.6805 115.927 28.5639 116.683 28.5639C117.439 28.5639 118.079 28.6805 118.601 28.9139C119.124 29.1379 119.521 29.4552 119.791 29.8659C120.062 30.2672 120.197 30.7385 120.197 31.2799C120.197 31.7279 120.104 32.1199 119.917 32.4559C119.731 32.7919 119.469 33.0719 119.133 33.2959C119.572 33.5012 119.922 33.8092 120.183 34.2199C120.445 34.6212 120.575 35.0925 120.575 35.6339C120.575 36.2219 120.421 36.7445 120.113 37.2019C119.815 37.6499 119.371 38.0045 118.783 38.2659C118.205 38.5179 117.505 38.6439 116.683 38.6439ZM116.683 37.1879C117.047 37.1879 117.374 37.1272 117.663 37.0059C117.962 36.8752 118.195 36.6932 118.363 36.4599C118.541 36.2265 118.629 35.9512 118.629 35.6339C118.629 35.3072 118.541 35.0319 118.363 34.8079C118.195 34.5745 117.962 34.3972 117.663 34.2759C117.374 34.1452 117.047 34.0799 116.683 34.0799C116.319 34.0799 115.988 34.1452 115.689 34.2759C115.4 34.3972 115.167 34.5745 114.989 34.8079C114.821 35.0319 114.737 35.3072 114.737 35.6339C114.737 35.9512 114.821 36.2265 114.989 36.4599C115.167 36.6932 115.4 36.8752 115.689 37.0059C115.988 37.1272 116.319 37.1879 116.683 37.1879ZM116.683 32.6939C116.991 32.6845 117.271 32.6239 117.523 32.5119C117.785 32.3999 117.99 32.2505 118.139 32.0639C118.298 31.8679 118.377 31.6345 118.377 31.3639C118.377 31.0932 118.303 30.8599 118.153 30.6639C118.013 30.4585 117.813 30.2999 117.551 30.1879C117.299 30.0759 117.01 30.0199 116.683 30.0199C116.357 30.0199 116.063 30.0759 115.801 30.1879C115.549 30.2999 115.349 30.4585 115.199 30.6639C115.059 30.8599 114.989 31.0932 114.989 31.3639C114.989 31.6345 115.059 31.8679 115.199 32.0639C115.349 32.2599 115.549 32.4139 115.801 32.5259C116.063 32.6379 116.357 32.6939 116.683 32.6939ZM122.455 38.5039C122.361 38.5039 122.282 38.4712 122.217 38.4059C122.151 38.3405 122.119 38.2612 122.119 38.1679V36.8939C122.119 36.7912 122.151 36.7072 122.217 36.6419C122.282 36.5765 122.361 36.5439 122.455 36.5439H123.729C123.831 36.5439 123.915 36.5765 123.981 36.6419C124.046 36.7072 124.079 36.7912 124.079 36.8939V38.1679C124.079 38.2612 124.046 38.3405 123.981 38.4059C123.915 38.4712 123.831 38.5039 123.729 38.5039H122.455ZM125.395 38.5039C125.292 38.5039 125.208 38.4712 125.143 38.4059C125.087 38.3405 125.059 38.2612 125.059 38.1679V36.8939C125.059 36.7912 125.087 36.7072 125.143 36.6419C125.208 36.5765 125.292 36.5439 125.395 36.5439H126.669C126.762 36.5439 126.841 36.5765 126.907 36.6419C126.972 36.7072 127.005 36.7912 127.005 36.8939V38.1679C127.005 38.2612 126.972 38.3405 126.907 38.4059C126.841 38.4712 126.762 38.5039 126.669 38.5039H125.395ZM128.321 38.5039C128.227 38.5039 128.148 38.4712 128.083 38.4059C128.017 38.3405 127.985 38.2612 127.985 38.1679V36.8939C127.985 36.7912 128.017 36.7072 128.083 36.6419C128.148 36.5765 128.227 36.5439 128.321 36.5439H129.609C129.702 36.5439 129.781 36.5765 129.847 36.6419C129.912 36.7072 129.945 36.7912 129.945 36.8939V38.1679C129.945 38.2612 129.912 38.3405 129.847 38.4059C129.781 38.4712 129.702 38.5039 129.609 38.5039H128.321Z" fill="#18181B"/>
<path d="M139.058 38.5039C138.965 38.5039 138.886 38.4759 138.82 38.4199C138.764 38.3545 138.736 38.2752 138.736 38.1819V37.1739C138.736 37.0805 138.764 37.0059 138.82 36.9499C138.886 36.8845 138.965 36.8519 139.058 36.8519H140.066C140.16 36.8519 140.234 36.8845 140.29 36.9499C140.356 37.0059 140.388 37.0805 140.388 37.1739V38.1819C140.388 38.2752 140.356 38.3545 140.29 38.4199C140.234 38.4759 140.16 38.5039 140.066 38.5039H139.058Z" fill="#18181B"/>
<path d="M143.072 41.1639C142.979 41.1639 142.9 41.1312 142.834 41.0659C142.769 41.0005 142.736 40.9212 142.736 40.8279V31.5599C142.736 31.4665 142.769 31.3872 142.834 31.3219C142.9 31.2565 142.979 31.2239 143.072 31.2239H144.178C144.281 31.2239 144.36 31.2565 144.416 31.3219C144.482 31.3872 144.514 31.4665 144.514 31.5599V32.1199C144.738 31.8212 145.032 31.5739 145.396 31.3779C145.76 31.1819 146.213 31.0839 146.754 31.0839C147.249 31.0839 147.678 31.1632 148.042 31.3219C148.406 31.4805 148.71 31.7092 148.952 32.0079C149.195 32.2972 149.382 32.6425 149.512 33.0439C149.643 33.4452 149.718 33.8885 149.736 34.3739C149.746 34.5325 149.75 34.6959 149.75 34.8639C149.75 35.0319 149.746 35.1999 149.736 35.3679C149.727 35.8345 149.657 36.2685 149.526 36.6699C149.396 37.0619 149.204 37.4072 148.952 37.7059C148.71 37.9952 148.406 38.2239 148.042 38.3919C147.678 38.5599 147.249 38.6439 146.754 38.6439C146.25 38.6439 145.821 38.5552 145.466 38.3779C145.112 38.1912 144.822 37.9485 144.598 37.6499V40.8279C144.598 40.9212 144.566 41.0005 144.5 41.0659C144.444 41.1312 144.365 41.1639 144.262 41.1639H143.072ZM146.236 37.1459C146.638 37.1459 146.95 37.0619 147.174 36.8939C147.398 36.7165 147.557 36.4879 147.65 36.2079C147.753 35.9279 147.814 35.6199 147.832 35.2839C147.851 35.0039 147.851 34.7239 147.832 34.4439C147.814 34.1079 147.753 33.7999 147.65 33.5199C147.557 33.2399 147.398 33.0159 147.174 32.8479C146.95 32.6705 146.638 32.5819 146.236 32.5819C145.854 32.5819 145.541 32.6705 145.298 32.8479C145.065 33.0252 144.892 33.2539 144.78 33.5339C144.678 33.8045 144.617 34.0845 144.598 34.3739C144.589 34.5419 144.584 34.7192 144.584 34.9059C144.584 35.0925 144.589 35.2745 144.598 35.4519C144.608 35.7319 144.673 36.0025 144.794 36.2639C144.916 36.5159 145.093 36.7259 145.326 36.8939C145.56 37.0619 145.863 37.1459 146.236 37.1459ZM151.658 38.5039C151.565 38.5039 151.485 38.4712 151.42 38.4059C151.355 38.3405 151.322 38.2612 151.322 38.1679V31.5599C151.322 31.4665 151.355 31.3872 151.42 31.3219C151.485 31.2565 151.565 31.2239 151.658 31.2239H152.806C152.899 31.2239 152.979 31.2565 153.044 31.3219C153.109 31.3872 153.142 31.4665 153.142 31.5599V32.1339C153.385 31.8352 153.693 31.5879 154.066 31.3919C154.449 31.1865 154.92 31.0839 155.48 31.0839C156.049 31.0839 156.544 31.2145 156.964 31.4759C157.384 31.7279 157.706 32.0872 157.93 32.5539C158.163 33.0205 158.28 33.5805 158.28 34.2339V38.1679C158.28 38.2612 158.247 38.3405 158.182 38.4059C158.117 38.4712 158.037 38.5039 157.944 38.5039H156.712C156.619 38.5039 156.539 38.4712 156.474 38.4059C156.409 38.3405 156.376 38.2612 156.376 38.1679V34.3179C156.376 33.7765 156.241 33.3519 155.97 33.0439C155.709 32.7359 155.326 32.5819 154.822 32.5819C154.337 32.5819 153.949 32.7359 153.66 33.0439C153.371 33.3519 153.226 33.7765 153.226 34.3179V38.1679C153.226 38.2612 153.193 38.3405 153.128 38.4059C153.063 38.4712 152.983 38.5039 152.89 38.5039H151.658ZM163.348 41.5839C162.667 41.5839 162.107 41.4952 161.668 41.3179C161.23 41.1405 160.884 40.9259 160.632 40.6739C160.38 40.4219 160.198 40.1699 160.086 39.9179C159.984 39.6752 159.928 39.4839 159.918 39.3439C159.909 39.2505 159.937 39.1665 160.002 39.0919C160.077 39.0265 160.161 38.9939 160.254 38.9939H161.472C161.566 38.9939 161.64 39.0125 161.696 39.0499C161.752 39.0965 161.799 39.1759 161.836 39.2879C161.892 39.4092 161.967 39.5399 162.06 39.6799C162.154 39.8199 162.294 39.9365 162.48 40.0299C162.676 40.1325 162.942 40.1839 163.278 40.1839C163.633 40.1839 163.932 40.1325 164.174 40.0299C164.417 39.9272 164.599 39.7545 164.72 39.5119C164.851 39.2692 164.916 38.9332 164.916 38.5039V37.5519C164.692 37.8225 164.403 38.0419 164.048 38.2099C163.703 38.3779 163.274 38.4619 162.76 38.4619C162.256 38.4619 161.822 38.3825 161.458 38.2239C161.094 38.0559 160.791 37.8272 160.548 37.5379C160.306 37.2392 160.119 36.8892 159.988 36.4879C159.867 36.0865 159.797 35.6432 159.778 35.1579C159.769 34.9059 159.769 34.6539 159.778 34.4019C159.797 33.9352 159.867 33.5012 159.988 33.0999C160.11 32.6985 160.292 32.3485 160.534 32.0499C160.786 31.7419 161.094 31.5039 161.458 31.3359C161.822 31.1679 162.256 31.0839 162.76 31.0839C163.292 31.0839 163.74 31.1865 164.104 31.3919C164.468 31.5879 164.767 31.8352 165 32.1339V31.5739C165 31.4712 165.033 31.3872 165.098 31.3219C165.164 31.2565 165.243 31.2239 165.336 31.2239H166.47C166.564 31.2239 166.643 31.2565 166.708 31.3219C166.774 31.3872 166.806 31.4712 166.806 31.5739L166.82 38.3219C166.82 38.9939 166.694 39.5725 166.442 40.0579C166.19 40.5432 165.808 40.9165 165.294 41.1779C164.79 41.4485 164.142 41.5839 163.348 41.5839ZM163.278 36.9779C163.661 36.9779 163.969 36.8939 164.202 36.7259C164.436 36.5579 164.608 36.3385 164.72 36.0679C164.832 35.7972 164.898 35.5219 164.916 35.2419C164.926 35.1205 164.93 34.9665 164.93 34.7799C164.93 34.5932 164.926 34.4439 164.916 34.3319C164.898 34.0425 164.832 33.7672 164.72 33.5059C164.608 33.2352 164.436 33.0159 164.202 32.8479C163.969 32.6705 163.661 32.5819 163.278 32.5819C162.896 32.5819 162.588 32.6705 162.354 32.8479C162.121 33.0159 161.953 33.2399 161.85 33.5199C161.757 33.7999 161.701 34.1079 161.682 34.4439C161.664 34.6679 161.664 34.8965 161.682 35.1299C161.701 35.4565 161.757 35.7645 161.85 36.0539C161.953 36.3339 162.121 36.5579 162.354 36.7259C162.588 36.8939 162.896 36.9779 163.278 36.9779Z" fill="#18181B"/>
<rect width="40" height="36" transform="translate(175.798 15.5039)" fill="#B7B8BD" fill-opacity="0.15"/>
<path fill-rule="evenodd" clip-rule="evenodd" d="M191.019 28.7252C191.312 28.4323 191.787 28.4323 192.08 28.7252L200.577 37.2219C200.87 37.5148 200.87 37.9897 200.577 38.2826C200.284 38.5754 199.809 38.5754 199.516 38.2826L191.019 29.7859C190.727 29.493 190.727 29.0181 191.019 28.7252Z" fill="#6B6F7A"/>
<path fill-rule="evenodd" clip-rule="evenodd" d="M200.577 28.7252C200.87 29.0181 200.87 29.493 200.577 29.7859L192.08 38.2826C191.787 38.5754 191.312 38.5754 191.019 38.2826C190.727 37.9897 190.727 37.5148 191.019 37.2219L199.516 28.7252C199.809 28.4323 200.284 28.4323 200.577 28.7252Z" fill="#6B6F7A"/>
</g>
<path d="M223.798 28.3039C223.798 23.8235 223.798 21.5832 224.67 19.872C225.437 18.3667 226.661 17.1428 228.166 16.3758C229.878 15.5039 232.118 15.5039 236.598 15.5039H410.998C415.479 15.5039 417.719 15.5039 419.43 16.3758C420.936 17.1428 422.159 18.3667 422.926 19.872C423.798 21.5832 423.798 23.8235 423.798 28.3039V38.7039C423.798 43.1843 423.798 45.4245 422.926 47.1358C422.159 48.6411 420.936 49.8649 419.43 50.6319C417.719 51.5039 415.479 51.5039 410.998 51.5039H236.598C232.118 51.5039 229.878 51.5039 228.166 50.6319C226.661 49.8649 225.437 48.6411 224.67 47.1358C223.798 45.4245 223.798 43.1843 223.798 38.7039V28.3039Z" stroke="#E4E4E4"/>
<g clip-path="url(#clip2_103_19547)">
<path fill-rule="evenodd" clip-rule="evenodd" d="M240.116 25.5039H243.481C244.433 25.5039 245.194 25.5039 245.808 25.5541C246.438 25.6055 246.98 25.7135 247.478 25.9671C248.277 26.3746 248.928 27.0247 249.335 27.8244C249.589 28.3221 249.697 28.864 249.748 29.494C249.798 30.1083 249.798 30.8688 249.798 31.8212V35.1865C249.798 36.1389 249.798 36.8995 249.748 37.5137C249.697 38.1438 249.589 38.6856 249.335 39.1833C248.928 39.983 248.277 40.6332 247.478 41.0407C246.98 41.2942 246.438 41.4022 245.808 41.4537C245.194 41.5039 244.433 41.5039 243.481 41.5039H240.116C239.163 41.5039 238.403 41.5039 237.788 41.4537C237.158 41.4022 236.617 41.2942 236.119 41.0407C235.319 40.6332 234.669 39.983 234.262 39.1833C234.008 38.6856 233.9 38.1438 233.849 37.5137C233.798 36.8995 233.798 36.1389 233.798 35.1865V31.8213C233.798 30.8688 233.798 30.1083 233.849 29.494C233.9 28.864 234.008 28.3221 234.262 27.8244C234.669 27.0247 235.319 26.3746 236.119 25.9671C236.617 25.7135 237.158 25.6055 237.788 25.5541C238.403 25.5039 239.163 25.5039 240.116 25.5039Z" fill="#FA4646"/>
<path d="M241.358 30.1522C241.358 30.3805 241.278 30.5332 241.198 30.8377C241.038 30.1522 241.038 29.619 241.198 29.1618C241.278 29.1618 241.278 29.0857 241.278 29.0857L241.358 29.1618V29.2379C241.438 29.314 241.438 29.619 241.358 30V30.1522ZM238.398 36.3229C238.478 36.2468 238.638 36.1707 238.798 36.0941C238.318 37.0083 237.838 37.4655 237.358 37.5421C237.438 37.3133 237.838 36.78 238.398 36.3229ZM246.158 34.9514C246.158 35.0276 246.238 35.0276 246.238 35.0276V35.1037H245.998C245.598 35.1037 245.038 34.9514 244.478 34.7231V34.6465H244.638C245.758 34.6465 246.078 34.8753 246.158 34.9514ZM246.478 35.5608C246.638 35.4086 246.718 35.1803 246.798 35.1042C246.798 34.952 246.798 34.7992 246.718 34.6465C246.478 34.266 245.838 34.1133 244.878 34.1133C244.558 34.1133 244.238 34.1894 243.838 34.1894C243.518 34.0372 243.358 33.885 243.118 33.7327C242.638 33.2756 242.158 32.5896 241.838 31.7514V31.6753C242.158 30.6849 242.398 29.4657 241.838 28.9324C241.678 28.8563 241.518 28.7802 241.358 28.7802H241.198C240.878 28.7802 240.638 29.0847 240.558 29.3896C240.238 30.4566 240.398 30.9899 240.718 31.9036C240.478 32.5896 240.238 33.3517 239.838 34.1133C239.518 34.6465 239.278 35.1037 239.038 35.4847C238.718 35.6369 238.478 35.7891 238.318 35.8657C237.358 36.399 236.878 37.085 236.798 37.4655C236.798 37.6177 236.798 37.6943 236.878 37.8465V37.9226L237.279 38.1515C237.358 38.2276 237.438 38.2276 237.599 38.2276C238.239 38.2276 239.038 37.4655 239.998 35.8657C240.078 35.7896 240.078 35.7896 240.158 35.7896C240.958 35.4852 241.998 35.3325 243.358 35.1803C244.158 35.5608 245.118 35.7135 245.758 35.7135C246.006 35.7172 246.253 35.6647 246.478 35.5608ZM241.278 32.5901C241.598 33.2756 242.078 33.885 242.478 34.3421C242.558 34.4182 242.638 34.4943 242.798 34.5704C242.158 34.6465 241.198 34.8748 240.158 35.2564H239.998C240.158 34.952 240.319 34.7231 240.478 34.4182C240.798 33.7322 241.118 33.1234 241.278 32.5901Z" fill="white"/>
<path d="M263.872 38.6439C263.2 38.6439 262.608 38.5179 262.094 38.2659C261.59 38.0139 261.194 37.6499 260.904 37.1739C260.624 36.6885 260.47 36.1052 260.442 35.4239C260.433 35.2839 260.428 35.1019 260.428 34.8779C260.428 34.6445 260.433 34.4532 260.442 34.3039C260.47 33.6225 260.624 33.0439 260.904 32.5679C261.194 32.0825 261.59 31.7139 262.094 31.4619C262.608 31.2099 263.2 31.0839 263.872 31.0839C264.47 31.0839 264.978 31.1679 265.398 31.3359C265.818 31.5039 266.164 31.7139 266.434 31.9659C266.705 32.2179 266.906 32.4839 267.036 32.7639C267.176 33.0345 267.251 33.2819 267.26 33.5059C267.27 33.6085 267.237 33.6925 267.162 33.7579C267.097 33.8139 267.018 33.8419 266.924 33.8419H265.692C265.599 33.8419 265.524 33.8185 265.468 33.7719C265.422 33.7252 265.375 33.6552 265.328 33.5619C265.188 33.1885 265.002 32.9272 264.768 32.7779C264.544 32.6192 264.255 32.5399 263.9 32.5399C263.434 32.5399 263.06 32.6892 262.78 32.9879C262.51 33.2772 262.365 33.7392 262.346 34.3739C262.328 34.7285 262.328 35.0552 262.346 35.3539C262.365 35.9979 262.51 36.4645 262.78 36.7539C263.06 37.0432 263.434 37.1879 263.9 37.1879C264.264 37.1879 264.558 37.1132 264.782 36.9639C265.006 36.8052 265.188 36.5392 265.328 36.1659C265.375 36.0725 265.422 36.0025 265.468 35.9559C265.524 35.9092 265.599 35.8859 265.692 35.8859H266.924C267.018 35.8859 267.097 35.9185 267.162 35.9839C267.237 36.0399 267.27 36.1192 267.26 36.2219C267.251 36.3899 267.204 36.5812 267.12 36.7959C267.046 37.0012 266.92 37.2159 266.742 37.4399C266.574 37.6545 266.36 37.8552 266.098 38.0419C265.837 38.2192 265.52 38.3639 265.146 38.4759C264.782 38.5879 264.358 38.6439 263.872 38.6439ZM268.762 38.5039C268.669 38.5039 268.59 38.4712 268.524 38.4059C268.459 38.3405 268.426 38.2612 268.426 38.1679V37.4539C268.426 37.3699 268.445 37.2719 268.482 37.1599C268.529 37.0385 268.627 36.9172 268.776 36.7959L270.988 34.5979C271.604 34.1125 272.099 33.7019 272.472 33.3659C272.855 33.0205 273.13 32.7079 273.298 32.4279C273.476 32.1385 273.564 31.8539 273.564 31.5739C273.564 31.1539 273.448 30.8132 273.214 30.5519C272.99 30.2905 272.631 30.1599 272.136 30.1599C271.81 30.1599 271.534 30.2299 271.31 30.3699C271.086 30.5005 270.909 30.6779 270.778 30.9019C270.657 31.1259 270.573 31.3732 270.526 31.6439C270.508 31.7652 270.456 31.8492 270.372 31.8959C270.288 31.9425 270.204 31.9659 270.12 31.9659H268.874C268.79 31.9659 268.72 31.9379 268.664 31.8819C268.608 31.8259 268.58 31.7605 268.58 31.6859C268.59 31.2845 268.674 30.8972 268.832 30.5239C268.991 30.1412 269.22 29.8052 269.518 29.5159C269.826 29.2172 270.2 28.9792 270.638 28.8019C271.077 28.6245 271.572 28.5359 272.122 28.5359C272.897 28.5359 273.536 28.6665 274.04 28.9279C274.554 29.1892 274.936 29.5439 275.188 29.9919C275.45 30.4399 275.58 30.9439 275.58 31.5039C275.58 31.9425 275.496 32.3485 275.328 32.7219C275.16 33.0859 274.918 33.4405 274.6 33.7859C274.283 34.1219 273.9 34.4672 273.452 34.8219L271.464 36.8379H275.454C275.557 36.8379 275.636 36.8705 275.692 36.9359C275.758 36.9919 275.79 37.0712 275.79 37.1739V38.1679C275.79 38.2612 275.758 38.3405 275.692 38.4059C275.636 38.4712 275.557 38.5039 275.454 38.5039H268.762ZM277.43 38.5039C277.337 38.5039 277.258 38.4712 277.192 38.4059C277.127 38.3405 277.094 38.2612 277.094 38.1679V37.4539C277.094 37.3699 277.113 37.2719 277.15 37.1599C277.197 37.0385 277.295 36.9172 277.444 36.7959L279.656 34.5979C280.272 34.1125 280.767 33.7019 281.14 33.3659C281.523 33.0205 281.798 32.7079 281.966 32.4279C282.144 32.1385 282.232 31.8539 282.232 31.5739C282.232 31.1539 282.116 30.8132 281.882 30.5519C281.658 30.2905 281.299 30.1599 280.804 30.1599C280.478 30.1599 280.202 30.2299 279.978 30.3699C279.754 30.5005 279.577 30.6779 279.446 30.9019C279.325 31.1259 279.241 31.3732 279.194 31.6439C279.176 31.7652 279.124 31.8492 279.04 31.8959C278.956 31.9425 278.872 31.9659 278.788 31.9659H277.542C277.458 31.9659 277.388 31.9379 277.332 31.8819C277.276 31.8259 277.248 31.7605 277.248 31.6859C277.258 31.2845 277.342 30.8972 277.5 30.5239C277.659 30.1412 277.888 29.8052 278.186 29.5159C278.494 29.2172 278.868 28.9792 279.306 28.8019C279.745 28.6245 280.24 28.5359 280.79 28.5359C281.565 28.5359 282.204 28.6665 282.708 28.9279C283.222 29.1892 283.604 29.5439 283.856 29.9919C284.118 30.4399 284.248 30.9439 284.248 31.5039C284.248 31.9425 284.164 32.3485 283.996 32.7219C283.828 33.0859 283.586 33.4405 283.268 33.7859C282.951 34.1219 282.568 34.4672 282.12 34.8219L280.132 36.8379H284.122C284.225 36.8379 284.304 36.8705 284.36 36.9359C284.426 36.9919 284.458 37.0712 284.458 37.1739V38.1679C284.458 38.2612 284.426 38.3405 284.36 38.4059C284.304 38.4712 284.225 38.5039 284.122 38.5039H277.43ZM287.162 38.5039C287.078 38.5039 287.008 38.4759 286.952 38.4199C286.896 38.3545 286.868 38.2799 286.868 38.1959C286.868 38.1585 286.878 38.1165 286.896 38.0699L290.27 30.3699H285.874C285.772 30.3699 285.688 30.3372 285.622 30.2719C285.566 30.2065 285.538 30.1272 285.538 30.0339V29.0539C285.538 28.9512 285.566 28.8672 285.622 28.8019C285.688 28.7365 285.772 28.7039 285.874 28.7039H292.02C292.123 28.7039 292.202 28.7365 292.258 28.8019C292.324 28.8672 292.356 28.9512 292.356 29.0539V29.9219C292.356 30.0525 292.342 30.1645 292.314 30.2579C292.296 30.3419 292.268 30.4305 292.23 30.5239L288.884 38.1679C288.856 38.2332 288.805 38.3079 288.73 38.3919C288.665 38.4665 288.567 38.5039 288.436 38.5039H287.162ZM294.162 38.5039C294.069 38.5039 293.989 38.4712 293.924 38.4059C293.859 38.3405 293.826 38.2612 293.826 38.1679V29.0539C293.826 28.9512 293.859 28.8672 293.924 28.8019C293.989 28.7365 294.069 28.7039 294.162 28.7039H298.222C298.978 28.7039 299.594 28.8205 300.07 29.0539C300.546 29.2779 300.896 29.5905 301.12 29.9919C301.353 30.3932 301.47 30.8599 301.47 31.3919C301.47 31.7465 301.405 32.0592 301.274 32.3299C301.153 32.5912 300.999 32.8059 300.812 32.9739C300.635 33.1419 300.457 33.2725 300.28 33.3659C300.644 33.5339 300.966 33.8139 301.246 34.2059C301.526 34.5979 301.666 35.0645 301.666 35.6059C301.666 36.1659 301.54 36.6652 301.288 37.1039C301.036 37.5425 300.663 37.8879 300.168 38.1399C299.673 38.3825 299.062 38.5039 298.334 38.5039H294.162ZM295.772 37.0199H298.11C298.614 37.0199 298.997 36.8845 299.258 36.6139C299.519 36.3339 299.65 35.9979 299.65 35.6059C299.65 35.1952 299.515 34.8545 299.244 34.5839C298.983 34.3132 298.605 34.1779 298.11 34.1779H295.772V37.0199ZM295.772 32.7219H297.97C298.465 32.7219 298.833 32.6052 299.076 32.3719C299.328 32.1292 299.454 31.8165 299.454 31.4339C299.454 31.0419 299.328 30.7385 299.076 30.5239C298.833 30.2999 298.465 30.1879 297.97 30.1879H295.772V32.7219ZM303.76 38.5039C303.666 38.5039 303.587 38.4712 303.522 38.4059C303.456 38.3405 303.424 38.2612 303.424 38.1679V29.0539C303.424 28.9512 303.456 28.8672 303.522 28.8019C303.587 28.7365 303.666 28.7039 303.76 28.7039H309.92C310.022 28.7039 310.106 28.7365 310.172 28.8019C310.237 28.8672 310.27 28.9512 310.27 29.0539V29.9779C310.27 30.0712 310.237 30.1505 310.172 30.2159C310.106 30.2812 310.022 30.3139 309.92 30.3139H305.314V32.7919H309.612C309.714 32.7919 309.798 32.8245 309.864 32.8899C309.929 32.9459 309.962 33.0252 309.962 33.1279V33.9959C309.962 34.0985 309.929 34.1825 309.864 34.2479C309.798 34.3039 309.714 34.3319 309.612 34.3319H305.314V36.8939H310.032C310.134 36.8939 310.218 36.9265 310.284 36.9919C310.349 37.0572 310.382 37.1412 310.382 37.2439V38.1679C310.382 38.2612 310.349 38.3405 310.284 38.4059C310.218 38.4712 310.134 38.5039 310.032 38.5039H303.76ZM316.488 38.5039C316.395 38.5039 316.316 38.4712 316.25 38.4059C316.185 38.3405 316.152 38.2612 316.152 38.1679V36.3759H311.714C311.612 36.3759 311.528 36.3432 311.462 36.2779C311.406 36.2125 311.378 36.1332 311.378 36.0399V35.0879C311.378 35.0319 311.388 34.9665 311.406 34.8919C311.434 34.8079 311.476 34.7332 311.532 34.6679L315.662 28.9419C315.784 28.7832 315.956 28.7039 316.18 28.7039H317.706C317.8 28.7039 317.879 28.7365 317.944 28.8019C318.01 28.8672 318.042 28.9465 318.042 29.0399V34.7239H319.288C319.4 34.7239 319.484 34.7565 319.54 34.8219C319.606 34.8779 319.638 34.9572 319.638 35.0599V36.0399C319.638 36.1332 319.606 36.2125 319.54 36.2779C319.475 36.3432 319.396 36.3759 319.302 36.3759H318.042V38.1679C318.042 38.2612 318.01 38.3405 317.944 38.4059C317.879 38.4712 317.8 38.5039 317.706 38.5039H316.488ZM313.324 34.7799H316.194V30.7339L313.324 34.7799ZM324.683 38.6439C324.067 38.6439 323.517 38.5692 323.031 38.4199C322.546 38.2705 322.135 38.0605 321.799 37.7899C321.473 37.5192 321.221 37.2019 321.043 36.8379C320.875 36.4739 320.791 36.0679 320.791 35.6199C320.791 35.0785 320.922 34.6119 321.183 34.2199C321.454 33.8185 321.804 33.5105 322.233 33.2959C321.888 33.0812 321.617 32.8059 321.421 32.4699C321.235 32.1339 321.141 31.7419 321.141 31.2939C321.141 30.7525 321.277 30.2812 321.547 29.8799C321.827 29.4692 322.229 29.1472 322.751 28.9139C323.283 28.6805 323.927 28.5639 324.683 28.5639C325.439 28.5639 326.079 28.6805 326.601 28.9139C327.124 29.1379 327.521 29.4552 327.791 29.8659C328.062 30.2672 328.197 30.7385 328.197 31.2799C328.197 31.7279 328.104 32.1199 327.917 32.4559C327.731 32.7919 327.469 33.0719 327.133 33.2959C327.572 33.5012 327.922 33.8092 328.183 34.2199C328.445 34.6212 328.575 35.0925 328.575 35.6339C328.575 36.2219 328.421 36.7445 328.113 37.2019C327.815 37.6499 327.371 38.0045 326.783 38.2659C326.205 38.5179 325.505 38.6439 324.683 38.6439ZM324.683 37.1879C325.047 37.1879 325.374 37.1272 325.663 37.0059C325.962 36.8752 326.195 36.6932 326.363 36.4599C326.541 36.2265 326.629 35.9512 326.629 35.6339C326.629 35.3072 326.541 35.0319 326.363 34.8079C326.195 34.5745 325.962 34.3972 325.663 34.2759C325.374 34.1452 325.047 34.0799 324.683 34.0799C324.319 34.0799 323.988 34.1452 323.689 34.2759C323.4 34.3972 323.167 34.5745 322.989 34.8079C322.821 35.0319 322.737 35.3072 322.737 35.6339C322.737 35.9512 322.821 36.2265 322.989 36.4599C323.167 36.6932 323.4 36.8752 323.689 37.0059C323.988 37.1272 324.319 37.1879 324.683 37.1879ZM324.683 32.6939C324.991 32.6845 325.271 32.6239 325.523 32.5119C325.785 32.3999 325.99 32.2505 326.139 32.0639C326.298 31.8679 326.377 31.6345 326.377 31.3639C326.377 31.0932 326.303 30.8599 326.153 30.6639C326.013 30.4585 325.813 30.2999 325.551 30.1879C325.299 30.0759 325.01 30.0199 324.683 30.0199C324.357 30.0199 324.063 30.0759 323.801 30.1879C323.549 30.2999 323.349 30.4585 323.199 30.6639C323.059 30.8599 322.989 31.0932 322.989 31.3639C322.989 31.6345 323.059 31.8679 323.199 32.0639C323.349 32.2599 323.549 32.4139 323.801 32.5259C324.063 32.6379 324.357 32.6939 324.683 32.6939ZM331.855 38.5039C331.771 38.5039 331.701 38.4759 331.645 38.4199C331.589 38.3545 331.561 38.2799 331.561 38.1959C331.561 38.1492 331.565 38.1119 331.575 38.0839C331.593 38.0559 331.607 38.0325 331.617 38.0139L333.675 35.1719C333.488 35.2185 333.292 35.2372 333.087 35.2279C332.62 35.2185 332.181 35.1299 331.771 34.9619C331.369 34.7845 331.015 34.5512 330.707 34.2619C330.408 33.9632 330.17 33.6225 329.993 33.2399C329.825 32.8479 329.741 32.4232 329.741 31.9659C329.741 31.5459 329.82 31.1352 329.979 30.7339C330.137 30.3232 330.371 29.9545 330.679 29.6279C330.996 29.3012 331.388 29.0445 331.855 28.8579C332.331 28.6619 332.886 28.5639 333.521 28.5639C334.146 28.5639 334.697 28.6525 335.173 28.8299C335.649 29.0072 336.045 29.2545 336.363 29.5719C336.689 29.8799 336.932 30.2345 337.091 30.6359C337.259 31.0372 337.343 31.4619 337.343 31.9099C337.343 32.3112 337.277 32.6845 337.147 33.0299C337.016 33.3752 336.853 33.6925 336.657 33.9819C336.47 34.2619 336.283 34.5372 336.097 34.8079L333.633 38.2239C333.595 38.2705 333.539 38.3312 333.465 38.4059C333.399 38.4712 333.297 38.5039 333.157 38.5039H331.855ZM333.535 33.7439C333.871 33.7439 334.174 33.6739 334.445 33.5339C334.725 33.3845 334.944 33.1792 335.103 32.9179C335.271 32.6472 335.355 32.3299 335.355 31.9659C335.355 31.5925 335.271 31.2752 335.103 31.0139C334.944 30.7432 334.725 30.5379 334.445 30.3979C334.165 30.2485 333.861 30.1739 333.535 30.1739C333.199 30.1739 332.891 30.2485 332.611 30.3979C332.34 30.5379 332.121 30.7432 331.953 31.0139C331.794 31.2752 331.715 31.5925 331.715 31.9659C331.715 32.3299 331.794 32.6472 331.953 32.9179C332.121 33.1792 332.34 33.3845 332.611 33.5339C332.891 33.6739 333.199 33.7439 333.535 33.7439ZM338.945 38.5039C338.852 38.5039 338.772 38.4712 338.707 38.4059C338.642 38.3405 338.609 38.2612 338.609 38.1679V36.8939C338.609 36.7912 338.642 36.7072 338.707 36.6419C338.772 36.5765 338.852 36.5439 338.945 36.5439H340.219C340.322 36.5439 340.406 36.5765 340.471 36.6419C340.536 36.7072 340.569 36.7912 340.569 36.8939V38.1679C340.569 38.2612 340.536 38.3405 340.471 38.4059C340.406 38.4712 340.322 38.5039 340.219 38.5039H338.945ZM341.885 38.5039C341.782 38.5039 341.698 38.4712 341.633 38.4059C341.577 38.3405 341.549 38.2612 341.549 38.1679V36.8939C341.549 36.7912 341.577 36.7072 341.633 36.6419C341.698 36.5765 341.782 36.5439 341.885 36.5439H343.159C343.252 36.5439 343.332 36.5765 343.397 36.6419C343.462 36.7072 343.495 36.7912 343.495 36.8939V38.1679C343.495 38.2612 343.462 38.3405 343.397 38.4059C343.332 38.4712 343.252 38.5039 343.159 38.5039H341.885ZM344.811 38.5039C344.718 38.5039 344.638 38.4712 344.573 38.4059C344.508 38.3405 344.475 38.2612 344.475 38.1679V36.8939C344.475 36.7912 344.508 36.7072 344.573 36.6419C344.638 36.5765 344.718 36.5439 344.811 36.5439H346.099C346.192 36.5439 346.272 36.5765 346.337 36.6419C346.402 36.7072 346.435 36.7912 346.435 36.8939V38.1679C346.435 38.2612 346.402 38.3405 346.337 38.4059C346.272 38.4712 346.192 38.5039 346.099 38.5039H344.811Z" fill="#18181B"/>
<path d="M350.058 38.5039C349.965 38.5039 349.886 38.4759 349.82 38.4199C349.764 38.3545 349.736 38.2752 349.736 38.1819V37.1739C349.736 37.0805 349.764 37.0059 349.82 36.9499C349.886 36.8845 349.965 36.8519 350.058 36.8519H351.066C351.16 36.8519 351.234 36.8845 351.29 36.9499C351.356 37.0059 351.388 37.0805 351.388 37.1739V38.1819C351.388 38.2752 351.356 38.3545 351.29 38.4199C351.234 38.4759 351.16 38.5039 351.066 38.5039H350.058Z" fill="#18181B"/>
<path d="M354.072 41.1639C353.979 41.1639 353.9 41.1312 353.834 41.0659C353.769 41.0005 353.736 40.9212 353.736 40.8279V31.5599C353.736 31.4665 353.769 31.3872 353.834 31.3219C353.9 31.2565 353.979 31.2239 354.072 31.2239H355.178C355.281 31.2239 355.36 31.2565 355.416 31.3219C355.482 31.3872 355.514 31.4665 355.514 31.5599V32.1199C355.738 31.8212 356.032 31.5739 356.396 31.3779C356.76 31.1819 357.213 31.0839 357.754 31.0839C358.249 31.0839 358.678 31.1632 359.042 31.3219C359.406 31.4805 359.71 31.7092 359.952 32.0079C360.195 32.2972 360.382 32.6425 360.512 33.0439C360.643 33.4452 360.718 33.8885 360.736 34.3739C360.746 34.5325 360.75 34.6959 360.75 34.8639C360.75 35.0319 360.746 35.1999 360.736 35.3679C360.727 35.8345 360.657 36.2685 360.526 36.6699C360.396 37.0619 360.204 37.4072 359.952 37.7059C359.71 37.9952 359.406 38.2239 359.042 38.3919C358.678 38.5599 358.249 38.6439 357.754 38.6439C357.25 38.6439 356.821 38.5552 356.466 38.3779C356.112 38.1912 355.822 37.9485 355.598 37.6499V40.8279C355.598 40.9212 355.566 41.0005 355.5 41.0659C355.444 41.1312 355.365 41.1639 355.262 41.1639H354.072ZM357.236 37.1459C357.638 37.1459 357.95 37.0619 358.174 36.8939C358.398 36.7165 358.557 36.4879 358.65 36.2079C358.753 35.9279 358.814 35.6199 358.832 35.2839C358.851 35.0039 358.851 34.7239 358.832 34.4439C358.814 34.1079 358.753 33.7999 358.65 33.5199C358.557 33.2399 358.398 33.0159 358.174 32.8479C357.95 32.6705 357.638 32.5819 357.236 32.5819C356.854 32.5819 356.541 32.6705 356.298 32.8479C356.065 33.0252 355.892 33.2539 355.78 33.5339C355.678 33.8045 355.617 34.0845 355.598 34.3739C355.589 34.5419 355.584 34.7192 355.584 34.9059C355.584 35.0925 355.589 35.2745 355.598 35.4519C355.608 35.7319 355.673 36.0025 355.794 36.2639C355.916 36.5159 356.093 36.7259 356.326 36.8939C356.56 37.0619 356.863 37.1459 357.236 37.1459ZM365.024 38.6439C364.539 38.6439 364.109 38.5645 363.736 38.4059C363.372 38.2379 363.069 38.0045 362.826 37.7059C362.583 37.4072 362.397 37.0572 362.266 36.6559C362.135 36.2452 362.061 35.7972 362.042 35.3119C362.033 35.1439 362.028 34.9945 362.028 34.8639C362.028 34.7239 362.033 34.5699 362.042 34.4019C362.061 33.9352 362.131 33.5012 362.252 33.0999C362.383 32.6985 362.569 32.3485 362.812 32.0499C363.064 31.7419 363.372 31.5039 363.736 31.3359C364.109 31.1679 364.539 31.0839 365.024 31.0839C365.528 31.0839 365.953 31.1725 366.298 31.3499C366.653 31.5179 366.947 31.7372 367.18 32.0079V28.8999C367.18 28.8065 367.208 28.7272 367.264 28.6619C367.329 28.5965 367.413 28.5639 367.516 28.5639H368.706C368.799 28.5639 368.879 28.5965 368.944 28.6619C369.009 28.7272 369.042 28.8065 369.042 28.8999V38.1679C369.042 38.2612 369.009 38.3405 368.944 38.4059C368.879 38.4712 368.799 38.5039 368.706 38.5039H367.6C367.497 38.5039 367.413 38.4712 367.348 38.4059C367.292 38.3405 367.264 38.2612 367.264 38.1679V37.6499C367.031 37.9392 366.732 38.1772 366.368 38.3639C366.013 38.5505 365.565 38.6439 365.024 38.6439ZM365.542 37.1459C365.934 37.1459 366.247 37.0572 366.48 36.8799C366.713 36.7025 366.886 36.4785 366.998 36.2079C367.11 35.9279 367.171 35.6432 367.18 35.3539C367.189 35.1859 367.194 35.0085 367.194 34.8219C367.194 34.6259 367.189 34.4439 367.18 34.2759C367.171 33.9959 367.105 33.7299 366.984 33.4779C366.863 33.2165 366.685 33.0019 366.452 32.8339C366.219 32.6659 365.915 32.5819 365.542 32.5819C365.15 32.5819 364.837 32.6705 364.604 32.8479C364.38 33.0159 364.217 33.2399 364.114 33.5199C364.011 33.7999 363.951 34.1079 363.932 34.4439C363.923 34.7239 363.923 35.0039 363.932 35.2839C363.951 35.6199 364.011 35.9279 364.114 36.2079C364.217 36.4879 364.38 36.7165 364.604 36.8939C364.837 37.0619 365.15 37.1459 365.542 37.1459ZM372.028 38.5039C371.935 38.5039 371.855 38.4712 371.79 38.4059C371.725 38.3405 371.692 38.2612 371.692 38.1679V32.7079H370.558C370.465 32.7079 370.385 32.6752 370.32 32.6099C370.255 32.5445 370.222 32.4652 370.222 32.3719V31.5599C370.222 31.4665 370.255 31.3872 370.32 31.3219C370.385 31.2565 370.465 31.2239 370.558 31.2239H371.692V30.6499C371.692 30.0899 371.795 29.6279 372 29.2639C372.205 28.8905 372.509 28.6105 372.91 28.4239C373.311 28.2372 373.82 28.1439 374.436 28.1439H375.388C375.491 28.1439 375.57 28.1765 375.626 28.2419C375.691 28.3072 375.724 28.3865 375.724 28.4799V29.2919C375.724 29.3852 375.691 29.4645 375.626 29.5299C375.57 29.5952 375.491 29.6279 375.388 29.6279H374.492C374.119 29.6279 373.862 29.7212 373.722 29.9079C373.582 30.0945 373.512 30.3652 373.512 30.7199V31.2239H375.248C375.351 31.2239 375.43 31.2565 375.486 31.3219C375.551 31.3872 375.584 31.4665 375.584 31.5599V32.3719C375.584 32.4652 375.551 32.5445 375.486 32.6099C375.43 32.6752 375.351 32.7079 375.248 32.7079H373.512V38.1679C373.512 38.2612 373.479 38.3405 373.414 38.4059C373.349 38.4712 373.269 38.5039 373.176 38.5039H372.028Z" fill="#18181B"/>
<rect width="40" height="36" transform="translate(383.798 15.5039)" fill="#B7B8BD" fill-opacity="0.15"/>
<path fill-rule="evenodd" clip-rule="evenodd" d="M399.019 28.7252C399.312 28.4323 399.787 28.4323 400.08 28.7252L408.577 37.2219C408.87 37.5148 408.87 37.9897 408.577 38.2826C408.284 38.5754 407.809 38.5754 407.516 38.2826L399.019 29.7859C398.727 29.493 398.727 29.0181 399.019 28.7252Z" fill="#6B6F7A"/>
<path fill-rule="evenodd" clip-rule="evenodd" d="M408.577 28.7252C408.87 29.0181 408.87 29.493 408.577 29.7859L400.08 38.2826C399.787 38.5754 399.312 38.5754 399.019 38.2826C398.727 37.9897 398.727 37.5148 399.019 37.2219L407.516 28.7252C407.809 28.4323 408.284 28.4323 408.577 28.7252Z" fill="#6B6F7A"/>
</g>
</g>
<path d="M20.6355 82.6589C19.7363 82.6589 18.9818 82.5245 18.372 82.2558C17.7622 81.9767 17.2919 81.6202 16.9611 81.186C16.6407 80.7416 16.4702 80.2713 16.4495 79.7752C16.4495 79.6925 16.4805 79.6202 16.5425 79.5581C16.6149 79.4858 16.6976 79.4496 16.7906 79.4496H17.5813C17.7053 79.4496 17.7983 79.4806 17.8604 79.5426C17.9224 79.6047 17.9637 79.677 17.9844 79.7597C18.0361 80.0078 18.1601 80.2558 18.3565 80.5039C18.5632 80.7416 18.8474 80.9432 19.2092 81.1085C19.5813 81.2636 20.0567 81.3411 20.6355 81.3411C21.5244 81.3411 22.1756 81.186 22.589 80.876C23.0128 80.5556 23.2247 80.1318 23.2247 79.6047C23.2247 79.2429 23.111 78.9535 22.8836 78.7364C22.6666 78.509 22.3306 78.3075 21.8759 78.1318C21.4211 77.9561 20.8319 77.7649 20.1084 77.5581C19.3539 77.3411 18.7286 77.1034 18.2324 76.845C17.7363 76.5866 17.3642 76.2661 17.1162 75.8837C16.8784 75.5013 16.7596 75.0155 16.7596 74.4264C16.7596 73.8682 16.9095 73.3721 17.2092 72.938C17.5089 72.4935 17.9379 72.1421 18.496 71.8837C19.0645 71.6253 19.7518 71.4961 20.558 71.4961C21.1989 71.4961 21.757 71.584 22.2324 71.7597C22.7182 71.9251 23.1213 72.1525 23.4418 72.4419C23.7622 72.7209 24.0051 73.0258 24.1704 73.3566C24.3358 73.677 24.4237 73.9922 24.434 74.3023C24.434 74.3747 24.4082 74.447 24.3565 74.5194C24.3048 74.5814 24.2221 74.6124 24.1084 74.6124H23.2867C23.2144 74.6124 23.1368 74.5917 23.0542 74.5504C22.9818 74.509 22.925 74.4315 22.8836 74.3178C22.8216 73.8941 22.5839 73.5375 22.1704 73.2481C21.757 72.9587 21.2195 72.814 20.558 72.814C19.8862 72.814 19.3384 72.9432 18.9146 73.2015C18.5012 73.4599 18.2945 73.863 18.2945 74.4109C18.2945 74.7623 18.3927 75.0568 18.589 75.2946C18.7854 75.522 19.0955 75.7235 19.5193 75.8992C19.943 76.0749 20.496 76.261 21.1782 76.4574C22.0051 76.6848 22.6821 76.9276 23.2092 77.186C23.7363 77.4341 24.1239 77.7494 24.372 78.1318C24.6304 78.5039 24.7596 78.9845 24.7596 79.5736C24.7596 80.2248 24.589 80.7829 24.248 81.2481C23.9069 81.7028 23.4262 82.0543 22.8061 82.3023C22.1963 82.5401 21.4728 82.6589 20.6355 82.6589ZM29.7994 82.6589C28.7348 82.6589 27.8873 82.3333 27.2568 81.6822C26.6263 81.0207 26.28 80.1214 26.218 78.9845C26.2077 78.8501 26.2025 78.6796 26.2025 78.4729C26.2025 78.2558 26.2077 78.0801 26.218 77.9457C26.2594 77.2119 26.4299 76.5711 26.7297 76.0233C27.0294 75.4651 27.4377 75.0362 27.9545 74.7364C28.4816 74.4367 29.0966 74.2868 29.7994 74.2868C30.585 74.2868 31.2413 74.4522 31.7684 74.7829C32.3059 75.1137 32.7142 75.584 32.9932 76.1938C33.2723 76.8036 33.4118 77.5168 33.4118 78.3333V78.5969C33.4118 78.7106 33.3757 78.7984 33.3033 78.8605C33.2413 78.9225 33.1586 78.9535 33.0552 78.9535H27.6909C27.6909 78.9638 27.6909 78.9845 27.6909 79.0155C27.6909 79.0465 27.6909 79.0724 27.6909 79.093C27.7116 79.5168 27.8046 79.9147 27.97 80.2868C28.1353 80.6486 28.3731 80.9432 28.6832 81.1705C28.9932 81.3979 29.3653 81.5116 29.7994 81.5116C30.1715 81.5116 30.4816 81.4548 30.7297 81.3411C30.9777 81.2274 31.1793 81.1034 31.3343 80.969C31.4894 80.8243 31.5927 80.7158 31.6444 80.6434C31.7374 80.509 31.8098 80.4315 31.8614 80.4109C31.9131 80.3798 31.9958 80.3643 32.1095 80.3643H32.8537C32.9571 80.3643 33.0397 80.3953 33.1018 80.4574C33.1741 80.509 33.2051 80.5866 33.1948 80.6899C33.1844 80.845 33.1018 81.0362 32.9467 81.2636C32.7917 81.4806 32.5695 81.6977 32.28 81.9147C31.9906 82.1318 31.6392 82.3127 31.2258 82.4574C30.8123 82.5917 30.3369 82.6589 29.7994 82.6589ZM27.6909 77.8837H31.939V77.8372C31.939 77.3721 31.8511 76.9587 31.6754 76.5969C31.51 76.2351 31.2671 75.9509 30.9467 75.7442C30.6263 75.5271 30.2439 75.4186 29.7994 75.4186C29.355 75.4186 28.9726 75.5271 28.6521 75.7442C28.3421 75.9509 28.1043 76.2351 27.939 76.5969C27.7736 76.9587 27.6909 77.3721 27.6909 77.8372V77.8837ZM35.6222 82.5039C35.5189 82.5039 35.431 82.4729 35.3587 82.4109C35.2966 82.3385 35.2656 82.2506 35.2656 82.1473V74.7984C35.2656 74.6951 35.2966 74.6124 35.3587 74.5504C35.431 74.478 35.5189 74.4419 35.6222 74.4419H36.3509C36.4543 74.4419 36.537 74.478 36.599 74.5504C36.6713 74.6124 36.7075 74.6951 36.7075 74.7984V75.4806C36.9762 75.1292 37.3121 74.845 37.7152 74.6279C38.1287 74.4005 38.6558 74.2868 39.2966 74.2868C39.9685 74.2868 40.537 74.4367 41.0021 74.7364C41.4775 75.0258 41.8341 75.4341 42.0718 75.9612C42.3096 76.478 42.4284 77.0827 42.4284 77.7752V82.1473C42.4284 82.2506 42.3974 82.3385 42.3354 82.4109C42.2734 82.4729 42.1907 82.5039 42.0873 82.5039H41.3121C41.2088 82.5039 41.1209 82.4729 41.0486 82.4109C40.9866 82.3385 40.9556 82.2506 40.9556 82.1473V77.8527C40.9556 77.1292 40.7798 76.5659 40.4284 76.1628C40.077 75.7494 39.5602 75.5426 38.878 75.5426C38.2372 75.5426 37.7204 75.7494 37.3277 76.1628C36.9452 76.5659 36.754 77.1292 36.754 77.8527V82.1473C36.754 82.2506 36.7178 82.3385 36.6455 82.4109C36.5835 82.4729 36.5008 82.5039 36.3974 82.5039H35.6222ZM47.6136 82.6589C47.0452 82.6589 46.5542 82.5607 46.1408 82.3643C45.7273 82.1576 45.3862 81.8837 45.1175 81.5426C44.8591 81.1912 44.6627 80.7933 44.5284 80.3488C44.4043 79.9044 44.332 79.4341 44.3113 78.938C44.301 78.7726 44.2958 78.6176 44.2958 78.4729C44.2958 78.3282 44.301 78.1731 44.3113 78.0078C44.332 77.522 44.4043 77.0568 44.5284 76.6124C44.6627 76.168 44.8591 75.77 45.1175 75.4186C45.3862 75.0672 45.7273 74.7933 46.1408 74.5969C46.5542 74.3902 47.0452 74.2868 47.6136 74.2868C48.2234 74.2868 48.7299 74.3953 49.133 74.6124C49.5361 74.8295 49.8669 75.0982 50.1253 75.4186V71.8527C50.1253 71.7494 50.1563 71.6667 50.2183 71.6047C50.2906 71.5323 50.3785 71.4961 50.4818 71.4961H51.226C51.3294 71.4961 51.4121 71.5323 51.4741 71.6047C51.5464 71.6667 51.5826 71.7494 51.5826 71.8527V82.1473C51.5826 82.2506 51.5464 82.3385 51.4741 82.4109C51.4121 82.4729 51.3294 82.5039 51.226 82.5039H50.5284C50.4147 82.5039 50.3268 82.4729 50.2648 82.4109C50.2028 82.3385 50.1718 82.2506 50.1718 82.1473V81.4961C49.9134 81.8269 49.5775 82.1059 49.164 82.3333C48.7506 82.5504 48.2338 82.6589 47.6136 82.6589ZM47.9392 81.4031C48.456 81.4031 48.8694 81.2842 49.1795 81.0465C49.4896 80.8088 49.7222 80.509 49.8772 80.1473C50.0322 79.7752 50.1149 79.3979 50.1253 79.0155C50.1356 78.8501 50.1408 78.6537 50.1408 78.4264C50.1408 78.1886 50.1356 77.9871 50.1253 77.8217C50.1149 77.4599 50.0271 77.1034 49.8617 76.7519C49.7066 76.4005 49.4689 76.1111 49.1485 75.8837C48.8384 75.6563 48.4353 75.5426 47.9392 75.5426C47.4121 75.5426 46.9935 75.6615 46.6834 75.8992C46.3733 76.1266 46.1511 76.4315 46.0167 76.814C45.8824 77.186 45.8048 77.5891 45.7842 78.0233C45.7738 78.323 45.7738 78.6227 45.7842 78.9225C45.8048 79.3566 45.8824 79.7649 46.0167 80.1473C46.1511 80.5194 46.3733 80.8243 46.6834 81.062C46.9935 81.2894 47.4121 81.4031 47.9392 81.4031ZM60.5029 82.5039C59.9241 82.5039 59.4538 82.3953 59.0921 82.1783C58.7303 81.9509 58.4667 81.6357 58.3014 81.2326C58.136 80.8191 58.0533 80.3333 58.0533 79.7752V75.6822H56.844C56.7406 75.6822 56.6528 75.6512 56.5804 75.5891C56.5184 75.5168 56.4874 75.4289 56.4874 75.3256V74.7984C56.4874 74.6951 56.5184 74.6124 56.5804 74.5504C56.6528 74.478 56.7406 74.4419 56.844 74.4419H58.0533V71.8527C58.0533 71.7494 58.0843 71.6667 58.1463 71.6047C58.2187 71.5323 58.3065 71.4961 58.4099 71.4961H59.1386C59.2419 71.4961 59.3246 71.5323 59.3866 71.6047C59.459 71.6667 59.4952 71.7494 59.4952 71.8527V74.4419H61.4176C61.521 74.4419 61.6037 74.478 61.6657 74.5504C61.7381 74.6124 61.7742 74.6951 61.7742 74.7984V75.3256C61.7742 75.4289 61.7381 75.5168 61.6657 75.5891C61.6037 75.6512 61.521 75.6822 61.4176 75.6822H59.4952V79.6667C59.4952 80.1525 59.5779 80.5349 59.7432 80.814C59.9086 81.093 60.2032 81.2326 60.6269 81.2326H61.5727C61.676 81.2326 61.7587 81.2687 61.8207 81.3411C61.8931 81.4031 61.9293 81.4858 61.9293 81.5891V82.1473C61.9293 82.2506 61.8931 82.3385 61.8207 82.4109C61.7587 82.4729 61.676 82.5039 61.5727 82.5039H60.5029ZM66.4196 82.6589C65.7581 82.6589 65.1948 82.5142 64.7297 82.2248C64.2749 81.9251 63.9286 81.5116 63.6909 80.9845C63.4532 80.4574 63.3343 79.8527 63.3343 79.1705V74.7984C63.3343 74.6951 63.3653 74.6124 63.4273 74.5504C63.4997 74.478 63.5875 74.4419 63.6909 74.4419H64.4661C64.5695 74.4419 64.6521 74.478 64.7142 74.5504C64.7865 74.6124 64.8227 74.6951 64.8227 74.7984V79.093C64.8227 80.6331 65.4945 81.4031 66.8382 81.4031C67.479 81.4031 67.9906 81.2016 68.3731 80.7984C68.7658 80.385 68.9622 79.8165 68.9622 79.093V74.7984C68.9622 74.6951 68.9932 74.6124 69.0552 74.5504C69.1276 74.478 69.2155 74.4419 69.3188 74.4419H70.0785C70.1922 74.4419 70.28 74.478 70.3421 74.5504C70.4041 74.6124 70.4351 74.6951 70.4351 74.7984V82.1473C70.4351 82.2506 70.4041 82.3385 70.3421 82.4109C70.28 82.4729 70.1922 82.5039 70.0785 82.5039H69.3653C69.262 82.5039 69.1741 82.4729 69.1018 82.4109C69.0397 82.3385 69.0087 82.2506 69.0087 82.1473V81.4651C68.7297 81.8269 68.3886 82.1163 67.9855 82.3333C67.5927 82.5504 67.0707 82.6589 66.4196 82.6589ZM78.5678 85.4496C78.4541 85.4496 78.3663 85.4134 78.3043 85.3411C78.2423 85.2791 78.2113 85.1964 78.2113 85.093V81.4961C77.9529 81.8269 77.6169 82.1059 77.2035 82.3333C76.8004 82.5504 76.2991 82.6589 75.6996 82.6589C75.1311 82.6589 74.6402 82.5607 74.2268 82.3643C73.8133 82.1576 73.4722 81.8889 73.2035 81.5581C72.9451 81.2171 72.7487 80.8295 72.6144 80.3953C72.4903 79.9509 72.418 79.4858 72.3973 79C72.387 78.8346 72.3818 78.6589 72.3818 78.4729C72.3818 78.2868 72.387 78.1111 72.3973 77.9457C72.418 77.4496 72.4903 76.9845 72.6144 76.5504C72.7487 76.1163 72.9451 75.7287 73.2035 75.3876C73.4722 75.0465 73.8133 74.7778 74.2268 74.5814C74.6402 74.385 75.1311 74.2868 75.6996 74.2868C76.3198 74.2868 76.8366 74.4005 77.25 74.6279C77.6634 74.8553 77.9942 75.1395 78.2423 75.4806V74.7984C78.2423 74.6951 78.2733 74.6124 78.3353 74.5504C78.4076 74.478 78.4955 74.4419 78.5988 74.4419H79.312C79.4154 74.4419 79.4981 74.478 79.5601 74.5504C79.6324 74.6124 79.6686 74.6951 79.6686 74.7984V85.093C79.6686 85.1964 79.6324 85.2791 79.5601 85.3411C79.4981 85.4134 79.4154 85.4496 79.312 85.4496H78.5678ZM76.0252 81.4031C76.5213 81.4031 76.9244 81.2894 77.2345 81.062C77.5549 80.8346 77.7926 80.5452 77.9477 80.1938C78.1131 79.8424 78.2009 79.4858 78.2113 79.124C78.2216 78.9483 78.2268 78.7468 78.2268 78.5194C78.2268 78.292 78.2216 78.0956 78.2113 77.9302C78.2009 77.5478 78.1182 77.1757 77.9632 76.814C77.8081 76.4419 77.5704 76.137 77.25 75.8992C76.9399 75.6615 76.5317 75.5426 76.0252 75.5426C75.4981 75.5426 75.0795 75.6615 74.7694 75.8992C74.4593 76.1266 74.2371 76.4315 74.1027 76.814C73.9684 77.186 73.8908 77.5891 73.8702 78.0233C73.8598 78.323 73.8598 78.6227 73.8702 78.9225C73.8908 79.3566 73.9684 79.7649 74.1027 80.1473C74.2371 80.5194 74.4593 80.8243 74.7694 81.062C75.0795 81.2894 75.4981 81.4031 76.0252 81.4031ZM87.8035 85.4496C87.6899 85.4496 87.602 85.4134 87.54 85.3411C87.478 85.2791 87.447 85.1964 87.447 85.093V81.4961C87.1886 81.8269 86.8526 82.1059 86.4392 82.3333C86.0361 82.5504 85.5348 82.6589 84.9353 82.6589C84.3669 82.6589 83.8759 82.5607 83.4625 82.3643C83.049 82.1576 82.7079 81.8889 82.4392 81.5581C82.1808 81.2171 81.9844 80.8295 81.8501 80.3953C81.726 79.9509 81.6537 79.4858 81.633 79C81.6227 78.8346 81.6175 78.6589 81.6175 78.4729C81.6175 78.2868 81.6227 78.1111 81.633 77.9457C81.6537 77.4496 81.726 76.9845 81.8501 76.5504C81.9844 76.1163 82.1808 75.7287 82.4392 75.3876C82.7079 75.0465 83.049 74.7778 83.4625 74.5814C83.8759 74.385 84.3669 74.2868 84.9353 74.2868C85.5555 74.2868 86.0723 74.4005 86.4857 74.6279C86.8992 74.8553 87.2299 75.1395 87.478 75.4806V74.7984C87.478 74.6951 87.509 74.6124 87.571 74.5504C87.6433 74.478 87.7312 74.4419 87.8346 74.4419H88.5477C88.6511 74.4419 88.7338 74.478 88.7958 74.5504C88.8681 74.6124 88.9043 74.6951 88.9043 74.7984V85.093C88.9043 85.1964 88.8681 85.2791 88.7958 85.3411C88.7338 85.4134 88.6511 85.4496 88.5477 85.4496H87.8035ZM85.2609 81.4031C85.757 81.4031 86.1601 81.2894 86.4702 81.062C86.7906 80.8346 87.0284 80.5452 87.1834 80.1938C87.3488 79.8424 87.4366 79.4858 87.447 79.124C87.4573 78.9483 87.4625 78.7468 87.4625 78.5194C87.4625 78.292 87.4573 78.0956 87.447 77.9302C87.4366 77.5478 87.3539 77.1757 87.1989 76.814C87.0439 76.4419 86.8061 76.137 86.4857 75.8992C86.1756 75.6615 85.7674 75.5426 85.2609 75.5426C84.7338 75.5426 84.3152 75.6615 84.0051 75.8992C83.695 76.1266 83.4728 76.4315 83.3384 76.814C83.2041 77.186 83.1265 77.5891 83.1059 78.0233C83.0955 78.323 83.0955 78.6227 83.1059 78.9225C83.1265 79.3566 83.2041 79.7649 83.3384 80.1473C83.4728 80.5194 83.695 80.8243 84.0051 81.062C84.3152 81.2894 84.7338 81.4031 85.2609 81.4031ZM91.5664 82.5039C91.463 82.5039 91.3752 82.4729 91.3028 82.4109C91.2408 82.3385 91.2098 82.2506 91.2098 82.1473V74.7984C91.2098 74.6951 91.2408 74.6124 91.3028 74.5504C91.3752 74.478 91.463 74.4419 91.5664 74.4419H92.3106C92.4139 74.4419 92.4966 74.478 92.5586 74.5504C92.6206 74.6124 92.6517 74.6951 92.6517 74.7984V82.1473C92.6517 82.2506 92.6206 82.3385 92.5586 82.4109C92.4966 82.4729 92.4139 82.5039 92.3106 82.5039H91.5664ZM91.4424 72.938C91.339 72.938 91.2511 72.907 91.1788 72.845C91.1168 72.7726 91.0858 72.6848 91.0858 72.5814V71.7442C91.0858 71.6408 91.1168 71.5581 91.1788 71.4961C91.2511 71.4238 91.339 71.3876 91.4424 71.3876H92.4191C92.5225 71.3876 92.6051 71.4238 92.6672 71.4961C92.7395 71.5581 92.7757 71.6408 92.7757 71.7442V72.5814C92.7757 72.6848 92.7395 72.7726 92.6672 72.845C92.6051 72.907 92.5225 72.938 92.4191 72.938H91.4424ZM101.013 82.6589C100.496 82.6589 100.026 82.5556 99.6021 82.3488C99.1783 82.1421 98.8373 81.863 98.5789 81.5116C98.3205 81.1602 98.1913 80.7623 98.1913 80.3178C98.1913 79.6047 98.4807 79.0362 99.0595 78.6124C99.6383 78.1886 100.393 77.9096 101.323 77.7752L103.633 77.4496V77C103.633 76.5039 103.488 76.1163 103.199 75.8372C102.92 75.5581 102.46 75.4186 101.819 75.4186C101.354 75.4186 100.977 75.5116 100.687 75.6977C100.408 75.8837 100.212 76.1214 100.098 76.4109C100.036 76.5659 99.9277 76.6434 99.7727 76.6434H99.075C98.9613 76.6434 98.8734 76.6124 98.8114 76.5504C98.7597 76.478 98.7339 76.3953 98.7339 76.3023C98.7339 76.1473 98.7907 75.9561 98.9044 75.7287C99.0285 75.5013 99.2145 75.2791 99.4626 75.062C99.7106 74.845 100.026 74.6641 100.408 74.5194C100.801 74.3643 101.277 74.2868 101.835 74.2868C102.455 74.2868 102.977 74.3695 103.401 74.5349C103.824 74.6899 104.155 74.9018 104.393 75.1705C104.641 75.4393 104.817 75.7442 104.92 76.0853C105.034 76.4264 105.09 76.7726 105.09 77.124V82.1473C105.09 82.2506 105.054 82.3385 104.982 82.4109C104.92 82.4729 104.837 82.5039 104.734 82.5039H104.021C103.907 82.5039 103.819 82.4729 103.757 82.4109C103.695 82.3385 103.664 82.2506 103.664 82.1473V81.4806C103.53 81.6667 103.349 81.8527 103.121 82.0388C102.894 82.2145 102.61 82.3643 102.269 82.4884C101.928 82.6021 101.509 82.6589 101.013 82.6589ZM101.339 81.4961C101.762 81.4961 102.15 81.4083 102.501 81.2326C102.853 81.0465 103.127 80.7623 103.323 80.3798C103.53 79.9974 103.633 79.5168 103.633 78.938V78.5039L101.835 78.7674C101.101 78.8708 100.548 79.0465 100.176 79.2946C99.8037 79.5323 99.6176 79.8372 99.6176 80.2093C99.6176 80.4987 99.7003 80.7416 99.8657 80.938C100.041 81.124 100.258 81.2636 100.517 81.3566C100.786 81.4496 101.059 81.4961 101.339 81.4961ZM111.476 82.5039C111.373 82.5039 111.285 82.4729 111.213 82.4109C111.151 82.3385 111.12 82.2506 111.12 82.1473V74.7984C111.12 74.6951 111.151 74.6124 111.213 74.5504C111.285 74.478 111.373 74.4419 111.476 74.4419H112.174C112.277 74.4419 112.36 74.478 112.422 74.5504C112.494 74.6124 112.53 74.6951 112.53 74.7984V75.3411C112.768 75.0207 113.068 74.7674 113.43 74.5814C113.791 74.385 114.226 74.2868 114.732 74.2868C115.9 74.2765 116.727 74.7519 117.213 75.7132C117.45 75.2791 117.797 74.9328 118.251 74.6744C118.706 74.416 119.223 74.2868 119.802 74.2868C120.339 74.2868 120.825 74.4109 121.259 74.6589C121.704 74.907 122.05 75.2842 122.298 75.7907C122.556 76.2868 122.685 76.9121 122.685 77.6667V82.1473C122.685 82.2506 122.649 82.3385 122.577 82.4109C122.515 82.4729 122.432 82.5039 122.329 82.5039H121.6C121.497 82.5039 121.409 82.4729 121.337 82.4109C121.275 82.3385 121.244 82.2506 121.244 82.1473V77.8062C121.244 77.2274 121.161 76.7726 120.996 76.4419C120.83 76.1111 120.608 75.8786 120.329 75.7442C120.05 75.6098 119.745 75.5426 119.414 75.5426C119.145 75.5426 118.871 75.6098 118.592 75.7442C118.313 75.8786 118.081 76.1111 117.895 76.4419C117.719 76.7726 117.631 77.2274 117.631 77.8062V82.1473C117.631 82.2506 117.595 82.3385 117.523 82.4109C117.461 82.4729 117.378 82.5039 117.275 82.5039H116.546C116.443 82.5039 116.355 82.4729 116.282 82.4109C116.22 82.3385 116.189 82.2506 116.189 82.1473V77.8062C116.189 77.2274 116.101 76.7726 115.926 76.4419C115.75 76.1111 115.523 75.8786 115.244 75.7442C114.965 75.6098 114.67 75.5426 114.36 75.5426C114.091 75.5426 113.817 75.6098 113.538 75.7442C113.259 75.8786 113.027 76.1111 112.84 76.4419C112.665 76.7726 112.577 77.2222 112.577 77.7907V82.1473C112.577 82.2506 112.541 82.3385 112.468 82.4109C112.406 82.4729 112.324 82.5039 112.22 82.5039H111.476ZM128.107 82.6589C127.042 82.6589 126.195 82.3333 125.564 81.6822C124.934 81.0207 124.587 80.1214 124.525 78.9845C124.515 78.8501 124.51 78.6796 124.51 78.4729C124.51 78.2558 124.515 78.0801 124.525 77.9457C124.567 77.2119 124.737 76.5711 125.037 76.0233C125.337 75.4651 125.745 75.0362 126.262 74.7364C126.789 74.4367 127.404 74.2868 128.107 74.2868C128.892 74.2868 129.549 74.4522 130.076 74.7829C130.613 75.1137 131.021 75.584 131.301 76.1938C131.58 76.8036 131.719 77.5168 131.719 78.3333V78.5969C131.719 78.7106 131.683 78.7984 131.611 78.8605C131.549 78.9225 131.466 78.9535 131.363 78.9535H125.998C125.998 78.9638 125.998 78.9845 125.998 79.0155C125.998 79.0465 125.998 79.0724 125.998 79.093C126.019 79.5168 126.112 79.9147 126.277 80.2868C126.443 80.6486 126.68 80.9432 126.99 81.1705C127.301 81.3979 127.673 81.5116 128.107 81.5116C128.479 81.5116 128.789 81.4548 129.037 81.3411C129.285 81.2274 129.487 81.1034 129.642 80.969C129.797 80.8243 129.9 80.7158 129.952 80.6434C130.045 80.509 130.117 80.4315 130.169 80.4109C130.22 80.3798 130.303 80.3643 130.417 80.3643H131.161C131.264 80.3643 131.347 80.3953 131.409 80.4574C131.481 80.509 131.512 80.5866 131.502 80.6899C131.492 80.845 131.409 81.0362 131.254 81.2636C131.099 81.4806 130.877 81.6977 130.587 81.9147C130.298 82.1318 129.947 82.3127 129.533 82.4574C129.12 82.5917 128.644 82.6589 128.107 82.6589ZM125.998 77.8837H130.246V77.8372C130.246 77.3721 130.158 76.9587 129.983 76.5969C129.817 76.2351 129.574 75.9509 129.254 75.7442C128.934 75.5271 128.551 75.4186 128.107 75.4186C127.662 75.4186 127.28 75.5271 126.959 75.7442C126.649 75.9509 126.412 76.2351 126.246 76.5969C126.081 76.9587 125.998 77.3721 125.998 77.8372V77.8837ZM136.364 82.6589C135.785 82.6589 135.289 82.5866 134.875 82.4419C134.462 82.2972 134.126 82.1214 133.868 81.9147C133.609 81.708 133.413 81.5013 133.278 81.2946C133.154 81.0879 133.087 80.9225 133.077 80.7984C133.066 80.6848 133.103 80.5969 133.185 80.5349C133.268 80.4729 133.351 80.4419 133.433 80.4419H134.116C134.178 80.4419 134.224 80.4522 134.255 80.4729C134.296 80.4832 134.348 80.5245 134.41 80.5969C134.545 80.7416 134.694 80.8863 134.86 81.031C135.025 81.1757 135.227 81.2946 135.464 81.3876C135.712 81.4806 136.017 81.5271 136.379 81.5271C136.906 81.5271 137.34 81.4289 137.681 81.2326C138.023 81.0258 138.193 80.7261 138.193 80.3333C138.193 80.0749 138.121 79.8682 137.976 79.7132C137.842 79.5581 137.594 79.4186 137.232 79.2946C136.88 79.1705 136.395 79.0413 135.774 78.907C135.154 78.7623 134.663 78.5866 134.302 78.3798C133.94 78.1628 133.681 77.9096 133.526 77.6202C133.371 77.3204 133.294 76.9845 133.294 76.6124C133.294 76.23 133.408 75.863 133.635 75.5116C133.862 75.1499 134.193 74.8553 134.627 74.6279C135.072 74.4005 135.625 74.2868 136.286 74.2868C136.824 74.2868 137.284 74.354 137.666 74.4884C138.048 74.6227 138.364 74.7933 138.612 75C138.86 75.1964 139.046 75.3928 139.17 75.5891C139.294 75.7855 139.361 75.9509 139.371 76.0853C139.382 76.1886 139.351 76.2765 139.278 76.3488C139.206 76.4109 139.123 76.4419 139.03 76.4419H138.379C138.307 76.4419 138.245 76.4264 138.193 76.3953C138.152 76.3643 138.11 76.3282 138.069 76.2868C137.966 76.1525 137.842 76.0181 137.697 75.8837C137.563 75.7494 137.382 75.6408 137.154 75.5581C136.937 75.4651 136.648 75.4186 136.286 75.4186C135.769 75.4186 135.382 75.5271 135.123 75.7442C134.865 75.9612 134.736 76.2351 134.736 76.5659C134.736 76.7623 134.793 76.938 134.906 77.093C135.02 77.2481 135.237 77.3876 135.557 77.5116C135.878 77.6357 136.353 77.77 136.984 77.9147C137.666 78.0491 138.203 78.23 138.596 78.4574C138.989 78.6848 139.268 78.9483 139.433 79.2481C139.599 79.5478 139.681 79.8941 139.681 80.2868C139.681 80.7209 139.552 81.1189 139.294 81.4806C139.046 81.8424 138.674 82.1318 138.178 82.3488C137.692 82.5556 137.087 82.6589 136.364 82.6589ZM144.267 82.6589C143.688 82.6589 143.192 82.5866 142.779 82.4419C142.365 82.2972 142.029 82.1214 141.771 81.9147C141.512 81.708 141.316 81.5013 141.182 81.2946C141.058 81.0879 140.99 80.9225 140.98 80.7984C140.97 80.6848 141.006 80.5969 141.089 80.5349C141.171 80.4729 141.254 80.4419 141.337 80.4419H142.019C142.081 80.4419 142.127 80.4522 142.158 80.4729C142.2 80.4832 142.251 80.5245 142.313 80.5969C142.448 80.7416 142.598 80.8863 142.763 81.031C142.928 81.1757 143.13 81.2946 143.368 81.3876C143.616 81.4806 143.921 81.5271 144.282 81.5271C144.81 81.5271 145.244 81.4289 145.585 81.2326C145.926 81.0258 146.096 80.7261 146.096 80.3333C146.096 80.0749 146.024 79.8682 145.879 79.7132C145.745 79.5581 145.497 79.4186 145.135 79.2946C144.784 79.1705 144.298 79.0413 143.678 78.907C143.058 78.7623 142.567 78.5866 142.205 78.3798C141.843 78.1628 141.585 77.9096 141.43 77.6202C141.275 77.3204 141.197 76.9845 141.197 76.6124C141.197 76.23 141.311 75.863 141.538 75.5116C141.766 75.1499 142.096 74.8553 142.531 74.6279C142.975 74.4005 143.528 74.2868 144.189 74.2868C144.727 74.2868 145.187 74.354 145.569 74.4884C145.952 74.6227 146.267 74.7933 146.515 75C146.763 75.1964 146.949 75.3928 147.073 75.5891C147.197 75.7855 147.264 75.9509 147.275 76.0853C147.285 76.1886 147.254 76.2765 147.182 76.3488C147.109 76.4109 147.027 76.4419 146.934 76.4419H146.282C146.21 76.4419 146.148 76.4264 146.096 76.3953C146.055 76.3643 146.014 76.3282 145.972 76.2868C145.869 76.1525 145.745 76.0181 145.6 75.8837C145.466 75.7494 145.285 75.6408 145.058 75.5581C144.841 75.4651 144.551 75.4186 144.189 75.4186C143.673 75.4186 143.285 75.5271 143.027 75.7442C142.768 75.9612 142.639 76.2351 142.639 76.5659C142.639 76.7623 142.696 76.938 142.81 77.093C142.923 77.2481 143.14 77.3876 143.461 77.5116C143.781 77.6357 144.257 77.77 144.887 77.9147C145.569 78.0491 146.107 78.23 146.5 78.4574C146.892 78.6848 147.171 78.9483 147.337 79.2481C147.502 79.5478 147.585 79.8941 147.585 80.2868C147.585 80.7209 147.456 81.1189 147.197 81.4806C146.949 81.8424 146.577 82.1318 146.081 82.3488C145.595 82.5556 144.99 82.6589 144.267 82.6589ZM151.628 82.6589C151.111 82.6589 150.641 82.5556 150.217 82.3488C149.793 82.1421 149.452 81.863 149.194 81.5116C148.935 81.1602 148.806 80.7623 148.806 80.3178C148.806 79.6047 149.095 79.0362 149.674 78.6124C150.253 78.1886 151.008 77.9096 151.938 77.7752L154.248 77.4496V77C154.248 76.5039 154.103 76.1163 153.814 75.8372C153.535 75.5581 153.075 75.4186 152.434 75.4186C151.969 75.4186 151.592 75.5116 151.302 75.6977C151.023 75.8837 150.827 76.1214 150.713 76.4109C150.651 76.5659 150.542 76.6434 150.387 76.6434H149.69C149.576 76.6434 149.488 76.6124 149.426 76.5504C149.374 76.478 149.349 76.3953 149.349 76.3023C149.349 76.1473 149.405 75.9561 149.519 75.7287C149.643 75.5013 149.829 75.2791 150.077 75.062C150.325 74.845 150.641 74.6641 151.023 74.5194C151.416 74.3643 151.891 74.2868 152.449 74.2868C153.07 74.2868 153.592 74.3695 154.015 74.5349C154.439 74.6899 154.77 74.9018 155.008 75.1705C155.256 75.4393 155.431 75.7442 155.535 76.0853C155.648 76.4264 155.705 76.7726 155.705 77.124V82.1473C155.705 82.2506 155.669 82.3385 155.597 82.4109C155.535 82.4729 155.452 82.5039 155.349 82.5039H154.635C154.522 82.5039 154.434 82.4729 154.372 82.4109C154.31 82.3385 154.279 82.2506 154.279 82.1473V81.4806C154.144 81.6667 153.964 81.8527 153.736 82.0388C153.509 82.2145 153.225 82.3643 152.883 82.4884C152.542 82.6021 152.124 82.6589 151.628 82.6589ZM151.953 81.4961C152.377 81.4961 152.765 81.4083 153.116 81.2326C153.467 81.0465 153.741 80.7623 153.938 80.3798C154.144 79.9974 154.248 79.5168 154.248 78.938V78.5039L152.449 78.7674C151.716 78.8708 151.163 79.0465 150.79 79.2946C150.418 79.5323 150.232 79.8372 150.232 80.2093C150.232 80.4987 150.315 80.7416 150.48 80.938C150.656 81.124 150.873 81.2636 151.132 81.3566C151.4 81.4496 151.674 81.4961 151.953 81.4961ZM161.236 85.9147C160.533 85.9147 159.955 85.8217 159.5 85.6357C159.055 85.4496 158.704 85.2222 158.446 84.9535C158.198 84.6951 158.017 84.4315 157.903 84.1628C157.8 83.9044 157.743 83.6977 157.732 83.5426C157.722 83.4393 157.753 83.3514 157.825 83.2791C157.908 83.2067 157.996 83.1705 158.089 83.1705H158.833C158.926 83.1705 159.004 83.1912 159.066 83.2326C159.128 83.2739 159.179 83.3618 159.221 83.4961C159.283 83.6512 159.376 83.8217 159.5 84.0078C159.624 84.2041 159.815 84.3695 160.074 84.5039C160.332 84.6486 160.694 84.7209 161.159 84.7209C161.645 84.7209 162.053 84.6537 162.384 84.5194C162.714 84.3953 162.962 84.168 163.128 83.8372C163.304 83.5168 163.391 83.0724 163.391 82.5039V81.4496C163.143 81.77 162.818 82.0388 162.415 82.2558C162.012 82.4625 161.505 82.5659 160.895 82.5659C160.316 82.5659 159.82 82.4677 159.407 82.2713C158.993 82.0646 158.652 81.7907 158.384 81.4496C158.125 81.0982 157.929 80.7003 157.794 80.2558C157.67 79.8114 157.598 79.3463 157.577 78.8605C157.567 78.5711 157.567 78.2868 157.577 78.0078C157.598 77.522 157.67 77.0568 157.794 76.6124C157.929 76.168 158.125 75.77 158.384 75.4186C158.652 75.0672 158.993 74.7933 159.407 74.5969C159.82 74.3902 160.316 74.2868 160.895 74.2868C161.515 74.2868 162.027 74.4057 162.43 74.6434C162.844 74.8708 163.179 75.1499 163.438 75.4806V74.814C163.438 74.7106 163.469 74.6227 163.531 74.5504C163.603 74.478 163.691 74.4419 163.794 74.4419H164.508C164.611 74.4419 164.699 74.478 164.771 74.5504C164.844 74.6227 164.88 74.7106 164.88 74.814V82.3333C164.88 83.0258 164.761 83.6408 164.523 84.1783C164.296 84.7158 163.913 85.1395 163.376 85.4496C162.849 85.7597 162.136 85.9147 161.236 85.9147ZM161.205 81.3256C161.722 81.3256 162.136 81.2067 162.446 80.969C162.766 80.7313 162.999 80.4315 163.143 80.0698C163.298 79.708 163.381 79.3411 163.391 78.969C163.402 78.8243 163.407 78.6486 163.407 78.4419C163.407 78.2248 163.402 78.0439 163.391 77.8992C163.381 77.5271 163.298 77.1602 163.143 76.7984C162.999 76.4367 162.766 76.137 162.446 75.8992C162.136 75.6615 161.722 75.5426 161.205 75.5426C160.689 75.5426 160.275 75.6615 159.965 75.8992C159.655 76.1266 159.433 76.4315 159.298 76.814C159.164 77.186 159.086 77.5891 159.066 78.0233C159.055 78.292 159.055 78.5659 159.066 78.845C159.086 79.2791 159.164 79.6873 159.298 80.0698C159.433 80.4419 159.655 80.7468 159.965 80.9845C160.275 81.2119 160.689 81.3256 161.205 81.3256ZM170.394 82.6589C169.33 82.6589 168.482 82.3333 167.852 81.6822C167.221 81.0207 166.875 80.1214 166.813 78.9845C166.802 78.8501 166.797 78.6796 166.797 78.4729C166.797 78.2558 166.802 78.0801 166.813 77.9457C166.854 77.2119 167.025 76.5711 167.324 76.0233C167.624 75.4651 168.032 75.0362 168.549 74.7364C169.076 74.4367 169.691 74.2868 170.394 74.2868C171.18 74.2868 171.836 74.4522 172.363 74.7829C172.901 75.1137 173.309 75.584 173.588 76.1938C173.867 76.8036 174.007 77.5168 174.007 78.3333V78.5969C174.007 78.7106 173.97 78.7984 173.898 78.8605C173.836 78.9225 173.753 78.9535 173.65 78.9535H168.286C168.286 78.9638 168.286 78.9845 168.286 79.0155C168.286 79.0465 168.286 79.0724 168.286 79.093C168.306 79.5168 168.399 79.9147 168.565 80.2868C168.73 80.6486 168.968 80.9432 169.278 81.1705C169.588 81.3979 169.96 81.5116 170.394 81.5116C170.766 81.5116 171.076 81.4548 171.324 81.3411C171.572 81.2274 171.774 81.1034 171.929 80.969C172.084 80.8243 172.187 80.7158 172.239 80.6434C172.332 80.509 172.404 80.4315 172.456 80.4109C172.508 80.3798 172.591 80.3643 172.704 80.3643H173.448C173.552 80.3643 173.634 80.3953 173.696 80.4574C173.769 80.509 173.8 80.5866 173.789 80.6899C173.779 80.845 173.696 81.0362 173.541 81.2636C173.386 81.4806 173.164 81.6977 172.875 81.9147C172.585 82.1318 172.234 82.3127 171.82 82.4574C171.407 82.5917 170.932 82.6589 170.394 82.6589ZM168.286 77.8837H172.534V77.8372C172.534 77.3721 172.446 76.9587 172.27 76.5969C172.105 76.2351 171.862 75.9509 171.541 75.7442C171.221 75.5271 170.839 75.4186 170.394 75.4186C169.95 75.4186 169.567 75.5271 169.247 75.7442C168.937 75.9509 168.699 76.2351 168.534 76.5969C168.368 76.9587 168.286 77.3721 168.286 77.8372V77.8837ZM176.108 82.5039C176.005 82.5039 175.917 82.4729 175.845 82.4109C175.783 82.3385 175.752 82.2506 175.752 82.1473V81.031C175.752 80.9276 175.783 80.845 175.845 80.7829C175.917 80.7106 176.005 80.6744 176.108 80.6744H177.225C177.328 80.6744 177.411 80.7106 177.473 80.7829C177.545 80.845 177.581 80.9276 177.581 81.031V82.1473C177.581 82.2506 177.545 82.3385 177.473 82.4109C177.411 82.4729 177.328 82.5039 177.225 82.5039H176.108ZM180.015 82.5039C179.911 82.5039 179.823 82.4729 179.751 82.4109C179.689 82.3385 179.658 82.2506 179.658 82.1473V81.031C179.658 80.9276 179.689 80.845 179.751 80.7829C179.823 80.7106 179.911 80.6744 180.015 80.6744H181.131C181.234 80.6744 181.317 80.7106 181.379 80.7829C181.451 80.845 181.488 80.9276 181.488 81.031V82.1473C181.488 82.2506 181.451 82.3385 181.379 82.4109C181.317 82.4729 181.234 82.5039 181.131 82.5039H180.015ZM183.921 82.5039C183.818 82.5039 183.73 82.4729 183.657 82.4109C183.595 82.3385 183.564 82.2506 183.564 82.1473V81.031C183.564 80.9276 183.595 80.845 183.657 80.7829C183.73 80.7106 183.818 80.6744 183.921 80.6744H185.037C185.141 80.6744 185.223 80.7106 185.285 80.7829C185.358 80.845 185.394 80.9276 185.394 81.031V82.1473C185.394 82.2506 185.358 82.3385 185.285 82.4109C185.223 82.4729 185.141 82.5039 185.037 82.5039H183.921Z" fill="#B7B8BD"/>
<g filter="url(#filter0_d_103_19547)">
<rect x="15.7983" y="120.473" width="40" height="40" rx="20" fill="#F5F5F5"/>
<path d="M35.7982 133.339C36.1922 133.339 36.5116 133.658 36.5116 134.052L36.5116 139.759L42.219 139.76C42.613 139.76 42.9324 140.079 42.9324 140.473C42.9324 140.867 42.613 141.186 42.219 141.186L36.5116 141.186L36.5116 146.894C36.5116 147.288 36.1922 147.607 35.7982 147.607C35.4042 147.607 35.0849 147.288 35.0849 146.894L35.0848 141.186L29.3774 141.186C28.9835 141.186 28.6641 140.867 28.6641 140.473C28.6641 140.079 28.9835 139.76 29.3774 139.76L35.0848 139.759L35.0849 134.052C35.0849 133.658 35.4042 133.339 35.7982 133.339Z" fill="#808080"/>
</g>
<rect x="384.242" y="122.424" width="38.0488" height="38.0488" rx="19.0244" fill="#8A38F5"/>
<g clip-path="url(#clip3_103_19547)">
<path fill-rule="evenodd" clip-rule="evenodd" d="M403.939 135.167C403.568 134.796 402.965 134.796 402.594 135.167L397.768 139.993L397.264 140.497L398.273 141.506L398.777 141.002L402.553 137.226V147.394V148.107H403.98V147.394V137.226L407.756 141.002L408.26 141.506L409.269 140.497L408.765 139.993L403.939 135.167Z" fill="#FCFCFC"/>
</g>
<defs>
<filter id="filter0_d_103_19547" x="14.7983" y="119.473" width="42" height="42" filterUnits="userSpaceOnUse" color-interpolation-filters="sRGB">
<feFlood flood-opacity="0" result="BackgroundImageFix"/>
<feColorMatrix in="SourceAlpha" type="matrix" values="0 0 0 0 0 0 0 0 0 0 0 0 0 0 0 0 0 0 127 0" result="hardAlpha"/>
<feMorphology radius="1" operator="dilate" in="SourceAlpha" result="effect1_dropShadow_103_19547"/>
<feOffset/>
<feComposite in2="hardAlpha" operator="out"/>
<feColorMatrix type="matrix" values="0 0 0 0 1 0 0 0 0 1 0 0 0 0 1 0 0 0 1 0"/>
<feBlend mode="normal" in2="BackgroundImageFix" result="effect1_dropShadow_103_19547"/>
<feBlend mode="normal" in="SourceGraphic" in2="effect1_dropShadow_103_19547" result="shape"/>
</filter>
<clipPath id="clip0_103_19547">
<rect width="406.492" height="36" fill="white" transform="translate(15.7983 15.5039)"/>
</clipPath>
<clipPath id="clip1_103_19547">
<path d="M15.7983 25.1039C15.7983 21.7436 15.7983 20.0634 16.4523 18.7799C17.0275 17.651 17.9454 16.7331 19.0744 16.1578C20.3579 15.5039 22.038 15.5039 25.3983 15.5039H206.198C209.559 15.5039 211.239 15.5039 212.522 16.1578C213.651 16.7331 214.569 17.651 215.144 18.7799C215.798 20.0634 215.798 21.7436 215.798 25.1039V41.9039C215.798 45.2642 215.798 46.9443 215.144 48.2278C214.569 49.3568 213.651 50.2747 212.522 50.8499C211.239 51.5039 209.559 51.5039 206.198 51.5039H25.3983C22.038 51.5039 20.3579 51.5039 19.0744 50.8499C17.9454 50.2747 17.0275 49.3568 16.4523 48.2278C15.7983 46.9443 15.7983 45.2642 15.7983 41.9039V25.1039Z" fill="white"/>
</clipPath>
<clipPath id="clip2_103_19547">
<path d="M223.798 25.1039C223.798 21.7436 223.798 20.0634 224.452 18.7799C225.028 17.651 225.945 16.7331 227.074 16.1578C228.358 15.5039 230.038 15.5039 233.398 15.5039H414.198C417.559 15.5039 419.239 15.5039 420.522 16.1578C421.651 16.7331 422.569 17.651 423.144 18.7799C423.798 20.0634 423.798 21.7436 423.798 25.1039V41.9039C423.798 45.2642 423.798 46.9443 423.144 48.2278C422.569 49.3568 421.651 50.2747 420.522 50.8499C419.239 51.5039 417.559 51.5039 414.198 51.5039H233.398C230.038 51.5039 228.358 51.5039 227.074 50.8499C225.945 50.2747 225.028 49.3568 224.452 48.2278C223.798 46.9443 223.798 45.2642 223.798 41.9039V25.1039Z" fill="white"/>
</clipPath>
<clipPath id="clip3_103_19547">
<rect width="26.6341" height="15.2195" fill="white" transform="translate(389.949 133.839)"/>
</clipPath>
</defs>
</svg>
