<svg width="861" height="100" viewBox="0 0 861 100" fill="none" xmlns="http://www.w3.org/2000/svg">
<rect width="861" height="100" fill="white" fill-opacity="0.3"/>
<path d="M49.0002 59.1667C54.0628 59.1667 58.1668 55.0627 58.1668 50C58.1668 44.9374 54.0628 40.8334 49.0002 40.8334C43.9376 40.8334 39.8335 44.9374 39.8335 50C39.8335 55.0627 43.9376 59.1667 49.0002 59.1667Z" stroke="#71717A" stroke-width="1.83333" stroke-linecap="round" stroke-linejoin="round"/>
<path d="M45.3335 50H52.6668" stroke="#71717A" stroke-width="1.83333" stroke-linecap="round" stroke-linejoin="round"/>
<path d="M49 46.3334V53.6667" stroke="#71717A" stroke-width="1.83333" stroke-linecap="round" stroke-linejoin="round"/>
<path d="M87.7498 40.8334H79.4998C79.0136 40.8334 78.5473 41.0265 78.2035 41.3703C77.8597 41.7142 77.6665 42.1805 77.6665 42.6667V57.3334C77.6665 57.8196 77.8597 58.2859 78.2035 58.6297C78.5473 58.9736 79.0136 59.1667 79.4998 59.1667H90.4998C90.9861 59.1667 91.4524 58.9736 91.7962 58.6297C92.14 58.2859 92.3332 57.8196 92.3332 57.3334V45.4167L87.7498 40.8334Z" stroke="#71717A" stroke-width="1.83333" stroke-linecap="round" stroke-linejoin="round"/>
<path d="M86.8335 40.8334V44.5C86.8335 44.9863 87.0267 45.4526 87.3705 45.7964C87.7143 46.1402 88.1806 46.3334 88.6668 46.3334H92.3335" stroke="#71717A" stroke-width="1.83333" stroke-linecap="round" stroke-linejoin="round"/>
<path d="M83.1668 52.75C84.1794 52.75 85.0002 51.9292 85.0002 50.9167C85.0002 49.9042 84.1794 49.0834 83.1668 49.0834C82.1543 49.0834 81.3335 49.9042 81.3335 50.9167C81.3335 51.9292 82.1543 52.75 83.1668 52.75Z" stroke="#71717A" stroke-width="1.83333" stroke-linecap="round" stroke-linejoin="round"/>
<path d="M92.3332 54.5834L91.3248 53.575C90.9805 53.2376 90.5171 53.0493 90.035 53.051C89.5529 53.0528 89.0909 53.2443 88.749 53.5842L83.1665 59.1667" stroke="#71717A" stroke-width="1.83333" stroke-linecap="round" stroke-linejoin="round"/>
<path d="M129.653 49.1291L121.229 57.5533C120.197 58.5853 118.798 59.1651 117.338 59.1651C115.879 59.1651 114.479 58.5853 113.447 57.5533C112.415 56.5212 111.835 55.1215 111.835 53.662C111.835 52.2025 112.415 50.8028 113.447 49.7708L121.303 41.9149C121.991 41.2257 122.924 40.838 123.898 40.8372C124.872 40.8363 125.806 41.2223 126.496 41.9104C127.185 42.5984 127.572 43.532 127.573 44.5059C127.574 45.4797 127.188 46.414 126.5 47.1033L118.626 54.9591C118.282 55.3031 117.815 55.4964 117.329 55.4964C116.842 55.4964 116.376 55.3031 116.032 54.9591C115.688 54.6151 115.495 54.1485 115.495 53.662C115.495 53.1755 115.688 52.7089 116.032 52.3649L123.814 44.5916" stroke="#71717A" stroke-width="1.83333" stroke-linecap="round" stroke-linejoin="round"/>
<rect x="144" y="26" width="686" height="48" rx="24" fill="white"/>
<path d="M157.262 55V46.236H154.168V45.06H161.56V46.236H158.466V55H157.262ZM162.469 57.1V56.064H163.323C163.585 56.064 163.776 56.022 163.897 55.938C164.028 55.8633 164.126 55.7373 164.191 55.56L164.457 54.86H164.051L161.335 47.58H162.623L164.835 53.768L166.949 47.58H168.237L165.227 55.938C165.087 56.3393 164.877 56.6333 164.597 56.82C164.317 57.0067 163.93 57.1 163.435 57.1H162.469ZM169.325 57.1V47.58H170.417L170.445 49.176L170.277 49.092C170.464 48.5413 170.772 48.126 171.201 47.846C171.64 47.5567 172.144 47.412 172.713 47.412C173.45 47.412 174.052 47.594 174.519 47.958C174.995 48.322 175.345 48.798 175.569 49.386C175.802 49.974 175.919 50.6087 175.919 51.29C175.919 51.9713 175.802 52.606 175.569 53.194C175.345 53.782 174.995 54.258 174.519 54.622C174.052 54.986 173.45 55.168 172.713 55.168C172.33 55.168 171.971 55.1027 171.635 54.972C171.308 54.8413 171.028 54.6593 170.795 54.426C170.571 54.1927 170.417 53.9173 170.333 53.6L170.501 53.404V57.1H169.325ZM172.601 54.048C173.245 54.048 173.754 53.8053 174.127 53.32C174.5 52.8347 174.687 52.158 174.687 51.29C174.687 50.422 174.5 49.7453 174.127 49.26C173.754 48.7747 173.245 48.532 172.601 48.532C172.172 48.532 171.798 48.6347 171.481 48.84C171.173 49.0453 170.93 49.3533 170.753 49.764C170.585 50.1747 170.501 50.6833 170.501 51.29C170.501 51.8967 170.585 52.4053 170.753 52.816C170.921 53.2267 171.164 53.5347 171.481 53.74C171.798 53.9453 172.172 54.048 172.601 54.048ZM180.413 55.168C179.713 55.168 179.106 55.0093 178.593 54.692C178.089 54.3747 177.697 53.9267 177.417 53.348C177.146 52.76 177.011 52.074 177.011 51.29C177.011 50.506 177.146 49.8247 177.417 49.246C177.697 48.6673 178.084 48.2193 178.579 47.902C179.083 47.5753 179.675 47.412 180.357 47.412C181.001 47.412 181.57 47.566 182.065 47.874C182.559 48.1727 182.942 48.6113 183.213 49.19C183.493 49.7687 183.633 50.4733 183.633 51.304V51.654H178.243C178.289 52.4473 178.499 53.0447 178.873 53.446C179.255 53.8473 179.769 54.048 180.413 54.048C180.898 54.048 181.295 53.936 181.603 53.712C181.92 53.4787 182.139 53.1753 182.261 52.802L183.521 52.9C183.325 53.5627 182.951 54.1087 182.401 54.538C181.859 54.958 181.197 55.168 180.413 55.168ZM178.243 50.618H182.345C182.289 49.8993 182.079 49.372 181.715 49.036C181.36 48.7 180.907 48.532 180.357 48.532C179.787 48.532 179.316 48.7093 178.943 49.064C178.579 49.4093 178.345 49.9273 178.243 50.618ZM190.864 55.168C190.099 55.168 189.488 54.9907 189.03 54.636C188.582 54.2813 188.358 53.7867 188.358 53.152C188.358 52.5173 188.545 52.018 188.918 51.654C189.292 51.29 189.884 51.0333 190.696 50.884L193.328 50.394C193.328 49.7687 193.179 49.302 192.88 48.994C192.591 48.686 192.152 48.532 191.564 48.532C191.051 48.532 190.645 48.6487 190.346 48.882C190.048 49.106 189.842 49.4327 189.73 49.862L188.484 49.764C188.624 49.064 188.96 48.4993 189.492 48.07C190.034 47.6313 190.724 47.412 191.564 47.412C192.516 47.412 193.244 47.6827 193.748 48.224C194.252 48.756 194.504 49.4933 194.504 50.436V53.502C194.504 53.67 194.532 53.7913 194.588 53.866C194.654 53.9313 194.756 53.964 194.896 53.964H195.19V55C195.153 55.0093 195.092 55.014 195.008 55.014C194.924 55.0233 194.836 55.028 194.742 55.028C194.406 55.028 194.131 54.9767 193.916 54.874C193.711 54.762 193.562 54.594 193.468 54.37C193.375 54.1367 193.328 53.8333 193.328 53.46L193.468 53.488C193.403 53.8053 193.244 54.0947 192.992 54.356C192.74 54.608 192.428 54.8087 192.054 54.958C191.681 55.098 191.284 55.168 190.864 55.168ZM190.976 54.132C191.471 54.132 191.891 54.0387 192.236 53.852C192.591 53.656 192.862 53.3947 193.048 53.068C193.235 52.732 193.328 52.3587 193.328 51.948V51.416L190.92 51.864C190.416 51.9573 190.066 52.102 189.87 52.298C189.684 52.4847 189.59 52.732 189.59 53.04C189.59 53.3853 189.712 53.656 189.954 53.852C190.206 54.0387 190.547 54.132 190.976 54.132ZM200.073 55V47.58H201.151L201.193 49.456L201.025 49.4C201.109 48.9893 201.254 48.6393 201.459 48.35C201.674 48.0513 201.935 47.8227 202.243 47.664C202.551 47.496 202.892 47.412 203.265 47.412C203.909 47.412 204.432 47.5893 204.833 47.944C205.244 48.2987 205.5 48.7933 205.603 49.428L205.379 49.414C205.454 48.9847 205.589 48.6253 205.785 48.336C205.99 48.0373 206.252 47.8087 206.569 47.65C206.886 47.4913 207.25 47.412 207.661 47.412C208.193 47.412 208.641 47.524 209.005 47.748C209.369 47.9627 209.644 48.28 209.831 48.7C210.018 49.12 210.111 49.6287 210.111 50.226V55H208.935V50.478C208.935 49.806 208.804 49.302 208.543 48.966C208.282 48.6207 207.894 48.448 207.381 48.448C207.036 48.448 206.732 48.532 206.471 48.7C206.219 48.868 206.023 49.1107 205.883 49.428C205.743 49.736 205.673 50.114 205.673 50.562V55H204.497V50.562C204.497 49.8993 204.38 49.3813 204.147 49.008C203.914 48.6347 203.522 48.448 202.971 48.448C202.626 48.448 202.322 48.532 202.061 48.7C201.809 48.868 201.608 49.1107 201.459 49.428C201.319 49.7453 201.249 50.1233 201.249 50.562V55H200.073ZM215.084 55.168C214.384 55.168 213.778 55.0093 213.264 54.692C212.76 54.3747 212.368 53.9267 212.088 53.348C211.818 52.76 211.682 52.074 211.682 51.29C211.682 50.506 211.818 49.8247 212.088 49.246C212.368 48.6673 212.756 48.2193 213.25 47.902C213.754 47.5753 214.347 47.412 215.028 47.412C215.672 47.412 216.242 47.566 216.736 47.874C217.231 48.1727 217.614 48.6113 217.884 49.19C218.164 49.7687 218.304 50.4733 218.304 51.304V51.654H212.914C212.961 52.4473 213.171 53.0447 213.544 53.446C213.927 53.8473 214.44 54.048 215.084 54.048C215.57 54.048 215.966 53.936 216.274 53.712C216.592 53.4787 216.811 53.1753 216.932 52.802L218.192 52.9C217.996 53.5627 217.623 54.1087 217.072 54.538C216.531 54.958 215.868 55.168 215.084 55.168ZM212.914 50.618H217.016C216.96 49.8993 216.75 49.372 216.386 49.036C216.032 48.7 215.579 48.532 215.028 48.532C214.459 48.532 213.988 48.7093 213.614 49.064C213.25 49.4093 213.017 49.9273 212.914 50.618ZM222.599 55.168C221.937 55.168 221.372 55.0607 220.905 54.846C220.448 54.6313 220.089 54.3373 219.827 53.964C219.575 53.5813 219.431 53.1473 219.393 52.662L220.625 52.578C220.7 53.026 220.891 53.3853 221.199 53.656C221.507 53.9173 221.974 54.048 222.599 54.048C223.103 54.048 223.505 53.9687 223.803 53.81C224.111 53.642 224.265 53.376 224.265 53.012C224.265 52.816 224.219 52.6527 224.125 52.522C224.032 52.3913 223.85 52.2793 223.579 52.186C223.309 52.0833 222.907 51.9853 222.375 51.892C221.666 51.7613 221.106 51.6027 220.695 51.416C220.294 51.22 220.005 50.982 219.827 50.702C219.659 50.4127 219.575 50.072 219.575 49.68C219.575 49.0173 219.818 48.476 220.303 48.056C220.789 47.6267 221.479 47.412 222.375 47.412C222.982 47.412 223.491 47.524 223.901 47.748C224.321 47.9627 224.648 48.252 224.881 48.616C225.124 48.9707 225.283 49.3627 225.357 49.792L224.125 49.876C224.069 49.6147 223.967 49.386 223.817 49.19C223.668 48.9847 223.472 48.826 223.229 48.714C222.987 48.5927 222.697 48.532 222.361 48.532C221.829 48.532 221.437 48.6347 221.185 48.84C220.933 49.0453 220.807 49.3067 220.807 49.624C220.807 49.8667 220.863 50.0673 220.975 50.226C221.097 50.3753 221.288 50.5013 221.549 50.604C221.811 50.6973 222.161 50.7813 222.599 50.856C223.355 50.9867 223.943 51.1453 224.363 51.332C224.783 51.5187 225.077 51.7473 225.245 52.018C225.413 52.2887 225.497 52.62 225.497 53.012C225.497 53.4693 225.367 53.8613 225.105 54.188C224.853 54.5053 224.508 54.748 224.069 54.916C223.64 55.084 223.15 55.168 222.599 55.168ZM229.804 55.168C229.142 55.168 228.577 55.0607 228.11 54.846C227.653 54.6313 227.294 54.3373 227.032 53.964C226.78 53.5813 226.636 53.1473 226.598 52.662L227.83 52.578C227.905 53.026 228.096 53.3853 228.404 53.656C228.712 53.9173 229.179 54.048 229.804 54.048C230.308 54.048 230.71 53.9687 231.008 53.81C231.316 53.642 231.47 53.376 231.47 53.012C231.47 52.816 231.424 52.6527 231.33 52.522C231.237 52.3913 231.055 52.2793 230.784 52.186C230.514 52.0833 230.112 51.9853 229.58 51.892C228.871 51.7613 228.311 51.6027 227.9 51.416C227.499 51.22 227.21 50.982 227.032 50.702C226.864 50.4127 226.78 50.072 226.78 49.68C226.78 49.0173 227.023 48.476 227.508 48.056C227.994 47.6267 228.684 47.412 229.58 47.412C230.187 47.412 230.696 47.524 231.106 47.748C231.526 47.9627 231.853 48.252 232.086 48.616C232.329 48.9707 232.488 49.3627 232.562 49.792L231.33 49.876C231.274 49.6147 231.172 49.386 231.022 49.19C230.873 48.9847 230.677 48.826 230.434 48.714C230.192 48.5927 229.902 48.532 229.566 48.532C229.034 48.532 228.642 48.6347 228.39 48.84C228.138 49.0453 228.012 49.3067 228.012 49.624C228.012 49.8667 228.068 50.0673 228.18 50.226C228.302 50.3753 228.493 50.5013 228.754 50.604C229.016 50.6973 229.366 50.7813 229.804 50.856C230.56 50.9867 231.148 51.1453 231.568 51.332C231.988 51.5187 232.282 51.7473 232.45 52.018C232.618 52.2887 232.702 52.62 232.702 53.012C232.702 53.4693 232.572 53.8613 232.31 54.188C232.058 54.5053 231.713 54.748 231.274 54.916C230.845 55.084 230.355 55.168 229.804 55.168ZM236.501 55.168C235.736 55.168 235.124 54.9907 234.667 54.636C234.219 54.2813 233.995 53.7867 233.995 53.152C233.995 52.5173 234.182 52.018 234.555 51.654C234.928 51.29 235.521 51.0333 236.333 50.884L238.965 50.394C238.965 49.7687 238.816 49.302 238.517 48.994C238.228 48.686 237.789 48.532 237.201 48.532C236.688 48.532 236.282 48.6487 235.983 48.882C235.684 49.106 235.479 49.4327 235.367 49.862L234.121 49.764C234.261 49.064 234.597 48.4993 235.129 48.07C235.67 47.6313 236.361 47.412 237.201 47.412C238.153 47.412 238.881 47.6827 239.385 48.224C239.889 48.756 240.141 49.4933 240.141 50.436V53.502C240.141 53.67 240.169 53.7913 240.225 53.866C240.29 53.9313 240.393 53.964 240.533 53.964H240.827V55C240.79 55.0093 240.729 55.014 240.645 55.014C240.561 55.0233 240.472 55.028 240.379 55.028C240.043 55.028 239.768 54.9767 239.553 54.874C239.348 54.762 239.198 54.594 239.105 54.37C239.012 54.1367 238.965 53.8333 238.965 53.46L239.105 53.488C239.04 53.8053 238.881 54.0947 238.629 54.356C238.377 54.608 238.064 54.8087 237.691 54.958C237.318 55.098 236.921 55.168 236.501 55.168ZM236.613 54.132C237.108 54.132 237.528 54.0387 237.873 53.852C238.228 53.656 238.498 53.3947 238.685 53.068C238.872 52.732 238.965 52.3587 238.965 51.948V51.416L236.557 51.864C236.053 51.9573 235.703 52.102 235.507 52.298C235.32 52.4847 235.227 52.732 235.227 53.04C235.227 53.3853 235.348 53.656 235.591 53.852C235.843 54.0387 236.184 54.132 236.613 54.132ZM244.942 57.268C244.41 57.268 243.929 57.1793 243.5 57.002C243.07 56.8247 242.711 56.5727 242.422 56.246C242.132 55.9193 241.936 55.5413 241.834 55.112L243.066 55.028C243.178 55.3733 243.374 55.644 243.654 55.84C243.943 56.0453 244.372 56.148 244.942 56.148C245.614 56.148 246.127 56.0127 246.482 55.742C246.846 55.4713 247.028 55.0653 247.028 54.524V53.32C246.85 53.712 246.566 54.0247 246.174 54.258C245.782 54.4913 245.343 54.608 244.858 54.608C244.232 54.608 243.672 54.454 243.178 54.146C242.692 53.838 242.31 53.4133 242.03 52.872C241.759 52.3307 241.624 51.71 241.624 51.01C241.624 50.3007 241.759 49.68 242.03 49.148C242.3 48.6067 242.674 48.182 243.15 47.874C243.635 47.566 244.186 47.412 244.802 47.412C245.324 47.412 245.791 47.5333 246.202 47.776C246.622 48.0187 246.916 48.3453 247.084 48.756V47.58H248.204V54.496C248.204 55.0747 248.073 55.5693 247.812 55.98C247.55 56.4 247.177 56.7173 246.692 56.932C246.206 57.156 245.623 57.268 244.942 57.268ZM244.914 53.488C245.548 53.488 246.057 53.2687 246.44 52.83C246.822 52.382 247.018 51.7753 247.028 51.01C247.037 50.4967 246.953 50.058 246.776 49.694C246.608 49.3207 246.36 49.036 246.034 48.84C245.716 48.6347 245.343 48.532 244.914 48.532C244.26 48.532 243.752 48.756 243.388 49.204C243.033 49.6427 242.856 50.2447 242.856 51.01C242.856 51.7753 243.038 52.382 243.402 52.83C243.775 53.2687 244.279 53.488 244.914 53.488ZM253.202 55.168C252.502 55.168 251.895 55.0093 251.382 54.692C250.878 54.3747 250.486 53.9267 250.206 53.348C249.935 52.76 249.8 52.074 249.8 51.29C249.8 50.506 249.935 49.8247 250.206 49.246C250.486 48.6673 250.873 48.2193 251.368 47.902C251.872 47.5753 252.464 47.412 253.146 47.412C253.79 47.412 254.359 47.566 254.854 47.874C255.348 48.1727 255.731 48.6113 256.002 49.19C256.282 49.7687 256.422 50.4733 256.422 51.304V51.654H251.032C251.078 52.4473 251.288 53.0447 251.662 53.446C252.044 53.8473 252.558 54.048 253.202 54.048C253.687 54.048 254.084 53.936 254.392 53.712C254.709 53.4787 254.928 53.1753 255.05 52.802L256.31 52.9C256.114 53.5627 255.74 54.1087 255.19 54.538C254.648 54.958 253.986 55.168 253.202 55.168ZM251.032 50.618H255.134C255.078 49.8993 254.868 49.372 254.504 49.036C254.149 48.7 253.696 48.532 253.146 48.532C252.576 48.532 252.105 48.7093 251.732 49.064C251.368 49.4093 251.134 49.9273 251.032 50.618ZM257.647 55V53.418H259.229V55H257.647ZM260.464 55V53.418H262.046V55H260.464ZM263.28 55V53.418H264.862V55H263.28Z" fill="#71717A"/>
<path d="M810 58.3333C814.602 58.3333 818.333 54.6023 818.333 50C818.333 45.3976 814.602 41.6666 810 41.6666C805.397 41.6666 801.667 45.3976 801.667 50C801.667 54.6023 805.397 58.3333 810 58.3333Z" stroke="#71717A" stroke-width="1.66667" stroke-linecap="round" stroke-linejoin="round"/>
<path d="M806.667 51.6666C806.667 51.6666 807.917 53.3333 810 53.3333C812.083 53.3333 813.333 51.6666 813.333 51.6666" stroke="#71717A" stroke-width="1.66667" stroke-linecap="round" stroke-linejoin="round"/>
<path d="M807.5 47.5H807.508" stroke="#71717A" stroke-width="1.66667" stroke-linecap="round" stroke-linejoin="round"/>
<path d="M812.5 47.5H812.508" stroke="#71717A" stroke-width="1.66667" stroke-linecap="round" stroke-linejoin="round"/>
</svg>
