<svg width="802" height="88" viewBox="0 0 802 88" fill="none" xmlns="http://www.w3.org/2000/svg">
<rect width="802" height="88" fill="#F4F2EE"/>
<path d="M730 46C728.449 46.0376 726.947 45.4587 725.822 44.3902C724.697 43.3217 724.042 41.8508 724 40.3V30.13C724.029 29.0089 724.501 27.9449 725.312 27.1709C726.124 26.3968 727.209 25.9758 728.33 26C729.453 25.9731 730.541 26.3929 731.354 27.1673C732.168 27.9416 732.641 29.0071 732.67 30.13V40.31C732.628 40.9886 732.33 41.6257 731.834 42.0915C731.339 42.5573 730.685 42.8167 730.005 42.8167C729.325 42.8167 728.671 42.5573 728.176 42.0915C727.68 41.6257 727.382 40.9886 727.34 40.31V30.92C727.34 30.6548 727.445 30.4004 727.633 30.2129C727.82 30.0253 728.075 29.92 728.34 29.92C728.605 29.92 728.86 30.0253 729.047 30.2129C729.235 30.4004 729.34 30.6548 729.34 30.92V40.31C729.36 40.4723 729.439 40.6217 729.561 40.7301C729.684 40.8385 729.841 40.8983 730.005 40.8983C730.169 40.8983 730.326 40.8385 730.449 40.7301C730.571 40.6217 730.65 40.4723 730.67 40.31V30.13C730.639 29.5384 730.376 28.9829 729.938 28.5842C729.5 28.1854 728.922 27.9755 728.33 28C727.74 27.9782 727.165 28.1893 726.729 28.5878C726.293 28.9863 726.031 29.5402 726 30.13V40.3C726.042 41.3204 726.486 42.2828 727.236 42.9763C727.985 43.6698 728.979 44.0379 730 44C731.021 44.0379 732.015 43.6698 732.764 42.9763C733.514 42.2828 733.958 41.3204 734 40.3V30.13C734 29.8648 734.105 29.6104 734.293 29.4229C734.48 29.2353 734.735 29.13 735 29.13C735.265 29.13 735.52 29.2353 735.707 29.4229C735.895 29.6104 736 29.8648 736 30.13V40.3C735.958 41.8508 735.303 43.3217 734.178 44.3902C733.053 45.4587 731.551 46.0376 730 46Z" fill="black" fill-opacity="0.54"/>
<path d="M74.208 41.5C74.1013 41.5 74.0107 41.468 73.936 41.404C73.872 41.3293 73.84 41.2387 73.84 41.132V31.724H70.768C70.6613 31.724 70.5707 31.692 70.496 31.628C70.432 31.5533 70.4 31.4627 70.4 31.356V30.684C70.4 30.5667 70.432 30.476 70.496 30.412C70.5707 30.3373 70.6613 30.3 70.768 30.3H78.48C78.5973 30.3 78.688 30.3373 78.752 30.412C78.8267 30.476 78.864 30.5667 78.864 30.684V31.356C78.864 31.4627 78.8267 31.5533 78.752 31.628C78.688 31.692 78.5973 31.724 78.48 31.724H75.424V41.132C75.424 41.2387 75.3867 41.3293 75.312 41.404C75.248 41.468 75.1573 41.5 75.04 41.5H74.208ZM80.6088 44.54C80.5234 44.54 80.4488 44.508 80.3848 44.444C80.3208 44.38 80.2888 44.3053 80.2888 44.22C80.2888 44.1773 80.2941 44.1347 80.3048 44.092C80.3154 44.0493 80.3368 43.996 80.3688 43.932L81.6008 41.004L78.5448 33.788C78.4914 33.66 78.4648 33.5693 78.4648 33.516C78.4648 33.42 78.4968 33.34 78.5608 33.276C78.6248 33.212 78.7048 33.18 78.8008 33.18H79.5848C79.6914 33.18 79.7768 33.2067 79.8408 33.26C79.9048 33.3133 79.9474 33.3773 79.9688 33.452L82.4008 39.276L84.8968 33.452C84.9288 33.3773 84.9714 33.3133 85.0248 33.26C85.0888 33.2067 85.1794 33.18 85.2968 33.18H86.0487C86.1447 33.18 86.2248 33.212 86.2888 33.276C86.3528 33.34 86.3848 33.4147 86.3848 33.5C86.3848 33.5533 86.3581 33.6493 86.3048 33.788L81.7608 44.268C81.7288 44.3427 81.6808 44.4067 81.6168 44.46C81.5634 44.5133 81.4781 44.54 81.3608 44.54H80.6088ZM88.3493 44.54C88.2426 44.54 88.1519 44.5027 88.0773 44.428C88.0133 44.364 87.9813 44.2787 87.9813 44.172V33.548C87.9813 33.4413 88.0133 33.356 88.0773 33.292C88.1519 33.2173 88.2426 33.18 88.3493 33.18H89.0853C89.1919 33.18 89.2773 33.2173 89.3413 33.292C89.4159 33.356 89.4533 33.4413 89.4533 33.548V34.252C89.7093 33.9 90.0506 33.6067 90.4773 33.372C90.9039 33.1373 91.4373 33.02 92.0773 33.02C92.6746 33.02 93.1813 33.1213 93.5973 33.324C94.0239 33.5267 94.3706 33.804 94.6373 34.156C94.9146 34.508 95.1226 34.908 95.2613 35.356C95.3999 35.804 95.4746 36.284 95.4853 36.796C95.4959 36.9667 95.5013 37.148 95.5013 37.34C95.5013 37.532 95.4959 37.7133 95.4853 37.884C95.4746 38.3853 95.3999 38.8653 95.2613 39.324C95.1226 39.772 94.9146 40.172 94.6373 40.524C94.3706 40.8653 94.0239 41.1427 93.5973 41.356C93.1813 41.5587 92.6746 41.66 92.0773 41.66C91.4586 41.66 90.9359 41.548 90.5093 41.324C90.0933 41.0893 89.7519 40.8013 89.4853 40.46V44.172C89.4853 44.2787 89.4533 44.364 89.3893 44.428C89.3253 44.5027 89.2346 44.54 89.1173 44.54H88.3493ZM91.7413 40.364C92.2959 40.364 92.7279 40.2467 93.0373 40.012C93.3573 39.7667 93.5866 39.452 93.7253 39.068C93.8639 38.6733 93.9439 38.252 93.9653 37.804C93.9759 37.4947 93.9759 37.1853 93.9653 36.876C93.9439 36.428 93.8639 36.012 93.7253 35.628C93.5866 35.2333 93.3573 34.9187 93.0373 34.684C92.7279 34.4387 92.2959 34.316 91.7413 34.316C91.2186 34.316 90.7919 34.4387 90.4613 34.684C90.1413 34.9293 89.9013 35.244 89.7413 35.628C89.5919 36.0013 89.5066 36.3853 89.4853 36.78C89.4746 36.9507 89.4693 37.1533 89.4693 37.388C89.4693 37.6227 89.4746 37.8307 89.4853 38.012C89.4959 38.3853 89.5813 38.7533 89.7413 39.116C89.9119 39.4787 90.1626 39.7773 90.4933 40.012C90.8239 40.2467 91.2399 40.364 91.7413 40.364ZM100.809 41.66C99.7098 41.66 98.8352 41.324 98.1845 40.652C97.5338 39.9693 97.1765 39.0413 97.1125 37.868C97.1018 37.7293 97.0965 37.5533 97.0965 37.34C97.0965 37.116 97.1018 36.9347 97.1125 36.796C97.1552 36.0387 97.3312 35.3773 97.6405 34.812C97.9498 34.236 98.3712 33.7933 98.9045 33.484C99.4485 33.1747 100.083 33.02 100.809 33.02C101.619 33.02 102.297 33.1907 102.841 33.532C103.395 33.8733 103.817 34.3587 104.105 34.988C104.393 35.6173 104.536 36.3533 104.536 37.196V37.468C104.536 37.5853 104.499 37.676 104.425 37.74C104.361 37.804 104.275 37.836 104.169 37.836H98.6325C98.6325 37.8467 98.6325 37.868 98.6325 37.9C98.6325 37.932 98.6325 37.9587 98.6325 37.98C98.6538 38.4173 98.7498 38.828 98.9205 39.212C99.0912 39.5853 99.3365 39.8893 99.6565 40.124C99.9765 40.3587 100.361 40.476 100.809 40.476C101.193 40.476 101.513 40.4173 101.769 40.3C102.025 40.1827 102.233 40.0547 102.393 39.916C102.553 39.7667 102.659 39.6547 102.713 39.58C102.809 39.4413 102.883 39.3613 102.937 39.34C102.99 39.308 103.075 39.292 103.193 39.292H103.961C104.067 39.292 104.153 39.324 104.217 39.388C104.291 39.4413 104.323 39.5213 104.312 39.628C104.302 39.788 104.217 39.9853 104.057 40.22C103.897 40.444 103.667 40.668 103.369 40.892C103.07 41.116 102.707 41.3027 102.281 41.452C101.854 41.5907 101.363 41.66 100.809 41.66ZM98.6325 36.732H103.017V36.684C103.017 36.204 102.926 35.7773 102.745 35.404C102.574 35.0307 102.323 34.7373 101.993 34.524C101.662 34.3 101.267 34.188 100.809 34.188C100.35 34.188 99.9552 34.3 99.6245 34.524C99.3045 34.7373 99.0592 35.0307 98.8885 35.404C98.7178 35.7773 98.6325 36.204 98.6325 36.684V36.732ZM112.692 41.66C112.158 41.66 111.673 41.5533 111.236 41.34C110.798 41.1267 110.446 40.8387 110.18 40.476C109.913 40.1133 109.78 39.7027 109.78 39.244C109.78 38.508 110.078 37.9213 110.676 37.484C111.273 37.0467 112.052 36.7587 113.012 36.62L115.396 36.284V35.82C115.396 35.308 115.246 34.908 114.948 34.62C114.66 34.332 114.185 34.188 113.524 34.188C113.044 34.188 112.654 34.284 112.356 34.476C112.068 34.668 111.865 34.9133 111.748 35.212C111.684 35.372 111.572 35.452 111.412 35.452H110.692C110.574 35.452 110.484 35.42 110.42 35.356C110.366 35.2813 110.34 35.196 110.34 35.1C110.34 34.94 110.398 34.7427 110.516 34.508C110.644 34.2733 110.836 34.044 111.092 33.82C111.348 33.596 111.673 33.4093 112.068 33.26C112.473 33.1 112.964 33.02 113.54 33.02C114.18 33.02 114.718 33.1053 115.156 33.276C115.593 33.436 115.934 33.6547 116.18 33.932C116.436 34.2093 116.617 34.524 116.724 34.876C116.841 35.228 116.9 35.5853 116.9 35.948V41.132C116.9 41.2387 116.862 41.3293 116.788 41.404C116.724 41.468 116.638 41.5 116.532 41.5H115.796C115.678 41.5 115.588 41.468 115.524 41.404C115.46 41.3293 115.428 41.2387 115.428 41.132V40.444C115.289 40.636 115.102 40.828 114.868 41.02C114.633 41.2013 114.34 41.356 113.988 41.484C113.636 41.6013 113.204 41.66 112.692 41.66ZM113.028 40.46C113.465 40.46 113.865 40.3693 114.228 40.188C114.59 39.996 114.873 39.7027 115.076 39.308C115.289 38.9133 115.396 38.4173 115.396 37.82V37.372L113.54 37.644C112.782 37.7507 112.212 37.932 111.828 38.188C111.444 38.4333 111.252 38.748 111.252 39.132C111.252 39.4307 111.337 39.6813 111.508 39.884C111.689 40.076 111.913 40.22 112.18 40.316C112.457 40.412 112.74 40.46 113.028 40.46ZM123.49 41.5C123.383 41.5 123.292 41.468 123.218 41.404C123.154 41.3293 123.122 41.2387 123.122 41.132V33.548C123.122 33.4413 123.154 33.356 123.218 33.292C123.292 33.2173 123.383 33.18 123.49 33.18H124.242C124.348 33.18 124.434 33.2173 124.498 33.292C124.572 33.356 124.61 33.4413 124.61 33.548V34.252C124.887 33.8893 125.234 33.596 125.65 33.372C126.076 33.1373 126.62 33.02 127.282 33.02C127.975 33.02 128.562 33.1747 129.042 33.484C129.532 33.7827 129.9 34.204 130.146 34.748C130.391 35.2813 130.514 35.9053 130.514 36.62V41.132C130.514 41.2387 130.482 41.3293 130.418 41.404C130.354 41.468 130.268 41.5 130.161 41.5H129.362C129.255 41.5 129.164 41.468 129.09 41.404C129.026 41.3293 128.994 41.2387 128.994 41.132V36.7C128.994 35.9533 128.812 35.372 128.45 34.956C128.087 34.5293 127.554 34.316 126.85 34.316C126.188 34.316 125.655 34.5293 125.25 34.956C124.855 35.372 124.658 35.9533 124.658 36.7V41.132C124.658 41.2387 124.62 41.3293 124.546 41.404C124.482 41.468 124.396 41.5 124.289 41.5H123.49ZM136.137 41.66C135.038 41.66 134.163 41.324 133.513 40.652C132.862 39.9693 132.505 39.0413 132.441 37.868C132.43 37.7293 132.425 37.5533 132.425 37.34C132.425 37.116 132.43 36.9347 132.441 36.796C132.483 36.0387 132.659 35.3773 132.969 34.812C133.278 34.236 133.699 33.7933 134.233 33.484C134.777 33.1747 135.411 33.02 136.137 33.02C136.947 33.02 137.625 33.1907 138.169 33.532C138.723 33.8733 139.145 34.3587 139.433 34.988C139.721 35.6173 139.865 36.3533 139.865 37.196V37.468C139.865 37.5853 139.827 37.676 139.753 37.74C139.689 37.804 139.603 37.836 139.497 37.836H133.961C133.961 37.8467 133.961 37.868 133.961 37.9C133.961 37.932 133.961 37.9587 133.961 37.98C133.982 38.4173 134.078 38.828 134.249 39.212C134.419 39.5853 134.665 39.8893 134.985 40.124C135.305 40.3587 135.689 40.476 136.137 40.476C136.521 40.476 136.841 40.4173 137.097 40.3C137.353 40.1827 137.561 40.0547 137.721 39.916C137.881 39.7667 137.987 39.6547 138.041 39.58C138.137 39.4413 138.211 39.3613 138.265 39.34C138.318 39.308 138.403 39.292 138.521 39.292H139.289C139.395 39.292 139.481 39.324 139.545 39.388C139.619 39.4413 139.651 39.5213 139.641 39.628C139.63 39.788 139.545 39.9853 139.385 40.22C139.225 40.444 138.995 40.668 138.697 40.892C138.398 41.116 138.035 41.3027 137.609 41.452C137.182 41.5907 136.691 41.66 136.137 41.66ZM133.961 36.732H138.345V36.684C138.345 36.204 138.254 35.7773 138.073 35.404C137.902 35.0307 137.651 34.7373 137.321 34.524C136.99 34.3 136.595 34.188 136.137 34.188C135.678 34.188 135.283 34.3 134.953 34.524C134.633 34.7373 134.387 35.0307 134.217 35.404C134.046 35.7773 133.961 36.204 133.961 36.684V36.732ZM143.767 41.5C143.628 41.5 143.522 41.468 143.447 41.404C143.372 41.3293 143.308 41.228 143.255 41.1L140.983 33.676C140.962 33.6227 140.951 33.5693 140.951 33.516C140.951 33.42 140.983 33.34 141.047 33.276C141.122 33.212 141.202 33.18 141.287 33.18H141.991C142.108 33.18 142.199 33.212 142.263 33.276C142.327 33.34 142.37 33.3987 142.391 33.452L144.167 39.484L146.071 33.516C146.092 33.4413 146.135 33.3667 146.199 33.292C146.274 33.2173 146.38 33.18 146.519 33.18H147.063C147.202 33.18 147.308 33.2173 147.383 33.292C147.458 33.3667 147.5 33.4413 147.511 33.516L149.415 39.484L151.191 33.452C151.202 33.3987 151.239 33.34 151.303 33.276C151.367 33.212 151.458 33.18 151.575 33.18H152.279C152.375 33.18 152.455 33.212 152.519 33.276C152.583 33.34 152.615 33.42 152.615 33.516C152.615 33.5693 152.604 33.6227 152.583 33.676L150.311 41.1C150.279 41.228 150.22 41.3293 150.135 41.404C150.06 41.468 149.948 41.5 149.799 41.5H149.175C149.036 41.5 148.919 41.468 148.823 41.404C148.738 41.3293 148.679 41.228 148.647 41.1L146.791 35.372L144.935 41.1C144.892 41.228 144.828 41.3293 144.743 41.404C144.658 41.468 144.54 41.5 144.391 41.5H143.767ZM158.302 41.5C158.195 41.5 158.105 41.468 158.03 41.404C157.966 41.3293 157.934 41.2387 157.934 41.132V33.548C157.934 33.4413 157.966 33.356 158.03 33.292C158.105 33.2173 158.195 33.18 158.302 33.18H159.022C159.129 33.18 159.214 33.2173 159.278 33.292C159.353 33.356 159.39 33.4413 159.39 33.548V34.108C159.635 33.7773 159.945 33.516 160.318 33.324C160.691 33.1213 161.139 33.02 161.662 33.02C162.867 33.0093 163.721 33.5 164.222 34.492C164.467 34.044 164.825 33.6867 165.294 33.42C165.763 33.1533 166.297 33.02 166.894 33.02C167.449 33.02 167.95 33.148 168.398 33.404C168.857 33.66 169.214 34.0493 169.47 34.572C169.737 35.084 169.87 35.7293 169.87 36.508V41.132C169.87 41.2387 169.833 41.3293 169.758 41.404C169.694 41.468 169.609 41.5 169.502 41.5H168.75C168.643 41.5 168.553 41.468 168.478 41.404C168.414 41.3293 168.382 41.2387 168.382 41.132V36.652C168.382 36.0547 168.297 35.5853 168.126 35.244C167.955 34.9027 167.726 34.6627 167.438 34.524C167.15 34.3853 166.835 34.316 166.494 34.316C166.217 34.316 165.934 34.3853 165.646 34.524C165.358 34.6627 165.118 34.9027 164.926 35.244C164.745 35.5853 164.654 36.0547 164.654 36.652V41.132C164.654 41.2387 164.617 41.3293 164.542 41.404C164.478 41.468 164.393 41.5 164.286 41.5H163.534C163.427 41.5 163.337 41.468 163.262 41.404C163.198 41.3293 163.166 41.2387 163.166 41.132V36.652C163.166 36.0547 163.075 35.5853 162.894 35.244C162.713 34.9027 162.478 34.6627 162.19 34.524C161.902 34.3853 161.598 34.316 161.278 34.316C161.001 34.316 160.718 34.3853 160.43 34.524C160.142 34.6627 159.902 34.9027 159.71 35.244C159.529 35.5853 159.438 36.0493 159.438 36.636V41.132C159.438 41.2387 159.401 41.3293 159.326 41.404C159.262 41.468 159.177 41.5 159.07 41.5H158.302ZM175.465 41.66C174.366 41.66 173.491 41.324 172.841 40.652C172.19 39.9693 171.833 39.0413 171.769 37.868C171.758 37.7293 171.753 37.5533 171.753 37.34C171.753 37.116 171.758 36.9347 171.769 36.796C171.811 36.0387 171.987 35.3773 172.297 34.812C172.606 34.236 173.027 33.7933 173.561 33.484C174.105 33.1747 174.739 33.02 175.465 33.02C176.275 33.02 176.953 33.1907 177.497 33.532C178.051 33.8733 178.473 34.3587 178.761 34.988C179.049 35.6173 179.193 36.3533 179.193 37.196V37.468C179.193 37.5853 179.155 37.676 179.081 37.74C179.017 37.804 178.931 37.836 178.825 37.836H173.289C173.289 37.8467 173.289 37.868 173.289 37.9C173.289 37.932 173.289 37.9587 173.289 37.98C173.31 38.4173 173.406 38.828 173.577 39.212C173.747 39.5853 173.993 39.8893 174.313 40.124C174.633 40.3587 175.017 40.476 175.465 40.476C175.849 40.476 176.169 40.4173 176.425 40.3C176.681 40.1827 176.889 40.0547 177.049 39.916C177.209 39.7667 177.315 39.6547 177.369 39.58C177.465 39.4413 177.539 39.3613 177.593 39.34C177.646 39.308 177.731 39.292 177.849 39.292H178.617C178.723 39.292 178.809 39.324 178.873 39.388C178.947 39.4413 178.979 39.5213 178.969 39.628C178.958 39.788 178.873 39.9853 178.713 40.22C178.553 40.444 178.323 40.668 178.025 40.892C177.726 41.116 177.363 41.3027 176.937 41.452C176.51 41.5907 176.019 41.66 175.465 41.66ZM173.289 36.732H177.673V36.684C177.673 36.204 177.582 35.7773 177.401 35.404C177.23 35.0307 176.979 34.7373 176.649 34.524C176.318 34.3 175.923 34.188 175.465 34.188C175.006 34.188 174.611 34.3 174.281 34.524C173.961 34.7373 173.715 35.0307 173.545 35.404C173.374 35.7773 173.289 36.204 173.289 36.684V36.732ZM183.986 41.66C183.389 41.66 182.877 41.5853 182.45 41.436C182.023 41.2867 181.677 41.1053 181.41 40.892C181.143 40.6787 180.941 40.4653 180.802 40.252C180.674 40.0387 180.605 39.868 180.594 39.74C180.583 39.6227 180.621 39.532 180.706 39.468C180.791 39.404 180.877 39.372 180.962 39.372H181.666C181.73 39.372 181.778 39.3827 181.81 39.404C181.853 39.4147 181.906 39.4573 181.97 39.532C182.109 39.6813 182.263 39.8307 182.434 39.98C182.605 40.1293 182.813 40.252 183.058 40.348C183.314 40.444 183.629 40.492 184.002 40.492C184.546 40.492 184.994 40.3907 185.346 40.188C185.698 39.9747 185.874 39.6653 185.874 39.26C185.874 38.9933 185.799 38.78 185.65 38.62C185.511 38.46 185.255 38.316 184.882 38.188C184.519 38.06 184.018 37.9267 183.378 37.788C182.738 37.6387 182.231 37.4573 181.858 37.244C181.485 37.02 181.218 36.7587 181.058 36.46C180.898 36.1507 180.818 35.804 180.818 35.42C180.818 35.0253 180.935 34.6467 181.17 34.284C181.405 33.9107 181.746 33.6067 182.194 33.372C182.653 33.1373 183.223 33.02 183.906 33.02C184.461 33.02 184.935 33.0893 185.33 33.228C185.725 33.3667 186.05 33.5427 186.306 33.756C186.562 33.9587 186.754 34.1613 186.882 34.364C187.01 34.5667 187.079 34.7373 187.09 34.876C187.101 34.9827 187.069 35.0733 186.994 35.148C186.919 35.212 186.834 35.244 186.738 35.244H186.066C185.991 35.244 185.927 35.228 185.874 35.196C185.831 35.164 185.789 35.1267 185.746 35.084C185.639 34.9453 185.511 34.8067 185.362 34.668C185.223 34.5293 185.037 34.4173 184.802 34.332C184.578 34.236 184.279 34.188 183.906 34.188C183.373 34.188 182.973 34.3 182.706 34.524C182.439 34.748 182.306 35.0307 182.306 35.372C182.306 35.5747 182.365 35.756 182.482 35.916C182.599 36.076 182.823 36.22 183.154 36.348C183.485 36.476 183.975 36.6147 184.626 36.764C185.33 36.9027 185.885 37.0893 186.29 37.324C186.695 37.5587 186.983 37.8307 187.154 38.14C187.325 38.4493 187.41 38.8067 187.41 39.212C187.41 39.66 187.277 40.0707 187.01 40.444C186.754 40.8173 186.37 41.116 185.858 41.34C185.357 41.5533 184.733 41.66 183.986 41.66ZM192.142 41.66C191.545 41.66 191.033 41.5853 190.606 41.436C190.179 41.2867 189.833 41.1053 189.566 40.892C189.299 40.6787 189.097 40.4653 188.958 40.252C188.83 40.0387 188.761 39.868 188.75 39.74C188.739 39.6227 188.777 39.532 188.862 39.468C188.947 39.404 189.033 39.372 189.118 39.372H189.822C189.886 39.372 189.934 39.3827 189.966 39.404C190.009 39.4147 190.062 39.4573 190.126 39.532C190.265 39.6813 190.419 39.8307 190.59 39.98C190.761 40.1293 190.969 40.252 191.214 40.348C191.47 40.444 191.785 40.492 192.158 40.492C192.702 40.492 193.15 40.3907 193.502 40.188C193.854 39.9747 194.03 39.6653 194.03 39.26C194.03 38.9933 193.955 38.78 193.806 38.62C193.667 38.46 193.411 38.316 193.038 38.188C192.675 38.06 192.174 37.9267 191.534 37.788C190.894 37.6387 190.387 37.4573 190.014 37.244C189.641 37.02 189.374 36.7587 189.214 36.46C189.054 36.1507 188.974 35.804 188.974 35.42C188.974 35.0253 189.091 34.6467 189.326 34.284C189.561 33.9107 189.902 33.6067 190.35 33.372C190.809 33.1373 191.379 33.02 192.062 33.02C192.617 33.02 193.091 33.0893 193.486 33.228C193.881 33.3667 194.206 33.5427 194.462 33.756C194.718 33.9587 194.91 34.1613 195.038 34.364C195.166 34.5667 195.235 34.7373 195.246 34.876C195.257 34.9827 195.225 35.0733 195.15 35.148C195.075 35.212 194.99 35.244 194.894 35.244H194.222C194.147 35.244 194.083 35.228 194.03 35.196C193.987 35.164 193.945 35.1267 193.902 35.084C193.795 34.9453 193.667 34.8067 193.518 34.668C193.379 34.5293 193.193 34.4173 192.958 34.332C192.734 34.236 192.435 34.188 192.062 34.188C191.529 34.188 191.129 34.3 190.862 34.524C190.595 34.748 190.462 35.0307 190.462 35.372C190.462 35.5747 190.521 35.756 190.638 35.916C190.755 36.076 190.979 36.22 191.31 36.348C191.641 36.476 192.131 36.6147 192.782 36.764C193.486 36.9027 194.041 37.0893 194.446 37.324C194.851 37.5587 195.139 37.8307 195.31 38.14C195.481 38.4493 195.566 38.8067 195.566 39.212C195.566 39.66 195.433 40.0707 195.166 40.444C194.91 40.8173 194.526 41.116 194.014 41.34C193.513 41.5533 192.889 41.66 192.142 41.66ZM199.738 41.66C199.205 41.66 198.72 41.5533 198.282 41.34C197.845 41.1267 197.493 40.8387 197.226 40.476C196.96 40.1133 196.826 39.7027 196.826 39.244C196.826 38.508 197.125 37.9213 197.722 37.484C198.32 37.0467 199.098 36.7587 200.058 36.62L202.442 36.284V35.82C202.442 35.308 202.293 34.908 201.994 34.62C201.706 34.332 201.232 34.188 200.57 34.188C200.09 34.188 199.701 34.284 199.402 34.476C199.114 34.668 198.912 34.9133 198.794 35.212C198.73 35.372 198.618 35.452 198.458 35.452H197.738C197.621 35.452 197.53 35.42 197.466 35.356C197.413 35.2813 197.386 35.196 197.386 35.1C197.386 34.94 197.445 34.7427 197.562 34.508C197.69 34.2733 197.882 34.044 198.138 33.82C198.394 33.596 198.72 33.4093 199.114 33.26C199.52 33.1 200.01 33.02 200.586 33.02C201.226 33.02 201.765 33.1053 202.202 33.276C202.64 33.436 202.981 33.6547 203.226 33.932C203.482 34.2093 203.664 34.524 203.77 34.876C203.888 35.228 203.946 35.5853 203.946 35.948V41.132C203.946 41.2387 203.909 41.3293 203.834 41.404C203.77 41.468 203.685 41.5 203.578 41.5H202.842C202.725 41.5 202.634 41.468 202.57 41.404C202.506 41.3293 202.474 41.2387 202.474 41.132V40.444C202.336 40.636 202.149 40.828 201.914 41.02C201.68 41.2013 201.386 41.356 201.034 41.484C200.682 41.6013 200.25 41.66 199.738 41.66ZM200.074 40.46C200.512 40.46 200.912 40.3693 201.274 40.188C201.637 39.996 201.92 39.7027 202.122 39.308C202.336 38.9133 202.442 38.4173 202.442 37.82V37.372L200.586 37.644C199.829 37.7507 199.258 37.932 198.874 38.188C198.49 38.4333 198.298 38.748 198.298 39.132C198.298 39.4307 198.384 39.6813 198.554 39.884C198.736 40.076 198.96 40.22 199.226 40.316C199.504 40.412 199.786 40.46 200.074 40.46ZM209.655 45.02C208.929 45.02 208.332 44.924 207.863 44.732C207.404 44.54 207.041 44.3053 206.775 44.028C206.519 43.7613 206.332 43.4893 206.215 43.212C206.108 42.9453 206.049 42.732 206.039 42.572C206.028 42.4653 206.06 42.3747 206.135 42.3C206.22 42.2253 206.311 42.188 206.407 42.188H207.174C207.271 42.188 207.351 42.2093 207.414 42.252C207.479 42.2947 207.532 42.3853 207.575 42.524C207.639 42.684 207.735 42.86 207.863 43.052C207.991 43.2547 208.188 43.4253 208.455 43.564C208.721 43.7133 209.095 43.788 209.575 43.788C210.076 43.788 210.497 43.7187 210.839 43.58C211.18 43.452 211.436 43.2173 211.607 42.876C211.788 42.5453 211.879 42.0867 211.879 41.5V40.412C211.623 40.7427 211.287 41.02 210.871 41.244C210.455 41.4573 209.932 41.564 209.303 41.564C208.705 41.564 208.193 41.4627 207.767 41.26C207.34 41.0467 206.988 40.764 206.711 40.412C206.444 40.0493 206.241 39.6387 206.103 39.18C205.975 38.7213 205.9 38.2413 205.879 37.74C205.868 37.4413 205.868 37.148 205.879 36.86C205.9 36.3587 205.975 35.8787 206.103 35.42C206.241 34.9613 206.444 34.5507 206.711 34.188C206.988 33.8253 207.34 33.5427 207.767 33.34C208.193 33.1267 208.705 33.02 209.303 33.02C209.943 33.02 210.471 33.1427 210.887 33.388C211.313 33.6227 211.66 33.9107 211.927 34.252V33.564C211.927 33.4573 211.959 33.3667 212.023 33.292C212.097 33.2173 212.188 33.18 212.295 33.18H213.031C213.137 33.18 213.228 33.2173 213.303 33.292C213.377 33.3667 213.415 33.4573 213.415 33.564V41.324C213.415 42.0387 213.292 42.6733 213.047 43.228C212.812 43.7827 212.417 44.22 211.863 44.54C211.319 44.86 210.583 45.02 209.655 45.02ZM209.623 40.284C210.156 40.284 210.583 40.1613 210.903 39.916C211.233 39.6707 211.473 39.3613 211.623 38.988C211.783 38.6147 211.868 38.236 211.879 37.852C211.889 37.7027 211.895 37.5213 211.895 37.308C211.895 37.084 211.889 36.8973 211.879 36.748C211.868 36.364 211.783 35.9853 211.623 35.612C211.473 35.2387 211.233 34.9293 210.903 34.684C210.583 34.4387 210.156 34.316 209.623 34.316C209.089 34.316 208.663 34.4387 208.343 34.684C208.023 34.9187 207.793 35.2333 207.655 35.628C207.516 36.012 207.436 36.428 207.414 36.876C207.404 37.1533 207.404 37.436 207.414 37.724C207.436 38.172 207.516 38.5933 207.655 38.988C207.793 39.372 208.023 39.6867 208.343 39.932C208.663 40.1667 209.089 40.284 209.623 40.284ZM219.105 41.66C218.007 41.66 217.132 41.324 216.481 40.652C215.831 39.9693 215.473 39.0413 215.409 37.868C215.399 37.7293 215.393 37.5533 215.393 37.34C215.393 37.116 215.399 36.9347 215.409 36.796C215.452 36.0387 215.628 35.3773 215.937 34.812C216.247 34.236 216.668 33.7933 217.201 33.484C217.745 33.1747 218.38 33.02 219.105 33.02C219.916 33.02 220.593 33.1907 221.137 33.532C221.692 33.8733 222.113 34.3587 222.401 34.988C222.689 35.6173 222.833 36.3533 222.833 37.196V37.468C222.833 37.5853 222.796 37.676 222.721 37.74C222.657 37.804 222.572 37.836 222.465 37.836H216.929C216.929 37.8467 216.929 37.868 216.929 37.9C216.929 37.932 216.929 37.9587 216.929 37.98C216.951 38.4173 217.047 38.828 217.217 39.212C217.388 39.5853 217.633 39.8893 217.953 40.124C218.273 40.3587 218.657 40.476 219.105 40.476C219.489 40.476 219.809 40.4173 220.065 40.3C220.321 40.1827 220.529 40.0547 220.689 39.916C220.849 39.7667 220.956 39.6547 221.009 39.58C221.105 39.4413 221.18 39.3613 221.233 39.34C221.287 39.308 221.372 39.292 221.489 39.292H222.257C222.364 39.292 222.449 39.324 222.513 39.388C222.588 39.4413 222.62 39.5213 222.609 39.628C222.599 39.788 222.513 39.9853 222.353 40.22C222.193 40.444 221.964 40.668 221.665 40.892C221.367 41.116 221.004 41.3027 220.577 41.452C220.151 41.5907 219.66 41.66 219.105 41.66ZM216.929 36.732H221.313V36.684C221.313 36.204 221.223 35.7773 221.041 35.404C220.871 35.0307 220.62 34.7373 220.289 34.524C219.959 34.3 219.564 34.188 219.105 34.188C218.647 34.188 218.252 34.3 217.921 34.524C217.601 34.7373 217.356 35.0307 217.185 35.404C217.015 35.7773 216.929 36.204 216.929 36.684V36.732Z" fill="#757575"/>
<path d="M37.9998 27.5867C42.6023 27.5867 46.3332 31.3175 46.3332 35.92C46.3332 40.5225 42.6023 44.2533 37.9998 44.2533C33.3973 44.2533 29.6665 40.5225 29.6665 35.92C29.6665 31.3175 33.3973 27.5867 37.9998 27.5867ZM37.9998 29.2533C36.2317 29.2533 34.536 29.9557 33.2858 31.206C32.0355 32.4562 31.3332 34.1519 31.3332 35.92C31.3332 37.6881 32.0355 39.3838 33.2858 40.634C34.536 41.8843 36.2317 42.5867 37.9998 42.5867C39.7679 42.5867 41.4636 41.8843 42.7139 40.634C43.9641 39.3838 44.6665 37.6881 44.6665 35.92C44.6665 34.1519 43.9641 32.4562 42.7139 31.206C41.4636 29.9557 39.7679 29.2533 37.9998 29.2533ZM42.1665 36.7533C42.1665 37.8584 41.7275 38.9182 40.9461 39.6996C40.1647 40.481 39.1049 40.92 37.9998 40.92C36.8948 40.92 35.835 40.481 35.0536 39.6996C34.2722 38.9182 33.8332 37.8584 33.8332 36.7533H42.1665Z" fill="black" fill-opacity="0.54"/>
<path d="M769.4 44.4L786.85 36.92C787.03 36.8432 787.184 36.715 787.292 36.5514C787.4 36.3879 787.458 36.1961 787.458 36C787.458 35.804 787.4 35.6122 787.292 35.4486C787.184 35.2851 787.03 35.1569 786.85 35.08L769.4 27.6C769.249 27.5341 769.084 27.5069 768.92 27.5207C768.755 27.5346 768.597 27.5891 768.459 27.6794C768.321 27.7697 768.208 27.8929 768.13 28.0379C768.051 28.1829 768.01 28.3452 768.01 28.51L768 33.12C768 33.62 768.37 34.05 768.87 34.11L783 36L768.87 37.88C768.37 37.95 768 38.38 768 38.88L768.01 43.49C768.01 44.2 768.74 44.69 769.4 44.4Z" fill="black" fill-opacity="0.26"/>
<path d="M714.494 76C714.414 76 714.351 75.978 714.307 75.934C714.263 75.8827 714.241 75.8203 714.241 75.747V68.564C714.241 68.4833 714.263 68.421 714.307 68.377C714.351 68.3257 714.414 68.3 714.494 68.3H719.037C719.118 68.3 719.18 68.3257 719.224 68.377C719.268 68.421 719.29 68.4833 719.29 68.564V68.982C719.29 69.0627 719.268 69.125 719.224 69.169C719.18 69.213 719.118 69.235 719.037 69.235H715.297V71.644H718.795C718.876 71.644 718.938 71.6697 718.982 71.721C719.026 71.765 719.048 71.8273 719.048 71.908V72.315C719.048 72.3883 719.026 72.4507 718.982 72.502C718.938 72.546 718.876 72.568 718.795 72.568H715.297V75.065H719.125C719.206 75.065 719.268 75.087 719.312 75.131C719.356 75.175 719.378 75.2373 719.378 75.318V75.747C719.378 75.8203 719.356 75.8827 719.312 75.934C719.268 75.978 719.206 76 719.125 76H714.494ZM721.422 76C721.349 76 721.286 75.978 721.235 75.934C721.191 75.8827 721.169 75.8203 721.169 75.747V70.533C721.169 70.4597 721.191 70.401 721.235 70.357C721.286 70.3057 721.349 70.28 721.422 70.28H721.939C722.012 70.28 722.071 70.3057 722.115 70.357C722.166 70.401 722.192 70.4597 722.192 70.533V71.017C722.383 70.7677 722.621 70.566 722.907 70.412C723.2 70.2507 723.574 70.17 724.029 70.17C724.506 70.17 724.909 70.2763 725.239 70.489C725.576 70.6943 725.829 70.984 725.998 71.358C726.167 71.7247 726.251 72.1537 726.251 72.645V75.747C726.251 75.8203 726.229 75.8827 726.185 75.934C726.141 75.978 726.082 76 726.009 76H725.459C725.386 76 725.323 75.978 725.272 75.934C725.228 75.8827 725.206 75.8203 725.206 75.747V72.7C725.206 72.1867 725.081 71.787 724.832 71.501C724.583 71.2077 724.216 71.061 723.732 71.061C723.277 71.061 722.911 71.2077 722.632 71.501C722.361 71.787 722.225 72.1867 722.225 72.7V75.747C722.225 75.8203 722.199 75.8827 722.148 75.934C722.104 75.978 722.045 76 721.972 76H721.422ZM730.398 76C729.987 76 729.653 75.923 729.397 75.769C729.14 75.6077 728.953 75.384 728.836 75.098C728.718 74.8047 728.66 74.46 728.66 74.064V71.16H727.802C727.728 71.16 727.666 71.138 727.615 71.094C727.571 71.0427 727.549 70.9803 727.549 70.907V70.533C727.549 70.4597 727.571 70.401 727.615 70.357C727.666 70.3057 727.728 70.28 727.802 70.28H728.66V68.443C728.66 68.3697 728.682 68.311 728.726 68.267C728.777 68.2157 728.839 68.19 728.913 68.19H729.43C729.503 68.19 729.562 68.2157 729.606 68.267C729.657 68.311 729.683 68.3697 729.683 68.443V70.28H731.047C731.12 70.28 731.179 70.3057 731.223 70.357C731.274 70.401 731.3 70.4597 731.3 70.533V70.907C731.3 70.9803 731.274 71.0427 731.223 71.094C731.179 71.138 731.12 71.16 731.047 71.16H729.683V73.987C729.683 74.3317 729.741 74.603 729.859 74.801C729.976 74.999 730.185 75.098 730.486 75.098H731.157C731.23 75.098 731.289 75.1237 731.333 75.175C731.384 75.219 731.41 75.2777 731.41 75.351V75.747C731.41 75.8203 731.384 75.8827 731.333 75.934C731.289 75.978 731.23 76 731.157 76H730.398ZM735.139 76.11C734.383 76.11 733.782 75.879 733.335 75.417C732.887 74.9477 732.642 74.3097 732.598 73.503C732.59 73.4077 732.587 73.2867 732.587 73.14C732.587 72.986 732.59 72.8613 732.598 72.766C732.627 72.2453 732.748 71.7907 732.961 71.402C733.173 71.006 733.463 70.7017 733.83 70.489C734.204 70.2763 734.64 70.17 735.139 70.17C735.696 70.17 736.162 70.2873 736.536 70.522C736.917 70.7567 737.207 71.0903 737.405 71.523C737.603 71.9557 737.702 72.4617 737.702 73.041V73.228C737.702 73.3087 737.676 73.371 737.625 73.415C737.581 73.459 737.522 73.481 737.449 73.481H733.643C733.643 73.4883 733.643 73.503 733.643 73.525C733.643 73.547 733.643 73.5653 733.643 73.58C733.657 73.8807 733.723 74.163 733.841 74.427C733.958 74.6837 734.127 74.8927 734.347 75.054C734.567 75.2153 734.831 75.296 735.139 75.296C735.403 75.296 735.623 75.2557 735.799 75.175C735.975 75.0943 736.118 75.0063 736.228 74.911C736.338 74.8083 736.411 74.7313 736.448 74.68C736.514 74.5847 736.565 74.5297 736.602 74.515C736.638 74.493 736.697 74.482 736.778 74.482H737.306C737.379 74.482 737.438 74.504 737.482 74.548C737.533 74.5847 737.555 74.6397 737.548 74.713C737.54 74.823 737.482 74.9587 737.372 75.12C737.262 75.274 737.104 75.428 736.899 75.582C736.693 75.736 736.444 75.8643 736.151 75.967C735.857 76.0623 735.52 76.11 735.139 76.11ZM733.643 72.722H736.657V72.689C736.657 72.359 736.594 72.0657 736.47 71.809C736.352 71.5523 736.18 71.3507 735.953 71.204C735.725 71.05 735.454 70.973 735.139 70.973C734.823 70.973 734.552 71.05 734.325 71.204C734.105 71.3507 733.936 71.5523 733.819 71.809C733.701 72.0657 733.643 72.359 733.643 72.689V72.722ZM739.67 76C739.597 76 739.534 75.978 739.483 75.934C739.439 75.8827 739.417 75.8203 739.417 75.747V70.544C739.417 70.4707 739.439 70.4083 739.483 70.357C739.534 70.3057 739.597 70.28 739.67 70.28H740.176C740.249 70.28 740.312 70.3057 740.363 70.357C740.414 70.4083 740.44 70.4707 740.44 70.544V71.028C740.587 70.7787 740.788 70.5917 741.045 70.467C741.302 70.3423 741.61 70.28 741.969 70.28H742.409C742.482 70.28 742.541 70.3057 742.585 70.357C742.629 70.401 742.651 70.4597 742.651 70.533V70.984C742.651 71.0573 742.629 71.116 742.585 71.16C742.541 71.204 742.482 71.226 742.409 71.226H741.749C741.353 71.226 741.041 71.3433 740.814 71.578C740.587 71.8053 740.473 72.117 740.473 72.513V75.747C740.473 75.8203 740.447 75.8827 740.396 75.934C740.345 75.978 740.282 76 740.209 76H739.67Z" fill="#0C0C0D"/>
<path d="M752.622 76C752.211 76 751.877 75.923 751.621 75.769C751.364 75.6077 751.177 75.384 751.06 75.098C750.942 74.8047 750.884 74.46 750.884 74.064V71.16H750.026C749.952 71.16 749.89 71.138 749.839 71.094C749.795 71.0427 749.773 70.9803 749.773 70.907V70.533C749.773 70.4597 749.795 70.401 749.839 70.357C749.89 70.3057 749.952 70.28 750.026 70.28H750.884V68.443C750.884 68.3697 750.906 68.311 750.95 68.267C751.001 68.2157 751.063 68.19 751.137 68.19H751.654C751.727 68.19 751.786 68.2157 751.83 68.267C751.881 68.311 751.907 68.3697 751.907 68.443V70.28H753.271C753.344 70.28 753.403 70.3057 753.447 70.357C753.498 70.401 753.524 70.4597 753.524 70.533V70.907C753.524 70.9803 753.498 71.0427 753.447 71.094C753.403 71.138 753.344 71.16 753.271 71.16H751.907V73.987C751.907 74.3317 751.965 74.603 752.083 74.801C752.2 74.999 752.409 75.098 752.71 75.098H753.381C753.454 75.098 753.513 75.1237 753.557 75.175C753.608 75.219 753.634 75.2777 753.634 75.351V75.747C753.634 75.8203 753.608 75.8827 753.557 75.934C753.513 75.978 753.454 76 753.381 76H752.622ZM757.429 76.11C756.871 76.11 756.406 76.0037 756.032 75.791C755.658 75.5783 755.372 75.285 755.174 74.911C754.976 74.5297 754.866 74.097 754.844 73.613C754.836 73.4883 754.833 73.3307 754.833 73.14C754.833 72.942 754.836 72.7843 754.844 72.667C754.866 72.1757 754.976 71.743 755.174 71.369C755.379 70.995 755.669 70.7017 756.043 70.489C756.417 70.2763 756.879 70.17 757.429 70.17C757.979 70.17 758.441 70.2763 758.815 70.489C759.189 70.7017 759.475 70.995 759.673 71.369C759.878 71.743 759.992 72.1757 760.014 72.667C760.021 72.7843 760.025 72.942 760.025 73.14C760.025 73.3307 760.021 73.4883 760.014 73.613C759.992 74.097 759.882 74.5297 759.684 74.911C759.486 75.285 759.2 75.5783 758.826 75.791C758.452 76.0037 757.986 76.11 757.429 76.11ZM757.429 75.263C757.883 75.263 758.246 75.12 758.518 74.834C758.789 74.5407 758.936 74.1153 758.958 73.558C758.965 73.448 758.969 73.3087 758.969 73.14C758.969 72.9713 758.965 72.832 758.958 72.722C758.936 72.1647 758.789 71.743 758.518 71.457C758.246 71.1637 757.883 71.017 757.429 71.017C756.974 71.017 756.607 71.1637 756.329 71.457C756.057 71.743 755.914 72.1647 755.9 72.722C755.892 72.832 755.889 72.9713 755.889 73.14C755.889 73.3087 755.892 73.448 755.9 73.558C755.914 74.1153 756.057 74.5407 756.329 74.834C756.607 75.12 756.974 75.263 757.429 75.263ZM766.878 76.11C766.468 76.11 766.116 76.0587 765.822 75.956C765.529 75.8533 765.291 75.7287 765.107 75.582C764.924 75.4353 764.785 75.2887 764.689 75.142C764.601 74.9953 764.554 74.878 764.546 74.79C764.539 74.7093 764.565 74.647 764.623 74.603C764.682 74.559 764.741 74.537 764.799 74.537H765.283C765.327 74.537 765.36 74.5443 765.382 74.559C765.412 74.5663 765.448 74.5957 765.492 74.647C765.588 74.7497 765.694 74.8523 765.811 74.955C765.929 75.0577 766.072 75.142 766.24 75.208C766.416 75.274 766.633 75.307 766.889 75.307C767.263 75.307 767.571 75.2373 767.813 75.098C768.055 74.9513 768.176 74.7387 768.176 74.46C768.176 74.2767 768.125 74.13 768.022 74.02C767.927 73.91 767.751 73.811 767.494 73.723C767.245 73.635 766.9 73.5433 766.46 73.448C766.02 73.3453 765.672 73.2207 765.415 73.074C765.159 72.92 764.975 72.7403 764.865 72.535C764.755 72.3223 764.7 72.084 764.7 71.82C764.7 71.5487 764.781 71.2883 764.942 71.039C765.104 70.7823 765.338 70.5733 765.646 70.412C765.962 70.2507 766.354 70.17 766.823 70.17C767.205 70.17 767.531 70.2177 767.802 70.313C768.074 70.4083 768.297 70.5293 768.473 70.676C768.649 70.8153 768.781 70.9547 768.869 71.094C768.957 71.2333 769.005 71.3507 769.012 71.446C769.02 71.5193 768.998 71.5817 768.946 71.633C768.895 71.677 768.836 71.699 768.77 71.699H768.308C768.257 71.699 768.213 71.688 768.176 71.666C768.147 71.644 768.118 71.6183 768.088 71.589C768.015 71.4937 767.927 71.3983 767.824 71.303C767.729 71.2077 767.601 71.1307 767.439 71.072C767.285 71.006 767.08 70.973 766.823 70.973C766.457 70.973 766.182 71.05 765.998 71.204C765.815 71.358 765.723 71.5523 765.723 71.787C765.723 71.9263 765.764 72.051 765.844 72.161C765.925 72.271 766.079 72.37 766.306 72.458C766.534 72.546 766.871 72.6413 767.318 72.744C767.802 72.8393 768.184 72.9677 768.462 73.129C768.741 73.2903 768.939 73.4773 769.056 73.69C769.174 73.9027 769.232 74.1483 769.232 74.427C769.232 74.735 769.141 75.0173 768.957 75.274C768.781 75.5307 768.517 75.736 768.165 75.89C767.821 76.0367 767.392 76.11 766.878 76.11ZM773.183 76.11C772.427 76.11 771.826 75.879 771.379 75.417C770.931 74.9477 770.686 74.3097 770.642 73.503C770.634 73.4077 770.631 73.2867 770.631 73.14C770.631 72.986 770.634 72.8613 770.642 72.766C770.671 72.2453 770.792 71.7907 771.005 71.402C771.217 71.006 771.507 70.7017 771.874 70.489C772.248 70.2763 772.684 70.17 773.183 70.17C773.74 70.17 774.206 70.2873 774.58 70.522C774.961 70.7567 775.251 71.0903 775.449 71.523C775.647 71.9557 775.746 72.4617 775.746 73.041V73.228C775.746 73.3087 775.72 73.371 775.669 73.415C775.625 73.459 775.566 73.481 775.493 73.481H771.687C771.687 73.4883 771.687 73.503 771.687 73.525C771.687 73.547 771.687 73.5653 771.687 73.58C771.701 73.8807 771.767 74.163 771.885 74.427C772.002 74.6837 772.171 74.8927 772.391 75.054C772.611 75.2153 772.875 75.296 773.183 75.296C773.447 75.296 773.667 75.2557 773.843 75.175C774.019 75.0943 774.162 75.0063 774.272 74.911C774.382 74.8083 774.455 74.7313 774.492 74.68C774.558 74.5847 774.609 74.5297 774.646 74.515C774.682 74.493 774.741 74.482 774.822 74.482H775.35C775.423 74.482 775.482 74.504 775.526 74.548C775.577 74.5847 775.599 74.6397 775.592 74.713C775.584 74.823 775.526 74.9587 775.416 75.12C775.306 75.274 775.148 75.428 774.943 75.582C774.737 75.736 774.488 75.8643 774.195 75.967C773.901 76.0623 773.564 76.11 773.183 76.11ZM771.687 72.722H774.701V72.689C774.701 72.359 774.638 72.0657 774.514 71.809C774.396 71.5523 774.224 71.3507 773.997 71.204C773.769 71.05 773.498 70.973 773.183 70.973C772.867 70.973 772.596 71.05 772.369 71.204C772.149 71.3507 771.98 71.5523 771.863 71.809C771.745 72.0657 771.687 72.359 771.687 72.689V72.722ZM777.714 76C777.641 76 777.578 75.978 777.527 75.934C777.483 75.8827 777.461 75.8203 777.461 75.747V70.533C777.461 70.4597 777.483 70.401 777.527 70.357C777.578 70.3057 777.641 70.28 777.714 70.28H778.231C778.304 70.28 778.363 70.3057 778.407 70.357C778.458 70.401 778.484 70.4597 778.484 70.533V71.017C778.675 70.7677 778.913 70.566 779.199 70.412C779.492 70.2507 779.866 70.17 780.321 70.17C780.798 70.17 781.201 70.2763 781.531 70.489C781.868 70.6943 782.121 70.984 782.29 71.358C782.459 71.7247 782.543 72.1537 782.543 72.645V75.747C782.543 75.8203 782.521 75.8827 782.477 75.934C782.433 75.978 782.374 76 782.301 76H781.751C781.678 76 781.615 75.978 781.564 75.934C781.52 75.8827 781.498 75.8203 781.498 75.747V72.7C781.498 72.1867 781.373 71.787 781.124 71.501C780.875 71.2077 780.508 71.061 780.024 71.061C779.569 71.061 779.203 71.2077 778.924 71.501C778.653 71.787 778.517 72.1867 778.517 72.7V75.747C778.517 75.8203 778.491 75.8827 778.44 75.934C778.396 75.978 778.337 76 778.264 76H777.714ZM786.622 76.11C786.219 76.11 785.87 76.0403 785.577 75.901C785.284 75.7543 785.042 75.56 784.851 75.318C784.668 75.0687 784.528 74.7863 784.433 74.471C784.345 74.1557 784.294 73.822 784.279 73.47C784.272 73.3527 784.268 73.2427 784.268 73.14C784.268 73.0373 784.272 72.9273 784.279 72.81C784.294 72.4653 784.345 72.1353 784.433 71.82C784.528 71.5047 784.668 71.2223 784.851 70.973C785.042 70.7237 785.284 70.5293 785.577 70.39C785.87 70.2433 786.219 70.17 786.622 70.17C787.055 70.17 787.414 70.247 787.7 70.401C787.986 70.555 788.221 70.7457 788.404 70.973V68.443C788.404 68.3697 788.426 68.311 788.47 68.267C788.521 68.2157 788.584 68.19 788.657 68.19H789.185C789.258 68.19 789.317 68.2157 789.361 68.267C789.412 68.311 789.438 68.3697 789.438 68.443V75.747C789.438 75.8203 789.412 75.8827 789.361 75.934C789.317 75.978 789.258 76 789.185 76H788.69C788.609 76 788.547 75.978 788.503 75.934C788.459 75.8827 788.437 75.8203 788.437 75.747V75.285C788.254 75.5197 788.015 75.7177 787.722 75.879C787.429 76.033 787.062 76.11 786.622 76.11ZM786.853 75.219C787.22 75.219 787.513 75.1347 787.733 74.966C787.953 74.7973 788.118 74.5847 788.228 74.328C788.338 74.064 788.397 73.7963 788.404 73.525C788.411 73.4077 788.415 73.2683 788.415 73.107C788.415 72.9383 788.411 72.7953 788.404 72.678C788.397 72.4213 788.334 72.1683 788.217 71.919C788.107 71.6697 787.938 71.4643 787.711 71.303C787.491 71.1417 787.205 71.061 786.853 71.061C786.479 71.061 786.182 71.1453 785.962 71.314C785.742 71.4753 785.584 71.6917 785.489 71.963C785.394 72.227 785.339 72.513 785.324 72.821C785.317 73.0337 785.317 73.2463 785.324 73.459C785.339 73.767 785.394 74.0567 785.489 74.328C785.584 74.592 785.742 74.8083 785.962 74.977C786.182 75.1383 786.479 75.219 786.853 75.219Z" fill="#B1B1B3"/>
</svg>
