<svg width="456" height="80" viewBox="0 0 456 80" fill="none" xmlns="http://www.w3.org/2000/svg">
<rect x="0.5" y="0.5" width="455" height="79" rx="4.5" stroke="#8A38F5" stroke-dasharray="10 5"/>
<g filter="url(#filter0_d_1_242)">
<rect x="20" y="20" width="40" height="40" rx="20" fill="#F5F5F5"/>
<path fill-rule="evenodd" clip-rule="evenodd" d="M40.7071 33.3964C40.3166 33.0059 39.6834 33.0059 39.2929 33.3964L34.2197 38.4696L33.6893 39L34.75 40.0606L35.2803 39.5303L39.25 35.5606V46.25V47H40.75V46.25V35.5606L44.7197 39.5303L45.25 40.0606L46.3107 39L45.7803 38.4696L40.7071 33.3964Z" fill="#808080"/>
</g>
<rect x="95.2" y="20" width="40" height="40" rx="20" fill="#8A38F5"/>
<path fill-rule="evenodd" clip-rule="evenodd" d="M115.907 33.3964C115.517 33.0059 114.883 33.0059 114.493 33.3964L109.42 38.4696L108.889 39L109.95 40.0606L110.48 39.5303L114.45 35.5606V46.25V47H115.95V46.25V35.5606L119.92 39.5303L120.45 40.0606L121.511 39L120.98 38.4696L115.907 33.3964Z" fill="#FCFCFC"/>
<rect x="170.4" y="20" width="40" height="40" rx="20" fill="#8A38F5"/>
<path d="M184.4 38.8C184.4 37.1198 184.4 36.2798 184.727 35.638C185.015 35.0735 185.474 34.6146 186.038 34.327C186.68 34 187.52 34 189.2 34H191.6C193.28 34 194.12 34 194.762 34.327C195.327 34.6146 195.786 35.0735 196.073 35.638C196.4 36.2798 196.4 37.1198 196.4 38.8V41.2C196.4 42.8802 196.4 43.7202 196.073 44.362C195.786 44.9265 195.327 45.3854 194.762 45.673C194.12 46 193.28 46 191.6 46H189.2C187.52 46 186.68 46 186.038 45.673C185.474 45.3854 185.015 44.9265 184.727 44.362C184.4 43.7202 184.4 42.8802 184.4 41.2V38.8Z" fill="#FCFCFC"/>
<g filter="url(#filter1_d_1_242)">
<rect x="245.6" y="20" width="40" height="40" rx="20" fill="url(#paint0_radial_1_242)" shape-rendering="crispEdges"/>
<path fill-rule="evenodd" clip-rule="evenodd" d="M266.307 33.3964C265.917 33.0059 265.283 33.0059 264.893 33.3964L259.82 38.4696L259.289 39L260.35 40.0606L260.88 39.5303L264.85 35.5606V46.25V47H266.35V46.25V35.5606L270.32 39.5303L270.85 40.0606L271.911 39L271.38 38.4696L266.307 33.3964Z" fill="#F5F5F5"/>
</g>
<g filter="url(#filter2_d_1_242)">
<rect x="320.8" y="20" width="40" height="40" rx="20" fill="#F5F5F5"/>
<path d="M340.8 32.8658C341.194 32.8658 341.513 33.1852 341.513 33.5792L341.513 39.2866L347.221 39.2866C347.615 39.2866 347.934 39.606 347.934 40C347.934 40.394 347.615 40.7134 347.221 40.7134L341.513 40.7126L341.513 46.4208C341.513 46.8148 341.194 47.1342 340.8 47.1342C340.406 47.1342 340.087 46.8148 340.087 46.4208L340.087 40.7126L334.379 40.7134C333.985 40.7134 333.666 40.394 333.666 40C333.666 39.606 333.985 39.2866 334.379 39.2866L340.087 39.2866L340.087 33.5792C340.087 33.1852 340.406 32.8658 340.8 32.8658Z" fill="#808080"/>
</g>
<g filter="url(#filter3_d_1_242)">
<rect x="396" y="20" width="40" height="40" rx="20" fill="#EDE9FE"/>
<path d="M423.134 39.9999C423.134 40.3939 422.815 40.7133 422.421 40.7133L416.713 40.7133L416.713 46.4206C416.713 46.8146 416.394 47.134 416 47.134C415.606 47.134 415.287 46.8146 415.287 46.4206L415.287 40.7133L409.579 40.7133C409.185 40.7133 408.866 40.3939 408.866 39.9999C408.866 39.6059 409.185 39.2865 409.579 39.2865L415.287 39.2865L415.287 33.5791C415.287 33.1851 415.606 32.8657 416 32.8657C416.394 32.8657 416.713 33.1851 416.713 33.5791L416.713 39.2865L422.421 39.2865C422.815 39.2865 423.134 39.6059 423.134 39.9999Z" fill="#808080"/>
</g>
<defs>
<filter id="filter0_d_1_242" x="19" y="19" width="42" height="42" filterUnits="userSpaceOnUse" color-interpolation-filters="sRGB">
<feFlood flood-opacity="0" result="BackgroundImageFix"/>
<feColorMatrix in="SourceAlpha" type="matrix" values="0 0 0 0 0 0 0 0 0 0 0 0 0 0 0 0 0 0 127 0" result="hardAlpha"/>
<feMorphology radius="1" operator="dilate" in="SourceAlpha" result="effect1_dropShadow_1_242"/>
<feOffset/>
<feComposite in2="hardAlpha" operator="out"/>
<feColorMatrix type="matrix" values="0 0 0 0 1 0 0 0 0 1 0 0 0 0 1 0 0 0 1 0"/>
<feBlend mode="normal" in2="BackgroundImageFix" result="effect1_dropShadow_1_242"/>
<feBlend mode="normal" in="SourceGraphic" in2="effect1_dropShadow_1_242" result="shape"/>
</filter>
<filter id="filter1_d_1_242" x="244.6" y="19" width="42" height="42" filterUnits="userSpaceOnUse" color-interpolation-filters="sRGB">
<feFlood flood-opacity="0" result="BackgroundImageFix"/>
<feColorMatrix in="SourceAlpha" type="matrix" values="0 0 0 0 0 0 0 0 0 0 0 0 0 0 0 0 0 0 127 0" result="hardAlpha"/>
<feMorphology radius="1" operator="dilate" in="SourceAlpha" result="effect1_dropShadow_1_242"/>
<feOffset/>
<feComposite in2="hardAlpha" operator="out"/>
<feColorMatrix type="matrix" values="0 0 0 0 1 0 0 0 0 1 0 0 0 0 1 0 0 0 1 0"/>
<feBlend mode="normal" in2="BackgroundImageFix" result="effect1_dropShadow_1_242"/>
<feBlend mode="normal" in="SourceGraphic" in2="effect1_dropShadow_1_242" result="shape"/>
</filter>
<filter id="filter2_d_1_242" x="319.8" y="19" width="42" height="42" filterUnits="userSpaceOnUse" color-interpolation-filters="sRGB">
<feFlood flood-opacity="0" result="BackgroundImageFix"/>
<feColorMatrix in="SourceAlpha" type="matrix" values="0 0 0 0 0 0 0 0 0 0 0 0 0 0 0 0 0 0 127 0" result="hardAlpha"/>
<feMorphology radius="1" operator="dilate" in="SourceAlpha" result="effect1_dropShadow_1_242"/>
<feOffset/>
<feComposite in2="hardAlpha" operator="out"/>
<feColorMatrix type="matrix" values="0 0 0 0 1 0 0 0 0 1 0 0 0 0 1 0 0 0 1 0"/>
<feBlend mode="normal" in2="BackgroundImageFix" result="effect1_dropShadow_1_242"/>
<feBlend mode="normal" in="SourceGraphic" in2="effect1_dropShadow_1_242" result="shape"/>
</filter>
<filter id="filter3_d_1_242" x="395" y="19" width="42" height="42" filterUnits="userSpaceOnUse" color-interpolation-filters="sRGB">
<feFlood flood-opacity="0" result="BackgroundImageFix"/>
<feColorMatrix in="SourceAlpha" type="matrix" values="0 0 0 0 0 0 0 0 0 0 0 0 0 0 0 0 0 0 127 0" result="hardAlpha"/>
<feMorphology radius="1" operator="dilate" in="SourceAlpha" result="effect1_dropShadow_1_242"/>
<feOffset/>
<feComposite in2="hardAlpha" operator="out"/>
<feColorMatrix type="matrix" values="0 0 0 0 1 0 0 0 0 1 0 0 0 0 1 0 0 0 1 0"/>
<feBlend mode="normal" in2="BackgroundImageFix" result="effect1_dropShadow_1_242"/>
<feBlend mode="normal" in="SourceGraphic" in2="effect1_dropShadow_1_242" result="shape"/>
</filter>
<radialGradient id="paint0_radial_1_242" cx="0" cy="0" r="1" gradientTransform="matrix(-0.011016 48.3173 -66.2186 -0.027329 265.611 11.6827)" gradientUnits="userSpaceOnUse">
<stop offset="0.197115" stop-color="#3C94FF" stop-opacity="0.78"/>
<stop offset="1" stop-color="#F584FF"/>
</radialGradient>
</defs>
</svg>
