<svg width="294" height="294" viewBox="0 0 294 294" fill="none" xmlns="http://www.w3.org/2000/svg">
<rect width="294" height="294" rx="20" fill="#202020"/>
<path d="M130.333 197C139.533 197 147 189.533 147 180.333V163.667H130.333C121.133 163.667 113.667 171.133 113.667 180.333C113.667 189.533 121.133 197 130.333 197Z" fill="#0ACF83"/>
<path d="M113.667 147C113.667 137.8 121.133 130.333 130.333 130.333H147V163.667H130.333C121.133 163.667 113.667 156.2 113.667 147Z" fill="#A259FF"/>
<path d="M113.667 113.667C113.667 104.467 121.133 97 130.333 97H147V130.333H130.333C121.133 130.333 113.667 122.867 113.667 113.667Z" fill="#F24E1E"/>
<path d="M147 97H163.667C172.867 97 180.333 104.467 180.333 113.667C180.333 122.867 172.867 130.333 163.667 130.333H147V97Z" fill="#FF7262"/>
<path d="M180.333 147C180.333 156.2 172.867 163.667 163.667 163.667C154.467 163.667 147 156.2 147 147C147 137.8 154.467 130.333 163.667 130.333C172.867 130.333 180.333 137.8 180.333 147Z" fill="#1ABCFE"/>
</svg>
