<svg width="294" height="294" viewBox="0 0 294 294" fill="none" xmlns="http://www.w3.org/2000/svg">
<rect width="294" height="294" rx="20" fill="#0E0E0E"/>
<path d="M147.209 141.196C147.313 141.095 147.374 140.958 147.379 140.813H147.381C147.451 138.053 146.813 135.897 145.484 134.405C144.081 132.829 141.932 132.02 139.097 132C136.267 132 133.828 132.884 132.045 134.557C130.359 136.141 129.408 138.332 129.365 140.728C129.293 144.86 131.627 147.487 134.23 150.03C136.245 152.104 136.615 153.129 136.595 154.298C136.57 155.651 135.926 156.428 134.827 156.428C134.374 156.428 134.01 156.287 133.749 156.01C133.341 155.582 133.161 154.809 133.227 153.774C133.238 153.705 133.234 153.634 133.216 153.566C133.208 153.537 133.197 153.51 133.184 153.483C133.167 153.447 133.145 153.413 133.119 153.382C133.068 153.318 133.003 153.265 132.928 153.228C132.854 153.191 132.772 153.172 132.689 153.171H126.739C126.594 153.17 126.455 153.226 126.35 153.327C126.246 153.428 126.185 153.566 126.18 153.711C126.04 156.579 126.709 158.802 128.167 160.318C129.603 161.809 131.763 162.565 134.591 162.565C140.127 162.565 143.765 159.106 143.86 153.755C143.918 150.446 142.711 147.943 139.698 145.117C137.41 142.898 136.606 141.606 136.631 140.184C136.654 138.91 137.42 138.18 138.608 138.18C139.796 138.18 140.377 138.997 140.377 140.675C140.377 141.047 140.691 141.353 141.068 141.353H146.821C146.966 141.353 147.105 141.297 147.209 141.196Z" fill="#43B113"/>
<path d="M129.259 146.289V146.276H129.256C129.261 145.999 129.068 145.745 128.795 145.71C128.772 145.704 128.746 145.704 128.722 145.704H118.197V145.717C117.925 145.749 117.704 145.934 117.65 146.177L116.554 150.939C116.539 151.003 116.54 151.07 116.555 151.134C116.571 151.198 116.6 151.257 116.643 151.308C116.698 151.373 116.766 151.425 116.843 151.46C116.92 151.496 117.004 151.514 117.089 151.514H118.693C118.785 151.514 118.906 151.527 118.95 151.584C118.992 151.639 118.989 151.762 118.945 151.921C118.633 153.066 117.892 154.32 116.971 155.045C116.049 155.769 114.526 156.203 113.46 155.549C112.257 154.811 112.053 153.029 112.003 151.761C111.898 149.039 112.431 146.306 113.477 143.789C114.226 141.988 115.638 138.738 118.032 138.738C119.389 138.738 120.072 139.858 120.123 142.161C120.124 142.212 120.135 142.263 120.154 142.31C120.175 142.363 120.206 142.411 120.247 142.452C120.324 142.53 120.428 142.575 120.538 142.578H126.783C126.929 142.578 127.069 142.521 127.174 142.419C127.278 142.317 127.339 142.178 127.342 142.032C127.338 138.703 126.578 136.16 125.081 134.471C123.664 132.874 121.629 132.074 119.036 132.097C110.512 132.097 106.085 140.709 105.148 149.244C104.629 153.79 105.486 157.563 107.563 159.868C109.134 161.612 110.986 162.496 113.733 162.496C116.79 162.496 119.079 161.817 120.935 160.362C123.117 158.654 124.77 155.808 125.99 151.668C126.004 151.622 126.032 151.582 126.07 151.553C126.108 151.524 126.155 151.509 126.202 151.509H127.526C127.836 151.509 128.105 151.312 128.164 151.043L129.259 146.289Z" fill="#43B113"/>
<path fill-rule="evenodd" clip-rule="evenodd" d="M165.209 161.559L165.246 133.099C165.247 133.028 165.234 132.957 165.208 132.891C165.196 132.861 165.181 132.833 165.164 132.806C165.143 132.773 165.119 132.742 165.091 132.714C165.068 132.691 165.043 132.67 165.016 132.651C164.984 132.629 164.951 132.611 164.915 132.596C164.849 132.569 164.779 132.556 164.707 132.556H155.805C155.505 132.556 155.374 132.814 155.288 132.984L142.398 161.384V161.389L142.393 161.397C142.25 161.746 142.521 162.12 142.899 162.12H149.122C149.458 162.12 149.682 162.018 149.791 161.806L151.026 158.836C151.178 158.44 151.207 158.403 151.639 158.403H157.585C157.998 158.403 158.006 158.411 158 158.816L157.867 161.577C157.866 161.607 157.869 161.638 157.873 161.667C157.879 161.708 157.89 161.747 157.906 161.785C157.932 161.851 157.972 161.911 158.022 161.961C158.072 162.012 158.132 162.052 158.197 162.079C158.263 162.106 158.334 162.12 158.405 162.12H164.692C164.77 162.121 164.847 162.105 164.918 162.073C164.989 162.041 165.052 161.994 165.103 161.934C165.146 161.883 165.179 161.823 165.197 161.758C165.215 161.693 165.219 161.625 165.209 161.559ZM154.195 152.057C154.148 152.057 154.101 152.055 154.054 152.052C154.033 152.05 154.011 152.043 153.992 152.033C153.973 152.022 153.957 152.007 153.944 151.989C153.938 151.98 153.933 151.971 153.929 151.962C153.925 151.951 153.921 151.94 153.919 151.929C153.917 151.917 153.917 151.905 153.917 151.892C153.918 151.883 153.92 151.873 153.922 151.864C153.929 151.841 153.938 151.812 153.949 151.779C153.957 151.755 153.966 151.728 153.977 151.699L158.435 140.667C158.475 140.558 158.522 140.452 158.574 140.348C158.646 140.199 158.734 140.189 158.761 140.299C158.785 140.391 158.25 151.627 158.25 151.627C158.208 152.048 158.189 152.065 157.774 152.1L154.199 152.059H154.191L154.195 152.057Z" fill="#43B113"/>
<path fill-rule="evenodd" clip-rule="evenodd" d="M173.165 132.556H177.891L177.896 132.553C184.867 132.553 188.347 135.713 188.237 141.948C188.109 149.254 183.657 154.623 176.953 155.861C176 156.036 175.031 156.105 174.063 156.1L170.827 156.085C170.773 156.085 170.722 156.106 170.684 156.142C170.646 156.18 170.624 156.23 170.623 156.283C170.622 156.319 170.632 156.354 170.65 156.385C170.669 156.415 170.696 156.44 170.728 156.456L171.122 156.661L172.141 157.193L173.165 157.726C173.271 157.781 173.376 157.836 173.483 157.891C173.709 158.009 173.796 158.205 173.745 158.457L173.028 161.694C172.969 161.964 172.752 162.12 172.434 162.12H166.527C166.442 162.12 166.359 162.102 166.282 162.066C166.205 162.03 166.137 161.979 166.082 161.914C166.04 161.863 166.009 161.804 165.994 161.74C165.978 161.675 165.978 161.609 165.992 161.544L172.57 132.986C172.635 132.689 172.915 132.556 173.165 132.556ZM176.156 149.551H176.282C179.385 149.425 181.076 145.759 181.138 142.203C181.174 140.148 180.424 138.944 179.079 138.904H174.758C174.706 138.904 174.656 138.924 174.618 138.96C174.581 138.997 174.559 139.047 174.558 139.099C174.557 139.135 174.566 139.171 174.584 139.202C174.602 139.233 174.629 139.258 174.66 139.274C174.66 139.274 177.393 140.715 177.58 140.819C177.727 140.899 177.729 141.036 177.681 141.274C177.681 141.279 177.263 143.117 176.822 145.055C176.33 147.218 175.811 149.506 175.814 149.51C175.822 149.52 175.872 149.551 176.156 149.551Z" fill="#43B113"/>
</svg>
