<svg width="294" height="294" viewBox="0 0 294 294" fill="none" xmlns="http://www.w3.org/2000/svg">
<rect width="294" height="294" rx="20" fill="#E5E5E5"/>
<g clip-path="url(#clip0_3_156)">
<path d="M163.477 137.008H180.895V140.223H173.985V157.137H170.53V140.223H163.477V137.008Z" fill="#1D1D1D"/>
<path d="M134.831 137.008V140.223H120.869V145.395H132.097V148.61H120.869V153.922H134.831V157.137H117.414V140.223H117.412V137.008H134.831Z" fill="#1D1D1D"/>
<path d="M143.528 137.017H139.007L155.201 157.145H159.736L151.637 147.088L159.723 137.032L155.201 137.039L149.374 144.277L143.528 137.017Z" fill="#1D1D1D"/>
<path d="M148.168 151.395L145.903 148.579L138.994 157.161H143.528L148.168 151.395Z" fill="#1D1D1D"/>
<path fill-rule="evenodd" clip-rule="evenodd" d="M117.535 157.137L101.319 137H97V157.128H100.455V141.302L113.195 157.137H117.535Z" fill="#1D1D1D"/>
<path d="M181.672 157.014C181.419 157.014 181.204 156.926 181.023 156.751C180.843 156.576 180.754 156.363 180.756 156.112C180.754 155.867 180.843 155.658 181.023 155.482C181.204 155.307 181.419 155.219 181.672 155.219C181.915 155.219 182.128 155.307 182.308 155.482C182.491 155.658 182.582 155.867 182.585 156.112C182.582 156.278 182.54 156.43 182.456 156.566C182.369 156.705 182.259 156.813 182.121 156.892C181.985 156.972 181.836 157.014 181.672 157.014Z" fill="#1D1D1D"/>
<path d="M187.568 148.534H189.099V154.433C189.097 154.975 188.98 155.438 188.751 155.828C188.519 156.218 188.198 156.516 187.786 156.725C187.377 156.933 186.897 157.039 186.351 157.039C185.852 157.039 185.406 156.949 185.008 156.774C184.61 156.599 184.294 156.336 184.062 155.99C183.828 155.644 183.713 155.212 183.713 154.696H185.246C185.249 154.922 185.3 155.118 185.398 155.281C185.497 155.445 185.632 155.57 185.806 155.657C185.981 155.745 186.183 155.789 186.41 155.789C186.656 155.789 186.866 155.738 187.037 155.634C187.208 155.533 187.339 155.381 187.43 155.178C187.519 154.977 187.566 154.728 187.568 154.433V148.534Z" fill="#1D1D1D"/>
<path d="M195.399 150.841C195.361 150.483 195.198 150.204 194.912 150.006C194.624 149.805 194.252 149.706 193.795 149.706C193.475 149.706 193.199 149.755 192.969 149.849C192.74 149.946 192.562 150.075 192.44 150.239C192.318 150.403 192.257 150.59 192.253 150.8C192.253 150.975 192.295 151.127 192.377 151.254C192.459 151.383 192.569 151.492 192.711 151.579C192.852 151.669 193.009 151.743 193.18 151.803C193.353 151.863 193.526 151.914 193.699 151.955L194.498 152.151C194.818 152.225 195.13 152.324 195.427 152.451C195.724 152.576 195.993 152.735 196.23 152.926C196.466 153.118 196.654 153.348 196.792 153.618C196.93 153.888 197 154.204 197 154.569C197 155.06 196.874 155.491 196.618 155.865C196.363 156.236 195.996 156.527 195.514 156.737C195.034 156.945 194.453 157.051 193.77 157.051C193.109 157.051 192.534 156.949 192.049 156.746C191.562 156.546 191.183 156.25 190.909 155.863C190.635 155.475 190.488 155.002 190.467 154.446H191.984C192.005 154.737 192.098 154.979 192.257 155.175C192.419 155.369 192.63 155.512 192.887 155.609C193.147 155.704 193.437 155.752 193.758 155.752C194.093 155.752 194.388 155.701 194.643 155.602C194.895 155.503 195.094 155.365 195.237 155.185C195.383 155.007 195.455 154.797 195.457 154.557C195.455 154.338 195.389 154.156 195.263 154.013C195.134 153.87 194.956 153.75 194.729 153.653C194.5 153.556 194.233 153.468 193.929 153.392L192.96 153.148C192.26 152.97 191.705 152.7 191.3 152.338C190.893 151.976 190.691 151.496 190.691 150.894C190.691 150.4 190.827 149.967 191.101 149.595C191.372 149.224 191.745 148.936 192.215 148.73C192.688 148.523 193.222 148.421 193.816 148.421C194.42 148.421 194.949 148.523 195.406 148.73C195.862 148.936 196.221 149.222 196.48 149.586C196.74 149.951 196.876 150.368 196.883 150.841H195.399Z" fill="#1D1D1D"/>
</g>
<defs>
<clipPath id="clip0_3_156">
<rect width="100" height="20.3046" fill="white" transform="translate(97 137)"/>
</clipPath>
</defs>
</svg>
