<svg width="294" height="294" viewBox="0 0 294 294" fill="none" xmlns="http://www.w3.org/2000/svg">
<rect width="294" height="294" rx="20" fill="#003F4A"/>
<path d="M147 117.008C133.666 117.008 125.333 123.673 121.999 137.002C127 130.337 132.833 127.838 139.5 129.504C143.304 130.454 146.022 133.214 149.032 136.268C153.934 141.242 159.607 146.999 172.001 146.999C185.333 146.999 193.667 140.334 197 127.004C192.001 133.669 186.167 136.169 179.5 134.503C175.697 133.553 172.978 130.793 169.969 127.74C165.067 122.765 159.392 117.008 147 117.008ZM121.999 146.999C108.667 146.999 100.332 153.664 97 166.994C101.999 160.329 107.833 157.83 114.5 159.497C118.303 160.448 121.022 163.207 124.031 166.259C128.933 171.233 134.608 176.992 147 176.992C160.334 176.992 168.667 170.327 172.001 156.997C167 163.662 161.167 166.162 154.5 164.495C150.696 163.546 147.978 160.785 144.968 157.732C140.066 152.758 134.393 146.999 121.999 146.999Z" fill="#06B6D4"/>
</svg>
